<svg width="20" height="20" viewBox="0 0 20 20" fill="none" xmlns="http://www.w3.org/2000/svg">
<path d="M0.624005 6.71948C0.189271 4.65833 0.941233 2.5356 2.23075 0.730278C2.45135 0.421442 2.91108 0.423631 3.12872 0.734555L5.41415 3.99944C5.65928 4.34964 5.73234 4.77504 5.64198 5.16903C5.60865 5.31436 5.56682 5.46198 5.52069 5.62476C5.51826 5.63332 5.51582 5.64192 5.51338 5.65056C5.46578 5.81859 5.41413 6.00254 5.37383 6.1894C5.29339 6.56235 5.24636 6.99567 5.37903 7.44278C6.43791 11.0113 9.30921 13.7971 12.9751 14.7136C13.575 14.8636 14.1478 14.6389 14.5445 14.4558C15.0076 14.242 15.5631 14.2797 16.0006 14.5859L19.2654 16.8713C19.5764 17.0889 19.5786 17.5487 19.2697 17.7692C17.4644 19.0588 15.3417 19.8107 13.2805 19.376C6.94775 18.0403 1.9597 13.0523 0.624005 6.71948Z" stroke="#180F45" stroke-linecap="round" stroke-linejoin="round"/>
<path d="M19.5 9C19.5 7 18.2 3.1 13 3.5M13 3.5L15.5 6.5M13 3.5L15.5 0.5" stroke="#180F45" stroke-linecap="round" stroke-linejoin="round"/>
</svg>
