<svg width="20" height="20" viewBox="0 0 20 20" fill="none" xmlns="http://www.w3.org/2000/svg">
<mask id="path-1-inside-1" fill="white">
<path d="M7.33878 1C7.32746 1 7.31614 1 7.30553 1C3.26789 1.01381 0 3.58648 0 6.75727C0 8.70131 1.2282 10.4201 3.10941 11.4629V14.782L4.91422 13.2158C4.2039 11.5109 4.32629 9.43023 5.36842 7.89171C6.94188 5.55596 9.7492 4.35174 12.4603 4.32558C12.9902 4.31613 13.5215 4.34738 14.0479 4.41933C14.0422 4.40916 14.0366 4.39826 14.0302 4.38808C13.9566 4.2609 13.8774 4.13517 13.7925 4.01308C13.7642 3.97238 13.7352 3.93169 13.7062 3.89172C13.6772 3.85174 13.6468 3.81177 13.6163 3.7718C13.5859 3.73256 13.5548 3.69331 13.5229 3.65407C13.4911 3.61483 13.4586 3.57631 13.426 3.53852C13.3928 3.5 13.3595 3.46221 13.3256 3.42442C13.2916 3.38663 13.2569 3.34956 13.2216 3.3125C13.1862 3.27544 13.1508 3.2391 13.114 3.20276C13.0051 3.09375 12.8912 2.98837 12.773 2.8859C12.6549 2.78343 12.5317 2.68459 12.4037 2.58939C11.9792 2.2718 11.5052 1.99346 10.993 1.76235C10.8904 1.71584 10.7864 1.67151 10.681 1.62936C9.67915 1.22674 8.54222 1 7.33878 1ZM12.6605 5.21802C12.6343 5.21802 12.6075 5.21875 12.5813 5.21875C8.56486 5.25218 5.32102 7.81686 5.32102 10.976C5.32102 14.1352 8.56415 16.6999 12.5813 16.7326C12.6075 16.7326 12.6336 16.7333 12.6605 16.7333C12.7872 16.7333 12.9138 16.7311 13.039 16.726C13.4147 16.7108 13.7833 16.6737 14.1427 16.6163L16.8906 19V15.6817C17.0668 15.5843 17.2373 15.4804 17.4021 15.3706C17.4566 15.3343 17.5111 15.2972 17.5641 15.2594C17.8846 15.0334 18.1796 14.7856 18.4449 14.5196C18.4895 14.4753 18.5327 14.4302 18.5751 14.3852C18.66 14.2943 18.7421 14.2013 18.8206 14.1068C18.8595 14.0596 18.8984 14.0116 18.9359 13.9629C18.9734 13.9142 19.0102 13.8656 19.0456 13.8169C19.081 13.7674 19.1163 13.718 19.1503 13.6679C19.1843 13.6177 19.2175 13.5669 19.2494 13.516C19.3774 13.3118 19.4906 13.101 19.5875 12.8837C19.6364 12.7754 19.6809 12.6657 19.7212 12.5538C19.7418 12.4978 19.7609 12.4419 19.7786 12.3859C19.833 12.2166 19.8776 12.0451 19.9123 11.8699C19.9583 11.6374 19.9873 11.3997 19.9965 11.1584C19.9986 11.0981 20 11.0378 20 10.9767C20 10.8772 19.9965 10.7783 19.9901 10.6802C19.9455 9.99346 19.7481 9.33794 19.4227 8.73547C19.26 8.43387 19.0661 8.14608 18.8433 7.87355C17.5386 6.27689 15.257 5.21948 12.6605 5.21948V5.21802Z"/>
</mask>
<path d="M7.30553 1L7.30553 -5.84769e-06L7.30211 5.84765e-06L7.30553 1ZM3.10941 11.4629H4.10941V10.8739L3.59426 10.5883L3.10941 11.4629ZM3.10941 14.782H2.10941V16.9737L3.76481 15.5373L3.10941 14.782ZM4.91422 13.2158L5.56962 13.9711L6.11502 13.4978L5.83731 12.8313L4.91422 13.2158ZM5.36842 7.89171L6.19637 8.45253L6.1978 8.45041L5.36842 7.89171ZM12.4603 4.32558L12.4699 5.32557L12.4781 5.32542L12.4603 4.32558ZM14.0479 4.41933L13.9125 5.41012L15.894 5.68097L14.9218 3.9332L14.0479 4.41933ZM14.0302 4.38808L13.1646 4.88885L13.1733 4.90387L13.1825 4.91858L14.0302 4.38808ZM13.7925 4.01308L14.6135 3.44218L13.7925 4.01308ZM13.6163 3.7718L14.4121 3.16614L14.4067 3.15913L13.6163 3.7718ZM13.426 3.53852L14.1838 2.88597L14.183 2.88505L13.426 3.53852ZM13.114 3.20276L12.4067 3.90969L12.4113 3.91423L13.114 3.20276ZM12.4037 2.58939L11.8046 3.3901L11.8071 3.3919L12.4037 2.58939ZM10.993 1.76235L10.58 2.67312L10.5817 2.67387L10.993 1.76235ZM10.681 1.62936L10.3081 2.55723L10.3097 2.55788L10.681 1.62936ZM12.6605 5.21802H13.6605V4.21802H12.6605V5.21802ZM12.5813 5.21875L12.5813 4.21872L12.573 4.21878L12.5813 5.21875ZM12.5813 16.7326L12.5731 17.7326H12.5813V16.7326ZM13.039 16.726L13.0796 17.7252L13.039 16.726ZM14.1427 16.6163L14.798 15.8609L14.4456 15.5552L13.985 15.6288L14.1427 16.6163ZM16.8906 19L16.2353 19.7554L17.8906 21.1913V19H16.8906ZM16.8906 15.6817L16.4068 14.8065L15.8906 15.0919V15.6817H16.8906ZM17.4021 15.3706L17.9562 16.2031L17.957 16.2026L17.4021 15.3706ZM17.5641 15.2594L16.9878 14.4422L16.984 14.4449L17.5641 15.2594ZM18.4449 14.5196L17.7397 13.8106L17.7369 13.8134L18.4449 14.5196ZM18.5751 14.3852L19.303 15.0709L19.3057 15.068L18.5751 14.3852ZM18.8206 14.1068L19.5896 14.7461L19.5925 14.7426L18.8206 14.1068ZM19.0456 13.8169L19.8547 14.4046L19.8587 14.3989L19.0456 13.8169ZM19.2494 13.516L18.4021 12.9847L18.4017 12.9855L19.2494 13.516ZM19.5875 12.8837L18.6759 12.4727L18.6743 12.4764L19.5875 12.8837ZM19.7212 12.5538L18.7824 12.2095L18.7805 12.2148L19.7212 12.5538ZM19.7786 12.3859L18.8266 12.0796L18.8251 12.0845L19.7786 12.3859ZM19.9123 11.8699L20.8932 12.0641L20.8933 12.0639L19.9123 11.8699ZM19.9965 11.1584L20.9957 11.1965L20.9958 11.1936L19.9965 11.1584ZM19.9901 10.6802L20.988 10.6155L19.9901 10.6802ZM19.4227 8.73547L18.5426 9.2103L18.5429 9.21074L19.4227 8.73547ZM18.8433 7.87355L18.0689 8.50628L18.0691 8.50658L18.8433 7.87355ZM12.6605 5.21948H11.6605V6.21948H12.6605V5.21948ZM7.33878 0C7.33876 0 7.33874 0 7.33872 0C7.33869 0 7.33867 0 7.33865 0C7.33863 0 7.3386 0 7.33858 0C7.33856 0 7.33854 0 7.33852 0C7.33849 0 7.33847 0 7.33845 0C7.33843 0 7.33841 0 7.33838 0C7.33836 0 7.33834 0 7.33832 0C7.3383 0 7.33827 0 7.33825 0C7.33823 0 7.33821 0 7.33818 0C7.33816 0 7.33814 0 7.33812 0C7.3381 0 7.33807 0 7.33805 0C7.33803 0 7.33801 0 7.33799 0C7.33796 0 7.33794 0 7.33792 0C7.3379 0 7.33788 0 7.33785 0C7.33783 0 7.33781 0 7.33779 0C7.33776 0 7.33774 0 7.33772 0C7.3377 0 7.33768 0 7.33765 0C7.33763 0 7.33761 0 7.33759 0C7.33757 0 7.33754 0 7.33752 0C7.3375 0 7.33748 0 7.33746 0C7.33743 0 7.33741 0 7.33739 0C7.33737 0 7.33734 0 7.33732 0C7.3373 0 7.33728 0 7.33726 0C7.33723 0 7.33721 0 7.33719 0C7.33717 0 7.33715 0 7.33712 0C7.3371 0 7.33708 0 7.33706 0C7.33704 0 7.33701 0 7.33699 0C7.33697 0 7.33695 0 7.33692 0C7.3369 0 7.33688 0 7.33686 0C7.33684 0 7.33681 0 7.33679 0C7.33677 0 7.33675 0 7.33673 0C7.3367 0 7.33668 0 7.33666 0C7.33664 0 7.33662 0 7.33659 0C7.33657 0 7.33655 0 7.33653 0C7.3365 0 7.33648 0 7.33646 0C7.33644 0 7.33642 0 7.33639 0C7.33637 0 7.33635 0 7.33633 0C7.33631 0 7.33628 0 7.33626 0C7.33624 0 7.33622 0 7.3362 0C7.33617 0 7.33615 0 7.33613 0C7.33611 0 7.33608 0 7.33606 0C7.33604 0 7.33602 0 7.336 0C7.33597 0 7.33595 0 7.33593 0C7.33591 0 7.33589 0 7.33586 0C7.33584 0 7.33582 0 7.3358 0C7.33578 0 7.33575 0 7.33573 0C7.33571 0 7.33569 0 7.33566 0C7.33564 0 7.33562 0 7.3356 0C7.33558 0 7.33555 0 7.33553 0C7.33551 0 7.33549 0 7.33547 0C7.33544 0 7.33542 0 7.3354 0C7.33538 0 7.33536 0 7.33533 0C7.33531 0 7.33529 0 7.33527 0C7.33525 0 7.33522 0 7.3352 0C7.33518 0 7.33516 0 7.33513 0C7.33511 0 7.33509 0 7.33507 0C7.33505 0 7.33502 0 7.335 0C7.33498 0 7.33496 0 7.33494 0C7.33491 0 7.33489 0 7.33487 0C7.33485 0 7.33483 0 7.3348 0C7.33478 0 7.33476 0 7.33474 0C7.33471 0 7.33469 0 7.33467 0C7.33465 0 7.33463 0 7.3346 0C7.33458 0 7.33456 0 7.33454 0C7.33452 0 7.33449 0 7.33447 0C7.33445 0 7.33443 0 7.33441 0C7.33438 0 7.33436 0 7.33434 0C7.33432 0 7.3343 0 7.33427 0C7.33425 0 7.33423 0 7.33421 0C7.33418 0 7.33416 0 7.33414 0C7.33412 0 7.3341 0 7.33407 0C7.33405 0 7.33403 0 7.33401 0C7.33399 0 7.33396 0 7.33394 0C7.33392 0 7.3339 0 7.33388 0C7.33385 0 7.33383 0 7.33381 0C7.33379 0 7.33377 0 7.33374 0C7.33372 0 7.3337 0 7.33368 0C7.33365 0 7.33363 0 7.33361 0C7.33359 0 7.33357 0 7.33354 0C7.33352 0 7.3335 0 7.33348 0C7.33346 0 7.33343 0 7.33341 0C7.33339 0 7.33337 0 7.33335 0C7.33332 0 7.3333 0 7.33328 0C7.33326 0 7.33324 0 7.33321 0C7.33319 0 7.33317 0 7.33315 0C7.33312 0 7.3331 0 7.33308 0C7.33306 0 7.33304 0 7.33301 0C7.33299 0 7.33297 0 7.33295 0C7.33293 0 7.3329 0 7.33288 0C7.33286 0 7.33284 0 7.33282 0C7.33279 0 7.33277 0 7.33275 0C7.33273 0 7.33271 0 7.33268 0C7.33266 0 7.33264 0 7.33262 0C7.3326 0 7.33257 0 7.33255 0C7.33253 0 7.33251 0 7.33249 0C7.33246 0 7.33244 0 7.33242 0C7.3324 0 7.33237 0 7.33235 0C7.33233 0 7.33231 0 7.33229 0C7.33226 0 7.33224 0 7.33222 0C7.3322 0 7.33218 0 7.33215 0C7.33213 0 7.33211 0 7.33209 0C7.33207 0 7.33204 0 7.33202 0C7.332 0 7.33198 0 7.33196 0C7.33193 0 7.33191 0 7.33189 0C7.33187 0 7.33185 0 7.33182 0C7.3318 0 7.33178 0 7.33176 0C7.33174 0 7.33171 0 7.33169 0C7.33167 0 7.33165 0 7.33162 0C7.3316 0 7.33158 0 7.33156 0C7.33154 0 7.33151 0 7.33149 0C7.33147 0 7.33145 0 7.33143 0C7.3314 0 7.33138 0 7.33136 0C7.33134 0 7.33132 0 7.33129 0C7.33127 0 7.33125 0 7.33123 0C7.33121 0 7.33118 0 7.33116 0C7.33114 0 7.33112 0 7.3311 0C7.33107 0 7.33105 0 7.33103 0C7.33101 0 7.33099 0 7.33096 0C7.33094 0 7.33092 0 7.3309 0C7.33088 0 7.33085 0 7.33083 0C7.33081 0 7.33079 0 7.33077 0C7.33074 0 7.33072 0 7.3307 0C7.33068 0 7.33066 0 7.33063 0C7.33061 0 7.33059 0 7.33057 0C7.33055 0 7.33052 0 7.3305 0C7.33048 0 7.33046 0 7.33043 0C7.33041 0 7.33039 0 7.33037 0C7.33035 0 7.33032 0 7.3303 0C7.33028 0 7.33026 0 7.33024 0C7.33021 0 7.33019 0 7.33017 0C7.33015 0 7.33013 0 7.3301 0C7.33008 0 7.33006 0 7.33004 0C7.33002 0 7.32999 0 7.32997 0C7.32995 0 7.32993 0 7.32991 0C7.32988 0 7.32986 0 7.32984 0C7.32982 0 7.3298 0 7.32977 0C7.32975 0 7.32973 0 7.32971 0C7.32969 0 7.32966 0 7.32964 0C7.32962 0 7.3296 0 7.32958 0C7.32955 0 7.32953 0 7.32951 0C7.32949 0 7.32947 0 7.32944 0C7.32942 0 7.3294 0 7.32938 0C7.32936 0 7.32933 0 7.32931 0C7.32929 0 7.32927 0 7.32925 0C7.32922 0 7.3292 0 7.32918 0C7.32916 0 7.32914 0 7.32911 0C7.32909 0 7.32907 0 7.32905 0C7.32903 0 7.329 0 7.32898 0C7.32896 0 7.32894 0 7.32892 0C7.32889 0 7.32887 0 7.32885 0C7.32883 0 7.32881 0 7.32878 0C7.32876 0 7.32874 0 7.32872 0C7.3287 0 7.32867 0 7.32865 0C7.32863 0 7.32861 0 7.32859 0C7.32856 0 7.32854 0 7.32852 0C7.3285 0 7.32848 0 7.32845 0C7.32843 0 7.32841 0 7.32839 0C7.32837 0 7.32834 0 7.32832 0C7.3283 0 7.32828 0 7.32826 0C7.32823 0 7.32821 0 7.32819 0C7.32817 0 7.32815 0 7.32812 0C7.3281 0 7.32808 0 7.32806 0C7.32804 0 7.32801 0 7.32799 0C7.32797 0 7.32795 0 7.32793 0C7.32791 0 7.32788 0 7.32786 0C7.32784 0 7.32782 0 7.3278 0C7.32777 0 7.32775 0 7.32773 0C7.32771 0 7.32769 0 7.32766 0C7.32764 0 7.32762 0 7.3276 0C7.32758 0 7.32755 0 7.32753 0C7.32751 0 7.32749 0 7.32747 0C7.32744 0 7.32742 0 7.3274 0C7.32738 0 7.32736 0 7.32733 0C7.32731 0 7.32729 0 7.32727 0C7.32725 0 7.32722 0 7.3272 0C7.32718 0 7.32716 0 7.32714 0C7.32711 0 7.32709 0 7.32707 0C7.32705 0 7.32703 0 7.327 0C7.32698 0 7.32696 0 7.32694 0C7.32692 0 7.3269 0 7.32687 0C7.32685 0 7.32683 0 7.32681 0C7.32679 0 7.32676 0 7.32674 0C7.32672 0 7.3267 0 7.32668 0C7.32665 0 7.32663 0 7.32661 0C7.32659 0 7.32657 0 7.32654 0C7.32652 0 7.3265 0 7.32648 0C7.32646 0 7.32643 0 7.32641 0C7.32639 0 7.32637 0 7.32635 0C7.32632 0 7.3263 0 7.32628 0C7.32626 0 7.32624 0 7.32622 0C7.32619 0 7.32617 0 7.32615 0C7.32613 0 7.32611 0 7.32608 0C7.32606 0 7.32604 0 7.32602 0C7.326 0 7.32597 0 7.32595 0C7.32593 0 7.32591 0 7.32589 0C7.32586 0 7.32584 0 7.32582 0C7.3258 0 7.32578 0 7.32576 0C7.32573 0 7.32571 0 7.32569 0C7.32567 0 7.32565 0 7.32562 0C7.3256 0 7.32558 0 7.32556 0C7.32554 0 7.32551 0 7.32549 0C7.32547 0 7.32545 0 7.32543 0C7.3254 0 7.32538 0 7.32536 0C7.32534 0 7.32532 0 7.3253 0C7.32527 0 7.32525 0 7.32523 0C7.32521 0 7.32519 0 7.32516 0C7.32514 0 7.32512 0 7.3251 0C7.32508 0 7.32505 0 7.32503 0C7.32501 0 7.32499 0 7.32497 0C7.32495 0 7.32492 0 7.3249 0C7.32488 0 7.32486 0 7.32484 0C7.32481 0 7.32479 0 7.32477 0C7.32475 0 7.32473 0 7.3247 0C7.32468 0 7.32466 0 7.32464 0C7.32462 0 7.3246 0 7.32457 0C7.32455 0 7.32453 0 7.32451 0C7.32449 0 7.32446 0 7.32444 0C7.32442 0 7.3244 0 7.32438 0C7.32435 0 7.32433 0 7.32431 0C7.32429 0 7.32427 0 7.32425 0C7.32422 0 7.3242 0 7.32418 0C7.32416 0 7.32414 0 7.32411 0C7.32409 0 7.32407 0 7.32405 0C7.32403 0 7.32401 0 7.32398 0C7.32396 0 7.32394 0 7.32392 0C7.3239 0 7.32387 0 7.32385 0C7.32383 0 7.32381 0 7.32379 0C7.32376 0 7.32374 0 7.32372 0C7.3237 0 7.32368 0 7.32366 0C7.32363 0 7.32361 0 7.32359 0C7.32357 0 7.32355 0 7.32352 0C7.3235 0 7.32348 0 7.32346 0C7.32344 0 7.32342 0 7.32339 0C7.32337 0 7.32335 0 7.32333 0C7.32331 0 7.32328 0 7.32326 0C7.32324 0 7.32322 0 7.3232 0C7.32318 0 7.32315 0 7.32313 0C7.32311 0 7.32309 0 7.32307 0C7.32304 0 7.32302 0 7.323 0C7.32298 0 7.32296 0 7.32294 0C7.32291 0 7.32289 0 7.32287 0C7.32285 0 7.32283 0 7.3228 0C7.32278 0 7.32276 0 7.32274 0C7.32272 0 7.3227 0 7.32267 0C7.32265 0 7.32263 0 7.32261 0C7.32259 0 7.32257 0 7.32254 0C7.32252 0 7.3225 0 7.32248 0C7.32246 0 7.32243 0 7.32241 0C7.32239 0 7.32237 0 7.32235 0C7.32233 0 7.3223 0 7.32228 0C7.32226 0 7.32224 0 7.32222 0C7.32219 0 7.32217 0 7.32215 0C7.32213 0 7.32211 0 7.32209 0C7.32206 0 7.32204 0 7.32202 0C7.322 0 7.32198 0 7.32196 0C7.32193 0 7.32191 0 7.32189 0C7.32187 0 7.32185 0 7.32182 0C7.3218 0 7.32178 0 7.32176 0C7.32174 0 7.32172 0 7.32169 0C7.32167 0 7.32165 0 7.32163 0C7.32161 0 7.32159 0 7.32156 0C7.32154 0 7.32152 0 7.3215 0C7.32148 0 7.32145 0 7.32143 0C7.32141 0 7.32139 0 7.32137 0C7.32135 0 7.32132 0 7.3213 0C7.32128 0 7.32126 0 7.32124 0C7.32122 0 7.32119 0 7.32117 0C7.32115 0 7.32113 0 7.32111 0C7.32109 0 7.32106 0 7.32104 0C7.32102 0 7.321 0 7.32098 0C7.32095 0 7.32093 0 7.32091 0C7.32089 0 7.32087 0 7.32085 0C7.32082 0 7.3208 0 7.32078 0C7.32076 0 7.32074 0 7.32072 0C7.32069 0 7.32067 0 7.32065 0C7.32063 0 7.32061 0 7.32059 0C7.32056 0 7.32054 0 7.32052 0C7.3205 0 7.32048 0 7.32046 0C7.32043 0 7.32041 0 7.32039 0C7.32037 0 7.32035 0 7.32033 0C7.3203 0 7.32028 0 7.32026 0C7.32024 0 7.32022 0 7.3202 0C7.32017 0 7.32015 0 7.32013 0C7.32011 0 7.32009 0 7.32006 0C7.32004 0 7.32002 0 7.32 0C7.31998 0 7.31996 0 7.31993 0C7.31991 0 7.31989 0 7.31987 0C7.31985 0 7.31983 0 7.3198 0C7.31978 0 7.31976 0 7.31974 0C7.31972 0 7.3197 0 7.31967 0C7.31965 0 7.31963 0 7.31961 0C7.31959 0 7.31957 0 7.31954 0C7.31952 0 7.3195 0 7.31948 0C7.31946 0 7.31944 0 7.31941 0C7.31939 0 7.31937 0 7.31935 0C7.31933 0 7.31931 0 7.31928 0C7.31926 0 7.31924 0 7.31922 0C7.3192 0 7.31918 0 7.31916 0C7.31913 0 7.31911 0 7.31909 0C7.31907 0 7.31905 0 7.31903 0C7.319 0 7.31898 0 7.31896 0C7.31894 0 7.31892 0 7.3189 0C7.31887 0 7.31885 0 7.31883 0C7.31881 0 7.31879 0 7.31877 0C7.31874 0 7.31872 0 7.3187 0C7.31868 0 7.31866 0 7.31864 0C7.31861 0 7.31859 0 7.31857 0C7.31855 0 7.31853 0 7.31851 0C7.31848 0 7.31846 0 7.31844 0C7.31842 0 7.3184 0 7.31838 0C7.31836 0 7.31833 0 7.31831 0C7.31829 0 7.31827 0 7.31825 0C7.31823 0 7.3182 0 7.31818 0C7.31816 0 7.31814 0 7.31812 0C7.3181 0 7.31807 0 7.31805 0C7.31803 0 7.31801 0 7.31799 0C7.31797 0 7.31794 0 7.31792 0C7.3179 0 7.31788 0 7.31786 0C7.31784 0 7.31782 0 7.31779 0C7.31777 0 7.31775 0 7.31773 0C7.31771 0 7.31769 0 7.31766 0C7.31764 0 7.31762 0 7.3176 0C7.31758 0 7.31756 0 7.31753 0C7.31751 0 7.31749 0 7.31747 0C7.31745 0 7.31743 0 7.31741 0C7.31738 0 7.31736 0 7.31734 0C7.31732 0 7.3173 0 7.31728 0C7.31725 0 7.31723 0 7.31721 0C7.31719 0 7.31717 0 7.31715 0C7.31713 0 7.3171 0 7.31708 0C7.31706 0 7.31704 0 7.31702 0C7.317 0 7.31697 0 7.31695 0C7.31693 0 7.31691 0 7.31689 0C7.31687 0 7.31685 0 7.31682 0C7.3168 0 7.31678 0 7.31676 0C7.31674 0 7.31672 0 7.31669 0C7.31667 0 7.31665 0 7.31663 0C7.31661 0 7.31659 0 7.31657 0C7.31654 0 7.31652 0 7.3165 0C7.31648 0 7.31646 0 7.31644 0C7.31642 0 7.31639 0 7.31637 0C7.31635 0 7.31633 0 7.31631 0C7.31629 0 7.31626 0 7.31624 0C7.31622 0 7.3162 0 7.31618 0C7.31616 0 7.31614 0 7.31611 0C7.31609 0 7.31607 0 7.31605 0C7.31603 0 7.31601 0 7.31599 0C7.31596 0 7.31594 0 7.31592 0C7.3159 0 7.31588 0 7.31586 0C7.31584 0 7.31581 0 7.31579 0C7.31577 0 7.31575 0 7.31573 0C7.31571 0 7.31569 0 7.31566 0C7.31564 0 7.31562 0 7.3156 0C7.31558 0 7.31556 0 7.31553 0C7.31551 0 7.31549 0 7.31547 0C7.31545 0 7.31543 0 7.31541 0C7.31538 0 7.31536 0 7.31534 0C7.31532 0 7.3153 0 7.31528 0C7.31526 0 7.31523 0 7.31521 0C7.31519 0 7.31517 0 7.31515 0C7.31513 0 7.31511 0 7.31508 0C7.31506 0 7.31504 0 7.31502 0C7.315 0 7.31498 0 7.31496 0C7.31493 0 7.31491 0 7.31489 0C7.31487 0 7.31485 0 7.31483 0C7.31481 0 7.31478 0 7.31476 0C7.31474 0 7.31472 0 7.3147 0C7.31468 0 7.31466 0 7.31464 0C7.31461 0 7.31459 0 7.31457 0C7.31455 0 7.31453 0 7.31451 0C7.31449 0 7.31446 0 7.31444 0C7.31442 0 7.3144 0 7.31438 0C7.31436 0 7.31434 0 7.31431 0C7.31429 0 7.31427 0 7.31425 0C7.31423 0 7.31421 0 7.31419 0C7.31416 0 7.31414 0 7.31412 0C7.3141 0 7.31408 0 7.31406 0C7.31404 0 7.31402 0 7.31399 0C7.31397 0 7.31395 0 7.31393 0C7.31391 0 7.31389 0 7.31387 0C7.31384 0 7.31382 0 7.3138 0C7.31378 0 7.31376 0 7.31374 0C7.31372 0 7.3137 0 7.31367 0C7.31365 0 7.31363 0 7.31361 0C7.31359 0 7.31357 0 7.31355 0C7.31352 0 7.3135 0 7.31348 0C7.31346 0 7.31344 0 7.31342 0C7.3134 0 7.31338 0 7.31335 0C7.31333 0 7.31331 0 7.31329 0C7.31327 0 7.31325 0 7.31323 0C7.3132 0 7.31318 0 7.31316 0C7.31314 0 7.31312 0 7.3131 0C7.31308 0 7.31306 0 7.31303 0C7.31301 0 7.31299 0 7.31297 0C7.31295 0 7.31293 0 7.31291 0C7.31289 0 7.31286 0 7.31284 0C7.31282 0 7.3128 0 7.31278 0C7.31276 0 7.31274 0 7.31271 0C7.31269 0 7.31267 0 7.31265 0C7.31263 0 7.31261 0 7.31259 0C7.31257 0 7.31254 0 7.31252 0C7.3125 0 7.31248 0 7.31246 0C7.31244 0 7.31242 0 7.3124 0C7.31237 0 7.31235 0 7.31233 0C7.31231 0 7.31229 0 7.31227 0C7.31225 0 7.31223 0 7.3122 0C7.31218 0 7.31216 0 7.31214 0C7.31212 0 7.3121 0 7.31208 0C7.31206 0 7.31203 0 7.31201 0C7.31199 0 7.31197 0 7.31195 0C7.31193 0 7.31191 0 7.31189 0C7.31187 0 7.31184 0 7.31182 0C7.3118 0 7.31178 0 7.31176 0C7.31174 0 7.31172 0 7.3117 0C7.31167 0 7.31165 0 7.31163 0C7.31161 0 7.31159 0 7.31157 0C7.31155 0 7.31153 0 7.3115 0C7.31148 0 7.31146 0 7.31144 0C7.31142 0 7.3114 0 7.31138 0C7.31136 0 7.31134 0 7.31131 0C7.31129 0 7.31127 0 7.31125 0C7.31123 0 7.31121 0 7.31119 0C7.31117 0 7.31114 0 7.31112 0C7.3111 0 7.31108 0 7.31106 0C7.31104 0 7.31102 0 7.311 0C7.31098 0 7.31095 0 7.31093 0C7.31091 0 7.31089 0 7.31087 0C7.31085 0 7.31083 0 7.31081 0C7.31078 0 7.31076 0 7.31074 0C7.31072 0 7.3107 0 7.31068 0C7.31066 0 7.31064 0 7.31062 0C7.31059 0 7.31057 0 7.31055 0C7.31053 0 7.31051 0 7.31049 0C7.31047 0 7.31045 0 7.31043 0C7.3104 0 7.31038 0 7.31036 0C7.31034 0 7.31032 0 7.3103 0C7.31028 0 7.31026 0 7.31024 0C7.31021 0 7.31019 0 7.31017 0C7.31015 0 7.31013 0 7.31011 0C7.31009 0 7.31007 0 7.31005 0C7.31002 0 7.31 0 7.30998 0C7.30996 0 7.30994 0 7.30992 0C7.3099 0 7.30988 0 7.30986 0C7.30983 0 7.30981 0 7.30979 0C7.30977 0 7.30975 0 7.30973 0C7.30971 0 7.30969 0 7.30967 0C7.30965 0 7.30962 0 7.3096 0C7.30958 0 7.30956 0 7.30954 0C7.30952 0 7.3095 0 7.30948 0C7.30946 0 7.30943 0 7.30941 0C7.30939 0 7.30937 0 7.30935 0C7.30933 0 7.30931 0 7.30929 0C7.30927 0 7.30925 0 7.30922 0C7.3092 0 7.30918 0 7.30916 0C7.30914 0 7.30912 0 7.3091 0C7.30908 0 7.30906 0 7.30904 0C7.30901 0 7.30899 0 7.30897 0C7.30895 0 7.30893 0 7.30891 0C7.30889 0 7.30887 0 7.30885 0C7.30883 0 7.3088 0 7.30878 0C7.30876 0 7.30874 0 7.30872 0C7.3087 0 7.30868 0 7.30866 0C7.30864 0 7.30862 0 7.30859 0C7.30857 0 7.30855 0 7.30853 0C7.30851 0 7.30849 0 7.30847 0C7.30845 0 7.30843 0 7.30841 0C7.30838 0 7.30836 0 7.30834 0C7.30832 0 7.3083 0 7.30828 0C7.30826 0 7.30824 0 7.30822 0C7.3082 0 7.30818 0 7.30815 0C7.30813 0 7.30811 0 7.30809 0C7.30807 0 7.30805 0 7.30803 0C7.30801 0 7.30799 0 7.30797 0C7.30794 0 7.30792 0 7.3079 0C7.30788 0 7.30786 0 7.30784 0C7.30782 0 7.3078 0 7.30778 0C7.30776 0 7.30774 0 7.30771 0C7.30769 0 7.30767 0 7.30765 0C7.30763 0 7.30761 0 7.30759 0C7.30757 0 7.30755 0 7.30753 0C7.30751 0 7.30748 0 7.30746 0C7.30744 0 7.30742 0 7.3074 0C7.30738 0 7.30736 0 7.30734 0C7.30732 0 7.3073 0 7.30728 0C7.30726 0 7.30723 0 7.30721 0C7.30719 0 7.30717 0 7.30715 0C7.30713 0 7.30711 0 7.30709 0C7.30707 0 7.30705 0 7.30703 0C7.307 0 7.30698 0 7.30696 0C7.30694 0 7.30692 0 7.3069 0C7.30688 0 7.30686 0 7.30684 0C7.30682 0 7.3068 0 7.30678 0C7.30675 0 7.30673 0 7.30671 0C7.30669 0 7.30667 0 7.30665 0C7.30663 0 7.30661 0 7.30659 0C7.30657 0 7.30655 0 7.30653 0C7.3065 0 7.30648 0 7.30646 0C7.30644 0 7.30642 0 7.3064 0C7.30638 0 7.30636 0 7.30634 0C7.30632 0 7.3063 0 7.30628 0C7.30626 0 7.30623 0 7.30621 0C7.30619 0 7.30617 0 7.30615 0C7.30613 0 7.30611 0 7.30609 0C7.30607 0 7.30605 0 7.30603 0C7.30601 0 7.30599 0 7.30596 0C7.30594 0 7.30592 0 7.3059 0C7.30588 0 7.30586 0 7.30584 0C7.30582 0 7.3058 0 7.30578 0C7.30576 0 7.30574 0 7.30572 0C7.30569 0 7.30567 0 7.30565 0C7.30563 0 7.30561 0 7.30559 0C7.30557 0 7.30555 0 7.30553 0V2C7.30555 2 7.30557 2 7.30559 2C7.30561 2 7.30563 2 7.30565 2C7.30567 2 7.30569 2 7.30572 2C7.30574 2 7.30576 2 7.30578 2C7.3058 2 7.30582 2 7.30584 2C7.30586 2 7.30588 2 7.3059 2C7.30592 2 7.30594 2 7.30596 2C7.30599 2 7.30601 2 7.30603 2C7.30605 2 7.30607 2 7.30609 2C7.30611 2 7.30613 2 7.30615 2C7.30617 2 7.30619 2 7.30621 2C7.30623 2 7.30626 2 7.30628 2C7.3063 2 7.30632 2 7.30634 2C7.30636 2 7.30638 2 7.3064 2C7.30642 2 7.30644 2 7.30646 2C7.30648 2 7.3065 2 7.30653 2C7.30655 2 7.30657 2 7.30659 2C7.30661 2 7.30663 2 7.30665 2C7.30667 2 7.30669 2 7.30671 2C7.30673 2 7.30675 2 7.30678 2C7.3068 2 7.30682 2 7.30684 2C7.30686 2 7.30688 2 7.3069 2C7.30692 2 7.30694 2 7.30696 2C7.30698 2 7.307 2 7.30703 2C7.30705 2 7.30707 2 7.30709 2C7.30711 2 7.30713 2 7.30715 2C7.30717 2 7.30719 2 7.30721 2C7.30723 2 7.30726 2 7.30728 2C7.3073 2 7.30732 2 7.30734 2C7.30736 2 7.30738 2 7.3074 2C7.30742 2 7.30744 2 7.30746 2C7.30748 2 7.30751 2 7.30753 2C7.30755 2 7.30757 2 7.30759 2C7.30761 2 7.30763 2 7.30765 2C7.30767 2 7.30769 2 7.30771 2C7.30774 2 7.30776 2 7.30778 2C7.3078 2 7.30782 2 7.30784 2C7.30786 2 7.30788 2 7.3079 2C7.30792 2 7.30794 2 7.30797 2C7.30799 2 7.30801 2 7.30803 2C7.30805 2 7.30807 2 7.30809 2C7.30811 2 7.30813 2 7.30815 2C7.30818 2 7.3082 2 7.30822 2C7.30824 2 7.30826 2 7.30828 2C7.3083 2 7.30832 2 7.30834 2C7.30836 2 7.30838 2 7.30841 2C7.30843 2 7.30845 2 7.30847 2C7.30849 2 7.30851 2 7.30853 2C7.30855 2 7.30857 2 7.30859 2C7.30862 2 7.30864 2 7.30866 2C7.30868 2 7.3087 2 7.30872 2C7.30874 2 7.30876 2 7.30878 2C7.3088 2 7.30883 2 7.30885 2C7.30887 2 7.30889 2 7.30891 2C7.30893 2 7.30895 2 7.30897 2C7.30899 2 7.30901 2 7.30904 2C7.30906 2 7.30908 2 7.3091 2C7.30912 2 7.30914 2 7.30916 2C7.30918 2 7.3092 2 7.30922 2C7.30925 2 7.30927 2 7.30929 2C7.30931 2 7.30933 2 7.30935 2C7.30937 2 7.30939 2 7.30941 2C7.30943 2 7.30946 2 7.30948 2C7.3095 2 7.30952 2 7.30954 2C7.30956 2 7.30958 2 7.3096 2C7.30962 2 7.30965 2 7.30967 2C7.30969 2 7.30971 2 7.30973 2C7.30975 2 7.30977 2 7.30979 2C7.30981 2 7.30983 2 7.30986 2C7.30988 2 7.3099 2 7.30992 2C7.30994 2 7.30996 2 7.30998 2C7.31 2 7.31002 2 7.31005 2C7.31007 2 7.31009 2 7.31011 2C7.31013 2 7.31015 2 7.31017 2C7.31019 2 7.31021 2 7.31024 2C7.31026 2 7.31028 2 7.3103 2C7.31032 2 7.31034 2 7.31036 2C7.31038 2 7.3104 2 7.31043 2C7.31045 2 7.31047 2 7.31049 2C7.31051 2 7.31053 2 7.31055 2C7.31057 2 7.31059 2 7.31062 2C7.31064 2 7.31066 2 7.31068 2C7.3107 2 7.31072 2 7.31074 2C7.31076 2 7.31078 2 7.31081 2C7.31083 2 7.31085 2 7.31087 2C7.31089 2 7.31091 2 7.31093 2C7.31095 2 7.31098 2 7.311 2C7.31102 2 7.31104 2 7.31106 2C7.31108 2 7.3111 2 7.31112 2C7.31114 2 7.31117 2 7.31119 2C7.31121 2 7.31123 2 7.31125 2C7.31127 2 7.31129 2 7.31131 2C7.31134 2 7.31136 2 7.31138 2C7.3114 2 7.31142 2 7.31144 2C7.31146 2 7.31148 2 7.3115 2C7.31153 2 7.31155 2 7.31157 2C7.31159 2 7.31161 2 7.31163 2C7.31165 2 7.31167 2 7.3117 2C7.31172 2 7.31174 2 7.31176 2C7.31178 2 7.3118 2 7.31182 2C7.31184 2 7.31187 2 7.31189 2C7.31191 2 7.31193 2 7.31195 2C7.31197 2 7.31199 2 7.31201 2C7.31203 2 7.31206 2 7.31208 2C7.3121 2 7.31212 2 7.31214 2C7.31216 2 7.31218 2 7.3122 2C7.31223 2 7.31225 2 7.31227 2C7.31229 2 7.31231 2 7.31233 2C7.31235 2 7.31237 2 7.3124 2C7.31242 2 7.31244 2 7.31246 2C7.31248 2 7.3125 2 7.31252 2C7.31254 2 7.31257 2 7.31259 2C7.31261 2 7.31263 2 7.31265 2C7.31267 2 7.31269 2 7.31271 2C7.31274 2 7.31276 2 7.31278 2C7.3128 2 7.31282 2 7.31284 2C7.31286 2 7.31289 2 7.31291 2C7.31293 2 7.31295 2 7.31297 2C7.31299 2 7.31301 2 7.31303 2C7.31306 2 7.31308 2 7.3131 2C7.31312 2 7.31314 2 7.31316 2C7.31318 2 7.3132 2 7.31323 2C7.31325 2 7.31327 2 7.31329 2C7.31331 2 7.31333 2 7.31335 2C7.31338 2 7.3134 2 7.31342 2C7.31344 2 7.31346 2 7.31348 2C7.3135 2 7.31352 2 7.31355 2C7.31357 2 7.31359 2 7.31361 2C7.31363 2 7.31365 2 7.31367 2C7.3137 2 7.31372 2 7.31374 2C7.31376 2 7.31378 2 7.3138 2C7.31382 2 7.31384 2 7.31387 2C7.31389 2 7.31391 2 7.31393 2C7.31395 2 7.31397 2 7.31399 2C7.31402 2 7.31404 2 7.31406 2C7.31408 2 7.3141 2 7.31412 2C7.31414 2 7.31416 2 7.31419 2C7.31421 2 7.31423 2 7.31425 2C7.31427 2 7.31429 2 7.31431 2C7.31434 2 7.31436 2 7.31438 2C7.3144 2 7.31442 2 7.31444 2C7.31446 2 7.31449 2 7.31451 2C7.31453 2 7.31455 2 7.31457 2C7.31459 2 7.31461 2 7.31464 2C7.31466 2 7.31468 2 7.3147 2C7.31472 2 7.31474 2 7.31476 2C7.31478 2 7.31481 2 7.31483 2C7.31485 2 7.31487 2 7.31489 2C7.31491 2 7.31493 2 7.31496 2C7.31498 2 7.315 2 7.31502 2C7.31504 2 7.31506 2 7.31508 2C7.31511 2 7.31513 2 7.31515 2C7.31517 2 7.31519 2 7.31521 2C7.31523 2 7.31526 2 7.31528 2C7.3153 2 7.31532 2 7.31534 2C7.31536 2 7.31538 2 7.31541 2C7.31543 2 7.31545 2 7.31547 2C7.31549 2 7.31551 2 7.31553 2C7.31556 2 7.31558 2 7.3156 2C7.31562 2 7.31564 2 7.31566 2C7.31569 2 7.31571 2 7.31573 2C7.31575 2 7.31577 2 7.31579 2C7.31581 2 7.31584 2 7.31586 2C7.31588 2 7.3159 2 7.31592 2C7.31594 2 7.31596 2 7.31599 2C7.31601 2 7.31603 2 7.31605 2C7.31607 2 7.31609 2 7.31611 2C7.31614 2 7.31616 2 7.31618 2C7.3162 2 7.31622 2 7.31624 2C7.31626 2 7.31629 2 7.31631 2C7.31633 2 7.31635 2 7.31637 2C7.31639 2 7.31642 2 7.31644 2C7.31646 2 7.31648 2 7.3165 2C7.31652 2 7.31654 2 7.31657 2C7.31659 2 7.31661 2 7.31663 2C7.31665 2 7.31667 2 7.31669 2C7.31672 2 7.31674 2 7.31676 2C7.31678 2 7.3168 2 7.31682 2C7.31685 2 7.31687 2 7.31689 2C7.31691 2 7.31693 2 7.31695 2C7.31697 2 7.317 2 7.31702 2C7.31704 2 7.31706 2 7.31708 2C7.3171 2 7.31713 2 7.31715 2C7.31717 2 7.31719 2 7.31721 2C7.31723 2 7.31725 2 7.31728 2C7.3173 2 7.31732 2 7.31734 2C7.31736 2 7.31738 2 7.31741 2C7.31743 2 7.31745 2 7.31747 2C7.31749 2 7.31751 2 7.31753 2C7.31756 2 7.31758 2 7.3176 2C7.31762 2 7.31764 2 7.31766 2C7.31769 2 7.31771 2 7.31773 2C7.31775 2 7.31777 2 7.31779 2C7.31782 2 7.31784 2 7.31786 2C7.31788 2 7.3179 2 7.31792 2C7.31794 2 7.31797 2 7.31799 2C7.31801 2 7.31803 2 7.31805 2C7.31807 2 7.3181 2 7.31812 2C7.31814 2 7.31816 2 7.31818 2C7.3182 2 7.31823 2 7.31825 2C7.31827 2 7.31829 2 7.31831 2C7.31833 2 7.31836 2 7.31838 2C7.3184 2 7.31842 2 7.31844 2C7.31846 2 7.31848 2 7.31851 2C7.31853 2 7.31855 2 7.31857 2C7.31859 2 7.31861 2 7.31864 2C7.31866 2 7.31868 2 7.3187 2C7.31872 2 7.31874 2 7.31877 2C7.31879 2 7.31881 2 7.31883 2C7.31885 2 7.31887 2 7.3189 2C7.31892 2 7.31894 2 7.31896 2C7.31898 2 7.319 2 7.31903 2C7.31905 2 7.31907 2 7.31909 2C7.31911 2 7.31913 2 7.31916 2C7.31918 2 7.3192 2 7.31922 2C7.31924 2 7.31926 2 7.31928 2C7.31931 2 7.31933 2 7.31935 2C7.31937 2 7.31939 2 7.31941 2C7.31944 2 7.31946 2 7.31948 2C7.3195 2 7.31952 2 7.31954 2C7.31957 2 7.31959 2 7.31961 2C7.31963 2 7.31965 2 7.31967 2C7.3197 2 7.31972 2 7.31974 2C7.31976 2 7.31978 2 7.3198 2C7.31983 2 7.31985 2 7.31987 2C7.31989 2 7.31991 2 7.31993 2C7.31996 2 7.31998 2 7.32 2C7.32002 2 7.32004 2 7.32006 2C7.32009 2 7.32011 2 7.32013 2C7.32015 2 7.32017 2 7.3202 2C7.32022 2 7.32024 2 7.32026 2C7.32028 2 7.3203 2 7.32033 2C7.32035 2 7.32037 2 7.32039 2C7.32041 2 7.32043 2 7.32046 2C7.32048 2 7.3205 2 7.32052 2C7.32054 2 7.32056 2 7.32059 2C7.32061 2 7.32063 2 7.32065 2C7.32067 2 7.32069 2 7.32072 2C7.32074 2 7.32076 2 7.32078 2C7.3208 2 7.32082 2 7.32085 2C7.32087 2 7.32089 2 7.32091 2C7.32093 2 7.32095 2 7.32098 2C7.321 2 7.32102 2 7.32104 2C7.32106 2 7.32109 2 7.32111 2C7.32113 2 7.32115 2 7.32117 2C7.32119 2 7.32122 2 7.32124 2C7.32126 2 7.32128 2 7.3213 2C7.32132 2 7.32135 2 7.32137 2C7.32139 2 7.32141 2 7.32143 2C7.32145 2 7.32148 2 7.3215 2C7.32152 2 7.32154 2 7.32156 2C7.32159 2 7.32161 2 7.32163 2C7.32165 2 7.32167 2 7.32169 2C7.32172 2 7.32174 2 7.32176 2C7.32178 2 7.3218 2 7.32182 2C7.32185 2 7.32187 2 7.32189 2C7.32191 2 7.32193 2 7.32196 2C7.32198 2 7.322 2 7.32202 2C7.32204 2 7.32206 2 7.32209 2C7.32211 2 7.32213 2 7.32215 2C7.32217 2 7.32219 2 7.32222 2C7.32224 2 7.32226 2 7.32228 2C7.3223 2 7.32233 2 7.32235 2C7.32237 2 7.32239 2 7.32241 2C7.32243 2 7.32246 2 7.32248 2C7.3225 2 7.32252 2 7.32254 2C7.32257 2 7.32259 2 7.32261 2C7.32263 2 7.32265 2 7.32267 2C7.3227 2 7.32272 2 7.32274 2C7.32276 2 7.32278 2 7.3228 2C7.32283 2 7.32285 2 7.32287 2C7.32289 2 7.32291 2 7.32294 2C7.32296 2 7.32298 2 7.323 2C7.32302 2 7.32304 2 7.32307 2C7.32309 2 7.32311 2 7.32313 2C7.32315 2 7.32318 2 7.3232 2C7.32322 2 7.32324 2 7.32326 2C7.32328 2 7.32331 2 7.32333 2C7.32335 2 7.32337 2 7.32339 2C7.32342 2 7.32344 2 7.32346 2C7.32348 2 7.3235 2 7.32352 2C7.32355 2 7.32357 2 7.32359 2C7.32361 2 7.32363 2 7.32366 2C7.32368 2 7.3237 2 7.32372 2C7.32374 2 7.32376 2 7.32379 2C7.32381 2 7.32383 2 7.32385 2C7.32387 2 7.3239 2 7.32392 2C7.32394 2 7.32396 2 7.32398 2C7.32401 2 7.32403 2 7.32405 2C7.32407 2 7.32409 2 7.32411 2C7.32414 2 7.32416 2 7.32418 2C7.3242 2 7.32422 2 7.32425 2C7.32427 2 7.32429 2 7.32431 2C7.32433 2 7.32435 2 7.32438 2C7.3244 2 7.32442 2 7.32444 2C7.32446 2 7.32449 2 7.32451 2C7.32453 2 7.32455 2 7.32457 2C7.3246 2 7.32462 2 7.32464 2C7.32466 2 7.32468 2 7.3247 2C7.32473 2 7.32475 2 7.32477 2C7.32479 2 7.32481 2 7.32484 2C7.32486 2 7.32488 2 7.3249 2C7.32492 2 7.32495 2 7.32497 2C7.32499 2 7.32501 2 7.32503 2C7.32505 2 7.32508 2 7.3251 2C7.32512 2 7.32514 2 7.32516 2C7.32519 2 7.32521 2 7.32523 2C7.32525 2 7.32527 2 7.3253 2C7.32532 2 7.32534 2 7.32536 2C7.32538 2 7.3254 2 7.32543 2C7.32545 2 7.32547 2 7.32549 2C7.32551 2 7.32554 2 7.32556 2C7.32558 2 7.3256 2 7.32562 2C7.32565 2 7.32567 2 7.32569 2C7.32571 2 7.32573 2 7.32576 2C7.32578 2 7.3258 2 7.32582 2C7.32584 2 7.32586 2 7.32589 2C7.32591 2 7.32593 2 7.32595 2C7.32597 2 7.326 2 7.32602 2C7.32604 2 7.32606 2 7.32608 2C7.32611 2 7.32613 2 7.32615 2C7.32617 2 7.32619 2 7.32622 2C7.32624 2 7.32626 2 7.32628 2C7.3263 2 7.32632 2 7.32635 2C7.32637 2 7.32639 2 7.32641 2C7.32643 2 7.32646 2 7.32648 2C7.3265 2 7.32652 2 7.32654 2C7.32657 2 7.32659 2 7.32661 2C7.32663 2 7.32665 2 7.32668 2C7.3267 2 7.32672 2 7.32674 2C7.32676 2 7.32679 2 7.32681 2C7.32683 2 7.32685 2 7.32687 2C7.3269 2 7.32692 2 7.32694 2C7.32696 2 7.32698 2 7.327 2C7.32703 2 7.32705 2 7.32707 2C7.32709 2 7.32711 2 7.32714 2C7.32716 2 7.32718 2 7.3272 2C7.32722 2 7.32725 2 7.32727 2C7.32729 2 7.32731 2 7.32733 2C7.32736 2 7.32738 2 7.3274 2C7.32742 2 7.32744 2 7.32747 2C7.32749 2 7.32751 2 7.32753 2C7.32755 2 7.32758 2 7.3276 2C7.32762 2 7.32764 2 7.32766 2C7.32769 2 7.32771 2 7.32773 2C7.32775 2 7.32777 2 7.3278 2C7.32782 2 7.32784 2 7.32786 2C7.32788 2 7.32791 2 7.32793 2C7.32795 2 7.32797 2 7.32799 2C7.32801 2 7.32804 2 7.32806 2C7.32808 2 7.3281 2 7.32812 2C7.32815 2 7.32817 2 7.32819 2C7.32821 2 7.32823 2 7.32826 2C7.32828 2 7.3283 2 7.32832 2C7.32834 2 7.32837 2 7.32839 2C7.32841 2 7.32843 2 7.32845 2C7.32848 2 7.3285 2 7.32852 2C7.32854 2 7.32856 2 7.32859 2C7.32861 2 7.32863 2 7.32865 2C7.32867 2 7.3287 2 7.32872 2C7.32874 2 7.32876 2 7.32878 2C7.32881 2 7.32883 2 7.32885 2C7.32887 2 7.32889 2 7.32892 2C7.32894 2 7.32896 2 7.32898 2C7.329 2 7.32903 2 7.32905 2C7.32907 2 7.32909 2 7.32911 2C7.32914 2 7.32916 2 7.32918 2C7.3292 2 7.32922 2 7.32925 2C7.32927 2 7.32929 2 7.32931 2C7.32933 2 7.32936 2 7.32938 2C7.3294 2 7.32942 2 7.32944 2C7.32947 2 7.32949 2 7.32951 2C7.32953 2 7.32955 2 7.32958 2C7.3296 2 7.32962 2 7.32964 2C7.32966 2 7.32969 2 7.32971 2C7.32973 2 7.32975 2 7.32977 2C7.3298 2 7.32982 2 7.32984 2C7.32986 2 7.32988 2 7.32991 2C7.32993 2 7.32995 2 7.32997 2C7.32999 2 7.33002 2 7.33004 2C7.33006 2 7.33008 2 7.3301 2C7.33013 2 7.33015 2 7.33017 2C7.33019 2 7.33021 2 7.33024 2C7.33026 2 7.33028 2 7.3303 2C7.33032 2 7.33035 2 7.33037 2C7.33039 2 7.33041 2 7.33043 2C7.33046 2 7.33048 2 7.3305 2C7.33052 2 7.33055 2 7.33057 2C7.33059 2 7.33061 2 7.33063 2C7.33066 2 7.33068 2 7.3307 2C7.33072 2 7.33074 2 7.33077 2C7.33079 2 7.33081 2 7.33083 2C7.33085 2 7.33088 2 7.3309 2C7.33092 2 7.33094 2 7.33096 2C7.33099 2 7.33101 2 7.33103 2C7.33105 2 7.33107 2 7.3311 2C7.33112 2 7.33114 2 7.33116 2C7.33118 2 7.33121 2 7.33123 2C7.33125 2 7.33127 2 7.33129 2C7.33132 2 7.33134 2 7.33136 2C7.33138 2 7.3314 2 7.33143 2C7.33145 2 7.33147 2 7.33149 2C7.33151 2 7.33154 2 7.33156 2C7.33158 2 7.3316 2 7.33162 2C7.33165 2 7.33167 2 7.33169 2C7.33171 2 7.33174 2 7.33176 2C7.33178 2 7.3318 2 7.33182 2C7.33185 2 7.33187 2 7.33189 2C7.33191 2 7.33193 2 7.33196 2C7.33198 2 7.332 2 7.33202 2C7.33204 2 7.33207 2 7.33209 2C7.33211 2 7.33213 2 7.33215 2C7.33218 2 7.3322 2 7.33222 2C7.33224 2 7.33226 2 7.33229 2C7.33231 2 7.33233 2 7.33235 2C7.33237 2 7.3324 2 7.33242 2C7.33244 2 7.33246 2 7.33249 2C7.33251 2 7.33253 2 7.33255 2C7.33257 2 7.3326 2 7.33262 2C7.33264 2 7.33266 2 7.33268 2C7.33271 2 7.33273 2 7.33275 2C7.33277 2 7.33279 2 7.33282 2C7.33284 2 7.33286 2 7.33288 2C7.3329 2 7.33293 2 7.33295 2C7.33297 2 7.33299 2 7.33301 2C7.33304 2 7.33306 2 7.33308 2C7.3331 2 7.33312 2 7.33315 2C7.33317 2 7.33319 2 7.33321 2C7.33324 2 7.33326 2 7.33328 2C7.3333 2 7.33332 2 7.33335 2C7.33337 2 7.33339 2 7.33341 2C7.33343 2 7.33346 2 7.33348 2C7.3335 2 7.33352 2 7.33354 2C7.33357 2 7.33359 2 7.33361 2C7.33363 2 7.33365 2 7.33368 2C7.3337 2 7.33372 2 7.33374 2C7.33377 2 7.33379 2 7.33381 2C7.33383 2 7.33385 2 7.33388 2C7.3339 2 7.33392 2 7.33394 2C7.33396 2 7.33399 2 7.33401 2C7.33403 2 7.33405 2 7.33407 2C7.3341 2 7.33412 2 7.33414 2C7.33416 2 7.33418 2 7.33421 2C7.33423 2 7.33425 2 7.33427 2C7.3343 2 7.33432 2 7.33434 2C7.33436 2 7.33438 2 7.33441 2C7.33443 2 7.33445 2 7.33447 2C7.33449 2 7.33452 2 7.33454 2C7.33456 2 7.33458 2 7.3346 2C7.33463 2 7.33465 2 7.33467 2C7.33469 2 7.33471 2 7.33474 2C7.33476 2 7.33478 2 7.3348 2C7.33483 2 7.33485 2 7.33487 2C7.33489 2 7.33491 2 7.33494 2C7.33496 2 7.33498 2 7.335 2C7.33502 2 7.33505 2 7.33507 2C7.33509 2 7.33511 2 7.33513 2C7.33516 2 7.33518 2 7.3352 2C7.33522 2 7.33525 2 7.33527 2C7.33529 2 7.33531 2 7.33533 2C7.33536 2 7.33538 2 7.3354 2C7.33542 2 7.33544 2 7.33547 2C7.33549 2 7.33551 2 7.33553 2C7.33555 2 7.33558 2 7.3356 2C7.33562 2 7.33564 2 7.33566 2C7.33569 2 7.33571 2 7.33573 2C7.33575 2 7.33578 2 7.3358 2C7.33582 2 7.33584 2 7.33586 2C7.33589 2 7.33591 2 7.33593 2C7.33595 2 7.33597 2 7.336 2C7.33602 2 7.33604 2 7.33606 2C7.33608 2 7.33611 2 7.33613 2C7.33615 2 7.33617 2 7.3362 2C7.33622 2 7.33624 2 7.33626 2C7.33628 2 7.33631 2 7.33633 2C7.33635 2 7.33637 2 7.33639 2C7.33642 2 7.33644 2 7.33646 2C7.33648 2 7.3365 2 7.33653 2C7.33655 2 7.33657 2 7.33659 2C7.33662 2 7.33664 2 7.33666 2C7.33668 2 7.3367 2 7.33673 2C7.33675 2 7.33677 2 7.33679 2C7.33681 2 7.33684 2 7.33686 2C7.33688 2 7.3369 2 7.33692 2C7.33695 2 7.33697 2 7.33699 2C7.33701 2 7.33704 2 7.33706 2C7.33708 2 7.3371 2 7.33712 2C7.33715 2 7.33717 2 7.33719 2C7.33721 2 7.33723 2 7.33726 2C7.33728 2 7.3373 2 7.33732 2C7.33734 2 7.33737 2 7.33739 2C7.33741 2 7.33743 2 7.33746 2C7.33748 2 7.3375 2 7.33752 2C7.33754 2 7.33757 2 7.33759 2C7.33761 2 7.33763 2 7.33765 2C7.33768 2 7.3377 2 7.33772 2C7.33774 2 7.33776 2 7.33779 2C7.33781 2 7.33783 2 7.33785 2C7.33788 2 7.3379 2 7.33792 2C7.33794 2 7.33796 2 7.33799 2C7.33801 2 7.33803 2 7.33805 2C7.33807 2 7.3381 2 7.33812 2C7.33814 2 7.33816 2 7.33818 2C7.33821 2 7.33823 2 7.33825 2C7.33827 2 7.3383 2 7.33832 2C7.33834 2 7.33836 2 7.33838 2C7.33841 2 7.33843 2 7.33845 2C7.33847 2 7.33849 2 7.33852 2C7.33854 2 7.33856 2 7.33858 2C7.3386 2 7.33863 2 7.33865 2C7.33867 2 7.33869 2 7.33872 2C7.33874 2 7.33876 2 7.33878 2V0ZM7.30211 5.84765e-06C2.95211 0.0148822 -1 2.82403 -1 6.75727H1C1 4.34893 3.58367 2.01273 7.30895 1.99999L7.30211 5.84765e-06ZM-1 6.75727C-1 9.15503 0.513067 11.167 2.62457 12.3375L3.59426 10.5883C1.94333 9.67312 1 8.24758 1 6.75727H-1ZM2.10941 11.4629V14.782H4.10941V11.4629H2.10941ZM3.76481 15.5373L5.56962 13.9711L4.25882 12.4606L2.45401 14.0267L3.76481 15.5373ZM5.83731 12.8313C5.24313 11.4051 5.362 9.68432 6.19637 8.45253L4.54048 7.3309C3.29059 9.17615 3.16466 11.6167 3.99113 13.6004L5.83731 12.8313ZM6.1978 8.45041C7.55125 6.44124 10.0178 5.3492 12.4699 5.32554L12.4506 3.32563C9.4806 3.35429 6.33251 4.67068 4.53905 7.33302L6.1978 8.45041ZM12.4781 5.32542C12.9569 5.31689 13.437 5.34513 13.9125 5.41012L14.1833 3.42854C13.6061 3.34964 13.0235 3.31538 12.4425 3.32574L12.4781 5.32542ZM14.9218 3.9332C14.9226 3.93459 14.9229 3.93528 14.9214 3.93241C14.9204 3.93059 14.9174 3.92506 14.9141 3.91924C14.9077 3.90768 14.8949 3.88468 14.8779 3.85758L13.1825 4.91858C13.1769 4.90965 13.1726 4.90233 13.1698 4.89742C13.1669 4.89255 13.165 4.8891 13.1645 4.88818C13.1642 4.88762 13.1641 4.88736 13.1659 4.89077C13.1672 4.89312 13.1704 4.89899 13.174 4.90546L14.9218 3.9332ZM14.8958 3.88731C14.8095 3.73817 14.7155 3.58887 14.6135 3.44218L12.9715 4.58398C13.0393 4.68148 13.1038 4.78363 13.1646 4.88885L14.8958 3.88731ZM14.6135 3.44218C14.5808 3.39516 14.5479 3.34893 14.5155 3.30437L12.8968 4.47906C12.9225 4.51444 12.9476 4.54961 12.9715 4.58398L14.6135 3.44218ZM14.5155 3.30437C14.4787 3.2536 14.4413 3.20451 14.4121 3.16616L12.8206 4.37744C12.8522 4.41904 12.8757 4.44989 12.8968 4.47906L14.5155 3.30437ZM14.4067 3.15913C14.3716 3.11396 14.3359 3.06893 14.2995 3.02406L12.7464 4.28408C12.7736 4.31769 12.8002 4.35116 12.826 4.38447L14.4067 3.15913ZM14.2995 3.02406C14.2595 2.97475 14.2202 2.92831 14.1838 2.88597L12.6683 4.19107C12.6969 4.2243 12.7227 4.2549 12.7464 4.28408L14.2995 3.02406ZM14.183 2.88505C14.1456 2.84177 14.108 2.79899 14.0694 2.75602L12.5817 4.09282C12.6111 4.12543 12.6399 4.15823 12.6691 4.19199L14.183 2.88505ZM14.0694 2.75602C14.0267 2.70853 13.9848 2.66379 13.945 2.62207L12.4981 4.00293C12.5291 4.03534 12.5565 4.06472 12.5817 4.09282L14.0694 2.75602ZM13.945 2.62207C13.9051 2.58036 13.8626 2.53659 13.8167 2.4913L12.4113 3.91423C12.439 3.94161 12.4672 3.97051 12.4981 4.00293L13.945 2.62207ZM13.8213 2.49584C13.6938 2.3683 13.5623 2.24677 13.4282 2.13045L12.1178 3.64136C12.22 3.72997 12.3163 3.8192 12.4067 3.90968L13.8213 2.49584ZM13.4282 2.13045C13.2907 2.01123 13.1481 1.89673 13.0003 1.78688L11.8071 3.3919C11.9154 3.47246 12.019 3.55563 12.1178 3.64136L13.4282 2.13045ZM13.0027 1.78868C12.5171 1.42531 11.9796 1.11044 11.4042 0.850836L10.5817 2.67387C11.0308 2.87648 11.4413 3.11829 11.8046 3.3901L13.0027 1.78868ZM11.4059 0.851593C11.2894 0.798799 11.1716 0.74855 11.0522 0.700838L10.3097 2.55788C10.4012 2.59447 10.4913 2.63289 10.58 2.67312L11.4059 0.851593ZM11.0539 0.70149C9.93073 0.250115 8.66697 0 7.33878 0V2C8.41747 2 9.42757 2.20337 10.3081 2.55723L11.0539 0.70149ZM12.6605 4.21802C12.6394 4.21802 12.6193 4.21832 12.6072 4.21848C12.5927 4.21868 12.5864 4.21875 12.5813 4.21875V6.21875C12.6024 6.21875 12.6225 6.21846 12.6346 6.21829C12.6491 6.21809 12.6554 6.21802 12.6605 6.21802V4.21802ZM12.573 4.21878C8.245 4.25481 4.32102 7.05737 4.32102 10.976H6.32102C6.32102 8.57635 8.88472 6.24955 12.5896 6.21872L12.573 4.21878ZM4.32102 10.976C4.32102 14.8946 8.24425 17.6973 12.5731 17.7325L12.5894 15.7326C8.88405 15.7024 6.32102 13.3757 6.32102 10.976H4.32102ZM12.5813 17.7326C12.5863 17.7326 12.5924 17.7326 12.6068 17.7328C12.619 17.733 12.6391 17.7333 12.6605 17.7333V15.7333C12.655 15.7333 12.6486 15.7332 12.6344 15.733C12.6225 15.7329 12.6024 15.7326 12.5813 15.7326V17.7326ZM12.6605 17.7333C12.7985 17.7333 12.9388 17.7309 13.0796 17.7252L12.9984 15.7268C12.8888 15.7313 12.7758 15.7333 12.6605 15.7333V17.7333ZM13.0796 17.7252C13.4944 17.7083 13.9021 17.6674 14.3004 17.6038L13.985 15.6288C13.6645 15.68 13.335 15.7132 12.9984 15.7268L13.0796 17.7252ZM13.4874 17.3717L16.2353 19.7554L17.5459 18.2446L14.798 15.8609L13.4874 17.3717ZM17.8906 19V15.6817H15.8906V19H17.8906ZM17.3744 16.5569C17.5751 16.4459 17.769 16.3277 17.9562 16.2031L16.848 14.5382C16.7055 14.6331 16.5584 14.7227 16.4068 14.8065L17.3744 16.5569ZM17.957 16.2026C18.0162 16.1631 18.0798 16.1198 18.1442 16.074L16.984 14.4449C16.9423 14.4746 16.897 14.5055 16.8472 14.5387L17.957 16.2026ZM18.1404 16.0767C18.5059 15.8189 18.8453 15.5342 19.153 15.2258L17.7369 13.8134C17.5139 14.037 17.2633 14.2479 16.9878 14.4422L18.1404 16.0767ZM19.1501 15.2286C19.2057 15.1734 19.2571 15.1196 19.303 15.0709L17.8473 13.6995C17.8082 13.7409 17.7734 13.7772 17.7397 13.8106L19.1501 15.2286ZM19.3057 15.068C19.4036 14.9632 19.4985 14.8557 19.5896 14.7461L18.0516 13.4676C17.9857 13.5469 17.9164 13.6254 17.8445 13.7024L19.3057 15.068ZM19.5925 14.7426C19.634 14.6922 19.6809 14.6345 19.7282 14.5731L18.1436 13.3528C18.116 13.3887 18.085 13.427 18.0488 13.471L19.5925 14.7426ZM19.7282 14.5731C19.7692 14.5198 19.812 14.4633 19.8546 14.4046L18.2366 13.2291C18.2084 13.2678 18.1776 13.3087 18.1436 13.3528L19.7282 14.5731ZM19.8587 14.3989C19.8928 14.3513 19.9358 14.2913 19.9783 14.2286L18.3223 13.1071C18.2969 13.1447 18.2691 13.1836 18.2324 13.2348L19.8587 14.3989ZM19.9783 14.2286C20.0183 14.1695 20.0582 14.1085 20.097 14.0465L18.4017 12.9855C18.3768 13.0252 18.3502 13.066 18.3223 13.1071L19.9783 14.2286ZM20.0966 14.0472C20.2482 13.8054 20.3838 13.5533 20.5008 13.2911L18.6743 12.4764C18.5974 12.6487 18.5066 12.8182 18.4021 12.9847L20.0966 14.0472ZM20.4992 13.2947C20.5583 13.1635 20.6127 13.0297 20.662 12.8928L18.7805 12.2148C18.7492 12.3017 18.7144 12.3874 18.6759 12.4727L20.4992 13.2947ZM20.6601 12.898C20.6858 12.8281 20.7097 12.7579 20.7321 12.6873L18.8251 12.0845C18.812 12.1259 18.7978 12.1675 18.7824 12.2095L20.6601 12.898ZM20.7305 12.6922C20.7966 12.4866 20.851 12.2777 20.8932 12.0641L18.9313 11.6757C18.9042 11.8125 18.8694 11.9466 18.8266 12.0796L20.7305 12.6922ZM20.8933 12.0639C20.9489 11.7826 20.9844 11.4929 20.9957 11.1965L18.9972 11.1203C18.9901 11.3066 18.9676 11.4921 18.9313 11.6759L20.8933 12.0639ZM20.9958 11.1936C20.9982 11.1257 21 11.0531 21 10.9767H19C19 11.0225 18.9989 11.0705 18.9971 11.1233L20.9958 11.1936ZM21 10.9767C21 10.8535 20.9956 10.733 20.988 10.6155L18.9922 10.745C18.9973 10.8237 19 10.9009 19 10.9767H21ZM20.988 10.6155C20.9336 9.77688 20.6925 8.98208 20.3025 8.26019L18.5429 9.21074C18.8038 9.69379 18.9575 10.21 18.9922 10.745L20.988 10.6155ZM20.3028 8.26063C20.1086 7.90075 19.8788 7.56022 19.6174 7.24051L18.0691 8.50658C18.2534 8.73193 18.4113 8.96698 18.5426 9.2103L20.3028 8.26063ZM19.6176 7.24082C18.0963 5.37893 15.5121 4.21948 12.6605 4.21948V6.21948C15.0019 6.21948 16.981 7.17485 18.0689 8.50628L19.6176 7.24082ZM13.6605 5.21948V5.21802H11.6605V5.21948H13.6605Z" fill="#180F45" mask="url(#path-1-inside-1)"/>
</svg>
