<svg width="20" height="20" viewBox="0 0 20 20" fill="none" xmlns="http://www.w3.org/2000/svg">
<path d="M12.625 16H12.375L12.225 16.2L10 19.1667L7.775 16.2L7.625 16H7.375H4.75H4C2.067 16 0.5 14.433 0.5 12.5V4C0.5 2.067 2.067 0.5 4 0.5H16C17.933 0.5 19.5 2.067 19.5 4V12.5C19.5 14.433 17.933 16 16 16H15.25H12.625Z" stroke="#180F45"/>
<path d="M10 4.5V9.5" stroke="#180F45" stroke-width="2" stroke-linecap="round"/>
<path d="M11 12.5C11 13.0523 10.5523 13.5 10 13.5C9.44772 13.5 9 13.0523 9 12.5C9 11.9477 9.44772 11.5 10 11.5C10.5523 11.5 11 11.9477 11 12.5Z" fill="#180F45"/>
</svg>
