<svg width="164" height="60" viewBox="0 0 164 60" fill="none" xmlns="http://www.w3.org/2000/svg">
<rect x="0.25" width="163.5" height="60" rx="8" fill="#2C3BFE"/>
<path d="M37.4075 33.144C39.0155 33.144 40.0115 32.292 40.6235 31.332L39.4235 30.732C39.0395 31.392 38.2595 31.896 37.4075 31.896C35.8235 31.896 34.6475 30.672 34.6475 29.004C34.6475 27.312 35.8235 26.112 37.4075 26.112C38.2595 26.112 39.0395 26.604 39.4235 27.276L40.6115 26.652C40.0235 25.692 39.0155 24.864 37.4075 24.864C35.0435 24.864 33.2075 26.532 33.2075 29.004C33.2075 31.464 35.0435 33.144 37.4075 33.144ZM44.0871 33.144C45.9351 33.144 47.0631 31.752 47.0631 30.096C47.0631 28.428 45.9351 27.06 44.0871 27.06C42.2391 27.06 41.1111 28.428 41.1111 30.096C41.1111 31.752 42.2391 33.144 44.0871 33.144ZM44.0871 32.028C43.0191 32.028 42.4191 31.128 42.4191 30.096C42.4191 29.076 43.0191 28.176 44.0871 28.176C45.1671 28.176 45.7551 29.076 45.7551 30.096C45.7551 31.128 45.1671 32.028 44.0871 32.028ZM53.2938 33V28.92C53.2938 27.732 52.6698 27.06 51.4218 27.06C50.5098 27.06 49.7538 27.528 49.3698 27.984V27.204H48.1098V33H49.3698V28.944C49.6698 28.56 50.2218 28.176 50.8578 28.176C51.5658 28.176 52.0338 28.464 52.0338 29.376V33H53.2938ZM56.4421 33.144C57.0181 33.144 57.3901 32.976 57.6181 32.772L57.3181 31.812C57.2221 31.92 57.0061 32.028 56.7661 32.028C56.4061 32.028 56.2141 31.728 56.2141 31.332V28.296H57.3901V27.204H56.2141V25.62H54.9541V27.204H53.9941V28.296H54.9541V31.644C54.9541 32.616 55.4581 33.144 56.4421 33.144ZM58.9181 26.496C59.3501 26.496 59.6981 26.148 59.6981 25.716C59.6981 25.284 59.3501 24.936 58.9181 24.936C58.4861 24.936 58.1381 25.284 58.1381 25.716C58.1381 26.148 58.4861 26.496 58.9181 26.496ZM59.5421 33V27.204H58.2821V33H59.5421ZM66.1206 33V28.92C66.1206 27.732 65.4966 27.06 64.2486 27.06C63.3366 27.06 62.5806 27.528 62.1966 27.984V27.204H60.9366V33H62.1966V28.944C62.4966 28.56 63.0486 28.176 63.6846 28.176C64.3926 28.176 64.8606 28.464 64.8606 29.376V33H66.1206ZM72.689 33V27.204H71.429V31.272C71.141 31.656 70.589 32.028 69.953 32.028C69.233 32.028 68.777 31.74 68.777 30.84V27.204H67.517V31.308C67.517 32.484 68.141 33.144 69.389 33.144C70.301 33.144 71.021 32.688 71.429 32.232V33H72.689ZM76.7735 33.144C77.6855 33.144 78.5375 32.844 79.1255 32.292L78.5495 31.464C78.1295 31.884 77.4695 32.112 76.8935 32.112C75.8015 32.112 75.1535 31.38 75.0575 30.516H79.5215V30.204C79.5215 28.38 78.4175 27.06 76.6775 27.06C74.9615 27.06 73.7375 28.416 73.7375 30.096C73.7375 31.932 75.0215 33.144 76.7735 33.144ZM78.3095 29.616H75.0455C75.0935 28.92 75.5975 28.092 76.6655 28.092C77.8055 28.092 78.2735 28.932 78.3095 29.616ZM86.163 33.144C88.311 33.144 89.259 31.992 89.259 30.66C89.259 27.684 84.603 28.608 84.603 27.108C84.603 26.52 85.131 26.112 85.947 26.112C86.787 26.112 87.639 26.4 88.275 27.036L89.067 25.992C88.335 25.272 87.315 24.864 86.079 24.864C84.315 24.864 83.163 25.884 83.163 27.216C83.163 30.156 87.819 29.112 87.819 30.792C87.819 31.332 87.375 31.896 86.223 31.896C85.107 31.896 84.231 31.368 83.691 30.78L82.899 31.872C83.619 32.616 84.687 33.144 86.163 33.144ZM95.448 33V28.896C95.448 27.708 94.824 27.06 93.576 27.06C92.664 27.06 91.92 27.528 91.536 27.984V24.996H90.276V33H91.536V28.944C91.824 28.56 92.376 28.176 93.024 28.176C93.732 28.176 94.188 28.44 94.188 29.352V33H95.448ZM99.4723 33.144C101.32 33.144 102.448 31.752 102.448 30.096C102.448 28.428 101.32 27.06 99.4723 27.06C97.6243 27.06 96.4963 28.428 96.4963 30.096C96.4963 31.752 97.6243 33.144 99.4723 33.144ZM99.4723 32.028C98.4043 32.028 97.8043 31.128 97.8043 30.096C97.8043 29.076 98.4043 28.176 99.4723 28.176C100.552 28.176 101.14 29.076 101.14 30.096C101.14 31.128 100.552 32.028 99.4723 32.028ZM106.615 33.144C108.115 33.144 109.183 32.004 109.183 30.096C109.183 28.188 108.115 27.06 106.615 27.06C105.859 27.06 105.187 27.42 104.755 27.996V27.204H103.495V35.208H104.755V32.196C105.235 32.808 105.883 33.144 106.615 33.144ZM106.243 32.028C105.655 32.028 105.031 31.668 104.755 31.236V28.944C105.043 28.512 105.655 28.176 106.243 28.176C107.239 28.176 107.887 28.968 107.887 30.096C107.887 31.224 107.239 32.028 106.243 32.028ZM113.324 33.144C114.824 33.144 115.892 32.004 115.892 30.096C115.892 28.188 114.824 27.06 113.324 27.06C112.568 27.06 111.896 27.42 111.464 27.996V27.204H110.204V35.208H111.464V32.196C111.944 32.808 112.592 33.144 113.324 33.144ZM112.952 32.028C112.364 32.028 111.74 31.668 111.464 31.236V28.944C111.752 28.512 112.364 28.176 112.952 28.176C113.948 28.176 114.596 28.968 114.596 30.096C114.596 31.224 113.948 32.028 112.952 32.028ZM117.549 26.496C117.981 26.496 118.329 26.148 118.329 25.716C118.329 25.284 117.981 24.936 117.549 24.936C117.117 24.936 116.769 25.284 116.769 25.716C116.769 26.148 117.117 26.496 117.549 26.496ZM118.173 33V27.204H116.913V33H118.173ZM124.752 33V28.92C124.752 27.732 124.128 27.06 122.88 27.06C121.968 27.06 121.212 27.528 120.828 27.984V27.204H119.568V33H120.828V28.944C121.128 28.56 121.68 28.176 122.316 28.176C123.024 28.176 123.492 28.464 123.492 29.376V33H124.752ZM128.512 35.352C129.928 35.352 131.488 34.788 131.488 32.7V27.204H130.228V28.008C129.76 27.384 129.1 27.06 128.368 27.06C126.868 27.06 125.8 28.152 125.8 30.036C125.8 31.944 126.892 33.012 128.368 33.012C129.124 33.012 129.784 32.628 130.228 32.04V32.7C130.228 33.936 129.34 34.32 128.512 34.32C127.744 34.32 127.144 34.116 126.664 33.576L126.076 34.488C126.796 35.136 127.528 35.352 128.512 35.352ZM128.74 31.884C127.732 31.884 127.096 31.152 127.096 30.036C127.096 28.92 127.732 28.176 128.74 28.176C129.328 28.176 129.94 28.524 130.228 28.944V31.116C129.94 31.536 129.328 31.884 128.74 31.884Z" fill="white"/>
</svg>
