<svg width="182" height="180" viewBox="0 0 182 180" fill="none" xmlns="http://www.w3.org/2000/svg">
<g clip-path="url(#clip0)">
<path d="M172.519 122.04C154.346 164.52 106.369 182.77 68.7751 179.659C58.5087 178.81 37.8601 177.1 21.7373 161.852C-9.22916 132.57 -4.45915 71.3568 25.183 35.3247C29.0016 30.6833 55.423 -0.411731 96.598 0.00612573C126.748 0.308269 147.904 17.3376 150.476 19.459C153.729 22.1397 160.897 28.5104 167.357 38.6097C182.542 62.3504 183.872 95.4961 172.519 122.04Z" fill="url(#paint0_linear)"/>
<path d="M129.056 117.649C129.056 117.649 128.471 93.0275 139.811 86.4318C151.151 79.8425 172.719 75.7218 173.529 40.3647C174.004 19.6647 174.512 10.6133 174.859 6.66612C174.994 5.12969 173.625 3.88255 172.108 4.17184C161.366 6.19684 126.472 14.5218 119.156 38.3397C110.477 66.5739 129.056 117.649 129.056 117.649Z" fill="#91B3FA"/>
<path d="M163.796 14.0077C152.006 24.5249 138.371 43.1356 131.107 61.7463C130.175 64.8128 127.443 71.3378 126.26 82.9285C125.199 92.5971 125.726 102.806 127.012 109.569C127.095 109.993 127.507 110.276 127.931 110.199C128.664 110.057 128.568 109.266 128.561 109.292C127.095 97.7399 127.706 83.3656 131.062 70.3928C135.35 54.4628 144.922 39.0213 154.822 25.9199L155.838 24.6277C163.507 14.7791 165.121 14.7084 164.401 14.0206C164.233 13.8534 163.963 13.8534 163.796 14.0077Z" fill="#BDD0FB"/>
<path d="M127.397 128.803C126.523 128.224 128.567 123.017 128.741 122.265C129.384 119.475 129.936 116.659 130.386 113.824C132.759 98.8777 132.791 80.1448 141.302 72.9319C148.386 66.9276 172.506 70.7205 180.394 72.1605C181.378 72.3405 181.712 73.5876 180.947 74.2305C177.161 77.4062 169.067 84.9019 166.959 92.4619C164.181 102.42 154.712 108.752 146.239 110.468C140.884 111.548 136.236 113.117 133.048 117.829C131.344 120.349 130.727 126.347 128.831 128.096C128.079 128.777 127.629 128.957 127.397 128.803Z" fill="#BDD0FB"/>
<path d="M169.299 76.3651C159.231 76.7894 148.425 81.3794 142.941 89.9936L142.421 90.8165C141.225 92.7451 134.449 106.444 130.689 117.804C130.644 117.945 130.721 118.099 130.862 118.144C131.1 118.221 131.222 117.958 131.203 117.984C133.826 111.568 137.593 103.429 140.589 97.3479C143.803 90.7072 146.053 86.2136 153.388 81.9065C161.552 77.2715 169.35 76.7894 169.331 76.7958C169.453 76.7829 169.536 76.6801 169.524 76.558C169.511 76.4422 169.414 76.3587 169.299 76.3651Z" fill="url(#paint1_linear)"/>
<path d="M76.0329 93.844C76.0329 93.844 70.3758 72.1926 58.8236 69.274C47.2715 66.3554 27.4008 68.1618 17.8415 37.4847C12.2422 19.5233 9.52935 11.7511 8.24363 8.38899C7.7422 7.07756 8.62292 5.65042 10.0243 5.52185C19.9115 4.59613 52.4722 3.13684 64.8279 22.1011C79.4658 44.5883 76.0329 93.844 76.0329 93.844Z" fill="#91B3FA"/>
<path d="M19.7376 12.0339C32.6655 18.2631 49.2383 31.101 60.2441 45.5396C61.8255 47.9824 65.8434 52.9967 69.7776 62.8196C73.1205 70.9967 75.2227 80.0482 75.7948 86.271C75.8334 86.6632 75.5441 87.0103 75.1455 87.0489C74.4705 87.1132 74.3548 86.3932 74.3677 86.4189C72.7541 75.966 68.6205 63.5589 62.4426 53.0739C54.7091 40.236 42.4819 29.1467 30.5569 20.1853L29.3419 19.311C20.1812 12.6317 18.754 12.9724 19.2104 12.1946C19.3197 12.0081 19.5512 11.9439 19.7376 12.0339Z" fill="#BDD0FB"/>
<path d="M105.206 129.465C106.736 129.735 87.6497 116.119 75.3133 89.6782C69.5018 77.2196 64.7833 60.8717 55.539 56.6996C47.844 53.2281 27.7354 62.5817 21.204 65.8153C20.3875 66.2203 20.4068 67.3903 21.2425 67.7631C25.344 69.5889 34.2861 74.1081 38.0211 80.1767C42.9454 88.1739 52.794 91.3367 60.624 90.7132C68.454 90.0896 72.9861 90.3596 79.9868 101.16C86.994 111.966 100.867 128.693 105.206 129.465Z" fill="#BDD0FB"/>
<path d="M31.9528 66.709C40.8499 64.5555 51.4378 65.8605 58.3871 72.0126L59.0428 72.604C60.5664 73.9862 69.9199 84.2591 76.0464 93.2334C76.1235 93.3427 76.0914 93.4969 75.9821 93.5741C75.7892 93.7027 75.6221 93.5034 75.6478 93.5162C71.7521 88.5662 66.4228 82.4076 62.2828 77.8433C57.8149 72.8483 54.7228 69.4862 47.2335 67.564C38.9406 65.5583 32.0106 67.0947 32.0299 67.0947C31.9206 67.114 31.8178 67.0433 31.7985 66.934C31.7856 66.8312 31.8499 66.7347 31.9528 66.709Z" fill="url(#paint2_linear)"/>
<path d="M118.526 43.4185C118.526 43.4185 126.06 61.2963 144.973 63.302L144.471 66.5999C144.471 66.5999 119.766 70.8813 106.71 49.1913L118.526 43.4185Z" fill="url(#paint3_linear)"/>
<path d="M76.3163 88.1929C76.3163 88.1929 68.4413 56.7829 85.3291 30.2779C85.7149 29.6736 86.3899 29.3136 87.1099 29.3457C91.0892 29.5386 104.75 31.2165 120.114 44.5943C120.114 44.5943 103.966 58.2807 102.024 88.855C102.018 88.8615 87.0584 89.5043 76.3163 88.1929Z" fill="url(#paint4_linear)"/>
<path d="M108.248 23.6567L100.258 32.4896C99.5054 33.3189 99.5183 34.5403 100.29 35.3567C101.62 36.7775 103.986 38.6032 107.072 38.256C108.081 38.1403 108.968 37.5682 109.463 36.7389L114.304 28.581L108.248 23.6567Z" fill="url(#paint5_linear)"/>
<path d="M121.748 17.9864C121.748 17.9864 120.938 32.83 114.419 33.6207C107.9 34.405 107.547 19.8186 107.547 19.8186C107.547 19.8186 113.802 6.73642 121.748 17.9864Z" fill="url(#paint6_linear)"/>
<path d="M110.375 24.3958C110.375 24.3958 110.6 19.8058 107.984 20.6929C104.609 21.8436 108.851 25.4694 108.851 25.4694L110.375 24.3958Z" fill="url(#paint7_linear)"/>
<path d="M109.79 21.2973C109.79 21.2973 108.781 24.3444 109.79 23.6566C110.8 22.9623 111.616 15.4666 116.135 17.7616C120.655 20.0566 129.102 21.4452 127.25 12.728C125.392 4.01089 120.153 11.5259 112.702 9.50731C105.252 7.48874 106.235 14.5602 107.007 15.8202C104.808 16.8937 104.975 19.6002 107.007 21.278C107.598 20.8537 108.781 19.7609 109.79 21.2973Z" fill="url(#paint8_linear)"/>
<path d="M123.547 18.861C123.502 18.861 123.463 18.8289 123.457 18.7839C123.45 18.7325 123.483 18.681 123.534 18.6746C123.547 18.6746 125.07 18.3789 125.938 16.9646C126.671 15.7753 126.742 14.1617 126.157 12.1624C126.144 12.111 126.17 12.0596 126.221 12.0467C126.272 12.0339 126.324 12.0596 126.337 12.111C126.941 14.1682 126.857 15.8332 126.093 17.0674C125.18 18.5524 123.624 18.8482 123.56 18.861C123.56 18.861 123.553 18.861 123.547 18.861Z" fill="#91B3FA"/>
<path d="M84.712 29.8859C84.712 29.8859 58.702 55.2467 65.1563 62.6781C71.6105 70.1096 93.1077 79.2253 93.1077 79.2253L92.4263 74.2431C92.4263 74.2431 74.047 60.306 76.4063 58.1074C77.6405 56.9631 81.4977 53.2345 84.9112 49.9238C89.392 45.5845 91.0441 39.0274 88.9805 33.1388C88.0613 30.5352 86.7048 28.7931 84.712 29.8859Z" fill="url(#paint9_linear)"/>
<path d="M171.144 166.886C118.867 138.42 64.0569 140.452 6.90685 169.04C4.53471 170.229 1.73828 168.493 1.73828 165.838V120.78C1.73828 117.213 3.609 113.908 6.669 112.07C63.6776 77.8053 119.96 77.6768 173.664 112.34C176.84 114.39 178.768 117.9 178.813 121.68L179.347 161.943C179.405 166.185 174.873 168.918 171.144 166.886Z" fill="url(#paint10_linear)"/>
<path d="M170.352 165.838C119.001 138.516 65.1617 140.464 9.02096 167.908C6.68738 169.046 3.94238 167.381 3.94238 164.835V121.596C3.94238 118.17 5.78095 115.001 8.7831 113.233C64.7824 80.3507 120.068 80.2222 172.821 113.49C175.939 115.457 177.835 118.826 177.88 122.451L178.401 161.087C178.465 165.163 174.017 167.786 170.352 165.838Z" fill="url(#paint11_linear)"/>
<path d="M107.335 111.697L101.582 117.528C101.132 117.984 100.939 118.627 101.061 119.251L102.604 127.293C102.906 128.868 101.273 130.109 99.8397 129.389L92.5176 125.724C91.9454 125.442 91.2768 125.454 90.7176 125.763L83.5433 129.716C82.1354 130.494 80.4576 129.318 80.6954 127.73L81.9169 119.63C82.0133 119 81.7883 118.364 81.3254 117.927L75.3469 112.327C74.1769 111.228 74.7683 109.267 76.3562 109.004L84.4368 107.667C85.0668 107.564 85.6004 107.159 85.8704 106.58L89.3483 99.1617C90.0297 97.7088 92.0804 97.6703 92.8197 99.091L96.5933 106.362C96.889 106.927 97.4418 107.313 98.0718 107.39L106.198 108.406C107.792 108.618 108.46 110.559 107.335 111.697Z" fill="url(#paint12_linear)"/>
<path opacity="0.62" d="M91.0135 123.706C90.5892 123.776 90.1842 123.918 89.8113 124.123L85.1249 126.708C84.6299 126.978 84.0385 126.946 83.5756 126.624C83.1128 126.303 82.8814 125.756 82.9649 125.203L83.7621 119.913C83.9485 118.672 83.5178 117.425 82.5985 116.563L78.6964 112.906C78.285 112.52 78.1307 111.948 78.2978 111.408C78.4585 110.868 78.9085 110.476 79.4614 110.386L82.1549 109.936L82.2257 110.347L79.5321 110.797C79.1271 110.861 78.8185 111.138 78.6964 111.53C78.5807 111.922 78.6835 112.321 78.9857 112.603L82.8878 116.261C83.9035 117.213 84.3856 118.601 84.1735 119.977L83.3764 125.268C83.3121 125.673 83.4792 126.052 83.8135 126.283C84.1478 126.515 84.5656 126.541 84.9192 126.341L89.6056 123.757C90.0235 123.526 90.4735 123.371 90.9363 123.294L91.0135 123.706Z" fill="white"/>
<path opacity="0.62" d="M100.162 125.673C100.065 125.924 99.8982 126.143 99.6797 126.31C99.2297 126.65 98.6382 126.702 98.1368 126.451L94.4789 124.619L94.6654 124.246L98.3232 126.078C98.6897 126.258 99.1011 126.226 99.429 125.975C99.7568 125.731 99.9047 125.339 99.8275 124.94L98.8182 119.688C98.5611 118.338 98.9918 116.905 99.9561 115.928L103.71 112.115C104 111.826 104.09 111.421 103.955 111.035C103.82 110.65 103.498 110.386 103.093 110.335L97.7832 109.673C96.4011 109.499 95.1989 108.663 94.5561 107.429L92.0939 102.678C91.9075 102.318 91.5475 102.106 91.1425 102.113C90.7311 102.119 90.3839 102.344 90.2104 102.717L87.9411 107.564C87.7032 108.065 87.3818 108.509 86.9704 108.882L86.6875 108.573C87.0539 108.239 87.3497 107.834 87.5618 107.384L89.8311 102.543C90.0689 102.035 90.5639 101.714 91.1297 101.701C91.6889 101.688 92.2032 101.99 92.4604 102.492L94.9225 107.243C95.5011 108.355 96.5875 109.113 97.8282 109.268L103.138 109.93C103.698 110 104.16 110.373 104.34 110.907C104.527 111.44 104.392 112.019 104 112.418L100.245 116.23C99.3775 117.11 98.9854 118.403 99.2168 119.624L100.226 124.876C100.29 125.14 100.265 125.423 100.162 125.673Z" fill="white"/>
<path opacity="0.62" d="M83.7662 109.686L82.168 109.951L82.2362 110.363L83.8345 110.099L83.7662 109.686Z" fill="white"/>
<path d="M72.0349 113.047L68.1199 120.241C67.8177 120.8 67.8049 121.475 68.0941 122.041L71.8034 129.344C72.5299 130.778 71.302 132.417 69.7206 132.121L61.672 130.63C61.0484 130.514 60.3991 130.713 59.9491 131.163L54.1506 136.949C53.0127 138.08 51.0713 137.418 50.8656 135.83L49.8049 127.711C49.7213 127.081 49.3356 126.528 48.7699 126.239L41.4734 122.51C40.0463 121.777 40.072 119.727 41.5249 119.039L48.9241 115.516C49.4963 115.24 49.9013 114.706 50.0041 114.076L51.2963 105.989C51.547 104.407 53.5077 103.797 54.6134 104.96L60.2449 110.907C60.682 111.37 61.3184 111.588 61.9484 111.485L70.042 110.212C71.617 109.962 72.7999 111.633 72.0349 113.047Z" fill="url(#paint13_linear)"/>
<path opacity="0.62" d="M59.6655 129.1C59.2797 129.287 58.9326 129.531 58.624 129.833L54.8376 133.613C54.439 134.012 53.8605 134.147 53.3269 133.96C52.7933 133.78 52.4205 133.317 52.3433 132.764L51.649 127.461C51.4883 126.22 50.7233 125.134 49.6048 124.568L44.8412 122.131C44.3398 121.874 44.0376 121.366 44.044 120.807C44.0505 120.248 44.3719 119.746 44.8798 119.502L47.3483 118.326L47.5283 118.699L45.0598 119.875C44.6933 120.049 44.4683 120.402 44.4619 120.807C44.4555 121.219 44.6676 121.572 45.034 121.759L49.7976 124.195C51.0383 124.825 51.8805 126.027 52.0605 127.409L52.7548 132.713C52.8062 133.118 53.0697 133.439 53.4555 133.568C53.8412 133.703 54.2462 133.607 54.5355 133.317L58.3219 129.537C58.6562 129.203 59.0483 128.927 59.4726 128.721L59.6655 129.1Z" fill="white"/>
<path opacity="0.62" d="M69.0006 128.457C68.9749 128.72 68.8785 128.978 68.7114 129.203C68.3771 129.653 67.8242 129.871 67.2714 129.768L63.2471 129.023L63.3242 128.611L67.3485 129.357C67.7535 129.434 68.1392 129.28 68.3835 128.952C68.6278 128.624 68.6664 128.213 68.4799 127.846L66.0564 123.076C65.4328 121.855 65.4521 120.35 66.1142 119.148L68.6728 114.449C68.8657 114.089 68.8464 113.678 68.6085 113.343C68.3707 113.009 67.9914 112.848 67.5864 112.913L62.3021 113.742C60.9264 113.96 59.5378 113.485 58.58 112.475L54.8964 108.593C54.6135 108.297 54.215 108.188 53.8228 108.31C53.4307 108.432 53.1607 108.747 53.0964 109.146L52.2542 114.43C52.1642 114.976 51.9778 115.49 51.6885 115.966L51.335 115.748C51.5921 115.323 51.7657 114.854 51.8428 114.365L52.685 109.081C52.775 108.528 53.1607 108.078 53.7007 107.911C54.2407 107.744 54.8128 107.898 55.1985 108.303L58.8757 112.186C59.7371 113.099 60.9907 113.523 62.2314 113.33L67.5157 112.501C68.0685 112.411 68.6149 112.643 68.9428 113.105C69.2642 113.568 69.3028 114.16 69.0328 114.648L66.4742 119.348C65.8828 120.434 65.8635 121.784 66.4228 122.89L68.8464 127.66C68.9749 127.91 69.0264 128.187 69.0006 128.457Z" fill="white"/>
<path opacity="0.62" d="M48.8203 117.628L47.3574 118.324L47.537 118.701L48.9999 118.005L48.8203 117.628Z" fill="white"/>
<path d="M37.1731 123.738L33.2581 130.932C32.956 131.491 32.9431 132.166 33.2324 132.732L36.9417 140.034C37.6681 141.468 36.4403 143.107 34.8588 142.812L26.8038 141.314C26.1803 141.198 25.531 141.397 25.081 141.847L19.2824 147.633C18.1445 148.764 16.2031 148.102 15.9974 146.514L14.9367 138.395C14.8531 137.765 14.4674 137.212 13.9017 136.923L6.60526 133.194C5.17812 132.462 5.20383 130.411 6.65669 129.723L14.056 126.2C14.6281 125.924 15.0331 125.39 15.136 124.76L16.4281 116.673C16.6788 115.092 18.6395 114.481 19.7453 115.644L25.3767 121.591C25.8138 122.054 26.4503 122.272 27.0803 122.169L35.1738 120.897C36.7617 120.652 37.9445 122.324 37.1731 123.738Z" fill="url(#paint14_linear)"/>
<path opacity="0.62" d="M24.811 139.79C24.4253 139.976 24.0781 140.221 23.7696 140.523L19.9831 144.303C19.5846 144.701 19.006 144.836 18.4724 144.65C17.9388 144.47 17.566 144.007 17.4888 143.454L16.7946 138.151C16.6338 136.91 15.8688 135.823 14.7503 135.258L9.9867 132.821C9.48527 132.564 9.18313 132.056 9.18955 131.497C9.19598 130.938 9.51741 130.436 10.0253 130.192L12.4938 129.016L12.6738 129.388L10.2053 130.565C9.83884 130.738 9.61384 131.092 9.60741 131.497C9.60098 131.908 9.81313 132.262 10.1796 132.448L14.9431 134.885C16.1838 135.515 17.026 136.717 17.206 138.099L17.9003 143.403C17.9517 143.808 18.2153 144.129 18.601 144.258C18.9867 144.393 19.3917 144.296 19.681 144.007L23.4674 140.227C23.8017 139.893 24.1938 139.616 24.6181 139.411L24.811 139.79Z" fill="white"/>
<path opacity="0.62" d="M34.1442 139.147C34.1185 139.411 34.0221 139.668 33.855 139.893C33.5207 140.343 32.9678 140.561 32.415 140.458L28.3907 139.713L28.4678 139.301L32.4921 140.047C32.8971 140.124 33.2828 139.97 33.5271 139.642C33.7714 139.314 33.81 138.903 33.6235 138.536L31.2 133.766C30.5764 132.545 30.5957 131.04 31.2578 129.838L33.8164 125.139C34.0092 124.779 33.99 124.368 33.7521 124.033C33.5142 123.699 33.135 123.538 32.73 123.603L27.4457 124.432C26.07 124.65 24.6814 124.175 23.7235 123.165L20.0399 119.283C19.7571 118.987 19.3585 118.878 18.9664 119C18.5742 119.122 18.3042 119.437 18.2399 119.835L17.3978 125.12C17.3078 125.666 17.1214 126.18 16.8321 126.656L16.4785 126.438C16.7357 126.013 16.9092 125.544 16.9864 125.055L17.8285 119.771C17.9185 119.218 18.3042 118.768 18.8442 118.601C19.3842 118.434 19.9564 118.588 20.3421 118.993L24.0192 122.876C24.8807 123.789 26.1342 124.213 27.375 124.02L32.6592 123.191C33.2121 123.101 33.7585 123.333 34.0864 123.795C34.4078 124.258 34.4464 124.85 34.1764 125.338L31.6178 130.038C31.0264 131.124 31.0071 132.474 31.5664 133.58L33.99 138.35C34.1185 138.601 34.17 138.877 34.1442 139.147Z" fill="white"/>
<path opacity="0.62" d="M13.958 128.321L12.4951 129.017L12.6747 129.394L14.1375 128.698L13.958 128.321Z" fill="white"/>
<path d="M175.677 135.38L168.033 138.325C167.442 138.556 166.992 139.058 166.844 139.681L164.935 147.646C164.562 149.208 162.562 149.658 161.547 148.418L156.385 142.06C155.986 141.565 155.362 141.301 154.726 141.353L146.562 141.995C144.961 142.124 143.913 140.363 144.787 139.013L149.242 132.14C149.59 131.607 149.647 130.932 149.403 130.347L146.266 122.78C145.649 121.295 147.005 119.753 148.555 120.17L156.468 122.285C157.085 122.453 157.741 122.298 158.223 121.887L164.452 116.564C165.674 115.523 167.557 116.333 167.641 117.933L168.078 126.11C168.11 126.747 168.457 127.325 168.997 127.66L175.985 131.935C177.361 132.764 177.175 134.802 175.677 135.38Z" fill="url(#paint15_linear)"/>
<path d="M142.26 120.8L135.112 124.798C134.552 125.107 134.186 125.672 134.128 126.309L133.37 134.467C133.222 136.061 131.306 136.794 130.13 135.707L124.119 130.14C123.65 129.71 123 129.53 122.377 129.671L114.386 131.465C112.824 131.818 111.532 130.217 112.207 128.765L115.646 121.327C115.916 120.748 115.878 120.073 115.556 119.527L111.378 112.481C110.561 111.099 111.68 109.382 113.274 109.569L121.406 110.54C122.036 110.617 122.666 110.372 123.09 109.897L128.503 103.745C129.564 102.542 131.544 103.076 131.852 104.645L133.44 112.68C133.562 113.304 133.987 113.831 134.572 114.082L142.093 117.328C143.552 117.965 143.662 120.015 142.26 120.8Z" fill="url(#paint16_linear)"/>
<path opacity="0.62" d="M123.232 127.775C122.807 127.723 122.377 127.749 121.959 127.846L116.739 129.016C116.192 129.138 115.633 128.945 115.279 128.508C114.926 128.071 114.855 127.479 115.086 126.971L117.33 122.118C117.857 120.98 117.786 119.656 117.15 118.582L114.424 113.979C114.135 113.497 114.148 112.906 114.456 112.43C114.765 111.961 115.299 111.71 115.858 111.774L118.571 112.096L118.519 112.507L115.806 112.186C115.401 112.134 115.022 112.314 114.804 112.655C114.579 112.996 114.572 113.413 114.778 113.761L117.504 118.363C118.211 119.559 118.288 121.025 117.703 122.291L115.459 127.145C115.286 127.518 115.337 127.929 115.594 128.244C115.851 128.559 116.244 128.701 116.642 128.611L121.862 127.441C122.325 127.338 122.801 127.312 123.27 127.363L123.232 127.775Z" fill="white"/>
<path opacity="0.62" d="M131.473 132.211C131.313 132.423 131.094 132.59 130.831 132.686C130.303 132.886 129.725 132.776 129.313 132.391L126.311 129.607L126.594 129.305L129.596 132.088C129.898 132.365 130.303 132.442 130.683 132.301C131.062 132.153 131.313 131.825 131.351 131.42L131.846 126.097C131.975 124.728 132.791 123.474 133.993 122.806L138.661 120.196C139.014 119.996 139.22 119.63 139.194 119.225C139.175 118.813 138.937 118.479 138.564 118.312L133.653 116.191C132.373 115.638 131.454 114.5 131.184 113.131L130.143 107.885C130.066 107.486 129.783 107.178 129.384 107.075C128.992 106.966 128.593 107.088 128.323 107.396L124.788 111.414C124.421 111.832 123.984 112.166 123.489 112.411L123.303 112.038C123.753 111.819 124.145 111.517 124.473 111.138L128.008 107.12C128.381 106.696 128.947 106.528 129.493 106.67C130.033 106.818 130.438 107.248 130.548 107.801L131.589 113.047C131.833 114.275 132.663 115.31 133.813 115.805L138.725 117.926C139.239 118.151 139.58 118.633 139.606 119.199C139.631 119.758 139.348 120.279 138.853 120.556L134.186 123.166C133.106 123.77 132.367 124.901 132.251 126.136L131.756 131.465C131.737 131.741 131.634 131.998 131.473 132.211Z" fill="white"/>
<path opacity="0.62" d="M118.573 112.081L118.523 112.496L120.132 112.688L120.182 112.273L118.573 112.081Z" fill="white"/>
<path d="M147.628 73.2854L133.582 80.2026C132.489 80.7426 131.73 81.784 131.557 82.9861L129.294 98.479C128.85 101.513 125.122 102.722 122.981 100.523L112.059 89.299C111.21 88.4247 109.983 88.0261 108.787 88.2319L93.3519 90.8676C90.3304 91.3819 88.029 88.2126 89.4561 85.4933L96.7526 71.6397C97.3183 70.5597 97.3183 69.274 96.7526 68.194L89.4754 54.3276C88.0483 51.6147 90.3561 48.439 93.3776 48.9597L108.813 51.6211C110.015 51.8268 111.236 51.4283 112.091 50.5604L123.026 39.3618C125.167 37.1697 128.895 38.3847 129.333 41.419L131.57 56.9183C131.743 58.1204 132.502 59.1683 133.595 59.7083L147.635 66.6511C150.38 68.0076 150.38 71.929 147.628 73.2854Z" fill="url(#paint17_linear)"/>
<path opacity="0.62" d="M110.613 84.7091C109.803 84.5741 108.986 84.5741 108.176 84.7091L98.0965 86.4319C97.0358 86.6119 95.9879 86.1876 95.3579 85.3134C94.7279 84.4455 94.6443 83.3141 95.1458 82.3626L99.9093 73.3112C101.028 71.1898 101.028 68.6569 99.9157 66.5355L95.165 57.4776C94.6636 56.5262 94.7472 55.3948 95.3836 54.5269C96.02 53.6591 97.0679 53.2348 98.1286 53.4148L103.278 54.3019L103.143 55.0862L97.9936 54.1991C97.2222 54.0641 96.4893 54.3726 96.0265 54.9962C95.57 55.6262 95.5122 56.4169 95.8722 57.1112L100.623 66.1691C101.857 68.5219 101.857 71.3312 100.616 73.6841L95.8529 82.7355C95.4865 83.4298 95.5443 84.2141 96.0008 84.8505C96.4572 85.4805 97.19 85.7826 97.9615 85.6477L108.041 83.9248C108.935 83.7705 109.848 83.7705 110.741 83.9184L110.613 84.7091Z" fill="white"/>
<path opacity="0.62" d="M125.899 94.0046C125.571 94.3903 125.134 94.6861 124.626 94.8532C123.604 95.1875 122.505 94.9111 121.752 94.1396L116.295 88.5339L116.867 87.9811L122.325 93.5868C122.871 94.1461 123.636 94.3389 124.382 94.0946C125.128 93.8568 125.635 93.2461 125.751 92.4746L127.23 82.3561C127.609 79.7589 129.293 77.4382 131.653 76.2811L140.826 71.7618C141.527 71.4147 141.945 70.7397 141.945 69.9618C141.945 69.1775 141.527 68.5089 140.826 68.1618L131.659 63.6297C129.274 62.4532 127.628 60.1775 127.249 57.5482L125.783 47.4232C125.674 46.6518 125.16 46.0411 124.42 45.8032C123.675 45.559 122.91 45.7518 122.363 46.3111L115.221 53.6332C114.482 54.3918 113.614 54.9832 112.643 55.4075L112.328 54.6747C113.202 54.2954 113.987 53.7618 114.649 53.074L121.791 45.7582C122.543 44.9868 123.643 44.7168 124.665 45.0511C125.687 45.3854 126.42 46.2532 126.568 47.314L128.033 57.439C128.374 59.8111 129.865 61.8618 132.013 62.9225L141.18 67.4547C142.144 67.9304 142.742 68.8947 142.742 69.9682C142.742 71.0418 142.144 72.0061 141.18 72.4818L132.006 77.0011C129.878 78.0489 128.361 80.1382 128.02 82.4782L126.542 92.5968C126.458 93.1239 126.233 93.6125 125.899 94.0046Z" fill="white"/>
<path opacity="0.62" d="M103.272 54.3023L103.137 55.0879L106.19 55.6143L106.326 54.8287L103.272 54.3023Z" fill="white"/>
<path d="M90.8697 73.9605C90.8697 73.9605 90.7604 71.8198 90.2076 70.8234C89.6547 69.8334 90.9469 69.6019 91.5769 70.5341C92.2134 71.4662 92.6698 74.0505 92.6698 74.0505C92.6698 74.0505 91.5576 74.7127 90.8697 73.9605Z" fill="url(#paint18_linear)"/>
<path d="M95.1321 79.483C94.9007 79.8623 94.4893 80.0873 94.0457 80.0873C93.6021 80.0873 93.1972 79.8559 92.9657 79.4766C92.2264 78.268 91.1143 76.333 90.9086 75.3173C90.6 73.7809 90.3879 71.7302 92.4257 71.3444C94.4636 70.9587 97.1121 71.0809 97.1121 71.0809C97.1121 71.0809 97.7807 72.9644 96.1157 72.9773L97.3821 73.5237C97.3821 73.5237 97.8835 75.0473 96.3535 74.7709L97.6907 75.6451C97.6907 75.6451 97.6907 77.0723 96.4821 76.6737C95.595 76.378 95.91 78.223 95.1321 79.483Z" fill="url(#paint19_linear)"/>
<path d="M144.407 61.8808C140.396 59.9265 138.859 59.9651 137.175 61.4373L140.023 63.6615C140.942 64.4972 140.768 65.3651 140.421 66.0915C139.991 66.9915 140.775 68.2644 142.086 68.6822C143.044 68.9908 143.963 68.7594 144.812 67.5572L145.564 66.0851C145.326 65.0051 145.59 62.7487 144.407 61.8808Z" fill="url(#paint20_linear)"/>
</g>
<defs>
<linearGradient id="paint0_linear" x1="190.951" y1="203.402" x2="58.6772" y2="60.6307" gradientUnits="userSpaceOnUse">
<stop stop-color="#DAE3FE"/>
<stop offset="1" stop-color="#E9EFFD"/>
</linearGradient>
<linearGradient id="paint1_linear" x1="165.33" y1="81.1245" x2="39.4262" y2="178.993" gradientUnits="userSpaceOnUse">
<stop stop-color="#DAE3FE"/>
<stop offset="1" stop-color="#E9EFFD"/>
</linearGradient>
<linearGradient id="paint2_linear" x1="39.5146" y1="40.1216" x2="97.4601" y2="200.788" gradientUnits="userSpaceOnUse">
<stop stop-color="#DAE3FE"/>
<stop offset="1" stop-color="#E9EFFD"/>
</linearGradient>
<linearGradient id="paint3_linear" x1="148.813" y1="98.7325" x2="96.141" y2="1.28862" gradientUnits="userSpaceOnUse">
<stop stop-color="#53D8FF"/>
<stop offset="1" stop-color="#3840F7"/>
</linearGradient>
<linearGradient id="paint4_linear" x1="131.441" y1="15.748" x2="46.2876" y2="114.509" gradientUnits="userSpaceOnUse">
<stop stop-color="#09005D"/>
<stop offset="1" stop-color="#1A0F91"/>
</linearGradient>
<linearGradient id="paint5_linear" x1="93.1853" y1="44.7013" x2="115.125" y2="24.517" gradientUnits="userSpaceOnUse">
<stop stop-color="#FEBBBA"/>
<stop offset="1" stop-color="#FF928E"/>
</linearGradient>
<linearGradient id="paint6_linear" x1="118.368" y1="28.5256" x2="107.963" y2="11.4784" gradientUnits="userSpaceOnUse">
<stop stop-color="#FEBBBA"/>
<stop offset="1" stop-color="#FF928E"/>
</linearGradient>
<linearGradient id="paint7_linear" x1="113.88" y1="31.2648" x2="103.474" y2="14.2177" gradientUnits="userSpaceOnUse">
<stop stop-color="#FEBBBA"/>
<stop offset="1" stop-color="#FF928E"/>
</linearGradient>
<linearGradient id="paint8_linear" x1="105.415" y1="16.0874" x2="127.511" y2="16.0874" gradientUnits="userSpaceOnUse">
<stop stop-color="#09005D"/>
<stop offset="1" stop-color="#1A0F91"/>
</linearGradient>
<linearGradient id="paint9_linear" x1="37.469" y1="-13.6609" x2="78.2902" y2="49.546" gradientUnits="userSpaceOnUse">
<stop stop-color="#09005D"/>
<stop offset="1" stop-color="#1A0F91"/>
</linearGradient>
<linearGradient id="paint10_linear" x1="253.85" y1="184.435" x2="29.9929" y2="119.911" gradientUnits="userSpaceOnUse">
<stop stop-color="#4F52FF"/>
<stop offset="1" stop-color="#4042E2"/>
</linearGradient>
<linearGradient id="paint11_linear" x1="89.8698" y1="203.021" x2="85.9194" y2="389.13" gradientUnits="userSpaceOnUse">
<stop stop-color="#4F52FF"/>
<stop offset="1" stop-color="#4042E2"/>
</linearGradient>
<linearGradient id="paint12_linear" x1="79.419" y1="101.66" x2="124.404" y2="154.692" gradientUnits="userSpaceOnUse">
<stop stop-color="#FFD400"/>
<stop offset="1" stop-color="#FB8823"/>
</linearGradient>
<linearGradient id="paint13_linear" x1="42.4281" y1="111.114" x2="100.32" y2="149.644" gradientUnits="userSpaceOnUse">
<stop stop-color="#FFD400"/>
<stop offset="1" stop-color="#FB8823"/>
</linearGradient>
<linearGradient id="paint14_linear" x1="7.56964" y1="121.804" x2="65.4614" y2="160.334" gradientUnits="userSpaceOnUse">
<stop stop-color="#FFD400"/>
<stop offset="1" stop-color="#FB8823"/>
</linearGradient>
<linearGradient id="paint15_linear" x1="54.1109" y1="377.591" x2="129.608" y2="202.017" gradientUnits="userSpaceOnUse">
<stop stop-color="#4F52FF"/>
<stop offset="1" stop-color="#4042E2"/>
</linearGradient>
<linearGradient id="paint16_linear" x1="118.254" y1="103.364" x2="146.647" y2="166.845" gradientUnits="userSpaceOnUse">
<stop stop-color="#FFD400"/>
<stop offset="1" stop-color="#FB8823"/>
</linearGradient>
<linearGradient id="paint17_linear" x1="142.851" y1="24.3183" x2="102.139" y2="88.439" gradientUnits="userSpaceOnUse">
<stop stop-color="#FFD400"/>
<stop offset="1" stop-color="#FB8823"/>
</linearGradient>
<linearGradient id="paint18_linear" x1="97.5407" y1="62.3892" x2="110.518" y2="41.8553" gradientUnits="userSpaceOnUse">
<stop stop-color="#FEBBBA"/>
<stop offset="1" stop-color="#FF928E"/>
</linearGradient>
<linearGradient id="paint19_linear" x1="100.581" y1="64.3113" x2="113.559" y2="43.7779" gradientUnits="userSpaceOnUse">
<stop stop-color="#FEBBBA"/>
<stop offset="1" stop-color="#FF928E"/>
</linearGradient>
<linearGradient id="paint20_linear" x1="140.101" y1="65.4792" x2="149.292" y2="52.6041" gradientUnits="userSpaceOnUse">
<stop stop-color="#FEBBBA"/>
<stop offset="1" stop-color="#FF928E"/>
</linearGradient>
<clipPath id="clip0">
<rect width="180.746" height="180" fill="white" transform="translate(0.626953)"/>
</clipPath>
</defs>
</svg>
