<svg width="24" height="24" viewBox="0 0 24 24" fill="none" xmlns="http://www.w3.org/2000/svg">
<mask id="mask0" mask-type="alpha" maskUnits="userSpaceOnUse" x="0" y="-1" width="24" height="25">
<path fill-rule="evenodd" clip-rule="evenodd" d="M0 21.9966C0 23.6012 1.79455 24.5525 3.12254 23.6519L10.8775 18.3927C11.5552 17.9331 12.4448 17.9331 13.1225 18.3927L20.8775 23.6519C22.2055 24.5525 24 23.6012 24 21.9966V1.99915C24 0.894575 23.1046 -0.000854492 22 -0.000854492H2C0.89543 -0.000854492 0 0.894575 0 1.99915V21.9966Z" fill="white"/>
</mask>
<g mask="url(#mask0)">
<path fill-rule="evenodd" clip-rule="evenodd" d="M0 21.9966C0 23.6012 1.79455 24.5525 3.12254 23.6519L10.8775 18.3927C11.5552 17.9331 12.4448 17.9331 13.1225 18.3927L20.8775 23.6519C22.2055 24.5525 24 23.6012 24 21.9966V1.99915C24 0.894575 23.1046 -0.000854492 22 -0.000854492H2C0.89543 -0.000854492 0 0.894575 0 1.99915V21.9966Z" fill="#2C3BFE"/>
<path d="M20.8775 23.6519L19.7549 25.3071L20.8775 23.6519ZM10.8775 18.3927L9.7549 16.7375L10.8775 18.3927ZM13.1225 18.3927L14.2451 16.7375L13.1225 18.3927ZM4.24508 25.3071L12 20.048L9.7549 16.7375L2 21.9966L4.24508 25.3071ZM12 20.048L19.7549 25.3071L22 21.9966L14.2451 16.7375L12 20.048ZM26 21.9966V1.99915H22V21.9966H26ZM22 -2.00085H2V1.99915H22V-2.00085ZM-2 1.99915V21.9966H2V1.99915H-2ZM2 -2.00085C-0.20914 -2.00085 -2 -0.209995 -2 1.99915H2V-2.00085ZM26 1.99915C26 -0.209995 24.2091 -2.00085 22 -2.00085V1.99915H26ZM19.7549 25.3071C22.4109 27.1083 26 25.2057 26 21.9966H22L19.7549 25.3071ZM12 20.048L14.2451 16.7375C12.8895 15.8182 11.1105 15.8182 9.7549 16.7375L12 20.048ZM2 21.9966H-2C-2 25.2057 1.58909 27.1083 4.24508 25.3071L2 21.9966Z" fill="#F3F3F3"/>
</g>
</svg>
