<svg width="24" height="25" viewBox="0 0 24 25" fill="none" xmlns="http://www.w3.org/2000/svg">
<mask id="mask0" mask-type="alpha" maskUnits="userSpaceOnUse" x="0" y="0" width="24" height="25">
<path fill-rule="evenodd" clip-rule="evenodd" d="M0 22.2106C0 23.7717 1.79455 24.6973 3.12254 23.821L10.8775 18.7041C11.5552 18.2569 12.4448 18.2569 13.1225 18.7041L20.8775 23.821C22.2055 24.6973 24 23.7717 24 22.2106V2.75352C24 1.67886 23.1046 0.807617 22 0.807617H2C0.89543 0.807617 0 1.67886 0 2.75352V22.2106Z" fill="white"/>
</mask>
<g mask="url(#mask0)">
<path d="M20.8775 23.821L19.7549 25.4316L20.8775 23.821ZM10.8775 18.7041L9.7549 17.0935L10.8775 18.7041ZM13.1225 18.7041L14.2451 17.0935L13.1225 18.7041ZM4.24508 25.4316L12 20.3146L9.7549 17.0935L2 22.2106L4.24508 25.4316ZM12 20.3146L19.7549 25.4316L22 22.2106L14.2451 17.0935L12 20.3146ZM26 22.2106V2.75355H22V22.2106H26ZM22 -1.13831H2V2.75355H22V-1.13831ZM-2 2.75355V22.2106H2V2.75355H-2ZM2 -1.13831C-0.20914 -1.13831 -2 0.604162 -2 2.75355H2V-1.13831ZM26 2.75355C26 0.604162 24.2091 -1.13831 22 -1.13831V2.75355H26ZM19.7549 25.4316C22.4109 27.1841 26 25.3329 26 22.2106H22L19.7549 25.4316ZM12 20.3146L14.2451 17.0935C12.8895 16.1992 11.1105 16.1992 9.7549 17.0935L12 20.3146ZM2 22.2106H-2C-2 25.3329 1.58909 27.1841 4.24508 25.4316L2 22.2106Z" fill="#F3F3F3"/>
</g>
</svg>
