<svg width="24" height="28" viewBox="0 0 24 28" fill="none" xmlns="http://www.w3.org/2000/svg">
<mask id="mask0" mask-type="alpha" maskUnits="userSpaceOnUse" x="0" y="3" width="21" height="24">
<path fill-rule="evenodd" clip-rule="evenodd" d="M0 21.2459C0 22.8015 1.80755 23.7186 3.13442 22.8363L8.86613 19.0248C9.54924 18.5707 10.4519 18.5707 11.135 19.0248L16.8667 22.8363C18.1935 23.7186 20.0011 22.8015 20.0011 21.2459V5.79309C20.0011 4.72661 19.1057 3.86206 18.0011 3.86206H2C0.895429 3.86206 0 4.72661 0 5.79309V21.2459Z" fill="white"/>
</mask>
<g mask="url(#mask0)">
<path d="M8.86613 19.0249L8.29892 18.2298L8.86613 19.0249ZM11.135 19.0249L11.7022 18.2298L11.135 19.0249ZM3.70163 23.6315L9.43334 19.8201L8.29892 18.2298L2.56721 22.0412L3.70163 23.6315ZM10.5678 19.8201L16.2995 23.6315L17.4339 22.0412L11.7022 18.2298L10.5678 19.8201ZM21.0011 21.246V5.79316H19.0011V21.246H21.0011ZM18.0011 2.89661H2V4.82764H18.0011V2.89661ZM-1 5.79316V21.246H1V5.79316H-1ZM2 2.89661C0.343144 2.89661 -1 4.19344 -1 5.79316H1C1 5.25991 1.44771 4.82764 2 4.82764V2.89661ZM21.0011 5.79316C21.0011 4.19343 19.6579 2.89661 18.0011 2.89661V4.82764C18.5534 4.82764 19.0011 5.25991 19.0011 5.79316H21.0011ZM16.2995 23.6315C18.2898 24.955 21.0011 23.5793 21.0011 21.246H19.0011C19.0011 22.0238 18.0973 22.4823 17.4339 22.0412L16.2995 23.6315ZM9.43334 19.8201C9.77489 19.593 10.2262 19.593 10.5678 19.8201L11.7022 18.2298C10.6775 17.5483 9.32359 17.5483 8.29892 18.2298L9.43334 19.8201ZM2.56721 22.0412C1.90377 22.4823 1 22.0238 1 21.246H-1C-1 23.5793 1.71133 24.955 3.70163 23.6315L2.56721 22.0412Z" fill="#180F45"/>
</g>
</svg>
