<svg width="60" height="20" viewBox="0 0 60 20" fill="none" xmlns="http://www.w3.org/2000/svg">
<path d="M7.50011 10.4905V8.51018H4.9902V6.00027H3.00991V8.51018H0.5V10.4905H3.00991V13.0004H4.9902V10.4905H7.50011Z" fill="white"/>
<path d="M14.8666 11.0296H10.1566C7.0397 11.0296 4.5 13.5468 4.5 16.6361V20H20.5001V16.6361C20.5232 13.5468 17.9835 11.0296 14.8666 11.0296ZM18.5607 18.032H6.48558V16.6361C6.48558 14.6224 8.14793 12.9747 10.1797 12.9747H14.8666C16.8983 12.9747 18.5607 14.6224 18.5607 16.6361V18.032Z" fill="white"/>
<path d="M12.5122 9.83994C15.2366 9.83994 17.4761 7.64312 17.4761 4.91997C17.4761 2.21971 15.2596 0 12.5122 0C9.76466 0 7.57129 2.21971 7.57129 4.91997C7.57129 7.62024 9.78775 9.83994 12.5122 9.83994ZM12.5122 1.96799C14.1514 1.96799 15.4905 3.29524 15.4905 4.91997C15.4905 6.54471 14.1745 7.87196 12.5122 7.87196C10.8498 7.87196 9.53378 6.54471 9.53378 4.91997C9.53378 3.29524 10.8729 1.96799 12.5122 1.96799Z" fill="white"/>
<path d="M26.756 13.5V10.032H30.752V8.796H26.756V6.732H30.836V5.496H25.352V13.5H26.756ZM34.4657 13.644C36.3137 13.644 37.4417 12.252 37.4417 10.596C37.4417 8.928 36.3137 7.56 34.4657 7.56C32.6177 7.56 31.4897 8.928 31.4897 10.596C31.4897 12.252 32.6177 13.644 34.4657 13.644ZM34.4657 12.528C33.3977 12.528 32.7977 11.628 32.7977 10.596C32.7977 9.576 33.3977 8.676 34.4657 8.676C35.5457 8.676 36.1337 9.576 36.1337 10.596C36.1337 11.628 35.5457 12.528 34.4657 12.528ZM39.7483 13.5V5.496H38.4883V13.5H39.7483ZM42.4029 13.5V5.496H41.1429V13.5H42.4029ZM46.4254 13.644C48.2734 13.644 49.4014 12.252 49.4014 10.596C49.4014 8.928 48.2734 7.56 46.4254 7.56C44.5774 7.56 43.4494 8.928 43.4494 10.596C43.4494 12.252 44.5774 13.644 46.4254 13.644ZM46.4254 12.528C45.3574 12.528 44.7574 11.628 44.7574 10.596C44.7574 9.576 45.3574 8.676 46.4254 8.676C47.5054 8.676 48.0934 9.576 48.0934 10.596C48.0934 11.628 47.5054 12.528 46.4254 12.528ZM56.832 13.5L58.632 7.704H57.312L56.088 11.916L54.72 7.704H53.604L52.224 11.916L51 7.704H49.692L51.492 13.5H52.812L54.156 9.252L55.512 13.5H56.832Z" fill="white"/>
</svg>
