<svg width="21" height="20" viewBox="0 0 21 20" fill="none" xmlns="http://www.w3.org/2000/svg">
<path fill-rule="evenodd" clip-rule="evenodd" d="M10.749 20L20.749 15.5V4L10.749 0L0.749023 4V15.5L10.749 20ZM1.74902 14.8534L10.249 18.6784V8.82329L1.74902 4.99829V14.8534ZM2.66117 4.31217L10.749 7.95171L14.2528 6.375L6.37107 2.82821L2.66117 4.31217ZM7.66117 2.31217L15.4712 5.82671L18.8369 4.31217L10.749 1.07703L7.66117 2.31217ZM19.749 4.99829L16.249 6.57329V12C16.249 12.2761 16.0252 12.5 15.749 12.5C15.4729 12.5 15.249 12.2761 15.249 12V7.02329L11.249 8.82329V18.6784L19.749 14.8534V4.99829Z" fill="#180F45"/>
</svg>
