<svg width="21" height="20" viewBox="0 0 21 20" fill="none" xmlns="http://www.w3.org/2000/svg">
<path d="M1 19V7.40103C1 7.23638 1.08106 7.08229 1.21674 6.98901L10.2167 0.801509C10.3874 0.684204 10.6126 0.684204 10.7833 0.80151L19.7833 6.98901C19.9189 7.08229 20 7.23638 20 7.40103V19C20 19.2761 19.7761 19.5 19.5 19.5H14C13.7239 19.5 13.5 19.2761 13.5 19V15.75C13.5 14.3693 12.3807 13.25 11 13.25H10C8.61929 13.25 7.5 14.3693 7.5 15.75V19C7.5 19.2761 7.27614 19.5 7 19.5H1.5C1.22386 19.5 1 19.2761 1 19Z" stroke="#180F45"/>
</svg>
