<svg width="24" height="24" viewBox="0 0 24 24" fill="none" xmlns="http://www.w3.org/2000/svg">
<path d="M21.4472 19.756L21.8079 20.1023L21.4472 19.756C21.3996 19.8056 21.3514 19.855 21.3027 19.904C16.5438 24.6987 8.82965 24.6987 4.07073 19.904C-0.690244 15.1072 -0.690244 7.32862 4.07073 2.53187C4.1177 2.48455 4.16495 2.4377 4.21249 2.39132C4.3052 2.30084 4.38183 2.28252 4.43672 2.28233C4.4997 2.28212 4.58167 2.30668 4.66767 2.37492C4.84593 2.51633 4.96645 2.78613 4.8995 3.07196C3.88567 7.40056 5.05346 12.1455 8.40712 15.5244C11.7563 18.8987 16.46 20.0786 20.7554 19.0641C21.0412 18.9967 21.314 19.1165 21.4585 19.2966C21.5282 19.3834 21.5538 19.4664 21.5542 19.5303C21.5545 19.586 21.5366 19.6629 21.4472 19.756Z" stroke="#180F45"/>
<path d="M15.6629 2.00703C15.6363 1.59194 16.0986 1.32771 16.4428 1.56135L17.8135 2.49197C18.2279 2.77328 18.7553 2.82923 19.2195 2.64112L20.7561 2.01837C21.1405 1.86259 21.5365 2.21557 21.4257 2.61526L20.9638 4.28262C20.8337 4.75203 20.9397 5.25537 21.248 5.63249L22.3446 6.97392C22.6056 7.2932 22.3896 7.77339 21.9776 7.78998L20.3003 7.85751C19.8034 7.87751 19.3487 8.1425 19.0864 8.56497L18.2035 9.98671C17.9833 10.3413 17.4512 10.2859 17.3088 9.89363L16.7323 8.30644C16.5635 7.84172 16.1766 7.49002 15.6979 7.36625L14.0574 6.94209C13.6588 6.83905 13.5486 6.3255 13.8697 6.06796L15.2146 4.98928C15.596 4.68343 15.8043 4.21094 15.773 3.7231L15.6629 2.00703Z" stroke="#180F45"/>
</svg>
