<svg width="20" height="20" viewBox="0 0 20 20" fill="none" xmlns="http://www.w3.org/2000/svg">
<path d="M7 15.5C7 16.6046 6.10457 17.5 5 17.5C3.89543 17.5 3 16.6046 3 15.5" stroke="#180F45"/>
<path d="M17 15.5C17 16.6046 16.1046 17.5 15 17.5C13.8954 17.5 13 16.6046 13 15.5" stroke="#180F45"/>
<path d="M3.14006 3.6746C3.29258 2.9883 3.9013 2.5 4.60434 2.5H13.3215C14.3241 2.5 15.0445 3.46478 14.7597 4.42613L11.6267 15H2.49323C1.53361 15 0.82078 14.1114 1.02895 13.1746L3.14006 3.6746Z" stroke="#180F45"/>
<path d="M14.8445 6.8159L15.9818 7.72574C16.0493 7.77972 16.1016 7.85025 16.1337 7.93048L16.5979 7.74478L16.1337 7.93048L16.9378 9.94091C17.0341 10.1816 17.1911 10.3932 17.3935 10.5551L19.0934 11.9151C19.269 12.0555 19.3292 12.2958 19.2407 12.5025L18.3002 14.697C18.2214 14.8808 18.0406 15 17.8406 15H11.672L14.0532 7.06266C14.155 6.72327 14.5678 6.59455 14.8445 6.8159Z" stroke="#180F45" stroke-linecap="round" stroke-linejoin="round"/>
</svg>
