<svg width="24" height="24" viewBox="0 0 24 24" fill="none" xmlns="http://www.w3.org/2000/svg">
<path d="M18.0062 0.57831L18.1656 0.104413L18.0062 0.57831C18.0977 0.60909 18.1881 0.653083 18.4521 0.785046L18.6753 0.338653L18.4521 0.785046L22.0075 2.56276C22.682 2.90003 22.9097 3.02116 23.0716 3.18649C23.2272 3.34533 23.3455 3.53677 23.418 3.74696L23.8907 3.58393L23.418 3.74696C23.4935 3.96573 23.5 4.22355 23.5 4.97771V14.0203C23.5 14.6839 23.4948 14.9105 23.4342 15.1084C23.3759 15.2985 23.2804 15.4752 23.1533 15.6281C23.0209 15.7872 22.8342 15.9157 22.279 16.2792L12.9698 22.3745C12.2708 22.8322 12.0273 22.9823 11.781 23.0368C11.5443 23.0892 11.2984 23.0835 11.0645 23.0201C10.8209 22.9541 10.5847 22.7928 9.90785 22.303L1.61707 16.3031C1.10804 15.9347 0.937002 15.8051 0.815974 15.6495C0.699673 15.5 0.612747 15.3298 0.559795 15.1479C0.504691 14.9586 0.5 14.7441 0.5 14.1157V4.97771C0.5 4.22355 0.506524 3.96573 0.581982 3.74696C0.65448 3.53677 0.772798 3.34533 0.928373 3.18649C1.0903 3.02116 1.31798 2.90003 1.99252 2.56276L5.54794 0.785047C5.81187 0.653083 5.90232 0.60909 5.99381 0.57831C6.08176 0.548719 6.17227 0.527353 6.26417 0.514487C6.35976 0.501104 6.46034 0.5 6.75542 0.5H17.2446C17.5397 0.5 17.6402 0.501104 17.7358 0.514487C17.8277 0.527353 17.9182 0.548719 18.0062 0.57831Z" stroke="#180F45"/>
<path d="M6 10.5L12 14.85L18 10.5" stroke="#180F45" stroke-linecap="round" stroke-linejoin="round"/>
</svg>
