<svg width="114" height="20" viewBox="0 0 114 20" fill="none" xmlns="http://www.w3.org/2000/svg">
<g clip-path="url(#clip0)">
<path d="M22.9685 19.7032L26.2709 0.333984H31.5399L28.2375 19.7032H22.9685Z" fill="#0058A0"/>
<path d="M47.3841 0.816327C46.3452 0.408163 44.7125 0 42.6717 0C37.4398 0 33.7663 2.63451 33.7663 6.38219C33.7292 9.16512 36.4008 10.7236 38.4045 11.6512C40.4454 12.616 41.1504 13.2096 41.1504 14.0631C41.1504 15.3618 39.5177 15.9555 37.9964 15.9555C35.8814 15.9555 34.7682 15.6586 33.0242 14.9536L32.2821 14.6197L31.54 18.961C32.7645 19.5176 35.065 19.9629 37.4398 20C43.0057 20 46.6049 17.4026 46.642 13.3952C46.6791 11.2059 45.2691 9.49907 42.2264 8.12616C40.3711 7.23562 39.258 6.64193 39.258 5.71429C39.258 4.89796 40.2227 4.04453 42.2635 4.04453C44.0075 4.00742 45.232 4.37848 46.1967 4.78664L46.6791 5.00928L47.3841 0.816327Z" fill="#0058A0"/>
<path d="M60.9276 0.371094H56.846C55.5844 0.371094 54.6197 0.705046 54.0631 1.96664L46.2338 19.7032H51.7625C51.7625 19.7032 52.6531 17.3284 52.8757 16.8089C53.4694 16.8089 58.8497 16.8089 59.6289 16.8089C59.7773 17.4768 60.2597 19.7032 60.2597 19.7032H65.1577L60.9276 0.371094ZM54.4341 12.8386C54.8794 11.7255 56.5492 7.42119 56.5492 7.42119C56.512 7.45829 56.9944 6.30801 57.2542 5.5659L57.6252 7.23566C57.6252 7.23566 58.6271 11.8739 58.8497 12.8386H54.4341Z" fill="#0058A0"/>
<path d="M18.553 0.333984L13.3582 13.5436L12.8016 10.872C11.874 7.79224 8.86839 4.41562 5.52887 2.74586L10.2413 19.7032H15.8443L24.156 0.333984H18.553Z" fill="#0058A0"/>
<path d="M8.57143 0.333984H0.0742115L0 0.742148C6.64193 2.3377 11.0204 6.2338 12.8386 10.872L10.9833 1.96664C10.6494 0.742148 9.72171 0.37109 8.57143 0.333984Z" fill="#FAA61A"/>
</g>
<g clip-path="url(#clip1)">
<path fill-rule="evenodd" clip-rule="evenodd" d="M103.588 20L104.105 19.9821L104.605 19.9464L105.105 19.875L105.605 19.7857L106.088 19.6786L106.57 19.5536L107.034 19.3929L107.48 19.2143L107.927 19L108.355 18.7857L108.784 18.5536L109.195 18.2857L109.588 18L109.963 17.7143L110.32 17.3929L110.677 17.0536L110.998 16.7143L111.32 16.3571L111.605 15.9643L111.891 15.5893L112.159 15.1786L112.391 14.75L112.623 14.3214L112.82 13.875L112.998 13.4286L113.159 12.9643L113.284 12.4821L113.409 12L113.48 11.5L113.552 11L113.588 10.5L113.605 9.98214L113.588 9.46429L113.552 8.96429L113.48 8.46429L113.409 7.96429L113.284 7.48214L113.159 7.01786L112.998 6.55357L112.82 6.10714L112.623 5.66071L112.391 5.23214L112.159 4.82143L111.891 4.41071L111.605 4.01786L111.32 3.64286L110.998 3.26786L110.677 2.92857L110.32 2.58929L109.963 2.28571L109.588 1.98214L109.195 1.71429L108.784 1.44643L108.355 1.21429L107.927 0.982143L107.48 0.785714L107.034 0.607143L106.57 0.446429L106.088 0.321429L105.605 0.196429L105.105 0.107143L104.605 0.0535714L104.105 0.0178571L103.588 0L103.07 0.0178571L102.57 0.0535714L102.07 0.107143L101.57 0.196429L101.088 0.321429L100.623 0.446429L100.159 0.607143L99.6947 0.785714L99.2483 0.982143L98.8197 1.21429L98.409 1.44643L97.9983 1.71429L97.6054 1.98214L97.2304 2.28571L96.8733 2.58929L96.534 2.92857L96.1947 3.26786L95.8911 3.64286L95.5876 4.01786L95.3018 4.41071L95.0518 4.82143L94.8197 5.23214L94.5876 5.66071L94.3911 6.10714L94.2126 6.55357L94.0518 7.01786L93.9268 7.48214L93.8018 7.96429L93.7304 8.46429L93.659 8.96429L93.6233 9.46429L93.6054 9.98214L93.6233 10.5L93.659 11L93.7304 11.5L93.8018 12L93.9268 12.4821L94.0518 12.9643L94.2126 13.4286L94.3911 13.875L94.5876 14.3214L94.8197 14.75L95.0518 15.1786L95.3018 15.5893L95.5876 15.9643L95.8911 16.3571L96.1947 16.7143L96.534 17.0536L96.8733 17.3929L97.2304 17.7143L97.6054 18L97.9983 18.2857L98.409 18.5536L98.8197 18.7857L99.2483 19L99.6947 19.2143L100.159 19.3929L100.623 19.5536L101.088 19.6786L101.57 19.7857L102.07 19.875L102.57 19.9464L103.07 19.9821L103.588 20Z" fill="#FCB331"/>
<path fill-rule="evenodd" clip-rule="evenodd" d="M90.2127 20L90.7305 19.9821L91.2305 19.9464L91.7305 19.875L92.2305 19.7857L92.7127 19.6786L93.177 19.5536L93.6413 19.3929L94.1055 19.2143L94.5341 19L94.9627 18.7857L95.3913 18.5536L95.7841 18.2857L96.177 18L96.5698 17.7143L96.927 17.3929L97.2663 17.0536L97.6055 16.7143L97.9091 16.3571L98.2127 15.9643L98.4805 15.5893L98.7484 15.1786L98.9805 14.75L99.2127 14.3214L99.4091 13.875L99.5877 13.4286L99.7484 12.9643L99.8734 12.4821L99.9805 12L100.07 11.5L100.141 11L100.177 10.5L100.195 9.98214L100.177 9.46429L100.141 8.96429L100.07 8.46429L99.9805 7.96429L99.8734 7.48214L99.7484 7.01786L99.5877 6.55357L99.4091 6.10714L99.2127 5.66071L98.9805 5.23214L98.7484 4.82143L98.4805 4.41071L98.2127 4.01786L97.9091 3.64286L97.6055 3.26786L97.2663 2.92857L96.927 2.58929L96.5698 2.28571L96.177 1.98214L95.7841 1.71429L95.3913 1.44643L94.9627 1.21429L94.5341 0.982143L94.1055 0.785714L93.6413 0.607143L93.177 0.446429L92.7127 0.321429L92.2305 0.196429L91.7305 0.107143L91.2305 0.0535714L90.7305 0.0178571L90.2127 0L89.6948 0.0178571L89.1948 0.0535714L88.6948 0.107143L88.1948 0.196429L87.7127 0.321429L87.2305 0.446429L86.7663 0.607143L86.3198 0.785714L85.8734 0.982143L85.427 1.21429L85.0163 1.44643L84.6055 1.71429L84.2127 1.98214L83.8377 2.28571L83.4805 2.58929L83.1234 2.92857L82.802 3.26786L82.4805 3.64286L82.177 4.01786L81.9091 4.41071L81.6413 4.82143L81.4091 5.23214L81.177 5.66071L80.9805 6.10714L80.802 6.55357L80.6413 7.01786L80.5163 7.48214L80.3913 7.96429L80.302 8.46429L80.2484 8.96429L80.2127 9.46429L80.1948 9.98214L80.2127 10.5L80.2484 11L80.302 11.5L80.3913 12L80.5163 12.4821L80.6413 12.9643L80.802 13.4286L80.9805 13.875L81.177 14.3214L81.4091 14.75L81.6413 15.1786L81.9091 15.5893L82.177 15.9643L82.4805 16.3571L82.802 16.7143L83.1234 17.0536L83.4805 17.3929L83.8377 17.7143L84.2127 18L84.6055 18.2857L85.0163 18.5536L85.427 18.7857L85.8734 19L86.3198 19.2143L86.7663 19.3929L87.2305 19.5536L87.7127 19.6786L88.1948 19.7857L88.6948 19.875L89.1948 19.9464L89.6948 19.9821L90.2127 20Z" fill="#ED1B2E"/>
<path fill-rule="evenodd" clip-rule="evenodd" d="M95.7306 3.83934H101.034V3.28577H96.1949L95.7306 3.83934Z" fill="#FCB331"/>
<path fill-rule="evenodd" clip-rule="evenodd" d="M94.9269 5.03559H101.034V4.49988H95.2484L94.9269 5.03559Z" fill="#FCB331"/>
<path fill-rule="evenodd" clip-rule="evenodd" d="M94.3377 6.2501H101.034V5.69653H94.5699L94.3377 6.2501Z" fill="#FCB331"/>
<path fill-rule="evenodd" clip-rule="evenodd" d="M93.9271 7.44624H101.034V6.91052H94.1056L93.9271 7.44624Z" fill="#FCB331"/>
<path fill-rule="evenodd" clip-rule="evenodd" d="M94.159 13.2858H101.052V12.7501H93.9983L94.159 13.2858Z" fill="#FCB331"/>
<path fill-rule="evenodd" clip-rule="evenodd" d="M94.677 14.5H101.052V13.9464H94.427L94.677 14.5Z" fill="#FCB331"/>
<path fill-rule="evenodd" clip-rule="evenodd" d="M95.3913 15.6965H101.052V15.1608H95.052L95.3913 15.6965Z" fill="#FCB331"/>
<path fill-rule="evenodd" clip-rule="evenodd" d="M96.3733 16.9105H101.052V16.3569H95.9091L96.3733 16.9105Z" fill="#FCB331"/>
<path fill-rule="evenodd" clip-rule="evenodd" d="M93.6948 8.66087H101.034V8.1073H93.8019L93.6948 8.66087Z" fill="#FCB331"/>
<path fill-rule="evenodd" clip-rule="evenodd" d="M98.177 12.0892H100.981V11.5356H98.2663L98.177 12.0892Z" fill="#FCB331"/>
<path fill-rule="evenodd" clip-rule="evenodd" d="M98.3914 10.8751H100.981V10.3394H98.4985L98.3914 10.8751Z" fill="#FCB331"/>
<path fill-rule="evenodd" clip-rule="evenodd" d="M93.4984 10.3394H94.2306V10.8751H93.5341L93.4984 10.3394Z" fill="#FCB331"/>
<path fill-rule="evenodd" clip-rule="evenodd" d="M92.1412 9.67868H92.1055L92.0519 9.66082H92.0162H91.9626L91.9269 9.64296H91.8733L91.8376 9.6251H91.784H91.7483L91.6948 9.60725H91.6233H91.5698H91.4983H91.409L91.3198 9.6251H91.2305L91.159 9.64296H91.1055L91.034 9.66082L90.9983 9.67868L90.9448 9.71439L90.8912 9.73225L90.8733 9.76796L90.8376 9.80368L90.8198 9.83939L90.8019 9.8751L90.784 9.91082V9.96439L90.8019 10.0001L90.8198 10.0358L90.8376 10.0894L90.8733 10.1251L90.9448 10.1965L91.0162 10.2501L91.1233 10.2858L91.2126 10.3215L91.3198 10.3572L91.4448 10.393L91.5519 10.4465L91.659 10.4822L91.7662 10.5358L91.8555 10.6072L91.9448 10.6965L92.0162 10.8037L92.0698 10.9287L92.0876 11.0715L92.1055 11.268L92.0876 11.4822L92.0698 11.6251L92.034 11.768L91.9805 11.893L91.909 12.018L91.8376 12.1072L91.7483 12.1965L91.659 12.268L91.5519 12.3215L91.4448 12.3751L91.3198 12.4287L91.2126 12.4644L91.0876 12.4822L90.9805 12.5001L90.8733 12.518H90.7662H90.659H90.5162H90.3733H90.2483H90.1412H90.034L89.9448 12.5001H89.8733H89.784L89.7305 12.4822L89.659 12.4644H89.5876L89.534 12.4465L89.4805 12.4287L89.4269 12.4108L89.3733 12.393L89.3198 12.3751L89.4626 11.6251H89.4983L89.534 11.643L89.5876 11.6608H89.6412L89.6948 11.6787L89.7662 11.6965L89.8376 11.7144L89.9269 11.7322H89.9983L90.0876 11.7501L90.1769 11.768H90.284L90.3733 11.7858H90.4805H90.5698H90.6769L90.7662 11.7501L90.8376 11.7322L90.909 11.6965L90.9448 11.643L90.9805 11.5894L91.0162 11.5358L91.034 11.4822L91.0519 11.4465V11.3394L91.0162 11.2501L90.9626 11.1965L90.8733 11.1251L90.784 11.0894L90.659 11.0358L90.534 10.9822L90.3912 10.9287L90.2662 10.8751L90.1412 10.8037L90.0162 10.7144L89.909 10.6072L89.8198 10.4822L89.7662 10.3215L89.7305 10.143V9.92868L89.7483 9.80368L89.784 9.67868L89.8019 9.55368L89.8555 9.44653L89.909 9.35725L89.9626 9.26796L90.034 9.17868L90.1233 9.10725L90.2126 9.03582L90.3198 8.98225L90.4448 8.92868L90.5876 8.89296L90.7305 8.8751L90.8912 8.83939L91.0876 8.82153H91.284H91.409H91.5162L91.6233 8.83939H91.7126H91.8019L91.8733 8.85725H91.9448H92.0162L92.0698 8.8751H92.1055L92.159 8.89296H92.1948H92.2305L92.2662 8.91082H92.284H92.3198L92.1412 9.67868Z" fill="white"/>
<path d="M92.1412 9.67868H92.1055L92.0519 9.66082H92.0162H91.9626L91.9269 9.64296H91.8733L91.8376 9.6251H91.784H91.7483L91.6948 9.60725H91.6233H91.5698H91.4983H91.409L91.3198 9.6251H91.2305L91.159 9.64296H91.1055L91.034 9.66082L90.9983 9.67868L90.9448 9.71439L90.8912 9.73225L90.8733 9.76796L90.8376 9.80368L90.8198 9.83939L90.8019 9.8751L90.784 9.91082V9.96439L90.8019 10.0001L90.8198 10.0358L90.8376 10.0894L90.8733 10.1251L90.9448 10.1965L91.0162 10.2501L91.1233 10.2858L91.2126 10.3215L91.3198 10.3572L91.4448 10.393L91.5519 10.4465L91.659 10.4822L91.7662 10.5358L91.8555 10.6072L91.9448 10.6965L92.0162 10.8037L92.0698 10.9287L92.0876 11.0715L92.1055 11.268L92.0876 11.4822L92.0698 11.6251L92.0341 11.768L91.9805 11.893L91.909 12.018L91.8376 12.1072L91.7483 12.1965L91.659 12.268L91.5519 12.3215L91.4448 12.3751L91.3198 12.4287L91.2126 12.4644L91.0876 12.4822L90.9805 12.5001L90.8733 12.518H90.7662H90.659H90.5162H90.3733H90.2483H90.1412H90.034L89.9448 12.5001H89.8733H89.784L89.7305 12.4822L89.659 12.4644H89.5876L89.534 12.4465L89.4805 12.4287L89.4269 12.4108L89.3733 12.393L89.3198 12.3751L89.4626 11.6251H89.4983L89.534 11.643L89.5876 11.6608H89.6412L89.6948 11.6787L89.7662 11.6965L89.8376 11.7144L89.9269 11.7322H89.9983L90.0876 11.7501L90.1769 11.768H90.284L90.3733 11.7858H90.4805H90.5698H90.6769L90.7662 11.7501L90.8376 11.7322L90.909 11.6965L90.9448 11.643L90.9805 11.5894L91.0162 11.5358L91.034 11.4822L91.0519 11.4465V11.3394L91.0162 11.2501L90.9626 11.1965L90.8733 11.1251L90.784 11.0894L90.659 11.0358L90.534 10.9822L90.3912 10.9287L90.2662 10.8751L90.1412 10.8037L90.0162 10.7144L89.909 10.6072L89.8198 10.4822L89.7662 10.3215L89.7305 10.143V9.92868L89.7483 9.80368L89.784 9.67868L89.8019 9.55368L89.8555 9.44653L89.909 9.35725L89.9626 9.26796L90.034 9.17868L90.1233 9.10725L90.2126 9.03582L90.3198 8.98225L90.4448 8.92868L90.5876 8.89296L90.7305 8.8751L90.8912 8.83939L91.0876 8.82153H91.284H91.409H91.5162L91.6233 8.83939H91.7126H91.8019L91.8733 8.85725H91.9448H92.0162L92.0698 8.8751H92.1055L92.159 8.89296H92.1948H92.2305L92.2662 8.91082H92.284H92.3198L92.1412 9.67868Z" stroke="white" stroke-width="0.216" stroke-miterlimit="2.6131"/>
<path fill-rule="evenodd" clip-rule="evenodd" d="M92.9448 8.08948H93.8734L93.7484 8.89305H94.302L94.177 9.6609L93.5877 9.64305L93.2663 11.518V11.5895L93.2841 11.643L93.3198 11.6966L93.3555 11.7323L93.427 11.7502L93.4805 11.768L93.552 11.7859H93.6413H93.7127H93.7841L93.8377 11.768H93.8913L93.9448 11.7502L93.9627 11.7323H93.9984L93.8734 12.3573L93.8555 12.3752L93.8377 12.393H93.802L93.7841 12.4109L93.7663 12.4288H93.7305L93.7127 12.4466H93.677L93.6413 12.4645H93.6055L93.5698 12.4823H93.5341H93.4805L93.427 12.5002H93.3734H93.3198H93.0698H92.927L92.8198 12.4823L92.6948 12.4645L92.6055 12.4466L92.5341 12.4109L92.4627 12.3752L92.4091 12.3395L92.3734 12.2859L92.3377 12.2502L92.3198 12.1966L92.302 12.1252L92.2841 12.0716V12.0002V11.9288V11.8395L92.302 11.768L92.9448 8.08948Z" fill="white"/>
<path d="M92.9448 8.08948H93.8734L93.7484 8.89305H94.302L94.177 9.6609L93.5877 9.64305L93.2663 11.518V11.5895L93.2841 11.643L93.3198 11.6966L93.3555 11.7323L93.427 11.7502L93.4805 11.768L93.552 11.7859H93.6413H93.7127H93.7841L93.8377 11.768H93.8913L93.9448 11.7502L93.9627 11.7323H93.9984L93.8734 12.3573L93.8555 12.3752L93.8377 12.393H93.802L93.7841 12.4109L93.7663 12.4288H93.7305L93.7127 12.4466H93.677L93.6413 12.4645H93.6055L93.5698 12.4823H93.5341H93.4805L93.427 12.5002H93.3734H93.3198H93.0698H92.927L92.8198 12.4823L92.6948 12.4645L92.6055 12.4466L92.5341 12.4109L92.4627 12.3752L92.4091 12.3395L92.3734 12.2859L92.3377 12.2502L92.3198 12.1966L92.302 12.1252L92.2841 12.0716V12.0002V11.9288V11.8395L92.302 11.768L92.9448 8.08948Z" stroke="white" stroke-width="0.216" stroke-miterlimit="2.6131"/>
<path fill-rule="evenodd" clip-rule="evenodd" d="M95.052 10.9287L95.0342 10.9822V11.0537L95.052 11.1072V11.1787L95.0877 11.2322L95.1056 11.3037L95.1413 11.3572L95.177 11.4287L95.2306 11.4822L95.2842 11.5358L95.3377 11.5894L95.3913 11.6251L95.4627 11.6608L95.5342 11.6965L95.5877 11.7144L95.6592 11.7322H95.7485L95.8377 11.7501L95.927 11.768H96.0163H96.0877H96.1949H96.2663H96.3735L96.4627 11.7501L96.552 11.7322L96.6413 11.7144L96.7306 11.6787L96.8199 11.643L96.927 11.6072L97.0163 11.5537L97.1235 11.4822L96.9806 12.3215L96.927 12.3394L96.8735 12.3751L96.8199 12.393L96.7663 12.4108L96.7127 12.4287L96.6592 12.4465L96.6056 12.4644H96.552L96.4985 12.4822H96.427L96.3556 12.5001H96.2842H96.1949H96.1056H95.9985H95.8913H95.7127L95.552 12.4822L95.3735 12.4644L95.2127 12.4287L95.052 12.3751L94.8913 12.3037L94.7306 12.2322L94.5877 12.1251L94.4627 12.018L94.3556 11.8751L94.2485 11.7144L94.177 11.5358L94.1056 11.3394L94.0699 11.1072V10.8751L94.0877 10.5894V10.4822L94.1235 10.3572L94.1413 10.2322L94.177 10.0894L94.2306 9.94653L94.2842 9.78582L94.3735 9.64296L94.4627 9.5001L94.5699 9.3751L94.6949 9.23225L94.8556 9.1251L95.0163 9.01796L95.2127 8.94653L95.427 8.8751L95.677 8.83939L95.9449 8.82153H96.0877L96.2127 8.83939L96.3556 8.8751L96.4985 8.89296L96.6413 8.94653L96.7663 9.01796L96.8913 9.08939L96.9985 9.17868L97.1056 9.30368L97.177 9.42868L97.2485 9.58939L97.302 9.76796L97.3199 9.96439V10.1965L97.302 10.4644L97.2485 10.7501L97.2306 10.9465H94.7842L94.927 10.2858H96.4092V10.1965V10.1251V10.0358L96.3913 9.98225L96.3735 9.91082L96.3377 9.85725L96.3199 9.80368L96.2842 9.7501L96.2306 9.71439L96.1949 9.67868L96.1413 9.66082L96.0877 9.6251L96.0342 9.60725L95.9806 9.58939H95.927L95.8735 9.57153H95.802L95.7485 9.58939L95.677 9.60725L95.6235 9.6251L95.5699 9.64296L95.5163 9.67868L95.4627 9.71439L95.427 9.7501L95.3735 9.80368L95.3377 9.85725L95.302 9.91082L95.2663 9.96439L95.2485 10.018L95.2127 10.0894L95.1949 10.1608L95.177 10.2322L95.052 10.9287Z" fill="white"/>
<path d="M95.052 10.9287L95.0342 10.9822V11.0537L95.052 11.1072V11.1787L95.0877 11.2322L95.1056 11.3037L95.1413 11.3572L95.177 11.4287L95.2306 11.4822L95.2842 11.5358L95.3377 11.5894L95.3913 11.6251L95.4627 11.6608L95.5342 11.6965L95.5877 11.7144L95.6592 11.7322H95.7485L95.8377 11.7501L95.927 11.768H96.0163H96.0877H96.1949H96.2663H96.3735L96.4627 11.7501L96.552 11.7322L96.6413 11.7144L96.7306 11.6787L96.8199 11.643L96.927 11.6072L97.0163 11.5537L97.1235 11.4822L96.9806 12.3215L96.927 12.3394L96.8735 12.3751L96.8199 12.393L96.7663 12.4108L96.7127 12.4287L96.6592 12.4465L96.6056 12.4644H96.552L96.4985 12.4822H96.427L96.3556 12.5001H96.2842H96.1949H96.1056H95.9985H95.8913H95.7127L95.552 12.4822L95.3735 12.4644L95.2127 12.4287L95.052 12.3751L94.8913 12.3037L94.7306 12.2322L94.5877 12.1251L94.4627 12.018L94.3556 11.8751L94.2485 11.7144L94.177 11.5358L94.1056 11.3394L94.0699 11.1072V10.8751L94.0877 10.5894V10.4822L94.1235 10.3572L94.1413 10.2322L94.177 10.0894L94.2306 9.94653L94.2842 9.78582L94.3735 9.64296L94.4627 9.5001L94.5699 9.3751L94.6949 9.23225L94.8556 9.1251L95.0163 9.01796L95.2127 8.94653L95.427 8.8751L95.677 8.83939L95.9449 8.82153H96.0877L96.2127 8.83939L96.3556 8.8751L96.4985 8.89296L96.6413 8.94653L96.7663 9.01796L96.8913 9.08939L96.9985 9.17868L97.1056 9.30368L97.177 9.42868L97.2485 9.58939L97.302 9.76796L97.3199 9.96439V10.1965L97.302 10.4644L97.2485 10.7501L97.2306 10.9465H94.7842L94.927 10.2858H96.4092V10.1965V10.1251V10.0358L96.3913 9.98225L96.3735 9.91082L96.3377 9.85725L96.3199 9.80368L96.2842 9.7501L96.2306 9.71439L96.1949 9.67868L96.1413 9.66082L96.0877 9.6251L96.0342 9.60725L95.9806 9.58939H95.927L95.8735 9.57153H95.802L95.7485 9.58939L95.677 9.60725L95.6235 9.6251L95.5699 9.64296L95.5163 9.67868L95.4627 9.71439L95.427 9.7501L95.3735 9.80368L95.3377 9.85725L95.302 9.91082L95.2663 9.96439L95.2485 10.018L95.2127 10.0894L95.1949 10.1608L95.177 10.2322L95.052 10.9287Z" stroke="white" stroke-width="0.216" stroke-miterlimit="2.6131"/>
<path fill-rule="evenodd" clip-rule="evenodd" d="M103.088 9.10716L103.052 9.07145L102.998 9.05359L102.963 9.03573L102.909 9.00002L102.855 8.98216L102.802 8.9643L102.748 8.94645L102.677 8.92859L102.623 8.91073L102.552 8.89287L102.48 8.87502H102.409H102.338L102.266 8.85716H102.177H102.088H102.016L101.927 8.87502H101.838L101.73 8.89287L101.641 8.92859L101.552 8.9643L101.445 9.00002L101.355 9.07145L101.266 9.14287L101.177 9.23216L101.088 9.3393L101.016 9.4643L100.945 9.60716L100.873 9.78573L100.802 9.9643L100.748 10.1786L100.73 10.3036L100.713 10.4286V10.5357V10.6607L100.73 10.7679L100.748 10.875L100.784 10.9822L100.82 11.0714L100.873 11.1786L100.927 11.25L100.998 11.3393L101.07 11.4107L101.177 11.4643L101.266 11.5179L101.391 11.5536L101.516 11.5893L101.552 11.6072H101.605L101.677 11.625H101.73H101.82H101.891H101.98H102.052L102.141 11.6072L102.23 11.5893L102.32 11.5714L102.409 11.5536L102.48 11.5179L102.57 11.4643L102.641 11.4107L102.695 11.3572L102.552 12.25L102.534 12.2679L102.516 12.2857L102.48 12.3214L102.445 12.3393L102.409 12.3572L102.373 12.3929L102.32 12.4107L102.248 12.4286L102.177 12.4464L102.088 12.4643L101.98 12.4822L101.873 12.5H101.73H101.588H101.409H101.23L101.07 12.4822L100.909 12.4464L100.766 12.3929L100.605 12.3214L100.463 12.25L100.32 12.1429L100.177 12.0179L100.052 11.8929L99.9448 11.7322L99.8555 11.5714L99.7662 11.375L99.7126 11.1786L99.6591 10.9464V10.7143V10.4464L99.6948 10.1607L99.7305 10.0179L99.7483 9.89287L99.7841 9.76787L99.8198 9.64287L99.8555 9.51787L99.9091 9.39287L99.9448 9.28573L99.9983 9.17859L100.052 9.07145L100.088 8.98216L100.159 8.89287L100.213 8.80359L100.266 8.7143L100.338 8.62502L100.409 8.55359L100.48 8.48216L100.552 8.42859L100.641 8.35716L100.713 8.30359L100.802 8.25002L100.891 8.19645L100.98 8.14287L101.07 8.10716L101.177 8.07145L101.284 8.03573L101.391 8.01787L101.498 7.98216L101.605 7.9643L101.73 7.94645H101.838L101.963 7.92859H102.088H102.195L102.302 7.94645H102.409L102.516 7.9643L102.605 7.98216L102.695 8.00002L102.784 8.01787L102.855 8.03573L102.945 8.05359L102.998 8.07145L103.07 8.0893L103.123 8.10716L103.177 8.12502L103.213 8.14287L103.248 8.16073H103.266L103.088 9.10716Z" fill="white"/>
<path d="M103.088 9.10716L103.052 9.07145L102.998 9.05359L102.963 9.03573L102.909 9.00002L102.855 8.98216L102.802 8.9643L102.748 8.94645L102.677 8.92859L102.623 8.91073L102.552 8.89287L102.48 8.87502H102.409H102.338L102.266 8.85716H102.177H102.088H102.016L101.927 8.87502H101.838L101.73 8.89287L101.641 8.92859L101.552 8.9643L101.445 9.00002L101.355 9.07145L101.266 9.14287L101.177 9.23216L101.088 9.3393L101.016 9.4643L100.945 9.60716L100.873 9.78573L100.802 9.9643L100.748 10.1786L100.73 10.3036L100.713 10.4286V10.5357V10.6607L100.73 10.7679L100.748 10.875L100.784 10.9822L100.82 11.0714L100.873 11.1786L100.927 11.25L100.998 11.3393L101.07 11.4107L101.177 11.4643L101.266 11.5179L101.391 11.5536L101.516 11.5893L101.552 11.6072H101.605L101.677 11.625H101.73H101.82H101.891H101.98H102.052L102.141 11.6072L102.23 11.5893L102.32 11.5714L102.409 11.5536L102.48 11.5179L102.57 11.4643L102.641 11.4107L102.695 11.3572L102.552 12.25L102.534 12.2679L102.516 12.2857L102.48 12.3214L102.445 12.3393L102.409 12.3572L102.373 12.3929L102.32 12.4107L102.248 12.4286L102.177 12.4464L102.088 12.4643L101.98 12.4822L101.873 12.5H101.73H101.588H101.409H101.23L101.07 12.4822L100.909 12.4464L100.766 12.3929L100.605 12.3214L100.463 12.25L100.32 12.1429L100.177 12.0179L100.052 11.8929L99.9448 11.7322L99.8555 11.5714L99.7662 11.375L99.7126 11.1786L99.6591 10.9464V10.7143V10.4464L99.6948 10.1607L99.7305 10.0179L99.7483 9.89287L99.7841 9.76787L99.8198 9.64287L99.8555 9.51787L99.9091 9.39287L99.9448 9.28573L99.9983 9.17859L100.052 9.07145L100.088 8.98216L100.159 8.89287L100.213 8.80359L100.266 8.7143L100.338 8.62502L100.409 8.55359L100.48 8.48216L100.552 8.42859L100.641 8.35716L100.713 8.30359L100.802 8.25002L100.891 8.19645L100.98 8.14287L101.07 8.10716L101.177 8.07145L101.284 8.03573L101.391 8.01787L101.498 7.98216L101.605 7.9643L101.73 7.94645H101.838L101.963 7.92859H102.088H102.195L102.302 7.94645H102.409L102.516 7.9643L102.605 7.98216L102.695 8.00002L102.784 8.01787L102.855 8.03573L102.945 8.05359L102.998 8.07145L103.07 8.0893L103.123 8.10716L103.177 8.12502L103.213 8.14287L103.248 8.16073H103.266L103.088 9.10716Z" stroke="white" stroke-width="0.216" stroke-miterlimit="2.6131"/>
<path fill-rule="evenodd" clip-rule="evenodd" d="M111.391 12.5002H110.463L110.534 12.1431V12.1073L110.481 12.1609L110.427 12.2323L110.356 12.2859L110.302 12.3216L110.248 12.3752L110.177 12.4109L110.123 12.4466L110.052 12.4645L109.998 12.5002L109.927 12.5181L109.856 12.5359H109.802L109.731 12.5538H109.659H109.588H109.534H109.356L109.195 12.5002L109.052 12.4466L108.909 12.3752L108.784 12.2681L108.677 12.1609L108.588 12.0359L108.498 11.8931L108.445 11.7502L108.391 11.5895L108.338 11.4109L108.32 11.2502L108.302 11.0716L108.32 10.8931V10.7323L108.356 10.5538L108.409 10.3573L108.463 10.1609L108.534 10.0002L108.623 9.83948L108.713 9.67877L108.82 9.55376L108.927 9.42876L109.034 9.32162L109.141 9.21448L109.266 9.12519L109.409 9.05376L109.534 9.00019L109.659 8.94662L109.802 8.92876L109.927 8.91091L110.07 8.89305H110.177L110.266 8.91091L110.356 8.92876L110.427 8.94662L110.516 8.98234L110.57 9.00019L110.641 9.05376L110.713 9.08948L110.766 9.12519L110.802 9.16091L110.856 9.21448L110.891 9.25019L110.927 9.30376L110.963 9.33948L110.981 9.37519L110.998 9.42876L111.248 8.08948H112.159L111.391 12.5002Z" fill="white"/>
<path d="M111.391 12.5002H110.463L110.534 12.1431V12.1073L110.481 12.1609L110.427 12.2323L110.356 12.2859L110.302 12.3216L110.248 12.3752L110.177 12.4109L110.123 12.4466L110.052 12.4645L109.998 12.5002L109.927 12.5181L109.856 12.5359H109.802L109.731 12.5538H109.659H109.588H109.534H109.356L109.195 12.5002L109.052 12.4466L108.909 12.3752L108.784 12.2681L108.677 12.1609L108.588 12.0359L108.498 11.8931L108.445 11.7502L108.391 11.5895L108.338 11.4109L108.32 11.2502L108.302 11.0716L108.32 10.8931V10.7323L108.356 10.5538L108.409 10.3573L108.463 10.1609L108.534 10.0002L108.623 9.83948L108.713 9.67877L108.82 9.55376L108.927 9.42876L109.034 9.32162L109.141 9.21448L109.266 9.12519L109.409 9.05376L109.534 9.00019L109.659 8.94662L109.802 8.92876L109.927 8.91091L110.07 8.89305H110.177L110.266 8.91091L110.356 8.92876L110.427 8.94662L110.516 8.98234L110.57 9.00019L110.641 9.05376L110.713 9.08948L110.766 9.12519L110.802 9.16091L110.856 9.21448L110.891 9.25019L110.927 9.30376L110.963 9.33948L110.981 9.37519L110.998 9.42876L111.248 8.08948H112.159L111.391 12.5002Z" stroke="white" stroke-width="0.216" stroke-miterlimit="2.6131"/>
<path fill-rule="evenodd" clip-rule="evenodd" d="M109.873 11.6965L109.963 11.6786L110.052 11.6608L110.141 11.6429L110.213 11.6072L110.284 11.5715L110.356 11.5179L110.409 11.4644L110.463 11.3929L110.516 11.3215L110.57 11.2501L110.606 11.1786L110.641 11.0894L110.677 11.0179L110.713 10.9286L110.731 10.8394L110.748 10.7501L110.766 10.6429L110.784 10.5536V10.4644L110.766 10.3572V10.2679L110.748 10.1965L110.731 10.1072L110.695 10.0358L110.659 9.96436L110.623 9.89293L110.588 9.83935L110.534 9.80364L110.481 9.76793L110.409 9.73221L110.356 9.71436H110.284H110.195L110.106 9.73221L110.016 9.75007L109.945 9.78578L109.873 9.83935L109.82 9.89293L109.748 9.9465L109.695 10.0179L109.641 10.0894L109.606 10.1608L109.552 10.2501L109.516 10.3215L109.481 10.4286L109.463 10.5179L109.427 10.6072L109.409 10.7144L109.391 10.8572L109.409 11.0179L109.427 11.1786L109.463 11.3394L109.534 11.4822L109.623 11.5894L109.731 11.6608L109.873 11.6965Z" fill="#FCB331"/>
<path fill-rule="evenodd" clip-rule="evenodd" d="M89.1591 11.7676L89.0163 12.4998H88.177L88.1949 12.3748L88.2127 12.2498L88.2306 12.1426L88.2484 12.1069L88.1949 12.1605L88.1413 12.2141L88.0699 12.2676L87.9984 12.3034L87.927 12.3569L87.8377 12.3926L87.7484 12.4284L87.6591 12.4641L87.5699 12.4998L87.4627 12.5176L87.3734 12.5355L87.2663 12.5534L87.177 12.5712H87.0699L86.9806 12.5534L86.8913 12.5355L86.7663 12.5176L86.6591 12.4819L86.5699 12.4284L86.4806 12.3926L86.4091 12.3212L86.3377 12.2676L86.2841 12.1962L86.2306 12.1426L86.1949 12.0712L86.1591 11.9998L86.1413 11.9105L86.1234 11.8391L86.1056 11.7676L86.0877 11.6962V11.6069V11.5355L86.1056 11.4105L86.1234 11.2855L86.1591 11.1605L86.1949 11.0534L86.2484 10.9462L86.302 10.8391L86.3734 10.7498L86.4627 10.6605L86.552 10.5891L86.6413 10.5176L86.7306 10.4462L86.8377 10.3926L86.9449 10.3569L87.052 10.3212L87.177 10.2855L87.2841 10.2676H87.302H87.3199H87.3377L87.3734 10.2498H87.4091H87.4627L87.5163 10.2319H87.5699H87.6234L87.677 10.2141H87.7484H87.802L87.8556 10.1962H87.9091H87.9449H87.9806H88.0699H88.1413H88.2127H88.302L88.3556 10.2141H88.4091H88.4449L88.4627 10.1962L88.4806 10.1248L88.4984 10.0534V9.99979L88.4806 9.92836L88.4627 9.85693L88.4091 9.7855L88.3556 9.74979L88.302 9.69622L88.2306 9.6605L88.1413 9.64265H88.052H87.9627H87.8556H87.7484H87.6413H87.5341L87.427 9.6605H87.3199L87.2127 9.67836L87.1234 9.69622L87.0163 9.71408L86.927 9.73193L86.8556 9.74979L86.7663 9.76765L86.7127 9.7855L86.6591 9.80336L86.6234 9.82122L86.8734 9.01765L86.9449 8.98193L87.0163 8.96408L87.1056 8.92836L87.177 8.91051L87.2663 8.89265H87.3556L87.427 8.87479H87.5341L87.6234 8.85693H87.7127H87.8199H87.927H88.0341H88.1413H88.2663H88.3734L88.4806 8.87479H88.5699L88.677 8.91051L88.7841 8.92836L88.8913 8.98193L88.9984 9.01765L89.0877 9.08908L89.1949 9.14265L89.2663 9.21408L89.3556 9.30336L89.4091 9.39265L89.4627 9.49979L89.4984 9.60693L89.5163 9.71408V9.83908L89.4984 9.98193L89.1591 11.7676Z" fill="white"/>
<path d="M89.1591 11.7676L89.0163 12.4998H88.177L88.1949 12.3748L88.2127 12.2498L88.2306 12.1426L88.2484 12.1069L88.1949 12.1605L88.1413 12.2141L88.0699 12.2676L87.9984 12.3034L87.927 12.3569L87.8377 12.3926L87.7484 12.4284L87.6591 12.4641L87.5699 12.4998L87.4627 12.5176L87.3734 12.5355L87.2663 12.5534L87.177 12.5712H87.0699L86.9806 12.5534L86.8913 12.5355L86.7663 12.5176L86.6591 12.4819L86.5699 12.4284L86.4806 12.3926L86.4091 12.3212L86.3377 12.2676L86.2841 12.1962L86.2306 12.1426L86.1949 12.0712L86.1591 11.9998L86.1413 11.9105L86.1234 11.8391L86.1056 11.7676L86.0877 11.6962V11.6069V11.5355L86.1056 11.4105L86.1234 11.2855L86.1591 11.1605L86.1949 11.0534L86.2484 10.9462L86.302 10.8391L86.3734 10.7498L86.4627 10.6605L86.552 10.5891L86.6413 10.5176L86.7306 10.4462L86.8377 10.3926L86.9449 10.3569L87.052 10.3212L87.177 10.2855L87.2841 10.2676H87.302H87.3199H87.3377L87.3734 10.2498H87.4091H87.4627L87.5163 10.2319H87.5699H87.6234L87.677 10.2141H87.7484H87.802L87.8556 10.1962H87.9091H87.9449H87.9806H88.0699H88.1413H88.2127H88.302L88.3556 10.2141H88.4091H88.4449L88.4627 10.1962L88.4806 10.1248L88.4984 10.0534V9.99979L88.4806 9.92836L88.4627 9.85693L88.4091 9.78551L88.3556 9.74979L88.302 9.69622L88.2306 9.6605L88.1413 9.64265H88.052H87.9627H87.8556H87.7484H87.6413H87.5341L87.427 9.6605H87.3199L87.2127 9.67836L87.1234 9.69622L87.0163 9.71408L86.927 9.73193L86.8556 9.74979L86.7663 9.76765L86.7127 9.78551L86.6591 9.80336L86.6234 9.82122L86.8734 9.01765L86.9449 8.98193L87.0163 8.96408L87.1056 8.92836L87.177 8.91051L87.2663 8.89265H87.3556L87.427 8.87479H87.5341L87.6234 8.85693H87.7127H87.8199H87.927H88.0341H88.1413H88.2663H88.3734L88.4806 8.87479H88.5699L88.677 8.91051L88.7841 8.92836L88.8913 8.98193L88.9984 9.01765L89.0877 9.08908L89.1949 9.14265L89.2663 9.21408L89.3556 9.30336L89.4091 9.39265L89.4627 9.49979L89.4984 9.60693L89.5163 9.71408V9.83908L89.4984 9.98193L89.1591 11.7676Z" stroke="white" stroke-width="0.216" stroke-miterlimit="2.6131"/>
<path fill-rule="evenodd" clip-rule="evenodd" d="M88.3378 10.875V10.8571V10.8393H88.3021L88.2842 10.8214H88.2306H88.1949H88.1414H88.0878H88.0342H87.9806L87.9271 10.8393H87.8735L87.8199 10.8571H87.7842L87.7306 10.875H87.6949L87.6771 10.8928H87.6414L87.6056 10.9107L87.5699 10.9286L87.5342 10.9464L87.4806 10.9643L87.4449 11L87.3914 11.0178L87.3556 11.0536L87.3021 11.0893L87.2664 11.125L87.2306 11.1786L87.1949 11.2143L87.1771 11.2678L87.1414 11.3214V11.375V11.4821L87.1592 11.5714L87.1949 11.6428L87.2306 11.6964L87.2842 11.7321L87.3378 11.75H87.3914L87.4449 11.7678L87.5521 11.75H87.6414L87.7306 11.7321L87.8021 11.7143L87.8735 11.6964L87.9271 11.6607L87.9985 11.625L88.0342 11.5893L88.0878 11.5536L88.1235 11.5178L88.1592 11.4821L88.1949 11.4464L88.2128 11.3928L88.2306 11.3571L88.2485 11.3214L88.2664 11.2857L88.2842 11.1786L88.3021 11.0714L88.3378 10.9643V10.875Z" fill="#ED1B2E"/>
<path fill-rule="evenodd" clip-rule="evenodd" d="M82.0697 12.5002H81.1412L81.909 8.08948H83.4983L83.659 10.7145L84.7662 8.08948H86.4269L85.6412 12.5002H84.7305L85.3019 9.19662H85.2662L83.8912 12.5002H82.8555V12.3752L82.8376 12.0002L82.8019 11.4823L82.7662 10.8752L82.7305 10.268L82.7126 9.75019L82.6769 9.35733V9.19662H82.659H82.6412H82.6233L82.0697 12.5002Z" fill="white"/>
<path d="M82.0697 12.5002H81.1412L81.909 8.08948H83.4983L83.659 10.7145L84.7662 8.08948H86.4269L85.6412 12.5002H84.7305L85.3019 9.19662H85.2662L83.8912 12.5002H82.8555V12.3752L82.8376 12.0002L82.8019 11.4823L82.7662 10.8752L82.7305 10.268L82.7126 9.75019L82.6769 9.35733V9.19662H82.659H82.6412H82.6233L82.0697 12.5002Z" stroke="white" stroke-width="0.216" stroke-miterlimit="2.6131"/>
<path fill-rule="evenodd" clip-rule="evenodd" d="M105.891 11.7676L105.766 12.4998H104.909L104.927 12.3748V12.2498V12.1605V12.1248L104.891 12.1605L104.838 12.2141L104.766 12.2676L104.713 12.3212L104.641 12.3569L104.552 12.3926L104.463 12.4462L104.391 12.4641L104.302 12.4998L104.195 12.5176L104.106 12.5355L104.016 12.5534L103.909 12.5712H103.82L103.731 12.5534L103.641 12.5355L103.516 12.5176L103.409 12.4819L103.32 12.4284L103.231 12.3926L103.159 12.3212L103.088 12.2676L103.034 12.1962L102.981 12.1426L102.945 12.0712L102.909 11.9998L102.891 11.9105L102.873 11.8391L102.856 11.7676V11.6962L102.838 11.6069V11.5355L102.856 11.4105L102.873 11.2855L102.891 11.1605L102.945 11.0534L102.998 10.9462L103.052 10.8391L103.123 10.7498L103.213 10.6605L103.302 10.5891L103.391 10.5176L103.481 10.4462L103.588 10.3926L103.695 10.3569L103.802 10.3212L103.909 10.2855L104.034 10.2676H104.052H104.07L104.106 10.2498H104.159H104.195L104.248 10.2319H104.302H104.356L104.427 10.2141H104.481H104.534L104.588 10.1962H104.641H104.695H104.731H104.802H104.891H104.963H105.034L105.106 10.2141H105.159H105.177H105.195L105.213 10.1962V10.1248L105.231 10.0534V9.99979L105.213 9.92836L105.195 9.85693L105.141 9.7855L105.106 9.74979L105.034 9.69622L104.963 9.6605L104.891 9.64265H104.82H104.713H104.623H104.516H104.409H104.284L104.177 9.6605H104.07L103.963 9.67836L103.873 9.69622L103.766 9.71408L103.677 9.73193L103.606 9.74979L103.534 9.76765L103.463 9.7855L103.427 9.80336L103.391 9.82122L103.623 9.01765L103.695 8.98193L103.766 8.96408L103.856 8.92836L103.927 8.91051L104.016 8.89265H104.106L104.195 8.87479H104.284L104.373 8.85693H104.463H104.57H104.677H104.784H104.891H104.998H105.106L105.213 8.87479H105.302L105.409 8.91051L105.516 8.92836L105.623 8.98193L105.731 9.01765L105.838 9.08908L105.927 9.14265L106.016 9.21408L106.088 9.30336L106.159 9.39265L106.213 9.49979L106.248 9.60693L106.266 9.71408V9.83908L106.248 9.98193L105.891 11.7676Z" fill="white"/>
<path fill-rule="evenodd" clip-rule="evenodd" d="M105.766 12.5358L105.784 12.518L105.909 11.768L105.873 11.7501L105.731 12.5001L105.766 12.4823V12.5358H105.784V12.518L105.766 12.5358Z" fill="white"/>
<path fill-rule="evenodd" clip-rule="evenodd" d="M104.891 12.5002L104.909 12.5359H105.766V12.4823H104.909L104.927 12.5002H104.891V12.5359H104.909L104.891 12.5002Z" fill="white"/>
<path fill-rule="evenodd" clip-rule="evenodd" d="M104.945 12.1253L104.909 12.1074V12.161L104.891 12.2503V12.3753V12.5003H104.927L104.945 12.3753V12.2503V12.161V12.1253L104.909 12.1074L104.945 12.1253Z" fill="white"/>
<path fill-rule="evenodd" clip-rule="evenodd" d="M103.641 12.5717H103.73L103.82 12.5896H103.909L104.016 12.5717H104.105L104.213 12.5539L104.302 12.5181L104.391 12.5003L104.48 12.4646L104.57 12.411L104.641 12.3753L104.713 12.3217L104.784 12.286L104.855 12.2324L104.909 12.1788L104.945 12.1253L104.909 12.1074L104.873 12.161L104.82 12.1967L104.766 12.2503L104.695 12.3039L104.623 12.3396L104.552 12.3753L104.463 12.411L104.373 12.4467L104.284 12.4824L104.195 12.5003L104.105 12.5181L104.016 12.536H103.909L103.82 12.5539L103.73 12.536L103.641 12.5181V12.5717Z" fill="white"/>
<path fill-rule="evenodd" clip-rule="evenodd" d="M102.82 11.5356V11.6071V11.6964L102.838 11.7678L102.856 11.8392L102.873 11.9285L102.891 11.9999L102.927 12.0714L102.963 12.1428L103.016 12.2142L103.07 12.2856L103.141 12.3392L103.213 12.3928L103.302 12.4464L103.409 12.4999L103.516 12.5356L103.641 12.5714V12.5178L103.516 12.4999L103.409 12.4642L103.32 12.4106L103.231 12.3749L103.159 12.3214L103.106 12.2499L103.052 12.1964L102.998 12.1249L102.963 12.0535L102.927 11.9821L102.909 11.9106L102.891 11.8392L102.873 11.7678V11.6964L102.856 11.6071L102.873 11.5356H102.82Z" fill="white"/>
<path fill-rule="evenodd" clip-rule="evenodd" d="M104.034 10.2501L103.909 10.268L103.802 10.3037L103.677 10.3394L103.57 10.3751L103.481 10.4287L103.373 10.5001L103.284 10.5716L103.195 10.6608L103.106 10.7323L103.034 10.8394L102.981 10.9287L102.927 11.0537L102.873 11.1608L102.856 11.2858L102.82 11.4108V11.5358H102.873V11.4108L102.891 11.2858L102.927 11.1787L102.963 11.0537L103.016 10.9466L103.07 10.8573L103.141 10.768L103.213 10.6787L103.302 10.6073L103.391 10.5358L103.498 10.4823L103.606 10.4287L103.695 10.3751L103.802 10.3394L103.909 10.3037L104.034 10.2858V10.2501Z" fill="white"/>
<path fill-rule="evenodd" clip-rule="evenodd" d="M104.73 10.1785H104.695H104.641H104.588L104.534 10.1963H104.48H104.427H104.355L104.302 10.2142H104.248L104.195 10.232H104.159H104.105H104.07L104.052 10.2499H104.034V10.2856H104.052H104.07L104.105 10.2678H104.159H104.195H104.248L104.302 10.2499H104.355L104.427 10.232H104.48H104.534H104.588L104.641 10.2142H104.695H104.73V10.1785Z" fill="white"/>
<path fill-rule="evenodd" clip-rule="evenodd" d="M105.177 10.2142L105.195 10.1963H105.177H105.159H105.106L105.034 10.1785H104.963H104.891H104.802H104.731V10.2142H104.802H104.891L104.963 10.232H105.034H105.106H105.159H105.177H105.195L105.213 10.2142L105.195 10.232H105.213V10.2142H105.177Z" fill="white"/>
<path fill-rule="evenodd" clip-rule="evenodd" d="M105.213 10V10.0536L105.195 10.125L105.177 10.1964V10.2143H105.213L105.231 10.1964V10.1429L105.248 10.0536V10H105.213Z" fill="white"/>
<path fill-rule="evenodd" clip-rule="evenodd" d="M104.82 9.66084H104.891L104.963 9.69655L105.034 9.71441L105.088 9.76798L105.123 9.80369L105.177 9.85726L105.195 9.92869L105.213 10.0001H105.248L105.231 9.91084L105.213 9.83941L105.159 9.78584L105.106 9.73226L105.052 9.67869L104.981 9.64298L104.891 9.62512H104.82V9.66084Z" fill="white"/>
<path fill-rule="evenodd" clip-rule="evenodd" d="M103.356 9.82171L103.391 9.83956L103.427 9.82171L103.481 9.80385L103.534 9.78599L103.606 9.76814L103.695 9.75028L103.784 9.73242L103.873 9.71456L103.963 9.69671L104.07 9.67885H104.177L104.284 9.66099H104.409H104.516H104.623H104.713H104.82V9.62528H104.713L104.623 9.60742H104.516L104.409 9.62528H104.284L104.177 9.64314H104.07L103.963 9.66099L103.873 9.67885L103.766 9.69671L103.677 9.71456H103.606L103.534 9.75028L103.463 9.76814L103.409 9.78599L103.373 9.80385L103.409 9.83956L103.356 9.82171Z" fill="white"/>
<path fill-rule="evenodd" clip-rule="evenodd" d="M103.606 9.00012V9.01798L103.356 9.82155L103.409 9.83941L103.641 9.01798L103.623 9.03584L103.606 9.00012V9.01798V9.00012Z" fill="white"/>
<path fill-rule="evenodd" clip-rule="evenodd" d="M105.105 8.83939H104.998L104.891 8.82153H104.784H104.677H104.57L104.463 8.83939H104.373H104.284L104.195 8.85725L104.088 8.8751H104.016L103.927 8.89296L103.838 8.91082L103.766 8.92868L103.695 8.96439L103.605 9.00011L103.623 9.03582L103.695 9.00011L103.784 8.98225L103.855 8.94653L103.927 8.92868H104.016L104.105 8.91082L104.195 8.89296H104.284L104.373 8.8751H104.463H104.57H104.677H104.784H104.891H104.998H105.105V8.83939Z" fill="white"/>
<path fill-rule="evenodd" clip-rule="evenodd" d="M106.266 9.98209L106.284 9.83923V9.71423L106.266 9.60709L106.231 9.48209L106.177 9.37495L106.106 9.28566L106.016 9.19638L105.945 9.12495L105.838 9.07138L105.748 8.99995L105.641 8.96423L105.534 8.91066L105.409 8.8928L105.32 8.85709L105.213 8.83923H105.106V8.87495L105.213 8.8928L105.302 8.91066L105.409 8.92852L105.516 8.96423L105.623 8.99995L105.713 9.05352L105.82 9.10709L105.909 9.16066L105.998 9.23209L106.07 9.32138L106.141 9.41066L106.195 9.49995L106.231 9.60709L106.248 9.71423V9.83923L106.231 9.98209H106.266Z" fill="white"/>
<path fill-rule="evenodd" clip-rule="evenodd" d="M105.909 11.768L106.266 9.9823H106.23L105.873 11.7502L105.909 11.768Z" fill="white"/>
<path fill-rule="evenodd" clip-rule="evenodd" d="M105.088 10.875L105.07 10.8571L105.052 10.8393H105.034L104.998 10.8214H104.963H104.927H104.874H104.82H104.766L104.713 10.8393H104.659H104.606L104.552 10.8571H104.516L104.463 10.875H104.445H104.409L104.391 10.8928L104.356 10.9107H104.32L104.266 10.9286L104.231 10.9643L104.177 10.9821L104.141 11.0178L104.088 11.0357L104.052 11.0714L104.016 11.1071L103.981 11.1607L103.945 11.2143L103.927 11.25L103.909 11.3036L103.891 11.375V11.4821L103.909 11.5714L103.927 11.6428L103.981 11.6964L104.016 11.7321L104.088 11.75H104.141L104.195 11.7678L104.302 11.75H104.391L104.481 11.7321L104.552 11.7143L104.624 11.6786L104.695 11.6428L104.749 11.6071L104.82 11.5714L104.856 11.5357L104.891 11.5L104.927 11.4464L104.963 11.4107L104.998 11.375V11.3214L105.016 11.2857L105.034 11.25L105.052 11.1607V11.0536L105.07 10.9643L105.088 10.875Z" fill="#FCB331"/>
<path fill-rule="evenodd" clip-rule="evenodd" d="M112.034 12.0536V11.9644L112.07 11.8751L112.105 11.8036L112.159 11.7322L112.23 11.6608L112.32 11.6251L112.409 11.6072L112.498 11.5894L112.588 11.6072L112.677 11.6251L112.766 11.6608L112.838 11.7322L112.891 11.8036L112.945 11.8751L112.963 11.9644L112.98 12.0536H112.873V11.9822L112.855 11.9108L112.82 11.8394L112.766 11.7858L112.713 11.7322L112.659 11.7144L112.57 11.6786H112.498H112.427L112.355 11.7144L112.284 11.7322L112.23 11.7858L112.195 11.8394L112.159 11.9108L112.141 11.9822L112.123 12.0536H112.034Z" fill="white"/>
<path fill-rule="evenodd" clip-rule="evenodd" d="M112.338 12.0538V11.8395H112.516H112.552L112.588 11.8573H112.623L112.641 11.8752L112.659 11.893L112.677 11.9109V11.9466V11.9645V12.0002V12.018L112.659 12.0359V12.0538H112.516L112.534 12.0359H112.552H112.57L112.588 12.018H112.606V12.0002L112.623 11.9823V11.9645V11.9466L112.606 11.9288H112.588L112.57 11.9109H112.552H112.534H112.516H112.409V12.0538H112.338Z" fill="white"/>
<path fill-rule="evenodd" clip-rule="evenodd" d="M112.034 12.0535L112.016 12.0713L112.034 12.1606L112.07 12.2499L112.106 12.3392L112.159 12.4106L112.231 12.4642L112.32 12.4999L112.409 12.5356H112.498H112.588L112.677 12.4999L112.766 12.4642L112.838 12.4106L112.891 12.3392L112.945 12.2499L112.963 12.1606L112.981 12.0713V12.0535H112.874V12.0713V12.1428L112.856 12.2142L112.82 12.2856L112.766 12.3392L112.713 12.3928L112.659 12.4285L112.57 12.4463L112.498 12.4642L112.427 12.4463L112.356 12.4285L112.284 12.3928L112.231 12.3392L112.195 12.2856L112.159 12.2142L112.141 12.1428L112.124 12.0713V12.0535H112.034Z" fill="white"/>
<path fill-rule="evenodd" clip-rule="evenodd" d="M112.338 12.0535V12.2499H112.409V12.0892H112.498L112.606 12.2499H112.677L112.57 12.0892H112.588L112.623 12.0713H112.641L112.659 12.0535H112.516H112.498H112.409H112.338Z" fill="white"/>
<path d="M112.016 12.0715L112.034 11.9822L112.07 11.8929L112.124 11.8036L112.177 11.7322L112.248 11.6786L112.338 11.6429L112.427 11.6072L112.516 11.5894L112.606 11.6072L112.695 11.6429L112.784 11.6786L112.856 11.7322L112.909 11.8036L112.963 11.8929L112.998 11.9822L113.016 12.0715L112.998 12.1608L112.963 12.2501L112.909 12.3394L112.856 12.4108L112.784 12.4644L112.695 12.5001L112.606 12.5358L112.516 12.5536L112.427 12.5358L112.338 12.5001L112.248 12.4644L112.177 12.4108L112.124 12.3394L112.07 12.2501L112.034 12.1608L112.016 12.0715ZM112.409 12.2501H112.338V11.8394H112.516H112.552H112.588L112.623 11.8572L112.641 11.8751L112.659 11.8929L112.677 11.9108V11.9286V11.9465V11.9822V12.0001L112.659 12.0179L112.641 12.0358L112.623 12.0536H112.606H112.588H112.57L112.677 12.2144H112.606L112.498 12.0536H112.409V12.2501V12.2501ZM112.498 12.0536H112.534H112.552H112.57H112.588L112.606 12.0358V12.0179V12.0001V11.9644V11.9465V11.9286H112.588H112.57H112.552H112.534H112.516H112.409V12.0715H112.498V12.0536ZM112.498 12.4644H112.57L112.641 12.4465L112.713 12.4108L112.766 12.3572L112.802 12.3036L112.838 12.2322L112.873 12.1429V12.0536V11.9644L112.856 11.8929L112.82 11.8215L112.784 11.7679L112.731 11.7144L112.659 11.6786L112.588 11.6608H112.516H112.445L112.373 11.6786L112.302 11.7144L112.248 11.7679L112.213 11.8215L112.177 11.8929L112.159 11.9644V12.0536V12.1429L112.177 12.2144L112.213 12.2858L112.248 12.3394L112.302 12.3929L112.373 12.4286L112.445 12.4465L112.498 12.4644Z" stroke="white" stroke-width="0.216" stroke-miterlimit="2.6131"/>
<path fill-rule="evenodd" clip-rule="evenodd" d="M106.141 12.4998H107.105L107.445 10.5891L107.463 10.5176L107.48 10.4462L107.498 10.3748L107.516 10.2855L107.552 10.2141L107.605 10.1426L107.641 10.0891L107.695 10.0176L107.748 9.96408L107.82 9.91051L107.909 9.85693L107.98 9.82122L108.088 9.78551L108.195 9.74979L108.32 9.73193H108.445H108.498H108.516H108.534L108.677 8.85693L108.588 8.87479H108.498L108.409 8.89265L108.32 8.91051L108.248 8.94622L108.177 8.98193L108.123 9.01765L108.052 9.05336L107.998 9.10693L107.927 9.14265L107.873 9.19622L107.82 9.24979L107.784 9.32122L107.73 9.37479L107.677 9.44622L107.623 9.49979L107.73 8.89265H106.784L106.141 12.4998Z" fill="white"/>
<path d="M106.141 12.4998H107.105L107.445 10.5891L107.463 10.5176L107.48 10.4462L107.498 10.3748L107.516 10.2855L107.552 10.2141L107.605 10.1426L107.641 10.0891L107.695 10.0176L107.748 9.96408L107.82 9.91051L107.909 9.85693L107.98 9.82122L108.088 9.78551L108.195 9.74979L108.32 9.73193H108.445H108.498H108.516H108.534L108.677 8.85693L108.588 8.87479H108.498L108.409 8.89265L108.32 8.91051L108.248 8.94622L108.177 8.98193L108.123 9.01765L108.052 9.05336L107.998 9.10693L107.927 9.14265L107.873 9.19622L107.82 9.24979L107.784 9.32122L107.73 9.37479L107.677 9.44622L107.623 9.49979L107.73 8.89265H106.784L106.141 12.4998Z" stroke="white" stroke-width="0.216" stroke-miterlimit="2.6131"/>
<path fill-rule="evenodd" clip-rule="evenodd" d="M97.2126 12.4998H98.1769H98.1948L98.5162 10.5891V10.5176L98.5341 10.4462L98.5519 10.3748L98.5876 10.3034L98.6055 10.2319L98.6412 10.1784L98.6769 10.1069L98.7305 10.0534L98.7841 9.99979L98.8376 9.96408L98.9269 9.91051L98.9984 9.87479L99.0876 9.83908L99.1948 9.82122L99.3198 9.80336L99.4448 9.78551H99.4626V9.80336H99.4805H99.4984H99.5162H99.5341H99.5519V9.74979L99.5698 9.69622L99.5876 9.62479L99.6055 9.53551L99.6412 9.44622L99.6591 9.33908L99.6948 9.24979L99.7305 9.17836L99.7662 9.12479L99.7841 9.05336L99.8198 8.99979L99.8555 8.94622L99.8734 8.91051L99.8912 8.89265L99.9091 8.87479H99.8912H99.8734H99.8376H99.8198L99.8019 8.85693H99.7662H99.7484L99.6412 8.87479H99.5519L99.4626 8.89265L99.3734 8.91051L99.3019 8.94622L99.2305 8.98193L99.1769 8.99979L99.1055 9.05336L99.0519 9.08908L98.9984 9.14265L98.9448 9.19622L98.8912 9.24979L98.8376 9.30336L98.8019 9.37479L98.7484 9.44622L98.6948 9.49979L98.8198 8.89265H97.8555L97.2126 12.4998Z" fill="white"/>
<path d="M97.2126 12.4998H98.1769H98.1948L98.5162 10.5891V10.5176L98.5341 10.4462L98.5519 10.3748L98.5876 10.3034L98.6055 10.2319L98.6412 10.1784L98.6769 10.1069L98.7305 10.0534L98.7841 9.99979L98.8376 9.96408L98.9269 9.91051L98.9984 9.87479L99.0876 9.83908L99.1948 9.82122L99.3198 9.80336L99.4448 9.78551H99.4626V9.80336H99.4805H99.4984H99.5162H99.5341H99.5519V9.74979L99.5698 9.69622L99.5876 9.62479L99.6055 9.53551L99.6412 9.44622L99.6591 9.33908L99.6948 9.24979L99.7305 9.17836L99.7662 9.12479L99.7841 9.05336L99.8198 8.99979L99.8555 8.94622L99.8734 8.91051L99.8912 8.89265L99.9091 8.87479H99.8912H99.8734H99.8376H99.8198L99.8019 8.85693H99.7662H99.7484L99.6412 8.87479H99.5519L99.4626 8.89265L99.3734 8.91051L99.3019 8.94622L99.2305 8.98193L99.1769 8.99979L99.1055 9.05336L99.0519 9.08908L98.9984 9.14265L98.9448 9.19622L98.8912 9.24979L98.8376 9.30336L98.8019 9.37479L98.7484 9.44622L98.6948 9.49979L98.8198 8.89265H97.8555L97.2126 12.4998Z" stroke="white" stroke-width="0.216" stroke-miterlimit="2.6131"/>
</g>
<defs>
<clipPath id="clip0">
<rect width="65.1948" height="20" fill="white"/>
</clipPath>
<clipPath id="clip1">
<rect width="33.4107" height="20" fill="white" transform="translate(80.1948)"/>
</clipPath>
</defs>
</svg>
