<svg width="96" height="21" viewBox="0 0 96 21" fill="none" xmlns="http://www.w3.org/2000/svg">
<path d="M14.9071 13.2383C14.7556 14.5839 14.2967 15.778 13.5304 16.8206C12.764 17.8543 11.766 18.6518 10.5363 19.2132C9.30655 19.7657 7.97881 20.0285 6.55304 20.0018C5.26985 19.9751 4.15152 19.681 3.19803 19.1196C2.24455 18.5493 1.49157 17.7295 0.939086 16.6602C0.395513 15.5819 0.0880822 14.3433 0.0167939 12.9443C-0.0455834 11.8482 0.0658046 10.4848 0.350958 8.8541C0.645022 7.22338 1.16186 5.77534 1.90148 4.50997C2.65001 3.24461 3.53665 2.24211 4.56142 1.5025C6.00501 0.468818 7.65355 -0.0301998 9.50705 0.00544432C11.5209 0.0410885 13.116 0.664861 14.2923 1.87676C15.4774 3.07975 16.1279 4.75503 16.2438 6.90259L12.3408 6.88922C12.3408 5.6595 12.0957 4.75948 11.6056 4.18918C11.1155 3.61887 10.3536 3.31589 9.31992 3.28025C7.98326 3.2357 6.88275 3.71244 6.01838 4.71047C5.16292 5.70851 4.58816 7.16546 4.29409 9.08134C4.00894 10.9437 3.88418 12.3383 3.91983 13.2651C3.96438 14.4413 4.22726 15.3102 4.70846 15.8715C5.18965 16.424 5.86243 16.7136 6.7268 16.7404C7.92088 16.7849 8.87436 16.5042 9.58725 15.8983C10.309 15.2834 10.7858 14.4057 11.0175 13.2651L14.9071 13.2383Z" fill="black"/>
<path d="M24.3707 20.0018C23.0786 19.9751 21.9379 19.6721 20.9488 19.0929C19.9686 18.5048 19.1889 17.6627 18.6097 16.5666C18.0394 15.4616 17.7097 14.1963 17.6205 12.7705C17.5225 11.3091 17.6785 9.74966 18.0884 8.09221C18.4983 6.43476 19.1577 4.9778 20.0666 3.72135C20.9756 2.46489 22.0404 1.52478 23.2612 0.901004C24.491 0.277231 25.8187 -0.0212888 27.2445 0.00544432C28.5544 0.0321774 29.6995 0.344064 30.6797 0.941103C31.6599 1.52923 32.4307 2.38024 32.9921 3.49412C33.5535 4.59908 33.8743 5.85554 33.9545 7.26348C34.0436 8.83183 33.8743 10.4447 33.4466 12.1022C33.0188 13.7596 32.3549 15.1943 31.4549 16.4062C30.5549 17.6181 29.499 18.527 28.2871 19.133C27.0841 19.7389 25.7786 20.0285 24.3707 20.0018ZM29.9178 9.46897L30.0247 8.19914C30.1138 6.61298 29.9 5.40999 29.3831 4.59017C28.8752 3.77036 28.0999 3.34263 27.0573 3.30698C25.4266 3.25352 24.1301 3.97531 23.1677 5.47237C22.2142 6.96942 21.6751 9.06351 21.5503 11.7546C21.4612 13.3319 21.6706 14.5483 22.1785 15.4037C22.6865 16.2503 23.4751 16.6914 24.5444 16.727C25.9435 16.7894 27.1019 16.2458 28.0197 15.0963C28.9376 13.9378 29.5391 12.3027 29.8242 10.1908L29.9178 9.46897Z" fill="black"/>
<path d="M35.0238 19.7345L38.4055 0.272775L43.9928 0.286142C45.3027 0.312875 46.4789 0.611395 47.5215 1.1817C48.573 1.7431 49.424 2.554 50.0745 3.61441C50.7251 4.67483 51.1171 5.86891 51.2508 7.19665C51.3221 7.97191 51.3132 8.76499 51.2241 9.5759L51.1305 10.2843C50.7384 13.1359 49.6156 15.426 47.7621 17.1547C45.9175 18.8746 43.6764 19.7345 41.0388 19.7345H35.0238ZM41.7606 3.52085L39.5016 16.5131L41.1323 16.5265C42.9324 16.5265 44.3759 15.8671 45.4631 14.5483C46.5591 13.2294 47.1874 11.2378 47.3478 8.57341L47.3745 8.14568C47.4012 6.67536 47.1205 5.54811 46.5324 4.76394C45.9443 3.97977 45.0665 3.56986 43.8992 3.53421L41.7606 3.52085Z" fill="black"/>
<path d="M83.6061 0.717948H85.3806C86.0636 0.717948 86.7169 0.9974 87.1886 1.49136L94.3206 8.95962C94.7647 9.42472 95.0126 10.0431 95.0126 10.6862V14.2497C95.0126 15.6304 93.8933 16.7497 92.5126 16.7497H90.0126V15.3211H92.5126C93.1043 15.3211 93.584 14.8414 93.584 14.2497V10.6862C93.584 10.4106 93.4778 10.1456 93.2874 9.94624L86.1555 2.47798C85.9533 2.26628 85.6733 2.14652 85.3806 2.14652H84.2983V2.31765V16.7894H70.7349C70.3404 16.7894 70.0206 16.4696 70.0206 16.0751C70.0206 15.6806 70.3404 15.3608 70.7349 15.3608H82.8697V2.31765C82.8697 1.84723 82.4065 1.43223 81.7983 1.43223H61.4942C61.0997 1.43223 60.7799 1.11244 60.7799 0.717948C60.7799 0.323459 61.0997 0.00366211 61.4942 0.00366211H81.7983C82.5039 0.00366211 83.1483 0.275801 83.6061 0.717948Z" fill="black"/>
<path d="M64.6555 4.64659C64.261 4.64659 63.9412 4.32679 63.9412 3.9323C63.9412 3.53781 64.261 3.21802 64.6555 3.21802H71.4412C71.8357 3.21802 72.1555 3.53781 72.1555 3.9323C72.1555 4.32679 71.8357 4.64659 71.4412 4.64659H64.6555Z" fill="black"/>
<path d="M60.0126 7.8607C59.6181 7.8607 59.2983 7.5409 59.2983 7.14641C59.2983 6.75193 59.6181 6.43213 60.0126 6.43213H76.7983C77.1928 6.43213 77.5126 6.75193 77.5126 7.14641C77.5126 7.5409 77.1928 7.8607 76.7983 7.8607H60.0126Z" fill="black"/>
<path d="M61.084 11.1346C60.6895 11.1346 60.3698 10.8148 60.3698 10.4203C60.3698 10.0259 60.6895 9.70605 61.084 9.70605H69.6555C70.05 9.70605 70.3698 10.0259 70.3698 10.4203C70.3698 10.8148 70.05 11.1346 69.6555 11.1346H61.084Z" fill="black"/>
<path d="M86.7983 20.0036C84.6286 20.0036 82.8698 18.2447 82.8698 16.0751C82.8698 13.9054 84.6286 12.1465 86.7983 12.1465C88.968 12.1465 90.7269 13.9054 90.7269 16.0751C90.7269 18.2447 88.968 20.0036 86.7983 20.0036ZM86.7983 18.5751C88.179 18.5751 89.2983 17.4558 89.2983 16.0751C89.2983 14.6943 88.179 13.5751 86.7983 13.5751C85.4176 13.5751 84.2983 14.6943 84.2983 16.0751C84.2983 17.4558 85.4176 18.5751 86.7983 18.5751Z" fill="black"/>
<path d="M67.5126 20.0036C65.3429 20.0036 63.584 18.2447 63.584 16.0751C63.584 13.9054 65.3429 12.1465 67.5126 12.1465C69.6823 12.1465 71.4412 13.9054 71.4412 16.0751C71.4412 18.2447 69.6823 20.0036 67.5126 20.0036ZM67.5126 18.5751C68.8933 18.5751 70.0126 17.4558 70.0126 16.0751C70.0126 14.6943 68.8933 13.5751 67.5126 13.5751C66.1319 13.5751 65.0126 14.6943 65.0126 16.0751C65.0126 17.4558 66.1319 18.5751 67.5126 18.5751Z" fill="black"/>
</svg>
