<svg width="95" height="21" viewBox="0 0 95 21" fill="none" xmlns="http://www.w3.org/2000/svg">
<path d="M94.7616 15.8296C94.0027 15.8296 93.253 15.8204 92.4941 15.8389C92.2257 15.8481 92.1054 15.7926 92.1239 15.4872C92.1517 15.0892 92.1332 14.682 92.1332 14.2841C91.9944 14.21 91.9758 14.3396 91.9296 14.4044C90.31 16.3942 87.1633 16.2924 85.6547 14.21C85.0531 13.3771 84.757 12.4331 84.6367 11.4243C84.4701 9.99901 84.5256 8.60151 85.0439 7.24102C86.2563 4.06657 90.3747 3.82594 91.9758 5.9916C92.0036 6.01937 92.0406 6.04713 92.1332 6.11192C92.1332 5.68619 92.1517 5.30674 92.1239 4.92728C92.1054 4.63112 92.2257 4.56634 92.4941 4.56634C93.2438 4.56634 94.0027 4.62187 94.7523 4.53857C94.7616 8.30535 94.7616 12.0629 94.7616 15.8296ZM92.0869 10.0638C92.0962 9.46222 91.9851 8.77735 91.6519 8.1295C91.2355 7.32432 90.5691 6.87083 89.6529 6.87083C88.7274 6.87083 88.0055 7.29656 87.6168 8.13876C86.9782 9.51775 86.9967 10.9152 87.6723 12.2757C88.0703 13.0717 88.7551 13.4604 89.6621 13.4604C90.5506 13.4604 91.1799 13.0254 91.6056 12.2757C91.9666 11.6186 92.0869 10.9152 92.0869 10.0638Z" fill="#332F3D"/>
<path d="M70.9763 0.00366211C71.0503 0.123977 71.1891 0.114722 71.3002 0.160997C72.0128 0.512686 72.4108 1.2901 72.2442 2.0305C72.0591 2.82643 71.3835 3.35396 70.5783 3.34471C69.8101 3.33545 69.1345 2.78941 68.9679 2.06752C68.7921 1.2901 69.1808 0.503431 69.9212 0.160997C70.0323 0.105467 70.1341 0.059192 70.2451 0.00366211C70.4857 0.00366211 70.7264 0.00366211 70.9763 0.00366211Z" fill="#2CB15E"/>
<path d="M34.7153 15.8947C36.6033 17.8567 37.9268 18.2917 39.6019 17.5328C40.8421 16.9683 41.5085 15.5245 41.3326 13.7105C41.2308 13.9049 41.166 14.0529 41.092 14.1918C40.6477 15.034 39.9629 15.5523 39.0281 15.7466C38.2785 15.9039 37.5196 15.8947 36.7884 15.6911C35.3261 15.2931 34.6135 14.2288 34.3358 12.8128C34.2525 12.3685 34.234 11.9243 34.234 11.4801C34.234 9.32366 34.2433 7.16725 34.2248 5.00158C34.2248 4.65915 34.3081 4.54809 34.6598 4.5666C35.2428 4.59437 35.8351 4.60362 36.4182 4.5666C36.8069 4.53884 36.8717 4.69617 36.8624 5.0386C36.8439 6.84332 36.8532 8.64804 36.8532 10.4528C36.8532 11.0081 36.8717 11.5634 37.0105 12.1001C37.2234 12.9238 37.7324 13.3218 38.5654 13.3403C40.0739 13.3681 41.0272 12.4611 41.2678 10.7674C41.4529 9.44397 41.3326 8.12051 41.3604 6.79705C41.3789 6.16771 41.3696 5.52912 41.3604 4.89978C41.3511 4.66841 41.4252 4.5666 41.6658 4.57586C42.3414 4.58511 43.0263 4.58511 43.7019 4.57586C43.8962 4.57586 44.0166 4.61288 44.0166 4.8535C43.9795 8.19455 44.1369 11.5449 43.9425 14.8859C43.7852 17.5698 42.1933 19.3375 39.5464 19.8651C37.4085 20.2908 35.4835 19.7262 33.8453 18.2917C33.2252 17.7549 33.253 17.7179 33.762 17.0886C34.0767 16.6906 34.3914 16.2927 34.7153 15.8947Z" fill="#34303E"/>
<path d="M48.5792 6.28808C49.1715 5.47364 49.8379 4.95536 50.6986 4.73324C52.3737 4.31677 54.5394 4.78877 55.5112 7.02847C56.3996 9.08308 56.4182 11.1932 55.613 13.2848C54.4283 16.3575 50.3006 16.6259 48.6995 14.3954C48.681 14.3769 48.6532 14.3677 48.5792 14.3214C48.5792 15.1358 48.5792 15.9132 48.5792 16.6907C48.5792 17.6809 48.5699 18.662 48.5885 19.6523C48.5977 19.9392 48.5144 20.0225 48.2275 20.0132C47.5982 19.9947 46.9596 19.9947 46.3302 20.0132C46.0341 20.0225 45.923 19.9484 45.9415 19.6337C45.9693 19.097 45.9508 18.5509 45.9508 18.0141C45.9508 13.6921 45.96 9.37924 45.9415 5.05717C45.9415 4.66846 46.0526 4.5574 46.4321 4.57591C47.0336 4.60367 47.6352 4.59442 48.2368 4.57591C48.5329 4.56665 48.607 4.66846 48.5977 4.94611C48.5607 5.34407 48.5792 5.76054 48.5792 6.28808ZM53.5121 10.277C53.5306 9.52732 53.4103 8.76841 53.0031 8.0928C52.1146 6.59349 50.023 6.56573 49.1715 8.08354C48.3941 9.47179 48.4034 10.9433 49.1067 12.3778C49.4954 13.1738 50.1896 13.5717 51.0873 13.5625C52.0035 13.5532 52.6699 13.1182 53.0956 12.3223C53.4195 11.6837 53.5306 11.0081 53.5121 10.277Z" fill="#332F3D"/>
<path d="M64.8495 6.12149C64.8495 5.65874 64.8588 5.27928 64.8495 4.89057C64.8403 4.64995 64.9143 4.56665 65.1642 4.56665C65.8306 4.58516 66.4877 4.57591 67.154 4.56665C67.3854 4.56665 67.4779 4.61293 67.4779 4.87206C67.4687 8.43523 67.4687 11.9984 67.4779 15.5523C67.4779 15.7837 67.4039 15.8392 67.191 15.83C66.5154 15.8207 65.8306 15.8114 65.1549 15.83C64.8958 15.8392 64.8495 15.7374 64.8588 15.506C64.8773 15.0896 64.8588 14.6731 64.8588 14.2659C64.7755 14.2196 64.7385 14.2751 64.7015 14.3214C63.0818 16.5796 59.4447 16.2094 58.1212 13.8124C57.6862 13.035 57.4363 12.202 57.3438 11.3228C57.1957 9.89752 57.2697 8.50001 57.8065 7.14879C59.0282 4.08539 63.1096 3.82625 64.7015 6.00117C64.7107 6.02894 64.757 6.04745 64.8495 6.12149ZM64.7847 10.1567C64.8033 9.43477 64.6829 8.7499 64.3498 8.10205C63.924 7.29687 63.2577 6.85263 62.3414 6.86188C61.4345 6.87114 60.7218 7.28761 60.3424 8.11131C59.6853 9.49955 59.7038 10.9156 60.3979 12.2853C60.7866 13.0627 61.4715 13.4422 62.3507 13.4514C63.2392 13.4607 63.8778 13.035 64.3035 12.2853C64.6737 11.6282 64.8033 10.9063 64.7847 10.1567Z" fill="#332F3D"/>
<path d="M19.3336 6.18627C19.3336 5.66799 19.3428 5.27003 19.3243 4.88132C19.315 4.63144 19.4076 4.56665 19.639 4.56665C20.3053 4.57591 20.9624 4.57591 21.6288 4.56665C21.8694 4.56665 21.9527 4.63144 21.9527 4.88132C21.9435 8.44449 21.9435 11.9984 21.9527 15.5616C21.9527 15.8022 21.8509 15.8392 21.6473 15.83C20.9809 15.8207 20.3238 15.8115 19.6575 15.83C19.3983 15.8392 19.3058 15.7744 19.3243 15.506C19.3428 15.0896 19.3336 14.6731 19.3336 14.2566C19.2225 14.2103 19.1947 14.3121 19.1577 14.3584C17.39 16.5148 14.0952 16.2835 12.6515 13.8957C11.7722 12.4334 11.6612 10.8138 11.7908 9.16638C11.837 8.6481 11.9573 8.13907 12.1054 7.63005C13.1235 4.09465 17.5288 3.68743 19.3336 6.18627ZM19.2688 10.0456C19.278 9.39775 19.167 8.72214 18.8245 8.0928C18.3988 7.31538 17.751 6.87114 16.8532 6.86189C15.9462 6.85263 15.2244 7.25985 14.8356 8.07429C14.16 9.47179 14.1785 10.9063 14.8819 12.2946C15.2799 13.072 15.9555 13.4514 16.8347 13.4514C17.7232 13.4514 18.3525 13.035 18.7783 12.276C19.167 11.6004 19.278 10.8693 19.2688 10.0456Z" fill="#332F3D"/>
<path d="M78.5376 15.839C77.0475 15.839 75.7889 15.5521 74.7245 14.6821C74.0489 14.1268 73.614 13.4142 73.4659 12.5442C73.4289 12.3128 73.4751 12.1833 73.7065 12.0815C74.2248 11.8501 74.7338 11.6002 75.2428 11.3503C75.4187 11.2578 75.539 11.2207 75.5853 11.4891C75.8444 12.7941 76.7792 13.3309 77.973 13.516C78.6116 13.6178 79.2595 13.6085 79.8888 13.3679C80.1387 13.2753 80.3701 13.155 80.5552 12.9699C81.0364 12.4794 80.9439 11.8778 80.3238 11.5632C79.6297 11.2115 78.843 11.1652 78.0934 11.0264C77.2604 10.8783 76.4275 10.7395 75.65 10.3878C74.6505 9.94356 74.0119 9.22167 73.9194 8.08331C73.8176 6.89867 74.3173 6.01945 75.2891 5.39937C76.4552 4.66822 77.7694 4.51089 79.1114 4.58493C80.0739 4.64046 80.9994 4.85332 81.8324 5.36235C82.6005 5.83435 83.1651 6.44518 83.3409 7.36142C83.3872 7.58354 83.3409 7.6946 83.1188 7.78715C82.6005 7.99076 82.1008 8.22213 81.5917 8.435C81.4899 8.48127 81.3881 8.59233 81.3326 8.37021C81.0364 7.30589 80.148 7.01899 79.2132 6.88016C78.5561 6.77836 77.8897 6.79687 77.2512 7.04675C77.0198 7.1393 76.7977 7.25036 76.6588 7.46323C76.4275 7.7964 76.52 8.11107 76.9365 8.33319C77.464 8.61084 78.0471 8.69414 78.6209 8.8052C79.5371 8.9903 80.4626 9.14763 81.3419 9.50857C82.2396 9.87877 82.9985 10.3971 83.3039 11.3873C83.6741 12.609 83.2206 13.9417 82.1563 14.7561C81.0272 15.5891 79.7407 15.8205 78.5376 15.839Z" fill="#34303E"/>
<path d="M30.9208 8.52756C30.6709 7.48175 29.912 7.10229 28.9772 6.92645C28.3479 6.80613 27.7186 6.80613 27.0985 6.94496C26.8578 7.00049 26.6265 7.08378 26.4229 7.23186C25.9323 7.58355 25.9601 8.07406 26.5062 8.35171C27.0244 8.61085 27.589 8.69415 28.1443 8.80521C29.0328 8.98105 29.9305 9.13839 30.7727 9.47157C31.7352 9.85102 32.5589 10.3971 32.8366 11.4799C33.179 12.7756 32.6515 14.0898 31.4853 14.9042C29.6991 16.1537 26.4414 16.1907 24.6367 14.9783C23.7482 14.386 23.1836 13.5808 22.9893 12.5165C22.9522 12.3128 22.9985 12.211 23.1836 12.1277C23.7945 11.8501 24.4053 11.5447 25.0161 11.2578C25.7287 13.2198 27.2373 14.0065 29.2179 13.4512C29.3752 13.4049 29.5418 13.3401 29.6899 13.2661C30.0971 13.0532 30.4025 12.7663 30.3747 12.2666C30.347 11.7761 29.9768 11.591 29.5881 11.4614C28.6348 11.1375 27.626 11.0819 26.6542 10.8691C26.0249 10.7302 25.4048 10.5637 24.831 10.2397C23.2114 9.32349 22.9245 7.18559 24.2572 5.88063C24.9421 5.20502 25.8028 4.89035 26.7283 4.73302C28.0702 4.50164 29.403 4.54792 30.6801 5.04769C31.6334 5.41789 32.3923 6.0102 32.6977 7.05602C32.8088 7.42622 32.744 7.64834 32.3646 7.81493C31.8833 7.99077 31.4205 8.25916 30.9208 8.52756Z" fill="#34303E"/>
<path d="M5.24746 11.7203C3.74815 11.7296 2.10077 11.3038 0.777306 9.98961C0.351577 9.56389 0.203497 9.11965 0.360832 8.49956C1.16601 5.15851 4.77545 3.42783 7.87587 4.90863C9.57878 5.72307 10.5135 7.51853 10.0786 9.14741C9.82867 10.0822 9.20859 10.6837 8.36638 11.091C7.48716 11.5167 6.52464 11.6648 5.24746 11.7203ZM5.12714 9.61942C5.6084 9.61016 6.05264 9.55463 6.48762 9.44357C7.11696 9.27698 7.49642 8.89753 7.55195 8.36999C7.60748 7.88873 7.2743 7.37045 6.72825 7.08355C5.33075 6.37092 3.35019 7.11131 2.73936 8.54584C2.59128 8.88827 2.68383 9.04561 2.9985 9.18443C3.69262 9.4991 4.42377 9.5824 5.12714 9.61942Z" fill="#342F3D"/>
<path d="M69.3104 10.2116C69.3104 8.47167 69.3197 6.73173 69.3012 4.9918C69.3012 4.67713 69.3659 4.55681 69.6991 4.57532C70.3099 4.60309 70.93 4.59383 71.5501 4.57532C71.8092 4.56607 71.9296 4.61234 71.9296 4.91775C71.9203 8.4439 71.9203 11.9793 71.9296 15.5054C71.9296 15.7646 71.8648 15.8479 71.5964 15.8386C70.9485 15.8201 70.3007 15.8201 69.6529 15.8386C69.3659 15.8479 69.2919 15.7646 69.3012 15.4777C69.3104 13.7192 69.3104 11.97 69.3104 10.2116Z" fill="#332F3D"/>
<path d="M0.0091476 10.3601C0.990175 12.4147 2.54501 13.4235 4.63663 13.6364C6.247 13.803 7.6445 13.405 8.53298 11.9149C8.64404 11.7391 8.72733 11.7761 8.8569 11.8594C9.34741 12.1556 9.81942 12.4702 10.3284 12.7294C10.6986 12.9145 10.6709 13.1088 10.4858 13.405C9.70836 14.6729 8.54223 15.4318 7.13548 15.7558C4.81248 16.2833 2.7116 15.8946 1.09198 14.0066C0.222012 13.007 -0.0648922 11.7946 0.0091476 10.3601Z" fill="#2CB15E"/>
</svg>
