<svg width="164" height="60" viewBox="0 0 164 60" fill="none" xmlns="http://www.w3.org/2000/svg">
<rect x="0.25" width="163.5" height="60" rx="8" fill="#2C3BFE"/>
<path d="M37.4079 33.144C39.0159 33.144 40.0119 32.292 40.6239 31.332L39.4239 30.732C39.0399 31.392 38.2599 31.896 37.4079 31.896C35.8239 31.896 34.6479 30.672 34.6479 29.004C34.6479 27.312 35.8239 26.112 37.4079 26.112C38.2599 26.112 39.0399 26.604 39.4239 27.276L40.6119 26.652C40.0239 25.692 39.0159 24.864 37.4079 24.864C35.0439 24.864 33.2079 26.532 33.2079 29.004C33.2079 31.464 35.0439 33.144 37.4079 33.144ZM44.0876 33.144C45.9356 33.144 47.0636 31.752 47.0636 30.096C47.0636 28.428 45.9356 27.06 44.0876 27.06C42.2396 27.06 41.1116 28.428 41.1116 30.096C41.1116 31.752 42.2396 33.144 44.0876 33.144ZM44.0876 32.028C43.0196 32.028 42.4196 31.128 42.4196 30.096C42.4196 29.076 43.0196 28.176 44.0876 28.176C45.1676 28.176 45.7556 29.076 45.7556 30.096C45.7556 31.128 45.1676 32.028 44.0876 32.028ZM53.2943 33V28.92C53.2943 27.732 52.6703 27.06 51.4223 27.06C50.5103 27.06 49.7543 27.528 49.3703 27.984V27.204H48.1103V33H49.3703V28.944C49.6703 28.56 50.2223 28.176 50.8583 28.176C51.5663 28.176 52.0343 28.464 52.0343 29.376V33H53.2943ZM56.4426 33.144C57.0186 33.144 57.3906 32.976 57.6186 32.772L57.3186 31.812C57.2226 31.92 57.0066 32.028 56.7666 32.028C56.4066 32.028 56.2146 31.728 56.2146 31.332V28.296H57.3906V27.204H56.2146V25.62H54.9546V27.204H53.9946V28.296H54.9546V31.644C54.9546 32.616 55.4586 33.144 56.4426 33.144ZM58.9186 26.496C59.3506 26.496 59.6986 26.148 59.6986 25.716C59.6986 25.284 59.3506 24.936 58.9186 24.936C58.4866 24.936 58.1386 25.284 58.1386 25.716C58.1386 26.148 58.4866 26.496 58.9186 26.496ZM59.5426 33V27.204H58.2826V33H59.5426ZM66.1211 33V28.92C66.1211 27.732 65.4971 27.06 64.2491 27.06C63.3371 27.06 62.5811 27.528 62.1971 27.984V27.204H60.9371V33H62.1971V28.944C62.4971 28.56 63.0491 28.176 63.6851 28.176C64.3931 28.176 64.8611 28.464 64.8611 29.376V33H66.1211ZM72.6894 33V27.204H71.4294V31.272C71.1414 31.656 70.5894 32.028 69.9534 32.028C69.2334 32.028 68.7774 31.74 68.7774 30.84V27.204H67.5174V31.308C67.5174 32.484 68.1414 33.144 69.3894 33.144C70.3014 33.144 71.0214 32.688 71.4294 32.232V33H72.6894ZM76.774 33.144C77.686 33.144 78.538 32.844 79.126 32.292L78.55 31.464C78.13 31.884 77.47 32.112 76.894 32.112C75.802 32.112 75.154 31.38 75.058 30.516H79.522V30.204C79.522 28.38 78.418 27.06 76.678 27.06C74.962 27.06 73.738 28.416 73.738 30.096C73.738 31.932 75.022 33.144 76.774 33.144ZM78.31 29.616H75.046C75.094 28.92 75.598 28.092 76.666 28.092C77.806 28.092 78.274 28.932 78.31 29.616ZM86.1635 33.144C88.3115 33.144 89.2595 31.992 89.2595 30.66C89.2595 27.684 84.6035 28.608 84.6035 27.108C84.6035 26.52 85.1315 26.112 85.9475 26.112C86.7875 26.112 87.6395 26.4 88.2755 27.036L89.0675 25.992C88.3355 25.272 87.3155 24.864 86.0795 24.864C84.3155 24.864 83.1635 25.884 83.1635 27.216C83.1635 30.156 87.8195 29.112 87.8195 30.792C87.8195 31.332 87.3755 31.896 86.2235 31.896C85.1075 31.896 84.2315 31.368 83.6915 30.78L82.8995 31.872C83.6195 32.616 84.6875 33.144 86.1635 33.144ZM95.4485 33V28.896C95.4485 27.708 94.8245 27.06 93.5765 27.06C92.6645 27.06 91.9205 27.528 91.5365 27.984V24.996H90.2765V33H91.5365V28.944C91.8245 28.56 92.3765 28.176 93.0245 28.176C93.7325 28.176 94.1885 28.44 94.1885 29.352V33H95.4485ZM99.4728 33.144C101.321 33.144 102.449 31.752 102.449 30.096C102.449 28.428 101.321 27.06 99.4728 27.06C97.6248 27.06 96.4968 28.428 96.4968 30.096C96.4968 31.752 97.6248 33.144 99.4728 33.144ZM99.4728 32.028C98.4048 32.028 97.8048 31.128 97.8048 30.096C97.8048 29.076 98.4048 28.176 99.4728 28.176C100.553 28.176 101.141 29.076 101.141 30.096C101.141 31.128 100.553 32.028 99.4728 32.028ZM106.615 33.144C108.115 33.144 109.183 32.004 109.183 30.096C109.183 28.188 108.115 27.06 106.615 27.06C105.859 27.06 105.187 27.42 104.755 27.996V27.204H103.495V35.208H104.755V32.196C105.235 32.808 105.883 33.144 106.615 33.144ZM106.243 32.028C105.655 32.028 105.031 31.668 104.755 31.236V28.944C105.043 28.512 105.655 28.176 106.243 28.176C107.239 28.176 107.887 28.968 107.887 30.096C107.887 31.224 107.239 32.028 106.243 32.028ZM113.325 33.144C114.825 33.144 115.893 32.004 115.893 30.096C115.893 28.188 114.825 27.06 113.325 27.06C112.569 27.06 111.897 27.42 111.465 27.996V27.204H110.205V35.208H111.465V32.196C111.945 32.808 112.593 33.144 113.325 33.144ZM112.953 32.028C112.365 32.028 111.741 31.668 111.465 31.236V28.944C111.753 28.512 112.365 28.176 112.953 28.176C113.949 28.176 114.597 28.968 114.597 30.096C114.597 31.224 113.949 32.028 112.953 32.028ZM117.55 26.496C117.982 26.496 118.33 26.148 118.33 25.716C118.33 25.284 117.982 24.936 117.55 24.936C117.118 24.936 116.77 25.284 116.77 25.716C116.77 26.148 117.118 26.496 117.55 26.496ZM118.174 33V27.204H116.914V33H118.174ZM124.752 33V28.92C124.752 27.732 124.128 27.06 122.88 27.06C121.968 27.06 121.212 27.528 120.828 27.984V27.204H119.568V33H120.828V28.944C121.128 28.56 121.68 28.176 122.316 28.176C123.024 28.176 123.492 28.464 123.492 29.376V33H124.752ZM128.513 35.352C129.929 35.352 131.489 34.788 131.489 32.7V27.204H130.229V28.008C129.761 27.384 129.101 27.06 128.369 27.06C126.869 27.06 125.801 28.152 125.801 30.036C125.801 31.944 126.893 33.012 128.369 33.012C129.125 33.012 129.785 32.628 130.229 32.04V32.7C130.229 33.936 129.341 34.32 128.513 34.32C127.745 34.32 127.145 34.116 126.665 33.576L126.077 34.488C126.797 35.136 127.529 35.352 128.513 35.352ZM128.741 31.884C127.733 31.884 127.097 31.152 127.097 30.036C127.097 28.92 127.733 28.176 128.741 28.176C129.329 28.176 129.941 28.524 130.229 28.944V31.116C129.941 31.536 129.329 31.884 128.741 31.884Z" fill="white"/>
</svg>
