<svg width="180" height="180" viewBox="0 0 180 180" fill="none" xmlns="http://www.w3.org/2000/svg">
<g clip-path="url(#clip0)">
<path d="M158.871 155.017C155.198 158.839 151.718 161.305 148.968 163.248C116.665 186.139 78.4351 179.464 70.3075 177.837C58.3131 175.43 35.1184 170.782 18.3533 151.312C-7.01053 121.855 -3.05973 75.446 16.6103 44.8144C20.2061 39.211 39.2176 8.10821 77.8605 3.12453C101.249 0.10979 128.504 6.19737 148.245 22.5234C189.684 56.8024 186.733 126.057 158.871 155.017Z" fill="url(#paint0_linear)"/>
<path d="M156.702 28.8759C160.646 26.9715 170.852 36.2933 178.276 30.7028L179.07 21.3616C179.07 21.3616 168.089 25.448 163.183 23.7179C158.283 21.9878 160.427 19.4056 163.577 19.0635C166.727 18.7213 175.474 21.3745 178.289 18.6632C178.289 18.6632 180.503 16.5006 177.185 14.2283C173.873 11.9559 174.403 4.93227 176.049 2.33068C176.049 2.33068 174.325 2.8794 169.852 2.27258C165.378 1.67222 160.917 0.749074 160.059 4.73215C159.2 8.71522 160.136 14.1766 157.696 14.7641C155.256 15.3515 151.486 5.77794 157.883 0.787808C157.883 0.787808 150.84 -0.709879 148.942 0.503764C147.044 1.71741 145.889 5.99743 148.813 11.4265C151.737 16.8557 151.453 20.2125 149.626 20.658C147.793 21.1034 141.667 4.09305 147.16 0.355286C147.16 0.355286 133.991 2.95042 132.706 4.06077C131.415 5.17112 133.565 12.7499 136.612 16.7782C139.659 20.8129 139.233 25.8482 137.916 27.2814C136.599 28.7145 135.947 22.2848 134.172 19.7477C132.397 17.2043 130.073 4.66759 130.073 4.66759C130.073 4.66759 129.53 6.38477 125.218 7.92119C120.906 9.45761 114.702 14.5123 116.083 17.017C117.465 19.5218 126.335 30.0766 127.781 34.163C129.227 38.2493 129.524 41.8322 127.452 40.3797C125.386 38.9207 123.436 33.6724 120.931 30.3284C118.427 26.978 110.919 19.1732 111.945 16.4748C111.945 16.4748 101.797 23.4145 104.024 34.744C104.024 34.744 108.44 39.0627 114.108 40.3474C119.776 41.6385 122.1 42.4325 122.326 44.4402C122.552 46.4543 118.646 45.5247 115.141 44.6274C111.629 43.7301 103.424 41.8193 102.243 39.3403C102.243 39.3403 106.594 56.1958 118.427 55.2339C129.524 54.3366 130.512 52.8712 130.589 52.6904C130.344 53.3747 123.017 74.1486 147.716 73.9808C147.716 73.9808 142.067 72.4444 141.402 68.584C140.731 64.7235 135.986 59.6559 138.645 58.8296C141.305 58.0033 143.7 72.0312 149.588 73.0835C155.475 74.1357 162.944 68.8874 163.377 62.3027C163.377 62.3027 158.135 63.923 153.48 60.082C148.826 56.2409 143.597 49.8048 148.348 50.1146C153.099 50.4245 163.306 62.5674 167.295 62.0445C171.285 61.528 175.152 47.9068 175.152 47.9068C175.152 47.9068 173.086 48.3264 166.075 47.1386C159.058 45.9444 151.331 43.1491 152.835 41.858C154.339 40.5669 159.258 42.7489 163.725 44.537C168.193 46.3252 174.435 46.0993 175.507 43.7753C176.572 41.4513 178.057 33.5884 178.057 33.5884C178.057 33.5884 168.774 33.8467 164.59 34.376C160.375 34.9183 152.757 30.7803 156.702 28.8759ZM139.001 49.837C133.855 47.2032 138.562 45.8992 141.931 45.7055C144.488 45.5635 144.152 52.4709 139.001 49.837ZM145.895 41.2834C142.448 39.6179 142.299 37.6425 144.391 37.2681C149.2 36.3966 149.336 42.949 145.895 41.2834ZM152.105 31.4065C150.182 30.6253 149.652 29.8249 151.557 28.4369C153.474 27.0554 154.036 32.194 152.105 31.4065Z" fill="#BDD0FB"/>
<path d="M117.659 151.796C117.659 151.796 87.085 53.1422 34.1366 1.7819C30.5796 -1.67182 24.6147 0.155101 23.6335 5.01613C17.0682 37.5133 6.89423 135.431 117.659 151.796Z" fill="#91B3FA"/>
<path opacity="0.5" d="M107.233 146.005C107.491 146.225 107.194 146.632 106.91 146.444C96.2717 139.602 54.6011 105.258 35.1248 32.4911C35.0602 32.2587 35.4023 32.1425 35.4863 32.3685C41.5609 49.1335 65.95 110.803 107.233 146.005Z" fill="white"/>
<path d="M68.8678 165.191C70.3784 165.953 72.0697 164.539 71.5985 162.913C66.4147 145.037 44.5304 74.3813 12.0396 35.932C9.71562 33.1884 5.27421 34.1245 4.28651 37.5782C-1.94955 59.4238 -12.2203 124.334 68.8678 165.191Z" fill="#BDD0FB"/>
<path opacity="0.5" d="M15.0994 59.3914C15.4545 61.8187 15.9774 64.2137 16.5454 66.5958C17.12 68.9779 17.7526 71.3471 18.4498 73.6904C19.8313 78.3901 21.4387 83.0252 23.1882 87.6022C24.9441 92.1791 26.8549 96.6916 28.8949 101.152C30.9348 105.613 33.1426 109.99 35.4344 114.328L37.1774 117.569L38.9785 120.777L39.8822 122.378L40.8183 123.966L42.6904 127.136C45.2532 131.319 47.8484 135.483 50.6113 139.537C56.0856 147.684 61.9408 155.573 68.1252 163.197C68.4738 163.623 69.1 163.687 69.5261 163.345C69.9521 162.997 70.0167 162.37 69.6746 161.944C69.6746 161.944 69.6681 161.931 69.6616 161.931C63.3933 154.449 57.4413 146.696 51.8637 138.685C49.0491 134.695 46.4023 130.59 43.7814 126.471L41.8705 123.347L40.9151 121.784L39.992 120.203L38.1457 117.039L36.3575 113.844C34.0077 109.564 31.7353 105.232 29.6308 100.823C27.5263 96.414 25.5445 91.9467 23.724 87.4085C21.9035 82.8702 20.2316 78.2739 18.7726 73.6065C18.0367 71.2761 17.3717 68.9198 16.7585 66.5571C16.1517 64.1879 15.59 61.8058 15.1962 59.3914C15.1898 59.3656 15.164 59.3462 15.1381 59.3462C15.1123 59.3398 15.0929 59.3656 15.0994 59.3914Z" fill="white"/>
<path d="M132.424 168.359C132.424 168.359 133.058 171.96 133.37 175.519C133.488 176.916 132.413 178.12 131.026 178.174C126.285 178.368 116.125 178.755 112.481 178.593C111.933 178.572 111.578 178.013 111.782 177.497C111.954 177.067 112.277 176.723 112.696 176.529L129.467 168.821L132.424 168.359Z" fill="url(#paint1_linear)"/>
<path d="M132.951 166.241L132.435 170.553C132.435 170.553 129.5 171.918 127.489 170.381L128.704 165.586L132.951 166.241Z" fill="url(#paint2_linear)"/>
<path d="M132.565 85.2766C132.791 86.4055 133.747 141.396 127.867 166.048C127.77 166.446 127.974 166.865 128.361 167.015C129.264 167.381 131.027 167.918 133.145 167.994C133.801 168.015 134.392 167.585 134.575 166.962C136.252 161.242 144.305 132.591 145.358 105.219C146.53 74.6333 145.358 104.177 145.358 104.177L144.67 85.2766H132.565Z" fill="url(#paint3_linear)"/>
<path d="M151.711 170.23C151.711 170.23 152.721 172.047 153.7 176.874C153.872 177.745 153.27 178.583 152.377 178.669C150.808 178.82 148.399 179.024 146.464 179.013C145.572 179.002 144.873 178.228 144.981 177.347C145.196 175.584 145.862 172.692 147.926 170.434L151.711 170.23Z" fill="url(#paint4_linear)"/>
<path d="M152.605 164.692L151.412 171.207C151.412 171.207 150.229 172.089 147.896 171.444L148.466 164.434L152.605 164.692Z" fill="url(#paint5_linear)"/>
<path d="M155.83 86.9636C160.635 115.98 154.787 158.682 152.809 167.036C152.69 167.552 152.271 167.939 151.755 168.025C150.873 168.175 149.422 168.294 147.992 167.874C147.498 167.735 147.154 167.283 147.132 166.778C146.863 160.026 147.347 118.539 142.864 102.144C142.638 101.316 142.133 100.585 141.424 100.09L132.726 93.9087L132.06 83.9211L155.83 86.9636Z" fill="url(#paint6_linear)"/>
<path d="M127.489 33.0167C127.489 33.0167 149.582 27.5123 165.02 35.6937L155.828 86.9644C155.828 86.9644 141.197 88.147 132.069 85.2443L127.489 33.0167Z" fill="url(#paint7_linear)"/>
<path d="M152.262 17.6538L153.95 32.1997C154.057 32.4039 154.003 32.6619 153.821 32.8017C152.692 33.6725 148.531 36.3172 142.65 33.7263C142.038 33.4575 141.575 32.9415 141.382 32.2964L143.769 19.6857L152.262 17.6538Z" fill="url(#paint8_linear)"/>
<path d="M138.704 10.0743C138.704 10.0743 136.553 20.5886 138.252 24.0719C139.951 27.5659 145.864 25.534 150.207 21.0187L150.97 10.1281L138.704 10.0743Z" fill="url(#paint9_linear)"/>
<path d="M148.562 16.2669C148.325 16.2347 148.164 15.9981 148.239 15.7616C148.454 15.0521 148.82 13.6329 148.745 12.5149C148.745 12.5149 149.454 11.6978 146.154 11.8698C142.864 12.0418 137.929 12.2461 136.198 9.91315C134.511 7.63397 135.08 0.484643 140.531 4.44096C140.735 4.59147 141.036 4.50547 141.122 4.26895C141.52 3.23687 142.703 0.989925 145.38 1.35545C147.885 1.69948 148.605 3.23686 148.809 4.06468C148.874 4.31195 149.142 4.4302 149.368 4.31194C150.422 3.7744 153.045 2.79608 155.109 5.18277C156.808 7.13943 156.517 8.62305 156.087 9.42936C155.948 9.68738 156.13 9.99915 156.431 9.99915C157.227 10.0099 158.367 10.3539 158.775 12.0956C159.345 14.5145 156.625 15.0843 155.84 15.2026C155.711 15.2241 155.604 15.2993 155.539 15.4176C155.098 16.3314 153.077 20.234 150.024 21.5348C149.755 21.6423 149.465 21.4381 149.476 21.1478L149.669 16.7614C149.68 16.5572 149.529 16.3852 149.325 16.3529L148.562 16.2669Z" fill="url(#paint10_linear)"/>
<path d="M148.175 16.9873C148.175 16.9873 150.917 13.6116 151.755 15.5252C152.594 17.4389 149.508 19.3203 147.627 19.0622L148.175 16.9873Z" fill="url(#paint11_linear)"/>
<path d="M169.064 63.8391C169.064 63.8391 167.559 83.0939 154.884 83.9217C154.884 83.9217 149.454 83.4272 147.089 85.2764C144.735 87.1255 145.874 89.9852 145.874 89.9852L156.098 88.7381C156.098 88.7381 170.72 91.1678 179.514 66.6988L169.064 63.8391Z" fill="url(#paint12_linear)"/>
<path d="M165.032 35.6938C165.032 35.6938 182.384 46.0146 179.524 66.6885C179.524 66.6885 173.332 69.3762 168.817 65.7747C168.817 65.7747 165.301 52.3469 157.679 51.6696L165.032 35.6938Z" fill="url(#paint13_linear)"/>
<path d="M115.966 43.0904C115.966 43.0904 107.634 46.9606 97.8939 36.6292C91.2391 29.5659 87.1646 33.8985 85.8745 36.7474C84.5844 39.5964 87.6698 39.3598 88.7449 39.3598C89.82 39.3598 89.949 36.2529 91.8412 36.6829C93.7333 37.1022 93.1743 36.5431 93.2925 38.446C93.4108 40.3489 103.592 61.8182 116.192 51.3577L115.966 43.0904Z" fill="url(#paint14_linear)"/>
<path d="M77.65 46.0898L106.279 44.488C108.892 44.3375 111.182 46.0253 111.515 48.3368L117.923 92.6516C118.31 95.2963 115.998 97.6293 112.999 97.6293H75.6395C72.8013 97.6293 70.5436 95.5221 70.6834 92.9957L72.9948 50.2934C73.1346 48.0357 75.1343 46.2296 77.65 46.0898Z" fill="url(#paint15_linear)"/>
<path d="M82.4887 50.5943C82.048 50.5943 81.6824 50.2503 81.6609 49.7987C81.6394 49.2289 81.1879 35.8442 90.6056 34.3713C92.6159 34.0595 94.4113 34.5326 95.9164 35.7797C100.507 39.5747 100.894 49.3257 100.905 49.7342C100.916 50.1857 100.561 50.5728 100.109 50.5835C99.6577 50.5943 99.2707 50.2395 99.2599 49.788C99.2599 49.6912 98.8836 40.3595 94.8736 37.0482C93.7233 36.1022 92.4117 35.7581 90.8636 36.0054C82.8865 37.2525 83.3058 49.6052 83.3058 49.7342C83.3273 50.1857 82.9725 50.5728 82.521 50.5943C82.5102 50.5943 82.4995 50.5943 82.4887 50.5943Z" fill="url(#paint16_linear)"/>
<path d="M127.49 33.017L114.052 43.0905C114.052 43.0905 113.815 50.6376 115.6 54.2068L130.576 50.5301L127.49 33.017Z" fill="url(#paint17_linear)"/>
<path d="M42 111.884V123.818C42 128.258 43.6664 132.547 46.0853 136.278L48.3645 139.191C51.0092 143.277 55.5245 145.62 60.3839 145.62H110.322L110.698 144.341L122.932 99.4992L133.199 93.9625L131.673 91.1672L120.202 97.392L116.267 111.895H42V111.884ZM45.5585 115.443H115.385L110.461 133.612L107.86 143.234H60.3732C56.5996 143.234 53.0626 141.03 51.0199 137.858L48.945 134.547C46.8701 131.333 45.5585 127.634 45.5585 123.807V115.443Z" fill="#7D97F4"/>
<path d="M48.8906 161.887C48.8906 162.768 49.6109 163.671 50.5033 163.671H109.095C109.988 163.671 110.654 162.413 110.654 161.532V133.902C110.654 133.601 110.59 133.633 110.45 133.386L107.87 143.234H107.096V160.102H50.514C49.6109 160.102 48.8906 161.005 48.8906 161.887Z" fill="#7D97F4"/>
<path d="M81.4245 113.562H79.2852V143.632H81.4245V113.562Z" fill="#7D97F4"/>
<path d="M100.313 113.562H98.1733V143.632H100.313V113.562Z" fill="#7D97F4"/>
<path d="M62.9754 113.562H60.8359V143.632H62.9754V113.562Z" fill="#7D97F4"/>
<path d="M114.578 122.409H45.02V124.323H114.578V122.409Z" fill="#7D97F4"/>
<path d="M111.546 132.88H46.7612V134.794H111.546V132.88Z" fill="#7D97F4"/>
<path d="M94.6787 172.777C94.6787 176.593 97.775 179.689 101.592 179.689C105.408 179.689 108.504 176.593 108.504 172.777C108.504 168.96 105.408 165.864 101.592 165.864C97.775 165.864 94.6787 168.96 94.6787 172.777ZM97.4202 172.777C97.4202 170.476 99.2908 168.605 101.592 168.605C103.892 168.605 105.763 170.476 105.763 172.777C105.763 175.077 103.892 176.948 101.592 176.948C99.2908 176.937 97.4202 175.077 97.4202 172.777Z" fill="#7D97F4"/>
<path d="M51.75 172.777C51.75 176.593 54.8462 179.689 58.6628 179.689C62.4793 179.689 65.5756 176.593 65.5756 172.777C65.5756 168.96 62.4793 165.864 58.6628 165.864C54.8462 165.864 51.75 168.96 51.75 172.777ZM54.4915 172.777C54.4915 170.476 56.3621 168.605 58.6628 168.605C60.9635 168.605 62.8341 170.476 62.8341 172.777C62.8341 175.077 60.9635 176.948 58.6628 176.948C56.3514 176.937 54.4915 175.077 54.4915 172.777Z" fill="#7D97F4"/>
<path d="M124.556 93.9521C124.556 95.7475 126.007 97.1989 127.802 97.1989H138.607C140.402 97.1989 141.854 95.7475 141.854 93.9521C141.854 92.1567 140.402 90.7053 138.607 90.7053H127.802C126.007 90.7053 124.556 92.1567 124.556 93.9521Z" fill="#7D97F4"/>
</g>
<defs>
<linearGradient id="paint0_linear" x1="202.064" y1="233.168" x2="43.2189" y2="35.8927" gradientUnits="userSpaceOnUse">
<stop stop-color="#DAE3FE"/>
<stop offset="1" stop-color="#E9EFFD"/>
</linearGradient>
<linearGradient id="paint1_linear" x1="113.012" y1="163.379" x2="174.423" y2="230.177" gradientUnits="userSpaceOnUse">
<stop stop-color="#09005D"/>
<stop offset="1" stop-color="#1A0F91"/>
</linearGradient>
<linearGradient id="paint2_linear" x1="132.945" y1="168.341" x2="127.491" y2="168.341" gradientUnits="userSpaceOnUse">
<stop stop-color="#FEBBBA"/>
<stop offset="1" stop-color="#FF928E"/>
</linearGradient>
<linearGradient id="paint3_linear" x1="-452.142" y1="724.41" x2="-375.974" y2="646.621" gradientUnits="userSpaceOnUse">
<stop stop-color="#09005D"/>
<stop offset="1" stop-color="#1A0F91"/>
</linearGradient>
<linearGradient id="paint4_linear" x1="126.789" y1="150.714" x2="188.2" y2="217.511" gradientUnits="userSpaceOnUse">
<stop stop-color="#09005D"/>
<stop offset="1" stop-color="#1A0F91"/>
</linearGradient>
<linearGradient id="paint5_linear" x1="152.607" y1="168.06" x2="147.897" y2="168.06" gradientUnits="userSpaceOnUse">
<stop stop-color="#FEBBBA"/>
<stop offset="1" stop-color="#FF928E"/>
</linearGradient>
<linearGradient id="paint6_linear" x1="-447.92" y1="728.543" x2="-371.752" y2="650.755" gradientUnits="userSpaceOnUse">
<stop stop-color="#09005D"/>
<stop offset="1" stop-color="#1A0F91"/>
</linearGradient>
<linearGradient id="paint7_linear" x1="139.399" y1="63.6869" x2="100.672" y2="127.002" gradientUnits="userSpaceOnUse">
<stop stop-color="#4F52FF"/>
<stop offset="1" stop-color="#4042E2"/>
</linearGradient>
<linearGradient id="paint8_linear" x1="153.494" y1="25.7733" x2="140.702" y2="27.7088" gradientUnits="userSpaceOnUse">
<stop stop-color="#FEBBBA"/>
<stop offset="1" stop-color="#FF928E"/>
</linearGradient>
<linearGradient id="paint9_linear" x1="139.23" y1="21.3084" x2="151.294" y2="8.00766" gradientUnits="userSpaceOnUse">
<stop stop-color="#FEBBBA"/>
<stop offset="1" stop-color="#FF928E"/>
</linearGradient>
<linearGradient id="paint10_linear" x1="156.294" y1="-3.73995" x2="141.715" y2="16.8608" gradientUnits="userSpaceOnUse">
<stop stop-color="#09005D"/>
<stop offset="1" stop-color="#1A0F91"/>
</linearGradient>
<linearGradient id="paint11_linear" x1="144.078" y1="23.516" x2="154.933" y2="11.549" gradientUnits="userSpaceOnUse">
<stop stop-color="#FEBBBA"/>
<stop offset="1" stop-color="#FF928E"/>
</linearGradient>
<linearGradient id="paint12_linear" x1="162.321" y1="87.605" x2="163.086" y2="55.8008" gradientUnits="userSpaceOnUse">
<stop stop-color="#FEBBBA"/>
<stop offset="1" stop-color="#FF928E"/>
</linearGradient>
<linearGradient id="paint13_linear" x1="157.762" y1="74.9182" x2="119.036" y2="138.233" gradientUnits="userSpaceOnUse">
<stop stop-color="#4F52FF"/>
<stop offset="1" stop-color="#4042E2"/>
</linearGradient>
<linearGradient id="paint14_linear" x1="100.703" y1="51.8307" x2="101.304" y2="26.8342" gradientUnits="userSpaceOnUse">
<stop stop-color="#FEBBBA"/>
<stop offset="1" stop-color="#FF928E"/>
</linearGradient>
<linearGradient id="paint15_linear" x1="170.321" y1="-173.607" x2="156.817" y2="-129.311" gradientUnits="userSpaceOnUse">
<stop stop-color="#FF928E"/>
<stop offset="1" stop-color="#FE7062"/>
</linearGradient>
<linearGradient id="paint16_linear" x1="113.531" y1="-48.2889" x2="98.4049" y2="17.2579" gradientUnits="userSpaceOnUse">
<stop stop-color="#A737D5"/>
<stop offset="1" stop-color="#EF497A"/>
</linearGradient>
<linearGradient id="paint17_linear" x1="119.45" y1="51.4846" x2="80.7232" y2="114.799" gradientUnits="userSpaceOnUse">
<stop stop-color="#4F52FF"/>
<stop offset="1" stop-color="#4042E2"/>
</linearGradient>
<clipPath id="clip0">
<rect width="179.677" height="180" fill="white" transform="translate(0.161621)"/>
</clipPath>
</defs>
</svg>
