<svg width="16" height="16" viewBox="0 0 16 16" fill="none" xmlns="http://www.w3.org/2000/svg">
<rect x="0.999023" y="1" width="14" height="14" rx="7" fill="#2C3BFE" stroke="#2C3BFE" stroke-width="2"/>
<path d="M4.94926 7.44031C4.61072 7.00395 3.98253 6.92467 3.54618 7.26322C3.10983 7.60177 3.03055 8.22995 3.36909 8.6663L4.94926 7.44031ZM6.22815 10.72L5.43806 11.333C5.7608 11.7489 6.35079 11.8434 6.78729 11.549L6.22815 10.72ZM12.7183 7.54904C13.1762 7.24024 13.2971 6.61871 12.9883 6.16083C12.6794 5.70294 12.0579 5.58209 11.6 5.8909L12.7183 7.54904ZM3.36909 8.6663L5.43806 11.333L7.01823 10.107L4.94926 7.44031L3.36909 8.6663ZM6.78729 11.549L12.7183 7.54904L11.6 5.8909L5.66901 9.8909L6.78729 11.549Z" fill="white"/>
</svg>
