<svg width="80" height="16" viewBox="0 0 80 16" fill="none" xmlns="http://www.w3.org/2000/svg">
<path d="M8 2L10.2249 5.4135L14 6.58359L11.6 9.86334L11.7082 14L8 12.6135L4.2918 14L4.4 9.86334L2 6.58359L5.77508 5.4135L8 2Z" fill="#FFD400"/>
<path d="M24 2L26.2249 5.4135L30 6.58359L27.6 9.86334L27.7082 14L24 12.6135L20.2918 14L20.4 9.86334L18 6.58359L21.7751 5.4135L24 2Z" fill="#FFD400"/>
<path d="M40 2L42.2249 5.4135L46 6.58359L43.6 9.86334L43.7082 14L40 12.6135L36.2918 14L36.4 9.86334L34 6.58359L37.7751 5.4135L40 2Z" fill="#FFD400"/>
<path d="M56 2L58.2249 5.4135L62 6.58359L59.6 9.86334L59.7082 14L56 12.6135L52.2918 14L52.4 9.86334L50 6.58359L53.7751 5.4135L56 2Z" fill="#FFD400"/>
<path d="M72 2.91567L73.806 5.68652L73.9046 5.83767L74.0769 5.89108L77.1827 6.85375L75.1965 9.56807L75.0957 9.70581L75.1002 9.87642L75.189 13.2721L72.1751 12.1452L72 12.0797L71.8249 12.1452L68.811 13.2721L68.8998 9.87642L68.9043 9.70581L68.8035 9.56807L66.8173 6.85375L69.9231 5.89108L70.0954 5.83767L70.194 5.68652L72 2.91567Z" stroke="#180F45"/>
</svg>
