<svg width="12" height="12" viewBox="0 0 12 12" fill="none" xmlns="http://www.w3.org/2000/svg">
<path d="M6 0.915669L7.80605 3.68652L7.90456 3.83767L8.07689 3.89108L11.1827 4.85375L9.19649 7.56807L9.09571 7.70581L9.10017 7.87642L9.18899 11.2721L6.17511 10.1452L6 10.0797L5.82489 10.1452L2.81101 11.2721L2.89983 7.87642L2.90429 7.70581L2.8035 7.56807L0.817261 4.85375L3.92311 3.89108L4.09544 3.83767L4.19395 3.68652L6 0.915669Z" stroke="#FFD400"/>
<mask id="mask0" mask-type="alpha" maskUnits="userSpaceOnUse" x="0" y="0" width="12" height="12">
<path d="M6 0L8.22492 3.4135L12 4.58359L9.6 7.86334L9.7082 12L6 10.6135L2.2918 12L2.4 7.86334L0 4.58359L3.77508 3.4135L6 0Z" fill="#FFD400"/>
</mask>
<g mask="url(#mask0)">
<rect width="6" height="12" fill="#FFD400"/>
</g>
</svg>
