<svg width="81" height="16" viewBox="0 0 81 16" fill="none" xmlns="http://www.w3.org/2000/svg">
<path d="M8.5 2L10.7249 5.4135L14.5 6.58359L12.1 9.86334L12.2082 14L8.5 12.6135L4.7918 14L4.9 9.86334L2.5 6.58359L6.27508 5.4135L8.5 2Z" fill="#FFD400"/>
<path d="M24.5 2L26.7249 5.4135L30.5 6.58359L28.1 9.86334L28.2082 14L24.5 12.6135L20.7918 14L20.9 9.86334L18.5 6.58359L22.2751 5.4135L24.5 2Z" fill="#FFD400"/>
<path d="M40.5 2.91567L42.306 5.68652L42.4046 5.83767L42.5769 5.89108L45.6827 6.85375L43.6965 9.56807L43.5957 9.70581L43.6002 9.87642L43.689 13.2721L40.6751 12.1452L40.5 12.0797L40.3249 12.1452L37.311 13.2721L37.3998 9.87642L37.4043 9.70581L37.3035 9.56807L35.3173 6.85375L38.4231 5.89108L38.5954 5.83767L38.694 5.68652L40.5 2.91567Z" stroke="#180F45"/>
<path d="M56.5 2.91567L58.306 5.68652L58.4046 5.83767L58.5769 5.89108L61.6827 6.85375L59.6965 9.56807L59.5957 9.70581L59.6002 9.87642L59.689 13.2721L56.6751 12.1452L56.5 12.0797L56.3249 12.1452L53.311 13.2721L53.3998 9.87642L53.4043 9.70581L53.3035 9.56807L51.3173 6.85375L54.4231 5.89108L54.5954 5.83767L54.694 5.68652L56.5 2.91567Z" stroke="#180F45"/>
<path d="M72.5 2.91567L74.306 5.68652L74.4046 5.83767L74.5769 5.89108L77.6827 6.85375L75.6965 9.56807L75.5957 9.70581L75.6002 9.87642L75.689 13.2721L72.6751 12.1452L72.5 12.0797L72.3249 12.1452L69.311 13.2721L69.3998 9.87642L69.4043 9.70581L69.3035 9.56807L67.3173 6.85375L70.4231 5.89108L70.5954 5.83767L70.694 5.68652L72.5 2.91567Z" stroke="#180F45"/>
</svg>
