<svg width="21" height="20" viewBox="0 0 21 20" fill="none" xmlns="http://www.w3.org/2000/svg">
<path d="M19.4991 4L10.7491 0.625L1.37408 4M19.4991 4L10.7491 7.5L1.37408 4M19.4991 4V9.375M1.37408 4V15.5L10.1241 18.75" stroke="#180F45" stroke-linecap="round"/>
<circle cx="15.1241" cy="14.375" r="5.125" stroke="#180F45"/>
<path d="M11.9991 14.5C11.7229 14.5 11.4991 14.7239 11.4991 15C11.4991 15.2761 11.7229 15.5 11.9991 15.5V14.5ZM15.7491 15V15.5H16.2491V15H15.7491ZM16.2491 11.25C16.2491 10.9739 16.0252 10.75 15.7491 10.75C15.4729 10.75 15.2491 10.9739 15.2491 11.25H16.2491ZM11.9991 15.5H15.7491V14.5H11.9991V15.5ZM16.2491 15V11.25H15.2491V15H16.2491Z" fill="#180F45"/>
</svg>
