<svg width="375" height="160" viewBox="0 0 375 160" fill="none" xmlns="http://www.w3.org/2000/svg">
<rect width="375" height="160" fill="#180F45"/>
<g style="mix-blend-mode:luminosity">
<g opacity="0.3" clip-path="url(#clip0)">
<path d="M328.321 94.4C322.612 97.5 317.575 101.4 312.649 105.2C308.955 108.1 305.037 111.1 300.895 113.7C297.537 115.9 292.5 118.6 286.567 120.3C311.866 129.6 338.955 139.4 346.343 160.1H375V90.1C358.545 85.6 341.642 87.1 328.321 94.4Z" fill="#D200CA"/>
<path d="M344.776 32.9C335.821 40.9 323.843 47.8 311.418 46C287.127 42.5 275.149 8.7 250.858 12.6C233.955 15.3 228.582 34.2 226.791 49.4C225.672 58.8 224.552 68.2 223.657 77.7C234.291 90.5 245.821 102.6 261.269 110C268.433 113.4 276.605 116.5 285 119.6C291.157 118 296.53 115.1 300.112 112.9C304.142 110.3 308.06 107.4 311.754 104.5C316.679 100.7 321.828 96.7 327.537 93.6C341.082 86.3 358.097 84.7 374.776 89.2V8.5C373.881 8.9 372.873 9.3 371.978 9.8C361.343 15.4 353.731 24.9 344.776 32.9Z" fill="#D200CA"/>
<path d="M222.761 90.2998C222.202 90.2998 221.642 90.2998 220.97 90.2998C207.313 91.1998 199.478 105.9 199.142 119.3C199.03 122.7 199.142 126.2 199.366 129.6C199.813 139.3 200.149 149.3 195.112 157.9C194.664 158.6 194.216 159.3 193.657 160H228.918C227.239 154.6 226.007 149.1 225 143.7C221.866 126 221.642 108.2 222.761 90.2998Z" fill="#753EEB"/>
<path fill-rule="evenodd" clip-rule="evenodd" d="M198.246 119.3C198.246 122.7 198.358 126.2 198.47 129.6C198.476 129.776 198.483 129.952 198.489 130.128C198.821 139.562 199.162 149.254 194.217 157.5C193.657 158.4 193.097 159.2 192.537 160H161.642C167.239 150.5 171.493 140.2 173.06 128.3C177.09 97.7001 165.112 65.7001 141.269 43.5C136.71 39.2709 131.808 35.4098 126.885 31.5324C125.522 30.4589 124.158 29.3842 122.799 28.3C129.403 25.3 136.679 23.5 144.515 23.3C170.709 22.6 192.537 40.6 208.433 59.2C211.456 62.7816 214.441 66.4321 217.432 70.0908C219.536 72.6635 221.643 75.2403 223.769 77.8C223.433 81.7001 223.097 85.6 222.873 89.5H220.97C206.642 90.4 198.694 105.2 198.246 119.3ZM248.287 105.069C248.099 104.879 247.912 104.689 247.724 104.5L247.604 104.379C240.149 96.8235 233.118 89.6987 223.097 89.4998C223.321 85.6004 223.657 81.7009 223.992 77.8015L223.993 77.7998C234.627 90.5998 246.045 102.6 261.605 110.1C268.657 113.5 276.94 116.6 285.336 119.7C279.963 121 274.03 121.5 268.097 119.6C260.179 117.08 254.153 110.993 248.287 105.069Z" fill="#753EEB"/>
<path d="M286.567 120.2C280.746 121.9 274.142 122.5 267.649 120.4C259.254 117.8 252.985 111.3 246.94 105.1C239.552 97.5998 232.612 90.4998 222.761 90.2998C221.642 108.2 221.866 126 225 143.7C226.007 149.2 227.239 154.6 228.918 160H346.343C339.067 139.3 311.866 129.5 286.567 120.2Z" fill="#753EEB"/>
<path d="M141.269 43.5C135.448 38.1 129.067 33.3 122.798 28.3C115.746 22.6 108.918 16.8 103.545 9.7C101.194 6.6 99.291 3.3 97.5 0H17.6866C16.6791 5.6 15.2239 11.2 13.7686 16.8C9.62685 32.6 5.37312 48.9 12.3134 63.7C19.9254 79.8 38.3955 88.9 56.306 97.6C57.5373 98.2 58.6567 98.8 59.888 99.4C77.5746 108.1 95.0373 117.5 101.082 134.2C104.104 142.6 103.545 151.3 101.194 160H161.53C167.127 150.5 171.381 140.2 172.948 128.3C177.09 97.8 165.112 65.8 141.269 43.5Z" fill="#2C3BFE"/>
<path d="M100.299 134.5C94.3657 118.1 77.1269 108.8 59.5522 100.2C58.3209 99.5 57.0896 99 55.9702 98.4C37.8358 89.6 19.2537 80.4 11.5299 64C4.47761 49 8.73134 32.5 12.8731 16.6C14.3284 11.1 15.7836 5.6 16.791 0H0V160H100.299C102.649 151.4 103.209 142.8 100.299 134.5Z" fill="#2C3BFE"/>
<path d="M11.5298 64.0001C19.2537 80.4001 37.8358 89.6001 55.9701 98.4001C57.2015 99.0001 58.3209 99.6001 59.5522 100.2C59.6642 100 59.888 99.7001 60 99.5001C58.7686 98.9001 57.6492 98.3001 56.4179 97.7001C38.5074 88.9001 20.0373 79.9001 12.4253 63.8001C5.48505 49.1001 9.73878 32.7001 13.8806 16.9001C15.3358 11.4001 16.791 5.8001 17.7985 0.100098H16.903C15.8955 5.6001 14.4403 11.2001 12.985 16.7001C8.73132 32.5001 4.47759 49.0001 11.5298 64.0001Z" fill="#FD9AF9"/>
<path d="M101.082 134.2C95.0373 117.5 77.5746 108.1 59.8881 99.3999C59.7761 99.5999 59.5522 99.8999 59.4403 100.1C76.903 108.7 94.2537 118 100.187 134.4C103.209 142.7 102.649 151.3 100.187 159.9H101.194C103.657 151.3 104.105 142.6 101.082 134.2Z" fill="#FD9AF9"/>
<path d="M327.761 93.6002C322.052 96.7002 316.903 100.7 311.978 104.5C308.284 107.4 304.366 110.3 300.336 112.9C296.754 115.2 291.381 118 285.224 119.6C285.672 119.8 286.119 119.9 286.567 120.1C292.388 118.4 297.425 115.7 300.896 113.5C305.037 110.9 308.843 107.9 312.649 105C317.575 101.2 322.724 97.3002 328.321 94.2002C341.642 87.0002 358.545 85.5002 375 89.9002V89.0002C358.321 84.8002 341.306 86.3002 327.761 93.6002Z" fill="#FD9AF9"/>
<path d="M199.366 129.6C199.254 126.2 199.142 122.7 199.142 119.3C199.478 105.9 207.313 91.2 220.97 90.3C221.53 90.3 222.202 90.3 222.761 90.3C222.761 90 222.761 89.7 222.873 89.5C222.202 89.5 221.642 89.5 220.97 89.5C206.642 90.4 198.694 105.2 198.246 119.3C198.134 122.7 198.246 126.2 198.47 129.6C198.806 139.2 199.254 149.1 194.328 157.5C193.769 158.4 193.209 159.2 192.649 160H193.769C194.216 159.3 194.776 158.6 195.224 157.9C200.149 149.3 199.702 139.3 199.366 129.6Z" fill="#FD9AF9"/>
<path d="M267.985 119.6C259.925 117 253.657 110.7 247.612 104.5C240.112 96.8999 233.06 89.5999 222.761 89.3999C222.761 89.6999 222.761 89.9999 222.649 90.1999C232.5 90.3999 239.552 97.4999 246.828 105C252.873 111.2 259.254 117.7 267.537 120.3C274.03 122.4 280.634 121.7 286.455 120.1C286.007 119.9 285.56 119.8 285.112 119.6C279.851 121 273.918 121.5 267.985 119.6Z" fill="#FD9AF9"/>
</g>
</g>
<defs>
<clipPath id="clip0">
<rect width="375" height="160" fill="white"/>
</clipPath>
</defs>
</svg>
