<svg width="32" height="30" viewBox="0 0 32 30" fill="none" xmlns="http://www.w3.org/2000/svg">
<path d="M31.9681 15C31.9681 6.72894 25.1399 0 16.7456 0C10.2938 0 4.56467 4.0331 2.41579 9.93744L0.858604 9.95251C0.0568714 9.95667 -0.235332 10.4984 0.20505 11.1577L2.70124 16.2182C3.14474 16.878 3.8612 16.8728 4.29587 16.2094L7.63954 11.1088C8.07576 10.4459 7.77472 9.90624 6.97299 9.9104L5.37108 9.91976C7.36658 5.58509 11.7964 2.69428 16.7446 2.69428C23.6311 2.69428 29.2328 8.21542 29.2328 14.9995C29.2328 21.7841 23.6311 27.3073 16.7446 27.3073C13.1498 27.3073 9.72914 25.7787 7.35618 23.1156C6.85861 22.5556 5.99448 22.5 5.4288 22.9913C4.85999 23.4832 4.8028 24.3343 5.29985 24.8932C8.19223 28.1402 12.3631 30 16.7446 30C25.1399 30 31.9681 23.2726 31.9681 15Z" fill="white"/>
<path d="M16.2318 16.7676C17.1342 16.7676 17.8431 16.9922 18.3588 17.4414C18.8783 17.8867 19.1381 18.498 19.1381 19.2754C19.1381 20.1621 18.8549 20.8574 18.2885 21.3613C17.726 21.8652 16.9486 22.1172 15.9564 22.1172C14.9916 22.1172 14.2552 21.9629 13.7474 21.6543V20.7168C14.0209 20.8926 14.3607 21.0312 14.767 21.1328C15.1732 21.2305 15.5736 21.2793 15.9681 21.2793C16.6556 21.2793 17.1888 21.1172 17.5677 20.793C17.9506 20.4688 18.142 20 18.142 19.3867C18.142 18.1914 17.4095 17.5938 15.9447 17.5938C15.5736 17.5938 15.0775 17.6504 14.4564 17.7637L13.9525 17.4414L14.2748 13.4336H18.5345V14.3301H15.1068L14.89 16.9023C15.3392 16.8125 15.7865 16.7676 16.2318 16.7676Z" fill="white"/>
</svg>
