<svg width="44" height="44" viewBox="0 0 44 44" fill="none" xmlns="http://www.w3.org/2000/svg">
<path d="M32.6658 41.2415C29.2198 43.1516 25.3241 44.1013 21.3857 43.9912C17.4473 43.8812 13.6107 42.7156 10.2767 40.6161L18.483 27.5847C19.4832 28.2145 20.6342 28.5642 21.8157 28.5972C22.9972 28.6302 24.166 28.3453 25.1997 27.7723L32.6658 41.2415Z" fill="#505BAB"/>
<path d="M11.3342 41.2415C7.88822 39.3313 5.01845 36.5308 3.0247 33.1326C1.03095 29.7343 -0.0136185 25.863 0.000134022 21.923L15.4 21.9768C15.3959 23.1588 15.7093 24.3202 16.3074 25.3396C16.9055 26.3591 17.7665 27.1993 18.8003 27.7723L11.3342 41.2415Z" fill="#90C654"/>
<path d="M0 21.9998C3.03517e-07 18.528 0.821681 15.1054 2.39786 12.012C3.97404 8.91859 6.25997 6.24212 9.06874 4.20143L18.1206 16.6603C17.278 17.2725 16.5922 18.0755 16.1194 19.0035C15.6465 19.9315 15.4 20.9583 15.4 21.9998L0 21.9998Z" fill="#FEC226"/>
<path d="M29.8841 1.46105C34.0013 3.04148 37.5484 5.8228 40.0653 9.44412C42.5822 13.0655 43.9526 17.3596 43.9988 21.7694L28.5996 21.9307C28.5858 20.6078 28.1747 19.3195 27.4196 18.2331C26.6645 17.1467 25.6004 16.3123 24.3652 15.8382L29.8841 1.46105Z" fill="#DB5344"/>
<path d="M43.9699 20.8484C44.1883 25.0175 43.2161 29.1626 41.1667 32.7997C39.1173 36.4368 36.0753 39.4157 32.3961 41.3885L25.1188 27.8164C26.2226 27.2246 27.1352 26.3309 27.75 25.2398C28.3648 24.1487 28.6565 22.9051 28.591 21.6544L43.9699 20.8484Z" fill="#5D85C3"/>
<path d="M8.76007 4.42984C11.9067 2.05871 15.6323 0.576105 19.5477 0.136922C23.4631 -0.30226 27.4246 0.318095 31.0183 1.93318L24.7055 15.9798C23.6274 15.4953 22.4389 15.3092 21.2643 15.4409C20.0897 15.5727 18.972 16.0175 18.028 16.7288L8.76007 4.42984Z" fill="#F47B32"/>
<g clip-path="url(#clip0)">
<ellipse cx="22" cy="22" rx="5.45455" ry="5.45455" fill="#5D85C3"/>
<path d="M14 18.8C14 17.92 14.72 17.2 15.6 17.2H18L19.6 15.6H24.4L26 17.2H28.4C28.8243 17.2 29.2313 17.3685 29.5314 17.6686C29.8314 17.9687 30 18.3756 30 18.8V26.8C30 27.2243 29.8314 27.6313 29.5314 27.9313C29.2313 28.2314 28.8243 28.4 28.4 28.4H15.6C15.1757 28.4 14.7687 28.2314 14.4686 27.9313C14.1686 27.6313 14 27.2243 14 26.8V18.8ZM22 26.8C23.0609 26.8 24.0783 26.3785 24.8284 25.6284C25.5786 24.8783 26 23.8608 26 22.8C26 21.7391 25.5786 20.7217 24.8284 19.9715C24.0783 19.2214 23.0609 18.8 22 18.8C20.9391 18.8 19.9217 19.2214 19.1716 19.9715C18.4214 20.7217 18 21.7391 18 22.8C18 23.8608 18.4214 24.8783 19.1716 25.6284C19.9217 26.3785 20.9391 26.8 22 26.8ZM22 25.2C21.6848 25.2 21.3727 25.1379 21.0816 25.0173C20.7904 24.8967 20.5258 24.7199 20.3029 24.497C20.0801 24.2742 19.9033 24.0096 19.7827 23.7184C19.6621 23.4272 19.6 23.1151 19.6 22.8C19.6 22.4848 19.6621 22.1727 19.7827 21.8815C19.9033 21.5904 20.0801 21.3258 20.3029 21.1029C20.5258 20.8801 20.7904 20.7033 21.0816 20.5827C21.3727 20.4621 21.6848 20.4 22 20.4C22.6365 20.4 23.247 20.6528 23.6971 21.1029C24.1471 21.553 24.4 22.1635 24.4 22.8C24.4 23.4365 24.1471 24.0469 23.6971 24.497C23.247 24.9471 22.6365 25.2 22 25.2Z" fill="white"/>
</g>
<defs>
<clipPath id="clip0">
<rect width="16" height="16" fill="white" transform="translate(14 14)"/>
</clipPath>
</defs>
</svg>
