<svg width="36" height="35" viewBox="0 0 36 35" fill="none" xmlns="http://www.w3.org/2000/svg">
<path d="M22.25 32.8002H2.25C1.69771 32.8002 1.25 32.3525 1.25 31.8002V16.6002C1.25 16.0479 1.69772 15.6002 2.25 15.6002H5.42157C6.21722 15.6002 6.98028 15.2841 7.54289 14.7215L8.77132 13.4931C8.95886 13.3056 9.21321 13.2002 9.47843 13.2002H15.0216C15.2868 13.2002 15.5411 13.3056 15.7287 13.4931L16.9571 14.7215C17.5197 15.2841 18.2828 15.6002 19.0784 15.6002H22.25C22.8023 15.6002 23.25 16.0479 23.25 16.6002V31.8002C23.25 32.3525 22.8023 32.8002 22.25 32.8002Z" stroke="white" stroke-width="2"/>
<circle cx="12.25" cy="23" r="5" stroke="white" stroke-width="2"/>
<circle cx="30" cy="6" r="6" fill="white"/>
</svg>
