<svg width="20" height="18" viewBox="0 0 20 18" fill="none" xmlns="http://www.w3.org/2000/svg">
<path d="M18 17.5H2C1.17157 17.5 0.5 16.8284 0.5 16V4C0.5 3.17157 1.17157 2.5 2 2.5H4.17157C4.83461 2.5 5.4705 2.23661 5.93934 1.76777L6.76777 0.93934C7.04907 0.658035 7.4306 0.5 7.82843 0.5H12.1716C12.5694 0.5 12.9509 0.658035 13.2322 0.939339L14.0607 1.76777L14.4142 1.41421L14.0607 1.76777C14.5295 2.23661 15.1654 2.5 15.8284 2.5H18C18.8284 2.5 19.5 3.17157 19.5 4V16C19.5 16.8284 18.8284 17.5 18 17.5Z" stroke="white"/>
<circle cx="10" cy="9" r="4.5" stroke="white"/>
</svg>
