<svg width="23" height="22" viewBox="0 0 23 22" fill="none" xmlns="http://www.w3.org/2000/svg">
<g filter="url(#filter0_d)">
<path d="M18.5 7.205L17.795 6.5L16 8.295L14.205 6.5L13.5 7.205L15.295 9L13.5 10.795L14.205 11.5L16 9.705L17.795 11.5L18.5 10.795L16.705 9L18.5 7.205Z" fill="white"/>
<path d="M12 16C11.9338 15.9997 11.8684 15.9863 11.8075 15.9606C11.7465 15.9348 11.6913 15.8972 11.645 15.85L7.835 12H4.5C4.36739 12 4.24021 11.9473 4.14645 11.8536C4.05268 11.7598 4 11.6326 4 11.5V6.5C4 6.3674 4.05268 6.24022 4.14645 6.14645C4.24021 6.05268 4.36739 6 4.5 6H7.835L11.645 2.15C11.7387 2.05688 11.8654 2.00461 11.9975 2.00461C12.1296 2.00461 12.2563 2.05688 12.35 2.15C12.4442 2.24232 12.4981 2.36812 12.5 2.5V15.5C12.5 15.6326 12.4473 15.7598 12.3536 15.8536C12.2598 15.9473 12.1326 16 12 16ZM5 11H8C8.14576 10.999 8.28662 11.0525 8.395 11.15L11.5 14.285V3.715L8.395 6.85C8.28662 6.94747 8.14576 7.00096 8 7H5V11Z" fill="white"/>
</g>
<defs>
<filter id="filter0_d" x="-1" y="-1" width="24" height="24" filterUnits="userSpaceOnUse" color-interpolation-filters="sRGB">
<feFlood flood-opacity="0" result="BackgroundImageFix"/>
<feColorMatrix in="SourceAlpha" type="matrix" values="0 0 0 0 0 0 0 0 0 0 0 0 0 0 0 0 0 0 127 0"/>
<feOffset dy="2"/>
<feGaussianBlur stdDeviation="2"/>
<feColorMatrix type="matrix" values="0 0 0 0 0 0 0 0 0 0 0 0 0 0 0 0 0 0 0.15 0"/>
<feBlend mode="normal" in2="BackgroundImageFix" result="effect1_dropShadow"/>
<feBlend mode="normal" in="SourceGraphic" in2="effect1_dropShadow" result="shape"/>
</filter>
</defs>
</svg>
