<svg width="22" height="22" viewBox="0 0 22 22" fill="none" xmlns="http://www.w3.org/2000/svg">
<g filter="url(#filter0_d)">
<path d="M16.5799 5.03999L15.8149 5.68499C16.6008 6.61596 17.0198 7.80185 16.9931 9.01991C16.9664 10.238 16.4959 11.4044 15.6699 12.3L16.4049 13C17.3968 11.9252 17.9619 10.5252 17.9941 9.06309C18.0263 7.60097 17.5234 6.17741 16.5799 5.05999V5.03999Z" fill="white"/>
<path d="M13.79 7C14.2614 7.55901 14.5124 8.27095 14.4958 9.00202C14.4792 9.73308 14.1962 10.4329 13.7 10.97L14.435 11.65C15.0964 10.9332 15.4731 9.99939 15.4943 9.02425C15.5155 8.04912 15.1796 7.09985 14.55 6.355L13.79 7Z" fill="white"/>
<path d="M12 16C11.9338 15.9997 11.8684 15.9863 11.8075 15.9606C11.7465 15.9348 11.6913 15.8972 11.645 15.85L7.835 12H4.5C4.36739 12 4.24021 11.9473 4.14645 11.8536C4.05268 11.7598 4 11.6326 4 11.5V6.5C4 6.3674 4.05268 6.24022 4.14645 6.14645C4.24021 6.05268 4.36739 6 4.5 6H7.835L11.645 2.15C11.7387 2.05688 11.8654 2.00461 11.9975 2.00461C12.1296 2.00461 12.2563 2.05688 12.35 2.15C12.4442 2.24232 12.4981 2.36812 12.5 2.5V15.5C12.5 15.6326 12.4473 15.7598 12.3536 15.8536C12.2598 15.9473 12.1326 16 12 16ZM5 11H8.04C8.10615 11.0003 8.17159 11.0137 8.23253 11.0394C8.29347 11.0652 8.34869 11.1028 8.395 11.15L11.5 14.285V3.715L8.395 6.85C8.34869 6.89725 8.29347 6.93483 8.23253 6.96058C8.17159 6.98633 8.10615 6.99973 8.04 7H5V11Z" fill="white"/>
</g>
<defs>
<filter id="filter0_d" x="-1" y="-1" width="24" height="24" filterUnits="userSpaceOnUse" color-interpolation-filters="sRGB">
<feFlood flood-opacity="0" result="BackgroundImageFix"/>
<feColorMatrix in="SourceAlpha" type="matrix" values="0 0 0 0 0 0 0 0 0 0 0 0 0 0 0 0 0 0 127 0"/>
<feOffset dy="2"/>
<feGaussianBlur stdDeviation="2"/>
<feColorMatrix type="matrix" values="0 0 0 0 0 0 0 0 0 0 0 0 0 0 0 0 0 0 0.15 0"/>
<feBlend mode="normal" in2="BackgroundImageFix" result="effect1_dropShadow"/>
<feBlend mode="normal" in="SourceGraphic" in2="effect1_dropShadow" result="shape"/>
</filter>
</defs>
</svg>
