<svg width="24" height="38" viewBox="0 0 24 38" fill="none" xmlns="http://www.w3.org/2000/svg">
<circle cx="10" cy="14" r="1.5" stroke="#070016"/>
<circle cx="16" cy="14" r="1.5" stroke="#070016"/>
<path d="M5 1L8.72361 8.44721C8.893 8.786 9.23926 9 9.61803 9H16.3333C16.737 9 17.1011 8.75726 17.2564 8.38462L18.9231 4.38462C19.1975 3.72593 18.7136 3 18 3H10" stroke="#070016" stroke-linecap="round"/>
<path d="M5.15039 25.2012C4.20898 25.2012 3.46484 25.5156 2.91797 26.1445C2.375 26.7695 2.10352 27.627 2.10352 28.7168C2.10352 29.8379 2.36523 30.7051 2.88867 31.3184C3.41602 31.9277 4.16602 32.2324 5.13867 32.2324C5.73633 32.2324 6.41797 32.125 7.18359 31.9102V32.7832C6.58984 33.0059 5.85742 33.1172 4.98633 33.1172C3.72461 33.1172 2.75 32.7344 2.0625 31.9688C1.37891 31.2031 1.03711 30.1152 1.03711 28.7051C1.03711 27.8223 1.20117 27.0488 1.5293 26.3848C1.86133 25.7207 2.33789 25.209 2.95898 24.8496C3.58398 24.4902 4.31836 24.3105 5.16211 24.3105C6.06055 24.3105 6.8457 24.4746 7.51758 24.8027L7.0957 25.6582C6.44727 25.3535 5.79883 25.2012 5.15039 25.2012ZM12.8555 33L12.6621 32.0859H12.6152C12.2949 32.4883 11.9746 32.7617 11.6543 32.9062C11.3379 33.0469 10.9414 33.1172 10.4648 33.1172C9.82812 33.1172 9.32812 32.9531 8.96484 32.625C8.60547 32.2969 8.42578 31.8301 8.42578 31.2246C8.42578 29.9277 9.46289 29.248 11.5371 29.1855L12.627 29.1504V28.752C12.627 28.248 12.5176 27.877 12.2988 27.6387C12.084 27.3965 11.7383 27.2754 11.2617 27.2754C10.7266 27.2754 10.1211 27.4395 9.44531 27.7676L9.14648 27.0234C9.46289 26.8516 9.80859 26.7168 10.1836 26.6191C10.5625 26.5215 10.9414 26.4727 11.3203 26.4727C12.0859 26.4727 12.6523 26.6426 13.0195 26.9824C13.3906 27.3223 13.5762 27.8672 13.5762 28.6172V33H12.8555ZM10.6582 32.3145C11.2637 32.3145 11.7383 32.1484 12.082 31.8164C12.4297 31.4844 12.6035 31.0195 12.6035 30.4219V29.8418L11.6309 29.8828C10.8574 29.9102 10.2988 30.0312 9.95508 30.2461C9.61523 30.457 9.44531 30.7871 9.44531 31.2363C9.44531 31.5879 9.55078 31.8555 9.76172 32.0391C9.97656 32.2227 10.2754 32.3145 10.6582 32.3145ZM18.5156 26.4609C18.8008 26.4609 19.0566 26.4844 19.2832 26.5312L19.1484 27.4336C18.8828 27.375 18.6484 27.3457 18.4453 27.3457C17.9258 27.3457 17.4805 27.5566 17.1094 27.9785C16.7422 28.4004 16.5586 28.9258 16.5586 29.5547V33H15.5859V26.5781H16.3887L16.5 27.7676H16.5469C16.7852 27.3496 17.0723 27.0273 17.4082 26.8008C17.7441 26.5742 18.1133 26.4609 18.5156 26.4609ZM22.5586 32.3145C22.7305 32.3145 22.8965 32.3027 23.0566 32.2793C23.2168 32.252 23.3438 32.2246 23.4375 32.1973V32.9414C23.332 32.9922 23.1758 33.0332 22.9688 33.0645C22.7656 33.0996 22.582 33.1172 22.418 33.1172C21.1758 33.1172 20.5547 32.4629 20.5547 31.1543V27.334H19.6348V26.8652L20.5547 26.4609L20.9648 25.0898H21.5273V26.5781H23.3906V27.334H21.5273V31.1133C21.5273 31.5 21.6191 31.7969 21.8027 32.0039C21.9863 32.2109 22.2383 32.3145 22.5586 32.3145Z" fill="#070016"/>
</svg>
