<svg width="22" height="33" viewBox="0 0 22 33" fill="none" xmlns="http://www.w3.org/2000/svg">
<circle cx="9" cy="14" r="1" stroke="#2C3BFE" stroke-width="2"/>
<circle cx="15" cy="14" r="1" stroke="#2C3BFE" stroke-width="2"/>
<path d="M4 1L7.72361 8.44721C7.893 8.786 8.23926 9 8.61803 9H15.3333C15.737 9 16.1011 8.75726 16.2564 8.38462L17.9231 4.38462C18.1975 3.72593 17.7136 3 17 3H9" stroke="#2C3BFE" stroke-width="2" stroke-linecap="round"/>
<path d="M4.75541 29.144C6.36341 29.144 7.35941 28.292 7.97141 27.332L6.77141 26.732C6.38741 27.392 5.60741 27.896 4.75541 27.896C3.17141 27.896 1.99541 26.672 1.99541 25.004C1.99541 23.312 3.17141 22.112 4.75541 22.112C5.60741 22.112 6.38741 22.604 6.77141 23.276L7.95941 22.652C7.37141 21.692 6.36341 20.864 4.75541 20.864C2.39141 20.864 0.555406 22.532 0.555406 25.004C0.555406 27.464 2.39141 29.144 4.75541 29.144ZM13.6191 29V25.148C13.6191 23.6 12.4911 23.06 11.1951 23.06C10.2711 23.06 9.43109 23.348 8.75909 23.996L9.28709 24.872C9.77909 24.368 10.3551 24.128 11.0031 24.128C11.7951 24.128 12.3591 24.536 12.3591 25.208V26.072C11.9271 25.58 11.2671 25.328 10.4751 25.328C9.52709 25.328 8.47109 25.88 8.47109 27.224C8.47109 28.496 9.53909 29.144 10.4751 29.144C11.2431 29.144 11.9271 28.868 12.3591 28.364V29H13.6191ZM10.9791 28.28C10.2711 28.28 9.73109 27.872 9.73109 27.236C9.73109 26.612 10.2711 26.192 10.9791 26.192C11.5191 26.192 12.0591 26.396 12.3591 26.792V27.68C12.0591 28.076 11.5191 28.28 10.9791 28.28ZM16.2724 29V25.052C16.5244 24.632 17.2324 24.272 17.7724 24.272C17.9284 24.272 18.0484 24.284 18.1564 24.308V23.06C17.4124 23.06 16.7164 23.492 16.2724 24.044V23.204H15.0124V29H16.2724ZM20.6846 29.144C21.2606 29.144 21.6326 28.976 21.8606 28.772L21.5606 27.812C21.4646 27.92 21.2486 28.028 21.0086 28.028C20.6486 28.028 20.4566 27.728 20.4566 27.332V24.296H21.6326V23.204H20.4566V21.62H19.1966V23.204H18.2366V24.296H19.1966V27.644C19.1966 28.616 19.7006 29.144 20.6846 29.144Z" fill="#2C3BFE"/>
</svg>
