<svg width="165" height="60" viewBox="0 0 165 60" fill="none" xmlns="http://www.w3.org/2000/svg">
<rect x="0.75" width="163.5" height="60" rx="8" fill="#2C3BFE"/>
<path d="M40.4657 33.144C42.0737 33.144 43.0697 32.292 43.6817 31.332L42.4817 30.732C42.0977 31.392 41.3177 31.896 40.4657 31.896C38.8817 31.896 37.7057 30.672 37.7057 29.004C37.7057 27.312 38.8817 26.112 40.4657 26.112C41.3177 26.112 42.0977 26.604 42.4817 27.276L43.6697 26.652C43.0817 25.692 42.0737 24.864 40.4657 24.864C38.1017 24.864 36.2657 26.532 36.2657 29.004C36.2657 31.464 38.1017 33.144 40.4657 33.144ZM47.1454 33.144C48.9934 33.144 50.1214 31.752 50.1214 30.096C50.1214 28.428 48.9934 27.06 47.1454 27.06C45.2974 27.06 44.1694 28.428 44.1694 30.096C44.1694 31.752 45.2974 33.144 47.1454 33.144ZM47.1454 32.028C46.0774 32.028 45.4774 31.128 45.4774 30.096C45.4774 29.076 46.0774 28.176 47.1454 28.176C48.2254 28.176 48.8134 29.076 48.8134 30.096C48.8134 31.128 48.2254 32.028 47.1454 32.028ZM56.352 33V28.92C56.352 27.732 55.728 27.06 54.48 27.06C53.568 27.06 52.812 27.528 52.428 27.984V27.204H51.168V33H52.428V28.944C52.728 28.56 53.28 28.176 53.916 28.176C54.624 28.176 55.092 28.464 55.092 29.376V33H56.352ZM59.5003 33.144C60.0763 33.144 60.4483 32.976 60.6763 32.772L60.3763 31.812C60.2803 31.92 60.0643 32.028 59.8243 32.028C59.4643 32.028 59.2723 31.728 59.2723 31.332V28.296H60.4483V27.204H59.2723V25.62H58.0123V27.204H57.0523V28.296H58.0123V31.644C58.0123 32.616 58.5163 33.144 59.5003 33.144ZM61.9763 26.496C62.4083 26.496 62.7563 26.148 62.7563 25.716C62.7563 25.284 62.4083 24.936 61.9763 24.936C61.5443 24.936 61.1963 25.284 61.1963 25.716C61.1963 26.148 61.5443 26.496 61.9763 26.496ZM62.6003 33V27.204H61.3403V33H62.6003ZM69.1789 33V28.92C69.1789 27.732 68.5549 27.06 67.3069 27.06C66.3949 27.06 65.6389 27.528 65.2549 27.984V27.204H63.9949V33H65.2549V28.944C65.5549 28.56 66.1069 28.176 66.7429 28.176C67.4509 28.176 67.9189 28.464 67.9189 29.376V33H69.1789ZM75.7472 33V27.204H74.4872V31.272C74.1992 31.656 73.6472 32.028 73.0112 32.028C72.2912 32.028 71.8352 31.74 71.8352 30.84V27.204H70.5752V31.308C70.5752 32.484 71.1992 33.144 72.4472 33.144C73.3592 33.144 74.0792 32.688 74.4872 32.232V33H75.7472ZM79.8318 33.144C80.7438 33.144 81.5958 32.844 82.1838 32.292L81.6078 31.464C81.1878 31.884 80.5278 32.112 79.9518 32.112C78.8598 32.112 78.2118 31.38 78.1158 30.516H82.5798V30.204C82.5798 28.38 81.4758 27.06 79.7358 27.06C78.0198 27.06 76.7958 28.416 76.7958 30.096C76.7958 31.932 78.0798 33.144 79.8318 33.144ZM81.3678 29.616H78.1038C78.1518 28.92 78.6558 28.092 79.7238 28.092C80.8638 28.092 81.3318 28.932 81.3678 29.616ZM88.1892 33.144C88.7652 33.144 89.1372 32.976 89.3652 32.772L89.0652 31.812C88.9692 31.92 88.7532 32.028 88.5132 32.028C88.1532 32.028 87.9612 31.728 87.9612 31.332V28.296H89.1372V27.204H87.9612V25.62H86.7012V27.204H85.7412V28.296H86.7012V31.644C86.7012 32.616 87.2052 33.144 88.1892 33.144ZM92.6572 33.144C94.5052 33.144 95.6332 31.752 95.6332 30.096C95.6332 28.428 94.5052 27.06 92.6572 27.06C90.8092 27.06 89.6812 28.428 89.6812 30.096C89.6812 31.752 90.8092 33.144 92.6572 33.144ZM92.6572 32.028C91.5892 32.028 90.9892 31.128 90.9892 30.096C90.9892 29.076 91.5892 28.176 92.6572 28.176C93.7372 28.176 94.3252 29.076 94.3252 30.096C94.3252 31.128 93.7372 32.028 92.6572 32.028ZM106.542 33V24.996H105.138V28.26H100.974V24.996H99.5696V33H100.974V29.496H105.138V33H106.542ZM110.593 33.144C112.441 33.144 113.569 31.752 113.569 30.096C113.569 28.428 112.441 27.06 110.593 27.06C108.745 27.06 107.617 28.428 107.617 30.096C107.617 31.752 108.745 33.144 110.593 33.144ZM110.593 32.028C109.525 32.028 108.925 31.128 108.925 30.096C108.925 29.076 109.525 28.176 110.593 28.176C111.673 28.176 112.261 29.076 112.261 30.096C112.261 31.128 111.673 32.028 110.593 32.028ZM122.992 33V28.812C122.992 27.636 122.38 27.06 121.324 27.06C120.448 27.06 119.68 27.6 119.356 28.116C119.164 27.492 118.636 27.06 117.772 27.06C116.884 27.06 116.128 27.636 115.876 27.984V27.204H114.616V33H115.876V28.944C116.14 28.572 116.656 28.176 117.22 28.176C117.904 28.176 118.168 28.596 118.168 29.22V33H119.428V28.944C119.68 28.56 120.208 28.176 120.772 28.176C121.456 28.176 121.732 28.596 121.732 29.22V33H122.992ZM127.072 33.144C127.984 33.144 128.836 32.844 129.424 32.292L128.848 31.464C128.428 31.884 127.768 32.112 127.192 32.112C126.1 32.112 125.452 31.38 125.356 30.516H129.82V30.204C129.82 28.38 128.716 27.06 126.976 27.06C125.26 27.06 124.036 28.416 124.036 30.096C124.036 31.932 125.32 33.144 127.072 33.144ZM128.608 29.616H125.344C125.392 28.92 125.896 28.092 126.964 28.092C128.104 28.092 128.572 28.932 128.608 29.616Z" fill="white"/>
</svg>
