<svg width="16" height="16" viewBox="0 0 16 16" fill="none" xmlns="http://www.w3.org/2000/svg">
<circle cx="6" cy="6" r="0.5" stroke="#180F45"/>
<circle cx="10" cy="10" r="0.5" stroke="#180F45"/>
<path d="M5.5 10.5L10.5 5.5" stroke="#180F45" stroke-linecap="round"/>
<mask id="path-4-inside-1" fill="white">
<path fill-rule="evenodd" clip-rule="evenodd" d="M0 4C0 2.89543 0.895431 2 2 2H14C15.1046 2 16 2.89543 16 4V6.04001C15.0871 6.22532 14.4 7.03242 14.4 8C14.4 8.96758 15.0871 9.77468 16 9.95999V12C16 13.1046 15.1046 14 14 14H2C0.895431 14 0 13.1046 0 12V9.95999C0.129244 9.98623 0.263014 10 0.4 10C1.50457 10 2.4 9.10457 2.4 8C2.4 6.89543 1.50457 6 0.4 6C0.263014 6 0.129244 6.01377 0 6.04001V4Z"/>
</mask>
<path d="M16 6.04001L16.1989 7.02002L17 6.85741V6.04001H16ZM16 9.95999H17V9.14259L16.1989 8.97998L16 9.95999ZM0 9.95999L0.198932 8.97998L-1 8.73661V9.95999H0ZM0 6.04001H-1V7.26339L0.198932 7.02002L0 6.04001ZM2 1C0.343146 1 -1 2.34315 -1 4H1C1 3.44772 1.44772 3 2 3V1ZM14 1H2V3H14V1ZM17 4C17 2.34315 15.6569 1 14 1V3C14.5523 3 15 3.44772 15 4H17ZM17 6.04001V4H15V6.04001H17ZM15.4 8C15.4 7.51737 15.7429 7.11259 16.1989 7.02002L15.8011 5.05999C14.4313 5.33804 13.4 6.54746 13.4 8H15.4ZM16.1989 8.97998C15.7429 8.88741 15.4 8.48263 15.4 8H13.4C13.4 9.45254 14.4313 10.662 15.8011 10.94L16.1989 8.97998ZM17 12V9.95999H15V12H17ZM14 15C15.6569 15 17 13.6569 17 12H15C15 12.5523 14.5523 13 14 13V15ZM2 15H14V13H2V15ZM-1 12C-1 13.6569 0.343146 15 2 15V13C1.44772 13 1 12.5523 1 12H-1ZM-1 9.95999V12H1V9.95999H-1ZM0.4 9C0.330201 9 0.263068 8.993 0.198932 8.97998L-0.198932 10.94C-0.00458058 10.9795 0.195826 11 0.4 11V9ZM1.4 8C1.4 8.55228 0.952284 9 0.4 9V11C2.05685 11 3.4 9.65685 3.4 8H1.4ZM0.4 7C0.952284 7 1.4 7.44772 1.4 8H3.4C3.4 6.34315 2.05685 5 0.4 5V7ZM0.198932 7.02002C0.263068 7.007 0.330201 7 0.4 7V5C0.195826 5 -0.00458058 5.02054 -0.198932 5.05999L0.198932 7.02002ZM-1 4V6.04001H1V4H-1Z" fill="#180F45" mask="url(#path-4-inside-1)"/>
</svg>
