<svg width="95" height="21" viewBox="0 0 95 21" fill="none" xmlns="http://www.w3.org/2000/svg">
<path d="M94.7615 15.8301C94.0026 15.8301 93.2529 15.8209 92.494 15.8394C92.2256 15.8486 92.1053 15.7931 92.1238 15.4877C92.1516 15.0897 92.1331 14.6825 92.1331 14.2845C91.9942 14.2105 91.9757 14.3401 91.9295 14.4049C90.3098 16.3947 87.1631 16.2929 85.6546 14.2105C85.053 13.3776 84.7569 12.4336 84.6365 11.4248C84.47 9.99949 84.5255 8.60199 85.0438 7.24151C86.2562 4.06706 90.3746 3.82643 91.9757 5.99209C92.0035 6.01986 92.0405 6.04762 92.1331 6.11241C92.1331 5.68668 92.1516 5.30722 92.1238 4.92777C92.1053 4.63161 92.2256 4.56683 92.494 4.56683C93.2437 4.56683 94.0026 4.62236 94.7522 4.53906C94.7615 8.30584 94.7615 12.0634 94.7615 15.8301ZM92.0868 10.0643C92.096 9.46271 91.985 8.77784 91.6518 8.12999C91.2353 7.32481 90.569 6.87131 89.6527 6.87131C88.7272 6.87131 88.0053 7.29704 87.6166 8.13925C86.978 9.51824 86.9966 10.9157 87.6722 12.2762C88.0701 13.0721 88.755 13.4609 89.662 13.4609C90.5505 13.4609 91.1798 13.0259 91.6055 12.2762C91.9665 11.6191 92.0868 10.9157 92.0868 10.0643Z" fill="#332F3D"/>
<path d="M70.9765 0.00390625C71.0505 0.124221 71.1894 0.114966 71.3004 0.161241C72.013 0.51293 72.411 1.29035 72.2444 2.03075C72.0593 2.82667 71.3837 3.35421 70.5785 3.34495C69.8104 3.3357 69.1348 2.78965 68.9682 2.06777C68.7923 1.29035 69.1811 0.503675 69.9214 0.161241C70.0325 0.105711 70.1343 0.0594361 70.2454 0.00390625C70.486 0.00390625 70.7266 0.00390625 70.9765 0.00390625Z" fill="#2CB15E"/>
<path d="M34.7152 15.8947C36.6032 17.8567 37.9266 18.2917 39.6018 17.5328C40.842 16.9683 41.5083 15.5245 41.3325 13.7105C41.2307 13.9049 41.1659 14.0529 41.0919 14.1918C40.6476 15.034 39.9627 15.5523 39.028 15.7466C38.2783 15.9039 37.5194 15.8947 36.7883 15.6911C35.326 15.2931 34.6134 14.2288 34.3357 12.8128C34.2524 12.3685 34.2339 11.9243 34.2339 11.4801C34.2339 9.32366 34.2432 7.16725 34.2247 5.00158C34.2247 4.65915 34.308 4.54809 34.6596 4.5666C35.2427 4.59437 35.835 4.60362 36.4181 4.5666C36.8068 4.53884 36.8716 4.69617 36.8623 5.0386C36.8438 6.84332 36.8531 8.64804 36.8531 10.4528C36.8531 11.0081 36.8716 11.5634 37.0104 12.1001C37.2233 12.9238 37.7323 13.3218 38.5652 13.3403C40.0738 13.3681 41.0271 12.4611 41.2677 10.7674C41.4528 9.44397 41.3325 8.12051 41.3602 6.79705C41.3788 6.16771 41.3695 5.52912 41.3602 4.89978C41.351 4.66841 41.425 4.5666 41.6657 4.57586C42.3413 4.58511 43.0261 4.58511 43.7018 4.57586C43.8961 4.57586 44.0164 4.61288 44.0164 4.8535C43.9794 8.19455 44.1367 11.5449 43.9424 14.8859C43.7851 17.5698 42.1932 19.3375 39.5463 19.8651C37.4084 20.2908 35.4833 19.7262 33.8452 18.2917C33.2251 17.7549 33.2529 17.7179 33.7619 17.0886C34.0766 16.6906 34.3912 16.2927 34.7152 15.8947Z" fill="#34303E"/>
<path d="M48.5791 6.28832C49.1714 5.47388 49.8378 4.9556 50.6985 4.73349C52.3736 4.31701 54.5393 4.78902 55.511 7.02872C56.3995 9.08332 56.418 11.1935 55.6129 13.2851C54.4282 16.3577 50.3005 16.6261 48.6994 14.3957C48.6809 14.3772 48.6531 14.3679 48.5791 14.3216C48.5791 15.1361 48.5791 15.9135 48.5791 16.6909C48.5791 17.6812 48.5698 18.6622 48.5883 19.6525C48.5976 19.9394 48.5143 20.0227 48.2274 20.0134C47.5981 19.9949 46.9595 19.9949 46.3301 20.0134C46.034 20.0227 45.9229 19.9487 45.9414 19.634C45.9692 19.0972 45.9507 18.5512 45.9507 18.0144C45.9507 13.6923 45.9599 9.37948 45.9414 5.05741C45.9414 4.6687 46.0525 4.55764 46.4319 4.57615C47.0335 4.60392 47.6351 4.59466 48.2366 4.57615C48.5328 4.5669 48.6068 4.6687 48.5976 4.94635C48.5606 5.34431 48.5791 5.76079 48.5791 6.28832ZM53.512 10.2772C53.5305 9.52756 53.4102 8.76865 53.003 8.09304C52.1145 6.59374 50.0229 6.56597 49.1714 8.08379C48.394 9.47203 48.4032 10.9436 49.1066 12.3781C49.4953 13.174 50.1894 13.572 51.0872 13.5627C52.0034 13.5535 52.6698 13.1185 53.0955 12.3226C53.4194 11.684 53.5305 11.0084 53.512 10.2772Z" fill="#332F3D"/>
<path d="M64.8495 6.12124C64.8495 5.65849 64.8588 5.27904 64.8495 4.89033C64.8403 4.6497 64.9143 4.56641 65.1642 4.56641C65.8306 4.58492 66.4877 4.57566 67.154 4.56641C67.3854 4.56641 67.4779 4.61268 67.4779 4.87182C67.4687 8.43499 67.4687 11.9981 67.4779 15.5521C67.4779 15.7834 67.4039 15.839 67.191 15.8297C66.5154 15.8205 65.8306 15.8112 65.1549 15.8297C64.8958 15.839 64.8495 15.7372 64.8588 15.5058C64.8773 15.0893 64.8588 14.6728 64.8588 14.2656C64.7755 14.2193 64.7385 14.2749 64.7015 14.3211C63.0818 16.5794 59.4447 16.2092 58.1212 13.8121C57.6862 13.0347 57.4363 12.2018 57.3438 11.3225C57.1957 9.89727 57.2697 8.49977 57.8065 7.14854C59.0282 4.08515 63.1096 3.82601 64.7015 6.00093C64.7107 6.02869 64.757 6.0472 64.8495 6.12124ZM64.7847 10.1564C64.8033 9.43452 64.6829 8.74965 64.3498 8.10181C63.924 7.29662 63.2577 6.85238 62.3414 6.86164C61.4345 6.87089 60.7218 7.28737 60.3424 8.11106C59.6853 9.49931 59.7038 10.9153 60.3979 12.2851C60.7866 13.0625 61.4715 13.4419 62.3507 13.4512C63.2392 13.4604 63.8778 13.0347 64.3035 12.2851C64.6737 11.628 64.8033 10.9061 64.7847 10.1564Z" fill="#332F3D"/>
<path d="M19.3339 6.18603C19.3339 5.66775 19.3431 5.26978 19.3246 4.88108C19.3154 4.63119 19.4079 4.56641 19.6393 4.56641C20.3056 4.57566 20.9627 4.57566 21.6291 4.56641C21.8697 4.56641 21.953 4.63119 21.953 4.88108C21.9438 8.44424 21.9438 11.9982 21.953 15.5613C21.953 15.802 21.8512 15.839 21.6476 15.8297C20.9812 15.8205 20.3241 15.8112 19.6578 15.8297C19.3986 15.839 19.3061 15.7742 19.3246 15.5058C19.3431 15.0893 19.3339 14.6728 19.3339 14.2564C19.2228 14.2101 19.195 14.3119 19.158 14.3582C17.3903 16.5146 14.0955 16.2832 12.6518 13.8954C11.7725 12.4331 11.6615 10.8135 11.7911 9.16613C11.8373 8.64785 11.9577 8.13883 12.1057 7.6298C13.1238 4.0944 17.5291 3.68718 19.3339 6.18603ZM19.2691 10.0454C19.2783 9.39751 19.1673 8.72189 18.8248 8.09255C18.3991 7.31514 17.7513 6.8709 16.8535 6.86164C15.9465 6.85239 15.2247 7.25961 14.8359 8.07404C14.1603 9.47155 14.1788 10.9061 14.8822 12.2943C15.2802 13.0717 15.9558 13.4512 16.835 13.4512C17.7235 13.4512 18.3528 13.0347 18.7786 12.2758C19.1673 11.6002 19.2783 10.869 19.2691 10.0454Z" fill="#332F3D"/>
<path d="M78.5377 15.839C77.0477 15.839 75.789 15.5521 74.7247 14.6821C74.0491 14.1268 73.6141 13.4142 73.466 12.5442C73.429 12.3128 73.4753 12.1833 73.7066 12.0815C74.2249 11.8501 74.7339 11.6002 75.2429 11.3503C75.4188 11.2578 75.5391 11.2207 75.5854 11.4891C75.8445 12.7941 76.7793 13.3309 77.9732 13.516C78.6118 13.6178 79.2596 13.6085 79.8889 13.3679C80.1388 13.2753 80.3702 13.155 80.5553 12.9699C81.0366 12.4794 80.944 11.8778 80.3239 11.5632C79.6298 11.2115 78.8431 11.1652 78.0935 11.0264C77.2605 10.8783 76.4276 10.7395 75.6502 10.3878C74.6506 9.94356 74.012 9.22167 73.9195 8.08331C73.8177 6.89867 74.3175 6.01945 75.2892 5.39937C76.4553 4.66822 77.7696 4.51089 79.1115 4.58493C80.074 4.64046 80.9995 4.85332 81.8325 5.36235C82.6006 5.83435 83.1652 6.44518 83.341 7.36142C83.3873 7.58354 83.341 7.6946 83.1189 7.78715C82.6006 7.99076 82.1009 8.22213 81.5919 8.435C81.49 8.48127 81.3882 8.59233 81.3327 8.37021C81.0366 7.30589 80.1481 7.01899 79.2133 6.88016C78.5562 6.77836 77.8899 6.79687 77.2513 7.04675C77.0199 7.1393 76.7978 7.25036 76.659 7.46323C76.4276 7.7964 76.5201 8.11107 76.9366 8.33319C77.4641 8.61084 78.0472 8.69414 78.621 8.8052C79.5373 8.9903 80.4628 9.14763 81.342 9.50857C82.2397 9.87877 82.9986 10.3971 83.304 11.3873C83.6742 12.609 83.2207 13.9417 82.1564 14.7561C81.0273 15.5891 79.7409 15.8205 78.5377 15.839Z" fill="#34303E"/>
<path d="M30.9208 8.52805C30.671 7.48223 29.912 7.10278 28.9773 6.92694C28.348 6.80662 27.7186 6.80662 27.0985 6.94545C26.8579 7.00098 26.6265 7.08427 26.4229 7.23235C25.9324 7.58404 25.9602 8.07455 26.5062 8.3522C27.0245 8.61134 27.589 8.69464 28.1443 8.8057C29.0328 8.98154 29.9306 9.13888 30.7728 9.47205C31.7353 9.85151 32.559 10.3976 32.8366 11.4804C33.179 12.7761 32.6515 14.0903 31.4854 14.9047C29.6992 16.1542 26.4414 16.1912 24.6367 14.9788C23.7482 14.3864 23.1837 13.5813 22.9893 12.5169C22.9523 12.3133 22.9986 12.2115 23.1837 12.1282C23.7945 11.8506 24.4053 11.5452 25.0162 11.2583C25.7288 13.2203 27.2374 14.007 29.2179 13.4517C29.3753 13.4054 29.5418 13.3406 29.6899 13.2666C30.0971 13.0537 30.4026 12.7668 30.3748 12.2671C30.347 11.7765 29.9768 11.5914 29.5881 11.4619C28.6349 11.138 27.6261 11.0824 26.6543 10.8696C26.025 10.7307 25.4049 10.5641 24.8311 10.2402C23.2114 9.32398 22.9245 7.18607 24.2573 5.88112C24.9421 5.20551 25.8028 4.89084 26.7283 4.7335C28.0703 4.50213 29.403 4.54841 30.6802 5.04817C31.6335 5.41837 32.3924 6.01069 32.6978 7.0565C32.8089 7.4267 32.7441 7.64882 32.3646 7.81541C31.8834 7.99126 31.4206 8.25965 30.9208 8.52805Z" fill="#34303E"/>
<path d="M5.2477 11.7203C3.7484 11.7296 2.10101 11.3038 0.77755 9.98961C0.351821 9.56389 0.203741 9.11965 0.361076 8.49956C1.16626 5.15851 4.7757 3.42783 7.87611 4.90863C9.57903 5.72307 10.5138 7.51853 10.0788 9.14741C9.82891 10.0822 9.20883 10.6837 8.36663 11.091C7.48741 11.5167 6.52489 11.6648 5.2477 11.7203ZM5.12739 9.61942C5.60865 9.61016 6.05288 9.55463 6.48787 9.44357C7.11721 9.27698 7.49666 8.89753 7.55219 8.36999C7.60772 7.88873 7.27454 7.37045 6.7285 7.08355C5.331 6.37092 3.35043 7.11131 2.7396 8.54584C2.59152 8.88827 2.68407 9.04561 2.99874 9.18443C3.69287 9.4991 4.42401 9.5824 5.12739 9.61942Z" fill="#342F3D"/>
<path d="M69.3103 10.2123C69.3103 8.4724 69.3196 6.73246 69.301 4.99253C69.301 4.67786 69.3658 4.55754 69.699 4.57605C70.3098 4.60382 70.9299 4.59456 71.55 4.57605C71.8091 4.5668 71.9294 4.61307 71.9294 4.91849C71.9202 8.44463 71.9202 11.98 71.9294 15.5062C71.9294 15.7653 71.8646 15.8486 71.5963 15.8394C70.9484 15.8208 70.3006 15.8208 69.6527 15.8394C69.3658 15.8486 69.2918 15.7653 69.301 15.4784C69.3103 13.72 69.3103 11.9708 69.3103 10.2123Z" fill="#332F3D"/>
<path d="M0.00920864 10.3604C0.990236 12.415 2.54507 13.4237 4.6367 13.6366C6.24706 13.8032 7.64456 13.4052 8.53304 11.9152C8.6441 11.7393 8.72739 11.7764 8.85696 11.8597C9.34748 12.1558 9.81948 12.4705 10.3285 12.7296C10.6987 12.9147 10.6709 13.1091 10.4858 13.4052C9.70842 14.6732 8.54229 15.4321 7.13554 15.756C4.81254 16.2835 2.71166 15.8948 1.09204 14.0068C0.222073 13.0073 -0.0648311 11.7949 0.00920864 10.3604Z" fill="#2CB15E"/>
</svg>
