<svg width="165" height="60" viewBox="0 0 165 60" fill="none" xmlns="http://www.w3.org/2000/svg">
<rect x="0.75" width="163.5" height="60" rx="8" fill="#2C3BFE"/>
<path d="M70.3373 33L68.3693 29.856C69.3413 29.7 70.2773 28.92 70.2773 27.504C70.2773 26.016 69.2333 24.996 67.6493 24.996H64.1333V33H65.5373V30.012H66.9413L68.7053 33H70.3373ZM67.4693 28.776H65.5373V26.232H67.4693C68.2613 26.232 68.8373 26.724 68.8373 27.492C68.8373 28.272 68.2613 28.776 67.4693 28.776ZM73.7289 33.144C74.6409 33.144 75.4929 32.844 76.0809 32.292L75.5049 31.464C75.0849 31.884 74.4249 32.112 73.8489 32.112C72.7569 32.112 72.1089 31.38 72.0129 30.516H76.4769V30.204C76.4769 28.38 75.3729 27.06 73.6329 27.06C71.9169 27.06 70.6929 28.416 70.6929 30.096C70.6929 31.932 71.9769 33.144 73.7289 33.144ZM75.2649 29.616H72.0009C72.0489 28.92 72.5529 28.092 73.6209 28.092C74.7609 28.092 75.2289 28.932 75.2649 29.616ZM79.0526 33V28.296H80.2286V27.204H79.0526V26.88C79.0526 26.232 79.3526 25.908 79.8566 25.908C80.1326 25.908 80.3486 26.004 80.5166 26.16L81.0086 25.38C80.6606 25.008 80.1446 24.876 79.6166 24.876C78.5246 24.876 77.7926 25.62 77.7926 26.88V27.204H76.8326V28.296H77.7926V33H79.0526ZM82.2037 33V29.052C82.4557 28.632 83.1637 28.272 83.7037 28.272C83.8597 28.272 83.9797 28.284 84.0877 28.308V27.06C83.3437 27.06 82.6477 27.492 82.2037 28.044V27.204H80.9437V33H82.2037ZM87.5519 33.144C88.4639 33.144 89.3159 32.844 89.9039 32.292L89.3279 31.464C88.9079 31.884 88.2479 32.112 87.6719 32.112C86.5799 32.112 85.9319 31.38 85.8359 30.516H90.2999V30.204C90.2999 28.38 89.1959 27.06 87.4559 27.06C85.7399 27.06 84.5159 28.416 84.5159 30.096C84.5159 31.932 85.7999 33.144 87.5519 33.144ZM89.0879 29.616H85.8239C85.8719 28.92 86.3759 28.092 87.4439 28.092C88.5839 28.092 89.0519 28.932 89.0879 29.616ZM93.2955 33.144C94.8555 33.144 95.7075 32.364 95.7075 31.332C95.7075 29.028 92.2035 29.796 92.2035 28.776C92.2035 28.368 92.6115 28.056 93.2715 28.056C94.0035 28.056 94.6395 28.368 94.9875 28.752L95.5155 27.864C94.9995 27.408 94.2555 27.06 93.2715 27.06C91.8075 27.06 90.9915 27.864 90.9915 28.812C90.9915 31.044 94.4955 30.228 94.4955 31.368C94.4955 31.824 94.0995 32.136 93.3435 32.136C92.5995 32.136 91.7955 31.752 91.3875 31.332L90.8115 32.232C91.4115 32.82 92.2995 33.144 93.2955 33.144ZM101.908 33V28.896C101.908 27.708 101.284 27.06 100.036 27.06C99.1237 27.06 98.3797 27.528 97.9957 27.984V24.996H96.7357V33H97.9957V28.944C98.2837 28.56 98.8357 28.176 99.4837 28.176C100.192 28.176 100.648 28.44 100.648 29.352V33H101.908Z" fill="white"/>
</svg>
