<svg width="34" height="38" viewBox="0 0 34 38" fill="none" xmlns="http://www.w3.org/2000/svg">
<path d="M23 1L23 15" stroke="#070016" stroke-linecap="round"/>
<path d="M17 1L17 15" stroke="#070016" stroke-linecap="round"/>
<path d="M11 1L11 15" stroke="#070016" stroke-linecap="round"/>
<circle cx="11" cy="8" r="1.5" fill="white" stroke="#070016"/>
<circle cx="17" cy="4" r="1.5" fill="white" stroke="#070016"/>
<circle cx="23" cy="12" r="1.5" fill="white" stroke="#070016"/>
<path d="M2.17383 33H1.17773V24.4336H5.95312V25.3184H2.17383V28.4531H5.72461V29.3379H2.17383V33ZM8.20312 33H7.23047V26.5781H8.20312V33ZM7.14844 24.8379C7.14844 24.6152 7.20312 24.4531 7.3125 24.3516C7.42188 24.2461 7.55859 24.1934 7.72266 24.1934C7.87891 24.1934 8.01367 24.2461 8.12695 24.3516C8.24023 24.457 8.29688 24.6191 8.29688 24.8379C8.29688 25.0566 8.24023 25.2207 8.12695 25.3301C8.01367 25.4355 7.87891 25.4883 7.72266 25.4883C7.55859 25.4883 7.42188 25.4355 7.3125 25.3301C7.20312 25.2207 7.14844 25.0566 7.14844 24.8379ZM11.2383 33H10.2656V23.8828H11.2383V33ZM15.375 32.3145C15.5469 32.3145 15.7129 32.3027 15.873 32.2793C16.0332 32.252 16.1602 32.2246 16.2539 32.1973V32.9414C16.1484 32.9922 15.9922 33.0332 15.7852 33.0645C15.582 33.0996 15.3984 33.1172 15.2344 33.1172C13.9922 33.1172 13.3711 32.4629 13.3711 31.1543V27.334H12.4512V26.8652L13.3711 26.4609L13.7812 25.0898H14.3438V26.5781H16.207V27.334H14.3438V31.1133C14.3438 31.5 14.4355 31.7969 14.6191 32.0039C14.8027 32.2109 15.0547 32.3145 15.375 32.3145ZM20.2559 33.1172C19.3066 33.1172 18.5566 32.8281 18.0059 32.25C17.459 31.6719 17.1855 30.8691 17.1855 29.8418C17.1855 28.8066 17.4395 27.9844 17.9473 27.375C18.459 26.7656 19.1445 26.4609 20.0039 26.4609C20.8086 26.4609 21.4453 26.7266 21.9141 27.2578C22.3828 27.7852 22.6172 28.4824 22.6172 29.3496V29.9648H18.1934C18.2129 30.7188 18.4023 31.291 18.7617 31.6816C19.125 32.0723 19.6348 32.2676 20.291 32.2676C20.9824 32.2676 21.666 32.123 22.3418 31.834V32.7012C21.998 32.8496 21.6719 32.9551 21.3633 33.0176C21.0586 33.084 20.6895 33.1172 20.2559 33.1172ZM19.9922 27.2754C19.4766 27.2754 19.0645 27.4434 18.7559 27.7793C18.4512 28.1152 18.2715 28.5801 18.2168 29.1738H21.5742C21.5742 28.5605 21.4375 28.0918 21.1641 27.7676C20.8906 27.4395 20.5 27.2754 19.9922 27.2754ZM27.2109 26.4609C27.4961 26.4609 27.752 26.4844 27.9785 26.5312L27.8438 27.4336C27.5781 27.375 27.3438 27.3457 27.1406 27.3457C26.6211 27.3457 26.1758 27.5566 25.8047 27.9785C25.4375 28.4004 25.2539 28.9258 25.2539 29.5547V33H24.2812V26.5781H25.084L25.1953 27.7676H25.2422C25.4805 27.3496 25.7676 27.0273 26.1035 26.8008C26.4395 26.5742 26.8086 26.4609 27.2109 26.4609ZM33.3223 31.248C33.3223 31.8457 33.0996 32.3066 32.6543 32.6309C32.209 32.9551 31.584 33.1172 30.7793 33.1172C29.9277 33.1172 29.2637 32.9824 28.7871 32.7129V31.8105C29.0957 31.9668 29.4258 32.0898 29.7773 32.1797C30.1328 32.2695 30.4746 32.3145 30.8027 32.3145C31.3105 32.3145 31.7012 32.2344 31.9746 32.0742C32.248 31.9102 32.3848 31.6621 32.3848 31.3301C32.3848 31.0801 32.2754 30.8672 32.0566 30.6914C31.8418 30.5117 31.4199 30.3008 30.791 30.0586C30.1934 29.8359 29.7676 29.6426 29.5137 29.4785C29.2637 29.3105 29.0762 29.1211 28.9512 28.9102C28.8301 28.6992 28.7695 28.4473 28.7695 28.1543C28.7695 27.6309 28.9824 27.2188 29.4082 26.918C29.834 26.6133 30.418 26.4609 31.1602 26.4609C31.8516 26.4609 32.5273 26.6016 33.1875 26.8828L32.8418 27.6738C32.1973 27.4082 31.6133 27.2754 31.0898 27.2754C30.6289 27.2754 30.2812 27.3477 30.0469 27.4922C29.8125 27.6367 29.6953 27.8359 29.6953 28.0898C29.6953 28.2617 29.7383 28.4082 29.8242 28.5293C29.9141 28.6504 30.0566 28.7656 30.252 28.875C30.4473 28.9844 30.8223 29.1426 31.377 29.3496C32.1387 29.627 32.6523 29.9062 32.918 30.1875C33.1875 30.4688 33.3223 30.8223 33.3223 31.248Z" fill="#070016"/>
</svg>
