<svg width="32" height="38" viewBox="0 0 32 38" fill="none" xmlns="http://www.w3.org/2000/svg">
<circle cx="10" cy="8" r="1" stroke="#2C3BFE" stroke-width="2"/>
<circle cx="16" cy="4" r="1" stroke="#2C3BFE" stroke-width="2"/>
<circle cx="22" cy="12" r="1" stroke="#2C3BFE" stroke-width="2"/>
<path d="M10 1L10 15" stroke="#2C3BFE" stroke-width="2" stroke-linecap="round"/>
<path d="M16 1L16 15" stroke="#2C3BFE" stroke-width="2" stroke-linecap="round"/>
<path d="M22 1L22 15" stroke="#2C3BFE" stroke-width="2" stroke-linecap="round"/>
<path d="M2.256 31V27.532H6.252V26.296H2.256V24.232H6.336V22.996H0.852V31H2.256ZM7.97372 24.496C8.40572 24.496 8.75372 24.148 8.75372 23.716C8.75372 23.284 8.40572 22.936 7.97372 22.936C7.54172 22.936 7.19372 23.284 7.19372 23.716C7.19372 24.148 7.54172 24.496 7.97372 24.496ZM8.59772 31V25.204H7.33772V31H8.59772ZM11.2523 31V22.996H9.99225V31H11.2523ZM14.3988 31.144C14.9748 31.144 15.3468 30.976 15.5748 30.772L15.2748 29.812C15.1788 29.92 14.9628 30.028 14.7228 30.028C14.3628 30.028 14.1708 29.728 14.1708 29.332V26.296H15.3468V25.204H14.1708V23.62H12.9108V25.204H11.9508V26.296H12.9108V29.644C12.9108 30.616 13.4148 31.144 14.3988 31.144ZM18.9268 31.144C19.8388 31.144 20.6908 30.844 21.2788 30.292L20.7028 29.464C20.2828 29.884 19.6228 30.112 19.0468 30.112C17.9548 30.112 17.3068 29.38 17.2108 28.516H21.6748V28.204C21.6748 26.38 20.5708 25.06 18.8308 25.06C17.1148 25.06 15.8908 26.416 15.8908 28.096C15.8908 29.932 17.1748 31.144 18.9268 31.144ZM20.4628 27.616H17.1988C17.2468 26.92 17.7508 26.092 18.8188 26.092C19.9588 26.092 20.4268 26.932 20.4628 27.616ZM23.9385 31V27.052C24.1905 26.632 24.8985 26.272 25.4385 26.272C25.5945 26.272 25.7145 26.284 25.8225 26.308V25.06C25.0785 25.06 24.3825 25.492 23.9385 26.044V25.204H22.6785V31H23.9385ZM28.5907 31.144C30.1507 31.144 31.0027 30.364 31.0027 29.332C31.0027 27.028 27.4987 27.796 27.4987 26.776C27.4987 26.368 27.9067 26.056 28.5667 26.056C29.2987 26.056 29.9347 26.368 30.2827 26.752L30.8107 25.864C30.2947 25.408 29.5507 25.06 28.5667 25.06C27.1027 25.06 26.2867 25.864 26.2867 26.812C26.2867 29.044 29.7907 28.228 29.7907 29.368C29.7907 29.824 29.3947 30.136 28.6387 30.136C27.8947 30.136 27.0907 29.752 26.6827 29.332L26.1067 30.232C26.7067 30.82 27.5947 31.144 28.5907 31.144Z" fill="#2C3BFE"/>
</svg>
