<svg width="33" height="30" viewBox="0 0 33 30" fill="none" xmlns="http://www.w3.org/2000/svg">
<path d="M0.950928 15C0.950928 6.72894 7.77918 0 16.1735 0C22.6253 0 28.3544 4.0331 30.5033 9.93744L32.0605 9.95251C32.8622 9.95667 33.1544 10.4984 32.714 11.1577L30.2178 16.2182C29.7743 16.878 29.0579 16.8728 28.6232 16.2094L25.2795 11.1088C24.8433 10.4459 25.1443 9.90624 25.9461 9.9104L27.548 9.91976C25.5525 5.58509 21.1227 2.69428 16.1745 2.69428C9.28802 2.69428 3.68628 8.21542 3.68628 14.9995C3.68628 21.7841 9.28802 27.3073 16.1745 27.3073C19.7693 27.3073 23.1899 25.7787 25.5629 23.1156C26.0605 22.5556 26.9246 22.5 27.4903 22.9913C28.0591 23.4832 28.1163 24.3343 27.6192 24.8932C24.7268 28.1402 20.556 30 16.1745 30C7.77918 30 0.950928 23.2726 0.950928 15Z" fill="white"/>
<path d="M16.2146 16.7676C17.1169 16.7676 17.8259 16.9922 18.3416 17.4414C18.8611 17.8867 19.1208 18.498 19.1208 19.2754C19.1208 20.1621 18.8376 20.8574 18.2712 21.3613C17.7087 21.8652 16.9314 22.1172 15.9392 22.1172C14.9744 22.1172 14.238 21.9629 13.7302 21.6543V20.7168C14.0037 20.8926 14.3435 21.0312 14.7498 21.1328C15.156 21.2305 15.5564 21.2793 15.9509 21.2793C16.6384 21.2793 17.1716 21.1172 17.5505 20.793C17.9333 20.4688 18.1248 20 18.1248 19.3867C18.1248 18.1914 17.3923 17.5938 15.9275 17.5938C15.5564 17.5938 15.0603 17.6504 14.4392 17.7637L13.9353 17.4414L14.2576 13.4336H18.5173V14.3301H15.0896L14.8728 16.9023C15.322 16.8125 15.7693 16.7676 16.2146 16.7676Z" fill="white"/>
</svg>
