<svg width="44" height="44" viewBox="0 0 44 44" fill="none" xmlns="http://www.w3.org/2000/svg">
<path d="M32.6658 41.2416C29.2198 43.1518 25.3241 44.1014 21.3857 43.9914C17.4473 43.8814 13.6107 42.7158 10.2767 40.6162L18.483 27.5849C19.4832 28.2147 20.6342 28.5644 21.8157 28.5974C22.9972 28.6304 24.166 28.3455 25.1997 27.7725L32.6658 41.2416Z" fill="#702A8C"/>
<path d="M11.3342 41.2416C7.88822 39.3315 5.01845 36.531 3.0247 33.1327C1.03095 29.7345 -0.0136185 25.8631 0.000134022 21.9232L15.4 21.977C15.3959 23.1589 15.7093 24.3203 16.3074 25.3398C16.9055 26.3593 17.7665 27.1995 18.8003 27.7725L11.3342 41.2416Z" fill="#9938A1"/>
<path d="M0 22C3.03517e-07 18.5282 0.821681 15.1056 2.39786 12.0122C3.97404 8.91878 6.25997 6.24231 9.06874 4.20162L18.1206 16.6605C17.278 17.2727 16.5922 18.0756 16.1194 19.0037C15.6465 19.9317 15.4 20.9585 15.4 22L0 22Z" fill="#CE64DE"/>
<path d="M29.8841 1.46123C34.0013 3.04166 37.5484 5.82298 40.0653 9.44431C42.5822 13.0656 43.9526 17.3598 43.9988 21.7696L28.5996 21.9309C28.5858 20.6079 28.1747 19.3197 27.4196 18.2333C26.6645 17.1469 25.6004 16.3125 24.3652 15.8384L29.8841 1.46123Z" fill="#AA44D4"/>
<path d="M43.9699 20.8486C44.1883 25.0176 43.2161 29.1628 41.1667 32.7999C39.1173 36.437 36.0753 39.4159 32.3961 41.3887L25.1188 27.8166C26.2226 27.2248 27.1352 26.3311 27.75 25.24C28.3648 24.1488 28.6565 22.9053 28.591 21.6546L43.9699 20.8486Z" fill="#8532A4"/>
<path d="M8.76007 4.43002C11.9067 2.05889 15.6323 0.576289 19.5477 0.137106C23.4631 -0.302077 27.4246 0.318278 31.0183 1.93336L24.7055 15.98C23.6274 15.4955 22.4389 15.3094 21.2643 15.4411C20.0897 15.5729 18.972 16.0177 18.028 16.729L8.76007 4.43002Z" fill="#BE59D2"/>
<rect x="15.1428" y="16" width="13.7143" height="12" rx="4" fill="#7A2D9D"/>
<path d="M27.625 15.25H16.375C15.7785 15.2507 15.2065 15.4879 14.7847 15.9097C14.3629 16.3315 14.1257 16.9035 14.125 17.5V26.5C14.1257 27.0965 14.3629 27.6685 14.7847 28.0903C15.2065 28.5121 15.7785 28.7493 16.375 28.75H27.625C28.2215 28.7493 28.7935 28.5121 29.2153 28.0903C29.6371 27.6685 29.8743 27.0965 29.875 26.5V17.5C29.8743 16.9035 29.6371 16.3315 29.2153 15.9097C28.7935 15.4879 28.2215 15.2507 27.625 15.25V15.25ZM24.8125 17.5C25.1463 17.5 25.4725 17.599 25.75 17.7844C26.0275 17.9698 26.2438 18.2334 26.3715 18.5417C26.4993 18.8501 26.5327 19.1894 26.4676 19.5167C26.4025 19.8441 26.2417 20.1447 26.0057 20.3807C25.7697 20.6167 25.4691 20.7775 25.1417 20.8426C24.8144 20.9077 24.4751 20.8743 24.1667 20.7465C23.8584 20.6188 23.5948 20.4025 23.4094 20.125C23.224 19.8475 23.125 19.5213 23.125 19.1875C23.1255 18.7401 23.3034 18.3111 23.6198 17.9948C23.9361 17.6784 24.3651 17.5005 24.8125 17.5V17.5ZM16.375 27.625C16.0766 27.625 15.7905 27.5065 15.5795 27.2955C15.3685 27.0845 15.25 26.7984 15.25 26.5V24.1224L18.5842 21.1587C18.9059 20.8734 19.3243 20.7215 19.7541 20.7339C20.1839 20.7463 20.5928 20.9221 20.8975 21.2255L23.1809 23.504L19.0599 27.625H16.375ZM28.75 26.5C28.75 26.7984 28.6315 27.0845 28.4205 27.2955C28.2095 27.5065 27.9234 27.625 27.625 27.625H20.6511L24.9197 23.3563C25.222 23.0993 25.6055 22.9577 26.0022 22.9567C26.3989 22.9557 26.7832 23.0953 27.0868 23.3507L28.75 24.7366V26.5Z" fill="white"/>
</svg>
