<svg width="25" height="24" viewBox="0 0 25 24" fill="none" xmlns="http://www.w3.org/2000/svg">
<circle cx="10.5" cy="18" r="2" fill="white"/>
<circle cx="16.5" cy="18" r="2" fill="white"/>
<path d="M5.2998 4.8L9.02341 12.2472C9.1928 12.586 9.53907 12.8 9.91784 12.8H16.6331C17.0368 12.8 17.4009 12.5573 17.5562 12.1846L19.2229 8.18462C19.4973 7.52593 19.0134 6.8 18.2998 6.8H10.2998" stroke="white" stroke-width="2" stroke-linecap="round"/>
<circle cx="19.5" cy="5" r="5" fill="white"/>
<path d="M17.3 4.4C16.9686 3.95817 16.3418 3.86863 15.9 4.2C15.4582 4.53137 15.3686 5.15817 15.7 5.6L17.3 4.4ZM18 7L17.2 7.6C17.5234 8.03114 18.1302 8.12849 18.5722 7.82013L18 7ZM22.8722 4.82013C23.3251 4.50412 23.4361 3.88076 23.1201 3.42782C22.8041 2.97487 22.1808 2.86387 21.7278 3.17987L22.8722 4.82013ZM15.7 5.6L17.2 7.6L18.8 6.4L17.3 4.4L15.7 5.6ZM18.5722 7.82013L22.8722 4.82013L21.7278 3.17987L17.4278 6.17987L18.5722 7.82013Z" fill="#2C3BFE"/>
</svg>
