<svg width="16" height="17" viewBox="0 0 16 17" fill="none" xmlns="http://www.w3.org/2000/svg">
<path d="M8 3.37893L9.80605 6.14978L9.90456 6.30093L10.0769 6.35434L13.1827 7.317L11.1965 10.0313L11.0957 10.1691L11.1002 10.3397L11.189 13.7353L8.17511 12.6084L8 12.5429L7.82489 12.6084L4.81101 13.7353L4.89983 10.3397L4.90429 10.1691L4.8035 10.0313L2.81726 7.317L5.92311 6.35434L6.09544 6.30093L6.19395 6.14978L8 3.37893Z" stroke="#FFD400"/>
<mask id="mask0" mask-type="alpha" maskUnits="userSpaceOnUse" x="2" y="2" width="12" height="13">
<path d="M8 2.46326L10.2249 5.87676L14 7.04685L11.6 10.3266L11.7082 14.4633L8 13.0768L4.2918 14.4633L4.4 10.3266L2 7.04685L5.77508 5.87676L8 2.46326Z" fill="#FFD400"/>
</mask>
<g mask="url(#mask0)">
<rect x="2" y="2.46326" width="6" height="12" fill="#FFD400"/>
</g>
</svg>
