<svg width="20" height="21" viewBox="0 0 20 21" fill="none" xmlns="http://www.w3.org/2000/svg">
<mask id="path-1-inside-1" fill="white">
<path fill-rule="evenodd" clip-rule="evenodd" d="M0 18.0047C0 19.6158 1.80755 20.5657 3.13442 19.6519L8.86613 15.7043C9.54924 15.2339 10.4519 15.2339 11.135 15.7043L16.8667 19.6519C18.1935 20.5657 20.0011 19.6158 20.0011 18.0047V2C20.0011 0.895429 19.1057 0 18.0011 0H2C0.895429 0 0 0.895431 0 2V18.0047Z"/>
</mask>
<path d="M8.86613 15.7043L8.29892 14.8808L8.86613 15.7043ZM11.135 15.7043L11.7022 14.8808L11.135 15.7043ZM3.70163 20.4754L9.43334 16.5279L8.29892 14.8808L2.56721 18.8283L3.70163 20.4754ZM10.5678 16.5279L16.2995 20.4754L17.4339 18.8283L11.7022 14.8808L10.5678 16.5279ZM21.0011 18.0047V2H19.0011V18.0047H21.0011ZM18.0011 -1H2V1H18.0011V-1ZM-1 2V18.0047H1V2H-1ZM2 -1C0.343144 -1 -1 0.343147 -1 2H1C1 1.44771 1.44771 1 2 1V-1ZM21.0011 2C21.0011 0.343143 19.6579 -1 18.0011 -1V1C18.5534 1 19.0011 1.44771 19.0011 2H21.0011ZM16.2995 20.4754C18.2898 21.8462 21.0011 20.4214 21.0011 18.0047H19.0011C19.0011 18.8103 18.0973 19.2852 17.4339 18.8283L16.2995 20.4754ZM9.43334 16.5279C9.77489 16.2927 10.2262 16.2927 10.5678 16.5279L11.7022 14.8808C10.6775 14.175 9.32359 14.175 8.29892 14.8808L9.43334 16.5279ZM2.56721 18.8283C1.90377 19.2852 1 18.8103 1 18.0047H-1C-1 20.4214 1.71133 21.8462 3.70163 20.4754L2.56721 18.8283Z" fill="#180F45" mask="url(#path-1-inside-1)"/>
</svg>
