<svg width="35" height="38" viewBox="0 0 35 38" fill="none" xmlns="http://www.w3.org/2000/svg">
<path d="M10.5 15L10.5 6.02603L17.5 1.21353L24.5 6.02603V15H20.5V13C20.5 11.3431 19.1569 10 17.5 10C15.8431 10 14.5 11.3431 14.5 13V15H10.5Z" stroke="#2C3BFE" stroke-width="2"/>
<path d="M9.559 31V22.996H8.155V26.26H3.991V22.996H2.587V31H3.991V27.496H8.155V31H9.559ZM13.6109 31.144C15.4589 31.144 16.5869 29.752 16.5869 28.096C16.5869 26.428 15.4589 25.06 13.6109 25.06C11.7629 25.06 10.6349 26.428 10.6349 28.096C10.6349 29.752 11.7629 31.144 13.6109 31.144ZM13.6109 30.028C12.5429 30.028 11.9429 29.128 11.9429 28.096C11.9429 27.076 12.5429 26.176 13.6109 26.176C14.6909 26.176 15.2789 27.076 15.2789 28.096C15.2789 29.128 14.6909 30.028 13.6109 30.028ZM26.0095 31V26.812C26.0095 25.636 25.3975 25.06 24.3415 25.06C23.4655 25.06 22.6975 25.6 22.3735 26.116C22.1815 25.492 21.6535 25.06 20.7895 25.06C19.9015 25.06 19.1455 25.636 18.8935 25.984V25.204H17.6335V31H18.8935V26.944C19.1575 26.572 19.6735 26.176 20.2375 26.176C20.9215 26.176 21.1855 26.596 21.1855 27.22V31H22.4455V26.944C22.6975 26.56 23.2255 26.176 23.7895 26.176C24.4735 26.176 24.7495 26.596 24.7495 27.22V31H26.0095ZM30.0893 31.144C31.0013 31.144 31.8533 30.844 32.4413 30.292L31.8653 29.464C31.4453 29.884 30.7853 30.112 30.2093 30.112C29.1173 30.112 28.4693 29.38 28.3733 28.516H32.8373V28.204C32.8373 26.38 31.7333 25.06 29.9933 25.06C28.2773 25.06 27.0533 26.416 27.0533 28.096C27.0533 29.932 28.3373 31.144 30.0893 31.144ZM31.6253 27.616H28.3613C28.4093 26.92 28.9133 26.092 29.9813 26.092C31.1213 26.092 31.5893 26.932 31.6253 27.616Z" fill="#2C3BFE"/>
</svg>
