<svg width="35" height="38" viewBox="0 0 35 38" fill="none" xmlns="http://www.w3.org/2000/svg">
<path d="M10 15V6.02603C10 5.86138 10.0811 5.70729 10.2167 5.61401L17.2167 0.801509C17.3874 0.684204 17.6126 0.684204 17.7833 0.801509L18.0635 0.393925L17.7833 0.801509L24.7833 5.61401C24.9189 5.70729 25 5.86138 25 6.02603V15C25 15.2761 24.7761 15.5 24.5 15.5H20.5C20.2239 15.5 20 15.2761 20 15V13C20 11.6193 18.8807 10.5 17.5 10.5C16.1193 10.5 15 11.6193 15 13V15C15 15.2761 14.7761 15.5 14.5 15.5H10.5C10.2239 15.5 10 15.2761 10 15Z" stroke="#180F45"/>
<path d="M8.17188 33H7.17578V28.9688H2.66406V33H1.66797V24.4336H2.66406V28.0781H7.17578V24.4336H8.17188V33ZM15.9238 29.7832C15.9238 30.8301 15.6602 31.6484 15.1328 32.2383C14.6055 32.8242 13.877 33.1172 12.9473 33.1172C12.373 33.1172 11.8633 32.9824 11.418 32.7129C10.9727 32.4434 10.6289 32.0566 10.3867 31.5527C10.1445 31.0488 10.0234 30.459 10.0234 29.7832C10.0234 28.7363 10.2852 27.9219 10.8086 27.3398C11.332 26.7539 12.0586 26.4609 12.9883 26.4609C13.8867 26.4609 14.5996 26.7598 15.127 27.3574C15.6582 27.9551 15.9238 28.7637 15.9238 29.7832ZM11.0312 29.7832C11.0312 30.6035 11.1953 31.2285 11.5234 31.6582C11.8516 32.0879 12.334 32.3027 12.9707 32.3027C13.6074 32.3027 14.0898 32.0898 14.418 31.6641C14.75 31.2344 14.916 30.6074 14.916 29.7832C14.916 28.9668 14.75 28.3477 14.418 27.9258C14.0898 27.5 13.6035 27.2871 12.959 27.2871C12.3223 27.2871 11.8418 27.4961 11.5176 27.9141C11.1934 28.332 11.0312 28.9551 11.0312 29.7832ZM25.8203 33V28.8223C25.8203 28.3105 25.7109 27.9277 25.4922 27.6738C25.2734 27.416 24.9336 27.2871 24.4727 27.2871C23.8672 27.2871 23.4199 27.4609 23.1309 27.8086C22.8418 28.1562 22.6973 28.6914 22.6973 29.4141V33H21.7246V28.8223C21.7246 28.3105 21.6152 27.9277 21.3965 27.6738C21.1777 27.416 20.8359 27.2871 20.3711 27.2871C19.7617 27.2871 19.3145 27.4707 19.0293 27.8379C18.748 28.2012 18.6074 28.7988 18.6074 29.6309V33H17.6348V26.5781H18.4258L18.584 27.457H18.6309C18.8145 27.1445 19.0723 26.9004 19.4043 26.7246C19.7402 26.5488 20.1152 26.4609 20.5293 26.4609C21.5332 26.4609 22.1895 26.8242 22.498 27.5508H22.5449C22.7363 27.2148 23.0137 26.9492 23.377 26.7539C23.7402 26.5586 24.1543 26.4609 24.6191 26.4609C25.3457 26.4609 25.8887 26.6484 26.248 27.0234C26.6113 27.3945 26.793 27.9902 26.793 28.8105V33H25.8203ZM31.5156 33.1172C30.5664 33.1172 29.8164 32.8281 29.2656 32.25C28.7188 31.6719 28.4453 30.8691 28.4453 29.8418C28.4453 28.8066 28.6992 27.9844 29.207 27.375C29.7188 26.7656 30.4043 26.4609 31.2637 26.4609C32.0684 26.4609 32.7051 26.7266 33.1738 27.2578C33.6426 27.7852 33.877 28.4824 33.877 29.3496V29.9648H29.4531C29.4727 30.7188 29.6621 31.291 30.0215 31.6816C30.3848 32.0723 30.8945 32.2676 31.5508 32.2676C32.2422 32.2676 32.9258 32.123 33.6016 31.834V32.7012C33.2578 32.8496 32.9316 32.9551 32.623 33.0176C32.3184 33.084 31.9492 33.1172 31.5156 33.1172ZM31.252 27.2754C30.7363 27.2754 30.3242 27.4434 30.0156 27.7793C29.7109 28.1152 29.5312 28.5801 29.4766 29.1738H32.834C32.834 28.5605 32.6973 28.0918 32.4238 27.7676C32.1504 27.4395 31.7598 27.2754 31.252 27.2754Z" fill="#070016"/>
</svg>
