<svg width="164" height="60" viewBox="0 0 164 60" fill="none" xmlns="http://www.w3.org/2000/svg">
<rect x="0.25" width="163.5" height="60" rx="8" fill="#2C3BFE"/>
<path d="M50.9622 33L47.4582 28.764L50.7102 24.996H48.9702L45.8382 28.8V24.996H44.4342V33H45.8382V30.444L46.5462 29.616L49.2222 33H50.9622ZM53.9361 33.144C54.8481 33.144 55.7001 32.844 56.2881 32.292L55.7121 31.464C55.2921 31.884 54.6321 32.112 54.0561 32.112C52.9641 32.112 52.3161 31.38 52.2201 30.516H56.6841V30.204C56.6841 28.38 55.5801 27.06 53.8401 27.06C52.1241 27.06 50.9001 28.416 50.9001 30.096C50.9001 31.932 52.1841 33.144 53.9361 33.144ZM55.4721 29.616H52.2081C52.2561 28.92 52.7601 28.092 53.8281 28.092C54.9681 28.092 55.4361 28.932 55.4721 29.616ZM60.3758 33.144C61.2878 33.144 62.1398 32.844 62.7278 32.292L62.1518 31.464C61.7318 31.884 61.0718 32.112 60.4958 32.112C59.4038 32.112 58.7558 31.38 58.6598 30.516H63.1238V30.204C63.1238 28.38 62.0198 27.06 60.2798 27.06C58.5638 27.06 57.3398 28.416 57.3398 30.096C57.3398 31.932 58.6238 33.144 60.3758 33.144ZM61.9118 29.616H58.6478C58.6958 28.92 59.1998 28.092 60.2678 28.092C61.4078 28.092 61.8758 28.932 61.9118 29.616ZM67.2474 33.144C68.7474 33.144 69.8154 32.004 69.8154 30.096C69.8154 28.188 68.7474 27.06 67.2474 27.06C66.4914 27.06 65.8194 27.42 65.3874 27.996V27.204H64.1274V35.208H65.3874V32.196C65.8674 32.808 66.5154 33.144 67.2474 33.144ZM66.8754 32.028C66.2874 32.028 65.6634 31.668 65.3874 31.236V28.944C65.6754 28.512 66.2874 28.176 66.8754 28.176C67.8714 28.176 68.5194 28.968 68.5194 30.096C68.5194 31.224 67.8714 32.028 66.8754 32.028ZM79.2104 33V31.764H75.1304V29.532H79.1264V28.296H75.1304V26.232H79.2104V24.996H73.7264V33H79.2104ZM85.4642 33L83.3282 30.024L85.3322 27.204H83.9162L82.5362 29.16L81.1682 27.204H79.7522L81.7562 30.024L79.6202 33H81.0362L82.5482 30.864L84.0482 33H85.4642ZM89.221 33.144C90.721 33.144 91.789 32.004 91.789 30.096C91.789 28.188 90.721 27.06 89.221 27.06C88.465 27.06 87.793 27.42 87.361 27.996V27.204H86.101V35.208H87.361V32.196C87.841 32.808 88.489 33.144 89.221 33.144ZM88.849 32.028C88.261 32.028 87.637 31.668 87.361 31.236V28.944C87.649 28.512 88.261 28.176 88.849 28.176C89.845 28.176 90.493 28.968 90.493 30.096C90.493 31.224 89.845 32.028 88.849 32.028ZM94.0703 33V24.996H92.8103V33H94.0703ZM98.0928 33.144C99.9408 33.144 101.069 31.752 101.069 30.096C101.069 28.428 99.9408 27.06 98.0928 27.06C96.2448 27.06 95.1168 28.428 95.1168 30.096C95.1168 31.752 96.2448 33.144 98.0928 33.144ZM98.0928 32.028C97.0248 32.028 96.4248 31.128 96.4248 30.096C96.4248 29.076 97.0248 28.176 98.0928 28.176C99.1728 28.176 99.7608 29.076 99.7608 30.096C99.7608 31.128 99.1728 32.028 98.0928 32.028ZM103.375 33V29.052C103.627 28.632 104.335 28.272 104.875 28.272C105.031 28.272 105.151 28.284 105.259 28.308V27.06C104.515 27.06 103.819 27.492 103.375 28.044V27.204H102.115V33H103.375ZM106.672 26.496C107.104 26.496 107.452 26.148 107.452 25.716C107.452 25.284 107.104 24.936 106.672 24.936C106.24 24.936 105.892 25.284 105.892 25.716C105.892 26.148 106.24 26.496 106.672 26.496ZM107.296 33V27.204H106.036V33H107.296ZM113.874 33V28.92C113.874 27.732 113.25 27.06 112.002 27.06C111.09 27.06 110.334 27.528 109.95 27.984V27.204H108.69V33H109.95V28.944C110.25 28.56 110.802 28.176 111.438 28.176C112.146 28.176 112.614 28.464 112.614 29.376V33H113.874ZM117.634 35.352C119.05 35.352 120.61 34.788 120.61 32.7V27.204H119.35V28.008C118.882 27.384 118.222 27.06 117.49 27.06C115.99 27.06 114.922 28.152 114.922 30.036C114.922 31.944 116.014 33.012 117.49 33.012C118.246 33.012 118.906 32.628 119.35 32.04V32.7C119.35 33.936 118.462 34.32 117.634 34.32C116.866 34.32 116.266 34.116 115.786 33.576L115.198 34.488C115.918 35.136 116.65 35.352 117.634 35.352ZM117.862 31.884C116.854 31.884 116.218 31.152 116.218 30.036C116.218 28.92 116.854 28.176 117.862 28.176C118.45 28.176 119.062 28.524 119.35 28.944V31.116C119.062 31.536 118.45 31.884 117.862 31.884Z" fill="white"/>
</svg>
