<svg width="51" height="38" viewBox="0 0 51 38" fill="none" xmlns="http://www.w3.org/2000/svg">
<path d="M29.0811 9.55831C29.2784 9.25568 29.7216 9.25568 29.9189 9.55831L30.3674 10.2464C30.5584 10.5394 30.8458 10.7565 31.1799 10.8601L32.0135 11.1185C32.3414 11.2201 32.4717 11.6143 32.269 11.8913L31.6981 12.6715C31.502 12.9394 31.4004 13.2647 31.4091 13.5965L31.4335 14.531C31.4428 14.8854 31.0906 15.1366 30.7586 15.0125L30.0253 14.7383C29.6866 14.6116 29.3134 14.6116 28.9747 14.7383L28.2414 15.0125C27.9094 15.1366 27.5572 14.8854 27.5665 14.531L27.5909 13.5965C27.5996 13.2647 27.498 12.9394 27.3019 12.6715L26.731 11.8913C26.5283 11.6143 26.6586 11.2201 26.9865 11.1185L27.8201 10.8601C28.1542 10.7565 28.4416 10.5394 28.6326 10.2464L29.0811 9.55831Z" stroke="#070016" stroke-linecap="round" stroke-linejoin="round"/>
<path d="M18.5 15L20.0442 10.3675C20.3164 9.55086 21.0807 9 21.9415 9H26.5" stroke="#180F45" stroke-linecap="round"/>
<circle cx="25" cy="3.5" r="3" stroke="#180F45"/>
<path d="M7.16016 33H5.98828L2.86523 28.8457L1.96875 29.6426V33H0.972656V24.4336H1.96875V28.6816L5.85352 24.4336H7.03125L3.58594 28.1543L7.16016 33ZM10.9102 33.1172C9.96094 33.1172 9.21094 32.8281 8.66016 32.25C8.11328 31.6719 7.83984 30.8691 7.83984 29.8418C7.83984 28.8066 8.09375 27.9844 8.60156 27.375C9.11328 26.7656 9.79883 26.4609 10.6582 26.4609C11.4629 26.4609 12.0996 26.7266 12.5684 27.2578C13.0371 27.7852 13.2715 28.4824 13.2715 29.3496V29.9648H8.84766C8.86719 30.7188 9.05664 31.291 9.41602 31.6816C9.7793 32.0723 10.2891 32.2676 10.9453 32.2676C11.6367 32.2676 12.3203 32.123 12.9961 31.834V32.7012C12.6523 32.8496 12.3262 32.9551 12.0176 33.0176C11.7129 33.084 11.3438 33.1172 10.9102 33.1172ZM10.6465 27.2754C10.1309 27.2754 9.71875 27.4434 9.41016 27.7793C9.10547 28.1152 8.92578 28.5801 8.87109 29.1738H12.2285C12.2285 28.5605 12.0918 28.0918 11.8184 27.7676C11.5449 27.4395 11.1543 27.2754 10.6465 27.2754ZM13.916 26.5781H14.959L16.3652 30.2402C16.6738 31.0762 16.8652 31.6797 16.9395 32.0508H16.9863C17.0371 31.8516 17.1426 31.5117 17.3027 31.0312C17.4668 30.5469 17.998 29.0625 18.8965 26.5781H19.9395L17.1797 33.8906C16.9062 34.6133 16.5859 35.125 16.2188 35.4258C15.8555 35.7305 15.4082 35.8828 14.877 35.8828C14.5801 35.8828 14.2871 35.8496 13.998 35.7832V35.0039C14.2129 35.0508 14.4531 35.0742 14.7188 35.0742C15.3867 35.0742 15.8633 34.6992 16.1484 33.9492L16.5059 33.0352L13.916 26.5781ZM29.0801 30.7207C29.0801 31.4746 28.8066 32.0625 28.2598 32.4844C27.7129 32.9062 26.9707 33.1172 26.0332 33.1172C25.0176 33.1172 24.2363 32.9863 23.6895 32.7246V31.7637C24.041 31.9121 24.4238 32.0293 24.8379 32.1152C25.252 32.2012 25.6621 32.2441 26.0684 32.2441C26.7324 32.2441 27.2324 32.1191 27.5684 31.8691C27.9043 31.6152 28.0723 31.2637 28.0723 30.8145C28.0723 30.5176 28.0117 30.2754 27.8906 30.0879C27.7734 29.8965 27.5742 29.7207 27.293 29.5605C27.0156 29.4004 26.5918 29.2188 26.0215 29.0156C25.2246 28.7305 24.6543 28.3926 24.3105 28.002C23.9707 27.6113 23.8008 27.1016 23.8008 26.4727C23.8008 25.8125 24.0488 25.2871 24.5449 24.8965C25.041 24.5059 25.6973 24.3105 26.5137 24.3105C27.3652 24.3105 28.1484 24.4668 28.8633 24.7793L28.5527 25.6465C27.8457 25.3496 27.1582 25.2012 26.4902 25.2012C25.9629 25.2012 25.5508 25.3145 25.2539 25.541C24.957 25.7676 24.8086 26.082 24.8086 26.4844C24.8086 26.7812 24.8633 27.0254 24.9727 27.2168C25.082 27.4043 25.2656 27.5781 25.5234 27.7383C25.7852 27.8945 26.1836 28.0684 26.7188 28.2598C27.6172 28.5801 28.2344 28.9238 28.5703 29.291C28.9102 29.6582 29.0801 30.1348 29.0801 30.7207ZM32.7598 32.3145C32.9316 32.3145 33.0977 32.3027 33.2578 32.2793C33.418 32.252 33.5449 32.2246 33.6387 32.1973V32.9414C33.5332 32.9922 33.377 33.0332 33.1699 33.0645C32.9668 33.0996 32.7832 33.1172 32.6191 33.1172C31.377 33.1172 30.7559 32.4629 30.7559 31.1543V27.334H29.8359V26.8652L30.7559 26.4609L31.166 25.0898H31.7285V26.5781H33.5918V27.334H31.7285V31.1133C31.7285 31.5 31.8203 31.7969 32.0039 32.0039C32.1875 32.2109 32.4395 32.3145 32.7598 32.3145ZM38.877 33L38.6836 32.0859H38.6367C38.3164 32.4883 37.9961 32.7617 37.6758 32.9062C37.3594 33.0469 36.9629 33.1172 36.4863 33.1172C35.8496 33.1172 35.3496 32.9531 34.9863 32.625C34.627 32.2969 34.4473 31.8301 34.4473 31.2246C34.4473 29.9277 35.4844 29.248 37.5586 29.1855L38.6484 29.1504V28.752C38.6484 28.248 38.5391 27.877 38.3203 27.6387C38.1055 27.3965 37.7598 27.2754 37.2832 27.2754C36.748 27.2754 36.1426 27.4395 35.4668 27.7676L35.168 27.0234C35.4844 26.8516 35.8301 26.7168 36.2051 26.6191C36.584 26.5215 36.9629 26.4727 37.3418 26.4727C38.1074 26.4727 38.6738 26.6426 39.041 26.9824C39.4121 27.3223 39.5977 27.8672 39.5977 28.6172V33H38.877ZM36.6797 32.3145C37.2852 32.3145 37.7598 32.1484 38.1035 31.8164C38.4512 31.4844 38.625 31.0195 38.625 30.4219V29.8418L37.6523 29.8828C36.8789 29.9102 36.3203 30.0312 35.9766 30.2461C35.6367 30.457 35.4668 30.7871 35.4668 31.2363C35.4668 31.5879 35.5723 31.8555 35.7832 32.0391C35.998 32.2227 36.2969 32.3145 36.6797 32.3145ZM44.5371 26.4609C44.8223 26.4609 45.0781 26.4844 45.3047 26.5312L45.1699 27.4336C44.9043 27.375 44.6699 27.3457 44.4668 27.3457C43.9473 27.3457 43.502 27.5566 43.1309 27.9785C42.7637 28.4004 42.5801 28.9258 42.5801 29.5547V33H41.6074V26.5781H42.4102L42.5215 27.7676H42.5684C42.8066 27.3496 43.0938 27.0273 43.4297 26.8008C43.7656 26.5742 44.1348 26.4609 44.5371 26.4609ZM50.6484 31.248C50.6484 31.8457 50.4258 32.3066 49.9805 32.6309C49.5352 32.9551 48.9102 33.1172 48.1055 33.1172C47.2539 33.1172 46.5898 32.9824 46.1133 32.7129V31.8105C46.4219 31.9668 46.752 32.0898 47.1035 32.1797C47.459 32.2695 47.8008 32.3145 48.1289 32.3145C48.6367 32.3145 49.0273 32.2344 49.3008 32.0742C49.5742 31.9102 49.7109 31.6621 49.7109 31.3301C49.7109 31.0801 49.6016 30.8672 49.3828 30.6914C49.168 30.5117 48.7461 30.3008 48.1172 30.0586C47.5195 29.8359 47.0938 29.6426 46.8398 29.4785C46.5898 29.3105 46.4023 29.1211 46.2773 28.9102C46.1562 28.6992 46.0957 28.4473 46.0957 28.1543C46.0957 27.6309 46.3086 27.2188 46.7344 26.918C47.1602 26.6133 47.7441 26.4609 48.4863 26.4609C49.1777 26.4609 49.8535 26.6016 50.5137 26.8828L50.168 27.6738C49.5234 27.4082 48.9395 27.2754 48.416 27.2754C47.9551 27.2754 47.6074 27.3477 47.373 27.4922C47.1387 27.6367 47.0215 27.8359 47.0215 28.0898C47.0215 28.2617 47.0645 28.4082 47.1504 28.5293C47.2402 28.6504 47.3828 28.7656 47.5781 28.875C47.7734 28.9844 48.1484 29.1426 48.7031 29.3496C49.4648 29.627 49.9785 29.9062 50.2441 30.1875C50.5137 30.4688 50.6484 30.8223 50.6484 31.248Z" fill="#070016"/>
</svg>
