<svg width="48" height="38" viewBox="0 0 48 38" fill="none" xmlns="http://www.w3.org/2000/svg">
<path d="M26.6622 9.28529C27.0568 8.68002 27.9432 8.68002 28.3378 9.28529L28.7862 9.97337C28.9136 10.1687 29.1052 10.3135 29.3279 10.3825L30.1615 10.6409C30.8173 10.8441 31.0779 11.6325 30.6725 12.1866L30.1016 12.9668C29.9709 13.1453 29.9031 13.3622 29.9089 13.5835L29.9334 14.518C29.9519 15.2267 29.2475 15.7291 28.5835 15.4808L27.8502 15.2066C27.6244 15.1222 27.3756 15.1222 27.1498 15.2066L26.4165 15.4808C25.7525 15.7291 25.0481 15.2267 25.0666 14.518L25.0911 13.5835C25.0969 13.3622 25.0291 13.1453 24.8984 12.9668L24.3275 12.1866C23.9221 11.6325 24.1827 10.8441 24.8385 10.6409L25.6721 10.3825C25.8948 10.3135 26.0864 10.1687 26.2138 9.97337L26.6622 9.28529Z" fill="#2C3BFE"/>
<path d="M16.5 15L18.0442 10.3675C18.3164 9.55086 19.0807 9 19.9415 9H24.5" stroke="#2C3BFE" stroke-width="2" stroke-linecap="round"/>
<circle cx="23" cy="3.5" r="2.5" stroke="#2C3BFE" stroke-width="2"/>
<path d="M6.86734 34L3.36334 29.764L6.61534 25.996H4.87534L1.74334 29.8V25.996H0.339343V34H1.74334V31.444L2.45134 30.616L5.12734 34H6.86734ZM9.84119 34.144C10.7532 34.144 11.6052 33.844 12.1932 33.292L11.6172 32.464C11.1972 32.884 10.5372 33.112 9.96119 33.112C8.86919 33.112 8.22119 32.38 8.12519 31.516H12.5892V31.204C12.5892 29.38 11.4852 28.06 9.74519 28.06C8.02919 28.06 6.80519 29.416 6.80519 31.096C6.80519 32.932 8.08919 34.144 9.84119 34.144ZM11.3772 30.616H8.11319C8.16119 29.92 8.66519 29.092 9.73319 29.092C10.8732 29.092 11.3412 29.932 11.3772 30.616ZM13.3529 36.268C13.5209 36.316 13.8809 36.352 14.0609 36.352C14.9609 36.34 15.6449 36.028 16.0409 35.044L18.8369 28.204H17.4929L15.8009 32.548L14.1089 28.204H12.7529L15.1409 34.072L14.8529 34.732C14.6849 35.116 14.4209 35.236 14.0129 35.236C13.8689 35.236 13.6649 35.2 13.5329 35.14L13.3529 36.268ZM25.0258 34.144C27.1738 34.144 28.1218 32.992 28.1218 31.66C28.1218 28.684 23.4658 29.608 23.4658 28.108C23.4658 27.52 23.9938 27.112 24.8098 27.112C25.6498 27.112 26.5018 27.4 27.1378 28.036L27.9298 26.992C27.1978 26.272 26.1778 25.864 24.9418 25.864C23.1778 25.864 22.0258 26.884 22.0258 28.216C22.0258 31.156 26.6818 30.112 26.6818 31.792C26.6818 32.332 26.2378 32.896 25.0858 32.896C23.9698 32.896 23.0938 32.368 22.5538 31.78L21.7618 32.872C22.4818 33.616 23.5498 34.144 25.0258 34.144ZM30.703 34.144C31.279 34.144 31.651 33.976 31.879 33.772L31.579 32.812C31.483 32.92 31.267 33.028 31.027 33.028C30.667 33.028 30.475 32.728 30.475 32.332V29.296H31.651V28.204H30.475V26.62H29.215V28.204H28.255V29.296H29.215V32.644C29.215 33.616 29.719 34.144 30.703 34.144ZM37.355 34V30.148C37.355 28.6 36.227 28.06 34.931 28.06C34.007 28.06 33.167 28.348 32.495 28.996L33.023 29.872C33.515 29.368 34.091 29.128 34.739 29.128C35.531 29.128 36.095 29.536 36.095 30.208V31.072C35.663 30.58 35.003 30.328 34.211 30.328C33.263 30.328 32.207 30.88 32.207 32.224C32.207 33.496 33.275 34.144 34.211 34.144C34.979 34.144 35.663 33.868 36.095 33.364V34H37.355ZM34.715 33.28C34.007 33.28 33.467 32.872 33.467 32.236C33.467 31.612 34.007 31.192 34.715 31.192C35.255 31.192 35.795 31.396 36.095 31.792V32.68C35.795 33.076 35.255 33.28 34.715 33.28ZM40.0083 34V30.052C40.2603 29.632 40.9683 29.272 41.5083 29.272C41.6643 29.272 41.7843 29.284 41.8923 29.308V28.06C41.1483 28.06 40.4523 28.492 40.0083 29.044V28.204H38.7483V34H40.0083ZM44.6605 34.144C46.2205 34.144 47.0725 33.364 47.0725 32.332C47.0725 30.028 43.5685 30.796 43.5685 29.776C43.5685 29.368 43.9765 29.056 44.6365 29.056C45.3685 29.056 46.0045 29.368 46.3525 29.752L46.8805 28.864C46.3645 28.408 45.6205 28.06 44.6365 28.06C43.1725 28.06 42.3565 28.864 42.3565 29.812C42.3565 32.044 45.8605 31.228 45.8605 32.368C45.8605 32.824 45.4645 33.136 44.7085 33.136C43.9645 33.136 43.1605 32.752 42.7525 32.332L42.1765 33.232C42.7765 33.82 43.6645 34.144 44.6605 34.144Z" fill="#2C3BFE"/>
</svg>
