<svg width="76" height="18" viewBox="0 0 76 18" fill="none" xmlns="http://www.w3.org/2000/svg">
<mask id="mask0" mask-type="alpha" maskUnits="userSpaceOnUse" x="0" y="0" width="76" height="18">
<path d="M2.25089 17.8981H2.20587C0.990389 17.8981 0 16.9077 0 15.6922V2.30694C0 1.09146 0.990389 0.101074 2.20587 0.101074H2.25089C3.46636 0.101074 4.45675 1.09146 4.45675 2.30694V15.6922C4.45675 16.9077 3.46636 17.8981 2.25089 17.8981Z" fill="white"/>
<path d="M12.6798 17.3285L12.6498 17.3585C11.7944 18.2138 10.3989 18.2138 9.52853 17.3585L2.73086 10.5608C1.87552 9.70549 1.87552 8.30994 2.73086 7.4396L2.76087 7.40958C3.61621 6.55425 5.01175 6.55425 5.8821 7.40958L12.6798 14.2073C13.5501 15.0626 13.5501 16.4581 12.6798 17.3285Z" fill="white"/>
<path d="M2.77466 10.5904L2.74465 10.5604C1.88932 9.70507 1.88932 8.30952 2.74465 7.43917L9.54232 0.641502C10.3977 -0.213834 11.7932 -0.213834 12.6636 0.641502L12.6936 0.671514C13.5489 1.52685 13.5489 2.9224 12.6936 3.79274L5.89589 10.5904C5.02555 11.4457 3.63 11.4457 2.77466 10.5904Z" fill="white"/>
<path d="M55.6397 17.8981H55.5947C54.3792 17.8981 53.3888 16.9077 53.3888 15.6922V2.30694C53.3888 1.09146 54.3792 0.101074 55.5947 0.101074H55.6397C56.8552 0.101074 57.8455 1.09146 57.8455 2.30694V15.6922C57.8455 16.9077 56.8552 17.8981 55.6397 17.8981Z" fill="white"/>
<path d="M66.0692 17.3285L66.0392 17.3585C65.1838 18.2138 63.7883 18.2138 62.9179 17.3585L56.1203 10.5608C55.2649 9.70549 55.2649 8.30994 56.1203 7.4396L56.1503 7.40958C57.0056 6.55425 58.4012 6.55425 59.2715 7.40958L66.0692 14.2073C66.9245 15.0626 66.9245 16.4581 66.0692 17.3285Z" fill="white"/>
<path d="M56.1499 10.5904L56.1199 10.5604C55.2646 9.70507 55.2646 8.30952 56.1199 7.43917L62.9176 0.641502C63.7729 -0.213834 65.1685 -0.213834 66.0388 0.641502L66.0688 0.671514C66.9241 1.52685 66.9241 2.9224 66.0688 3.79274L59.2711 10.5904C58.4158 11.4457 57.0203 11.4457 56.1499 10.5904Z" fill="white"/>
<path d="M73.4374 4.46829H73.3924C72.1769 4.46829 71.1865 3.4779 71.1865 2.26242V2.2174C71.1865 1.00192 72.1769 0.0115356 73.3924 0.0115356H73.4374C74.6529 0.0115356 75.6433 1.00192 75.6433 2.2174V2.26242C75.6283 3.4779 74.6529 4.46829 73.4374 4.46829Z" fill="white"/>
<path d="M73.4374 17.8984H73.3924C72.1769 17.8984 71.1865 16.9081 71.1865 15.6926V8.98494C71.1865 7.76946 72.1769 6.77907 73.3924 6.77907H73.4374C74.6529 6.77907 75.6433 7.76946 75.6433 8.98494V15.6926C75.6283 16.9081 74.6529 17.8984 73.4374 17.8984Z" fill="white"/>
<path d="M20.0179 17.8981H19.9728C18.7574 17.8981 17.767 16.9077 17.767 15.6922V2.30694C17.767 1.09146 18.7574 0.101074 19.9728 0.101074H20.0179C21.2333 0.101074 22.2237 1.09146 22.2237 2.30694V15.6922C22.2237 16.9077 21.2333 17.8981 20.0179 17.8981Z" fill="white"/>
<path d="M17.767 2.35196V2.30694C17.767 1.09146 18.7574 0.101074 19.9728 0.101074H28.9164C30.1318 0.101074 31.1222 1.09146 31.1222 2.30694V2.35196C31.1222 3.56744 30.1318 4.55783 28.9164 4.55783H19.9728C18.7574 4.55783 17.767 3.56744 17.767 2.35196Z" fill="white"/>
<path d="M17.767 9.01512V8.9701C17.767 7.75463 18.7574 6.76424 19.9728 6.76424H28.9164C30.1318 6.76424 31.1222 7.75463 31.1222 8.9701V9.01512C31.1222 10.2306 30.1318 11.221 28.9164 11.221H19.9728C18.7574 11.221 17.767 10.2306 17.767 9.01512Z" fill="white"/>
<path d="M17.767 15.6921V15.647C17.767 14.4316 18.7574 13.4412 19.9728 13.4412H28.9164C30.1318 13.4412 31.1222 14.4316 31.1222 15.647V15.6921C31.1222 16.9075 30.1318 17.8979 28.9164 17.8979H19.9728C18.7574 17.8979 17.767 16.9075 17.767 15.6921Z" fill="white"/>
<path d="M42.2541 17.8984H42.209C40.9936 17.8984 40.0032 16.9081 40.0032 15.6926V8.98494C40.0032 7.76946 40.9936 6.77907 42.209 6.77907H42.2541C43.4695 6.77907 44.4599 7.76946 44.4599 8.98494V15.6926C44.4599 16.9081 43.4695 17.8984 42.2541 17.8984Z" fill="white"/>
<path d="M42.2541 17.8981H42.209C40.9936 17.8981 40.0032 16.9077 40.0032 15.6922V6.74868C40.0032 5.53321 40.9936 4.54282 42.209 4.54282H42.2541C43.4695 4.54282 44.4599 5.53321 44.4599 6.74868V15.6922C44.4599 16.9077 43.4695 17.8981 42.2541 17.8981Z" fill="white"/>
<path d="M40.6813 8.63953L40.6513 8.60951C39.7959 7.75418 39.7959 6.35863 40.6513 5.48829L45.3931 0.746422C46.2485 -0.108915 47.644 -0.108915 48.5144 0.746422L48.5444 0.776433C49.3997 1.63177 49.3997 3.02732 48.5444 3.89766L43.8025 8.63953C42.9322 9.49486 41.5366 9.49486 40.6813 8.63953Z" fill="white"/>
<path d="M43.8334 8.60951L43.8034 8.63953C42.9481 9.49486 41.5525 9.49486 40.6822 8.63953L35.9403 3.89766C35.085 3.04232 35.085 1.64678 35.9403 0.776433L35.9703 0.746422C36.8257 -0.108915 38.2212 -0.108915 39.0916 0.746422L43.8334 5.48829C44.6888 6.34362 44.6888 7.73917 43.8334 8.60951Z" fill="white"/>
</mask>
<g mask="url(#mask0)">
<path d="M75.6435 -0.00344849H0.0137939V18.0036H75.6435V-0.00344849Z" fill="url(#paint0_linear)"/>
</g>
<defs>
<linearGradient id="paint0_linear" x1="21.0735" y1="-10.9138" x2="79.3343" y2="58.3563" gradientUnits="userSpaceOnUse">
<stop stop-color="#3713EA"/>
<stop offset="0.08454" stop-color="#4012E5"/>
<stop offset="0.2251" stop-color="#5A0DD7"/>
<stop offset="0.4031" stop-color="#8307C0"/>
<stop offset="0.5674" stop-color="#AF00A8"/>
<stop offset="0.8652" stop-color="#AF00A8"/>
<stop offset="0.9944" stop-color="#AF00A8"/>
</linearGradient>
</defs>
</svg>
