<svg width="24" height="24" viewBox="0 0 24 24" fill="none" xmlns="http://www.w3.org/2000/svg">
<circle cx="12" cy="12" r="12" fill="#303030" fill-opacity="0.1"/>
<path d="M4.3275 5.71417L4.91666 5.125L18.875 19.0833L18.2858 19.6725L16.4183 17.8058C15.5801 18.2996 14.6375 18.5896 13.6667 18.6525V17.8167C14.4157 17.7601 15.1447 17.5475 15.8067 17.1925L14.5483 15.9342C14.2692 16.0383 13.9733 16.1092 13.6667 16.1425V15.3033C13.7383 15.2925 13.8083 15.28 13.8783 15.265L12 13.3858V18.6667H10.3333L7 15.3333H3.66666V9.5H7L7.55666 8.94333L4.3275 5.71417ZM19.5 12.4167C19.5 14.1083 18.8283 15.6417 17.7375 16.7667L17.1483 16.1775C17.8616 15.438 18.3498 14.5108 18.556 13.5043C18.7622 12.4977 18.6778 11.4533 18.3128 10.4929C17.9478 9.53246 17.3172 8.69567 16.4945 8.08015C15.6718 7.46464 14.6911 7.09579 13.6667 7.01667V6.18C15.2487 6.2857 16.7314 6.98875 17.8145 8.14674C18.8976 9.30473 19.5001 10.8311 19.5 12.4167ZM17 12.4167C17 13.4167 16.6083 14.3267 15.9692 14.9992L15.38 14.4092C15.7444 14.0199 15.995 13.5382 16.1048 13.0165C16.2146 12.4947 16.1792 11.9529 16.0026 11.4498C15.826 10.9467 15.5148 10.5017 15.103 10.1631C14.6912 9.82447 14.1944 9.60522 13.6667 9.52917V8.68917C14.5835 8.79167 15.4304 9.22854 16.0453 9.91621C16.6603 10.6039 17.0002 11.4941 17 12.4167ZM14.5 12.4167C14.5 12.7267 14.3867 13.0108 14.2 13.2292L13.6667 12.6958V11.2375C13.9105 11.3237 14.1216 11.4834 14.2708 11.6946C14.4201 11.9058 14.5001 12.1581 14.5 12.4167ZM7.345 10.3333H4.5V14.5H7.345L10.6783 17.8333H11.1667V12.5533L8.14583 9.53333L7.34583 10.3342L7.345 10.3333ZM10.3333 6.16667H12V11.03L11.1667 10.1967V7H10.6783L9.325 8.35417L8.73583 7.765L10.3333 6.16667Z" fill="#303030"/>
</svg>
