<svg width="24" height="24" viewBox="0 0 24 24" fill="none" xmlns="http://www.w3.org/2000/svg">
<path d="M5.89061 15.6521C5.93253 15.5773 5.95455 15.4931 5.95455 15.4074V10.5455C5.95455 7.20664 8.66119 4.5 12 4.5C15.3388 4.5 18.0455 7.20664 18.0455 10.5455V15.4074C18.0455 15.4931 18.0675 15.5773 18.1094 15.6521L18.7284 16.7554C18.9154 17.0886 18.6745 17.5 18.2923 17.5H5.70767C5.3255 17.5 5.08462 17.0886 5.27161 16.7554L5.89061 15.6521Z" stroke="white" stroke-linecap="round" stroke-linejoin="round"/>
<path d="M8 19.5H16" stroke="white" stroke-linecap="round"/>
<circle cx="17" cy="7" r="7" fill="#EE0064"/>
<path d="M19.1807 11H14.4883V10.3018L16.3682 8.41211C16.9411 7.83268 17.3187 7.41927 17.501 7.17188C17.6833 6.92448 17.82 6.68359 17.9111 6.44922C18.0023 6.21484 18.0479 5.96257 18.0479 5.69238C18.0479 5.31152 17.9323 5.01042 17.7012 4.78906C17.4701 4.56445 17.1494 4.45215 16.7393 4.45215C16.443 4.45215 16.1615 4.50098 15.8945 4.59863C15.6309 4.69629 15.3363 4.8737 15.0107 5.13086L14.5811 4.5791C15.2386 4.03223 15.9548 3.75879 16.7295 3.75879C17.4001 3.75879 17.9258 3.93132 18.3066 4.27637C18.6875 4.61816 18.8779 5.07878 18.8779 5.6582C18.8779 6.11068 18.751 6.55827 18.4971 7.00098C18.2432 7.44368 17.7679 8.00358 17.0713 8.68066L15.5088 10.209V10.248H19.1807V11Z" fill="white"/>
</svg>
