<svg width="40" height="40" viewBox="0 0 40 40" fill="none" xmlns="http://www.w3.org/2000/svg">
<path fill-rule="evenodd" clip-rule="evenodd" d="M16 32C16 32.5304 15.7893 33.0391 15.4142 33.4142C15.0391 33.7893 14.5304 34 14 34H12C11.4696 34 10.9609 33.7893 10.5858 33.4142C10.2107 33.0391 10 32.5304 10 32V8C10 7.46957 10.2107 6.96086 10.5858 6.58579C10.9609 6.21071 11.4696 6 12 6H14C14.5304 6 15.0391 6.21071 15.4142 6.58579C15.7893 6.96086 16 7.46957 16 8V32ZM30 32C30 32.5304 29.7893 33.0391 29.4142 33.4142C29.0391 33.7893 28.5304 34 28 34H26C25.4696 34 24.9609 33.7893 24.5858 33.4142C24.2107 33.0391 24 32.5304 24 32V8C24 7.46957 24.2107 6.96086 24.5858 6.58579C24.9609 6.21071 25.4696 6 26 6H28C28.5304 6 29.0391 6.21071 29.4142 6.58579C29.7893 6.96086 30 7.46957 30 8V32Z" fill="white"/>
</svg>
