<svg width="88" height="88" viewBox="0 0 88 88" fill="none" xmlns="http://www.w3.org/2000/svg">
<g filter="url(#filter0_d)">
<rect x="4" width="80" height="80" rx="40" fill="white"/>
</g>
<path d="M54 49.8002H34C33.4477 49.8002 33 49.3525 33 48.8002V33.6002C33 33.0479 33.4477 32.6002 34 32.6002H37.1716C37.9672 32.6002 38.7303 32.2841 39.2929 31.7215L40.5213 30.4931C40.7089 30.3056 40.9632 30.2002 41.2284 30.2002H46.7716C47.0368 30.2002 47.2911 30.3056 47.4787 30.4931L48.7071 31.7215C49.2697 32.2841 50.0328 32.6002 50.8284 32.6002H54C54.5523 32.6002 55 33.0479 55 33.6002V48.8002C55 49.3525 54.5523 49.8002 54 49.8002Z" stroke="#180F45" stroke-width="2"/>
<circle cx="44" cy="40" r="5" stroke="#180F45" stroke-width="2"/>
<circle cx="61.75" cy="23" r="6" fill="#180F45"/>
<defs>
<filter id="filter0_d" x="0" y="0" width="88" height="88" filterUnits="userSpaceOnUse" color-interpolation-filters="sRGB">
<feFlood flood-opacity="0" result="BackgroundImageFix"/>
<feColorMatrix in="SourceAlpha" type="matrix" values="0 0 0 0 0 0 0 0 0 0 0 0 0 0 0 0 0 0 127 0"/>
<feOffset dy="4"/>
<feGaussianBlur stdDeviation="2"/>
<feColorMatrix type="matrix" values="0 0 0 0 0.760784 0 0 0 0 0.760784 0 0 0 0 0.760784 0 0 0 0.25 0"/>
<feBlend mode="normal" in2="BackgroundImageFix" result="effect1_dropShadow"/>
<feBlend mode="normal" in="SourceGraphic" in2="effect1_dropShadow" result="shape"/>
</filter>
</defs>
</svg>
