<svg width="16" height="16" viewBox="0 0 16 16" fill="none" xmlns="http://www.w3.org/2000/svg">
<path d="M7.23358 14.6606C7.3453 14.9303 7.42258 15.2123 7.4641 15.5L0.535898 15.5C0.577418 15.2123 0.654701 14.9303 0.766421 14.6606C0.942313 14.236 1.20012 13.8501 1.52513 13.5251C1.85013 13.2001 2.23597 12.9423 2.66061 12.7664C3.08525 12.5905 3.54037 12.5 4 12.5C4.45963 12.5 4.91475 12.5905 5.33939 12.7664C5.76403 12.9423 6.14987 13.2001 6.47487 13.5251C6.79988 13.8501 7.05769 14.236 7.23358 14.6606Z" stroke="#FB8823"/>
<path d="M12.5 10L12.5001 12.4999C12.5002 13.6045 11.6047 14.5 10.5001 14.5H9.5" stroke="#FB8823" stroke-linecap="round" stroke-linejoin="round"/>
<path d="M14.5 11.5L12.5 9.5L10.5 11.5" stroke="#FB8823" stroke-linecap="round" stroke-linejoin="round"/>
<path d="M15.2336 7.66061C15.3453 7.93033 15.4226 8.21234 15.4641 8.5L8.5359 8.5C8.57742 8.21234 8.6547 7.93033 8.76642 7.66061C8.94231 7.23597 9.20012 6.85013 9.52513 6.52513C9.85013 6.20012 10.236 5.94231 10.6606 5.76642C11.0852 5.59053 11.5404 5.5 12 5.5C12.4596 5.5 12.9148 5.59053 13.3394 5.76642C13.764 5.94231 14.1499 6.20012 14.4749 6.52513C14.7999 6.85013 15.0577 7.23597 15.2336 7.66061Z" stroke="#FB8823"/>
<path d="M5.5 9C5.5 9.82843 4.82843 10.5 4 10.5C3.17157 10.5 2.5 9.82843 2.5 9C2.5 8.17157 3.17157 7.5 4 7.5C4.82843 7.5 5.5 8.17157 5.5 9Z" stroke="#FB8823"/>
<path d="M13.5 2C13.5 2.82843 12.8284 3.5 12 3.5C11.1716 3.5 10.5 2.82843 10.5 2C10.5 1.17157 11.1716 0.5 12 0.5C12.8284 0.5 13.5 1.17157 13.5 2Z" stroke="#FB8823"/>
</svg>
