<svg width="40" height="40" viewBox="0 0 40 40" fill="none" xmlns="http://www.w3.org/2000/svg">
<path d="M38 37H2C1.44772 37 1 36.5523 1 36V8C1 7.44772 1.44772 7 2 7H9.17157C9.96722 7 10.7303 6.68393 11.2929 6.12132L14.1213 3.29289C14.3089 3.10536 14.5632 3 14.8284 3H25.1716C25.4368 3 25.6911 3.10536 25.8787 3.29289L28.7071 6.12132C29.2697 6.68393 30.0328 7 30.8284 7H38C38.5523 7 39 7.44772 39 8V36C39 36.5523 38.5523 37 38 37Z" stroke="white" stroke-width="2"/>
<path d="M20.2002 26.4002C16.6641 26.4002 13.8001 23.5361 13.8001 20.0001H17.0001L13.0001 16L9 20.0001H12.2001C12.2001 24.4161 15.7841 28.0002 20.2002 28.0002C21.5762 28.0002 22.8402 27.6162 23.9763 27.0082L22.7922 25.8242C22.0082 26.1922 21.1282 26.4002 20.2002 26.4002Z" fill="white"/>
<path d="M20.2004 12C18.8244 12 17.5603 12.384 16.4243 12.992L17.6083 14.16C18.3924 13.808 19.2724 13.6 20.2004 13.6C23.7364 13.6 26.6005 16.4641 26.6005 20.0001H23.4004L27.4005 24.0002L31.4006 20.0001H28.2005C28.2005 15.5841 24.6165 12 20.2004 12Z" fill="white"/>
</svg>
