<svg width="21" height="24" viewBox="0 0 21 24" fill="none" xmlns="http://www.w3.org/2000/svg">
<path d="M11.7222 19H7.5C6.39543 19 5.5 18.1046 5.5 17V7C5.5 5.89543 6.39543 5 7.5 5H17.5C18.6046 5 19.5 5.89543 19.5 7V12.7778" stroke="white" stroke-width="2" stroke-linecap="round" stroke-linejoin="round"/>
<path d="M9.5 15.3612L9.5 8.59743L16.2638 11.8827L9.5 15.3612Z" stroke="white" stroke-width="2"/>
<path d="M16.1622 14.2853C16.5568 13.68 17.4432 13.68 17.8378 14.2853L18.1008 14.6889C18.2282 14.8843 18.4198 15.029 18.6425 15.098L19.1615 15.2589C19.8173 15.4622 20.0779 16.2506 19.6725 16.8046L19.3016 17.3115C19.1709 17.4901 19.1031 17.707 19.1089 17.9282L19.1244 18.518C19.1429 19.2267 18.4385 19.7291 17.7745 19.4808L17.3502 19.3222C17.1244 19.2377 16.8756 19.2377 16.6498 19.3222L16.2255 19.4808C15.5615 19.7291 14.8571 19.2267 14.8756 18.518L14.8911 17.9282C14.8969 17.707 14.8291 17.4901 14.6984 17.3115L14.3275 16.8046C13.9221 16.2506 14.1827 15.4622 14.8385 15.2589L15.3575 15.098C15.5802 15.029 15.7718 14.8843 15.8992 14.6889L16.1622 14.2853Z" fill="white"/>
</svg>
