<svg width="16" height="16" viewBox="0 0 16 16" fill="none" xmlns="http://www.w3.org/2000/svg">
<mask id="path-1-inside-1" fill="white">
<path fill-rule="evenodd" clip-rule="evenodd" d="M0 13.9963C0 15.6173 1.8271 16.5649 3.15208 15.6312L6.84792 13.0267C7.53882 12.5398 8.46119 12.5398 9.15208 13.0267L12.8479 15.6312C14.1729 16.5649 16 15.6173 16 13.9963V2C16 0.895428 15.1046 0 14 0H2C0.89543 0 0 0.89543 0 2V13.9963Z"/>
</mask>
<path d="M12.8479 15.6312L13.424 14.8138L12.8479 15.6312ZM6.84792 13.0267L7.42396 13.8441L6.84792 13.0267ZM9.15208 13.0267L8.57604 13.8441L9.15208 13.0267ZM3.72812 16.4486L7.42396 13.8441L6.27188 12.2093L2.57604 14.8138L3.72812 16.4486ZM8.57604 13.8441L12.2719 16.4486L13.424 14.8138L9.72812 12.2093L8.57604 13.8441ZM17 13.9963V2H15V13.9963H17ZM14 -1H2V1H14V-1ZM-1 2V13.9963H1V2H-1ZM2 -1C0.343145 -1 -1 0.343146 -1 2H1C1 1.44771 1.44772 1 2 1V-1ZM17 2C17 0.343141 15.6569 -1 14 -1V1C14.5523 1 15 1.44771 15 2H17ZM12.2719 16.4486C14.2593 17.8492 17 16.4277 17 13.9963H15C15 14.8068 14.0865 15.2806 13.424 14.8138L12.2719 16.4486ZM7.42396 13.8441C7.76941 13.6007 8.23059 13.6007 8.57604 13.8441L9.72812 12.2093C8.69178 11.479 7.30822 11.479 6.27188 12.2093L7.42396 13.8441ZM2.57604 14.8138C1.91355 15.2806 1 14.8068 1 13.9963H-1C-1 16.4277 1.74066 17.8492 3.72812 16.4486L2.57604 14.8138Z" fill="#180F45" mask="url(#path-1-inside-1)"/>
</svg>
