<svg width="36" height="36" viewBox="0 0 36 36" fill="none" xmlns="http://www.w3.org/2000/svg">
<g filter="url(#filter0_d)">
<mask id="mask0" mask-type="alpha" maskUnits="userSpaceOnUse" x="4" y="7" width="24" height="25">
<path fill-rule="evenodd" clip-rule="evenodd" d="M4 29.2106C4 30.7717 5.79455 31.6973 7.12254 30.821L14.8775 25.7041C15.5552 25.2569 16.4448 25.2569 17.1225 25.7041L24.8775 30.821C26.2055 31.6973 28 30.7717 28 29.2106V9.75352C28 8.67886 27.1046 7.80762 26 7.80762H6C4.89543 7.80762 4 8.67886 4 9.75352V29.2106Z" fill="white"/>
</mask>
<g mask="url(#mask0)">
<path fill-rule="evenodd" clip-rule="evenodd" d="M4 29.2106C4 30.7717 5.79455 31.6973 7.12254 30.821L14.8775 25.7041C15.5552 25.2569 16.4448 25.2569 17.1225 25.7041L24.8775 30.821C26.2055 31.6973 28 30.7717 28 29.2106V9.75352C28 8.67886 27.1046 7.80762 26 7.80762H6C4.89543 7.80762 4 8.67886 4 9.75352V29.2106Z" fill="white"/>
<path d="M24.8775 30.821L23.7549 32.4316L24.8775 30.821ZM14.8775 25.7041L13.7549 24.0935L14.8775 25.7041ZM17.1225 25.7041L18.2451 24.0935L17.1225 25.7041ZM8.24508 32.4316L16 27.3146L13.7549 24.0935L6 29.2106L8.24508 32.4316ZM16 27.3146L23.7549 32.4316L26 29.2106L18.2451 24.0935L16 27.3146ZM30 29.2106V9.75355H26V29.2106H30ZM26 5.86169H6V9.75355H26V5.86169ZM2 9.75355V29.2106H6V9.75355H2ZM6 5.86169C3.79086 5.86169 2 7.60416 2 9.75355H6V5.86169ZM30 9.75355C30 7.60416 28.2091 5.86169 26 5.86169V9.75355H30ZM23.7549 32.4316C26.4109 34.1841 30 32.3329 30 29.2106H26L23.7549 32.4316ZM16 27.3146L18.2451 24.0935C16.8895 23.1992 15.1105 23.1992 13.7549 24.0935L16 27.3146ZM6 29.2106H2C2 32.3329 5.58909 34.1841 8.24508 32.4316L6 29.2106Z" fill="#F3F3F3"/>
</g>
</g>
<defs>
<filter id="filter0_d" x="0" y="3.80762" width="32" height="31.3521" filterUnits="userSpaceOnUse" color-interpolation-filters="sRGB">
<feFlood flood-opacity="0" result="BackgroundImageFix"/>
<feColorMatrix in="SourceAlpha" type="matrix" values="0 0 0 0 0 0 0 0 0 0 0 0 0 0 0 0 0 0 127 0"/>
<feOffset/>
<feGaussianBlur stdDeviation="2"/>
<feColorMatrix type="matrix" values="0 0 0 0 0.729167 0 0 0 0 0.729167 0 0 0 0 0.729167 0 0 0 0.5 0"/>
<feBlend mode="multiply" in2="BackgroundImageFix" result="effect1_dropShadow"/>
<feBlend mode="normal" in="SourceGraphic" in2="effect1_dropShadow" result="shape"/>
</filter>
</defs>
</svg>
