<svg width="36" height="36" viewBox="0 0 36 36" fill="none" xmlns="http://www.w3.org/2000/svg">
<g filter="url(#filter0_d)">
<mask id="mask0" mask-type="alpha" maskUnits="userSpaceOnUse" x="4" y="7" width="24" height="25">
<path fill-rule="evenodd" clip-rule="evenodd" d="M4 29.9966C4 31.6012 5.79455 32.5525 7.12254 31.6519L14.8775 26.3927C15.5552 25.9331 16.4448 25.9331 17.1225 26.3927L24.8775 31.6519C26.2055 32.5525 28 31.6012 28 29.9966V9.99915C28 8.89458 27.1046 7.99915 26 7.99915H6C4.89543 7.99915 4 8.89458 4 9.99915V29.9966Z" fill="white"/>
</mask>
<g mask="url(#mask0)">
<path fill-rule="evenodd" clip-rule="evenodd" d="M4 29.9966C4 31.6012 5.79455 32.5525 7.12254 31.6519L14.8775 26.3927C15.5552 25.9331 16.4448 25.9331 17.1225 26.3927L24.8775 31.6519C26.2055 32.5525 28 31.6012 28 29.9966V9.99915C28 8.89458 27.1046 7.99915 26 7.99915H6C4.89543 7.99915 4 8.89458 4 9.99915V29.9966Z" fill="#2C3BFE"/>
<path d="M24.8775 31.6519L23.7549 33.3071L24.8775 31.6519ZM14.8775 26.3927L13.7549 24.7375L14.8775 26.3927ZM17.1225 26.3927L18.2451 24.7375L17.1225 26.3927ZM8.24508 33.3071L16 28.048L13.7549 24.7375L6 29.9966L8.24508 33.3071ZM16 28.048L23.7549 33.3071L26 29.9966L18.2451 24.7375L16 28.048ZM30 29.9966V9.99915H26V29.9966H30ZM26 5.99915H6V9.99915H26V5.99915ZM2 9.99915V29.9966H6V9.99915H2ZM6 5.99915C3.79086 5.99915 2 7.79001 2 9.99915H6V5.99915ZM30 9.99915C30 7.79001 28.2091 5.99915 26 5.99915V9.99915H30ZM23.7549 33.3071C26.4109 35.1083 30 33.2057 30 29.9966H26L23.7549 33.3071ZM16 28.048L18.2451 24.7375C16.8895 23.8182 15.1105 23.8182 13.7549 24.7375L16 28.048ZM6 29.9966H2C2 33.2057 5.58909 35.1083 8.24508 33.3071L6 29.9966Z" fill="#F3F3F3"/>
</g>
</g>
<defs>
<filter id="filter0_d" x="0" y="3.99915" width="32" height="32.0009" filterUnits="userSpaceOnUse" color-interpolation-filters="sRGB">
<feFlood flood-opacity="0" result="BackgroundImageFix"/>
<feColorMatrix in="SourceAlpha" type="matrix" values="0 0 0 0 0 0 0 0 0 0 0 0 0 0 0 0 0 0 127 0"/>
<feOffset/>
<feGaussianBlur stdDeviation="2"/>
<feColorMatrix type="matrix" values="0 0 0 0 0.729167 0 0 0 0 0.729167 0 0 0 0 0.729167 0 0 0 0.5 0"/>
<feBlend mode="multiply" in2="BackgroundImageFix" result="effect1_dropShadow"/>
<feBlend mode="normal" in="SourceGraphic" in2="effect1_dropShadow" result="shape"/>
</filter>
</defs>
</svg>
