<svg width="21" height="20" viewBox="0 0 21 20" fill="none" xmlns="http://www.w3.org/2000/svg">
<path d="M7.74902 15.5C7.74902 16.6046 6.85359 17.5 5.74902 17.5C4.64445 17.5 3.74902 16.6046 3.74902 15.5" stroke="#180F45"/>
<path d="M17.749 15.5C17.749 16.6046 16.8536 17.5 15.749 17.5C14.6445 17.5 13.749 16.6046 13.749 15.5" stroke="#180F45"/>
<path d="M3.88909 3.6746C4.0416 2.9883 4.65032 2.5 5.35337 2.5H14.0705C15.0732 2.5 15.7935 3.46478 15.5087 4.42613L12.3757 15H3.24226C2.28263 15 1.5698 14.1114 1.77797 13.1746L3.88909 3.6746Z" stroke="#180F45"/>
<path d="M15.5935 6.8159L16.7308 7.72574C16.7983 7.77972 16.8506 7.85025 16.8827 7.93048L17.3469 7.74478L16.8827 7.93048L17.6869 9.94091C17.7831 10.1816 17.9401 10.3932 18.1425 10.5551L19.8425 11.9151C20.018 12.0555 20.0783 12.2958 19.9897 12.5025L19.0492 14.697C18.9704 14.8808 18.7896 15 18.5896 15H12.421L14.8022 7.06266C14.9041 6.72327 15.3168 6.59455 15.5935 6.8159Z" stroke="#180F45" stroke-linecap="round" stroke-linejoin="round"/>
</svg>
