<svg width="48" height="48" viewBox="0 0 48 48" fill="none" xmlns="http://www.w3.org/2000/svg">
<g filter="url(#filter0_d)">
<path d="M22.7778 35H15C13.8954 35 13 34.1046 13 33V15C13 13.8954 13.8954 13 15 13H33C34.1046 13 35 13.8954 35 15V25.2222" stroke="white" stroke-width="2" stroke-linecap="round" stroke-linejoin="round"/>
<path d="M17 27.7224V20.1949C17 18.7181 18.5455 17.7507 19.8738 18.3959L27.4014 22.0521C28.884 22.7722 28.908 24.8759 27.4423 25.6297L19.9147 29.501C18.5837 30.1855 17 29.2191 17 27.7224Z" fill="white"/>
<path d="M30.3051 27.4281C30.6996 26.8229 31.5861 26.8229 31.9806 27.4281L32.7999 28.6851C32.9272 28.8805 33.1188 29.0252 33.3416 29.0943L34.8044 29.5477C35.4601 29.7509 35.7207 30.5393 35.3153 31.0934L34.3444 32.4202C34.2137 32.5988 34.146 32.8156 34.1517 33.0369L34.1942 34.6608C34.2128 35.3695 33.5084 35.8719 32.8443 35.6236L31.493 35.1184C31.2672 35.0339 31.0184 35.0339 30.7926 35.1184L29.4413 35.6236C28.7773 35.8719 28.0729 35.3695 28.0914 34.6608L28.1339 33.0369C28.1397 32.8156 28.0719 32.5988 27.9412 32.4202L26.9703 31.0934C26.5649 30.5393 26.8255 29.7509 27.4813 29.5477L28.9441 29.0943C29.1668 29.0252 29.3584 28.8805 29.4858 28.6851L30.3051 27.4281Z" fill="white"/>
</g>
<defs>
<filter id="filter0_d" x="0" y="0" width="48" height="48" filterUnits="userSpaceOnUse" color-interpolation-filters="sRGB">
<feFlood flood-opacity="0" result="BackgroundImageFix"/>
<feColorMatrix in="SourceAlpha" type="matrix" values="0 0 0 0 0 0 0 0 0 0 0 0 0 0 0 0 0 0 127 0" result="hardAlpha"/>
<feOffset/>
<feGaussianBlur stdDeviation="2"/>
<feColorMatrix type="matrix" values="0 0 0 0 0.729167 0 0 0 0 0.729167 0 0 0 0 0.729167 0 0 0 0.5 0"/>
<feBlend mode="multiply" in2="BackgroundImageFix" result="effect1_dropShadow"/>
<feBlend mode="normal" in="SourceGraphic" in2="effect1_dropShadow" result="shape"/>
</filter>
</defs>
</svg>
