<svg width="16" height="16" viewBox="0 0 16 16" fill="none" xmlns="http://www.w3.org/2000/svg">
<path d="M4.5 6.36122V1.59743C4.5 1.22825 4.88637 0.986381 5.21845 1.14768L9.98224 3.46152C10.3529 3.64155 10.3589 4.16746 9.99246 4.35592L5.22867 6.80586C4.89592 6.97699 4.5 6.7354 4.5 6.36122Z" stroke="#180F45"/>
<path d="M0.5 15.5H2V9.5H0.5M2.5 14.5H8.87525C9.28206 14.5 9.67919 14.3759 10.0137 14.1444L14.9243 10.7447C15.5117 10.3381 15.6436 9.52483 15.215 8.95329V8.95329C14.8138 8.41846 14.0648 8.29015 13.5085 8.66099L10 11" stroke="#180F45" stroke-linecap="round" stroke-linejoin="round"/>
<path d="M6 12H9C9.55228 12 10 11.5523 10 11V11C10 10.4477 9.55228 10 9 10H7.20156C6.74742 10 6.3068 9.84545 5.95217 9.56174L5.20987 8.9679C4.49765 8.39812 3.49016 8.38238 2.76048 8.92964L2 9.5" stroke="#180F45" stroke-linecap="round" stroke-linejoin="round"/>
</svg>
