<svg width="170" height="180" viewBox="0 0 170 180" fill="none" xmlns="http://www.w3.org/2000/svg">
<path opacity="0.3" d="M150.596 144.865C147.2 148.437 143.992 150.745 141.455 152.564C111.625 173.975 76.3281 167.732 68.824 166.209C57.7491 163.961 36.3303 159.61 20.8507 141.402C-2.57398 113.846 1.07537 70.4439 19.2436 41.7935C22.5667 36.5541 40.1186 7.4685 75.7964 2.80321C97.3904 -0.0189333 122.555 5.67369 140.784 20.9447C179.048 53.0095 176.323 117.774 150.596 144.865Z" fill="url(#paint0_linear)"/>
<path d="M3.37747 1.44974C3.10558 0.295501 4.73087 -0.471977 5.72176 0.331759C15.8118 8.51415 40.0462 33.013 34.0042 75.8286C26.4276 129.546 39.3816 149.15 55.5076 161.103C55.5076 161.103 33.3577 155.483 19.4249 135.589C-14.7847 86.7606 8.19292 21.9541 3.37747 1.44974Z" fill="url(#paint1_linear)"/>
<path d="M11.0572 18.2253C12.32 24.2079 13.4438 30.2027 14.3138 36.2277C15.2201 42.2467 15.9149 48.2898 16.3862 54.339C16.8333 60.3942 17.1535 66.4494 17.1656 72.5107C17.214 78.5719 16.9602 84.6271 16.6883 90.7065C16.4527 96.7859 16.1687 102.908 16.6158 109.072C17.0508 115.224 18.3499 121.43 20.9177 127.249C21.5581 128.7 22.2348 130.144 23.0022 131.54C23.7393 132.948 24.5489 134.332 25.3887 135.698C27.0805 138.429 28.9898 141.064 31.1105 143.572C35.3761 148.569 40.5118 153.005 46.1792 156.758C46.7773 157.151 47.6292 157.054 48.0884 156.54C48.5355 156.033 48.4389 155.314 47.8709 154.915H47.8649C46.5175 153.966 45.1822 153.011 43.9074 152.002C43.2609 151.506 42.6386 150.987 42.0042 150.479C41.3939 149.953 40.7595 149.446 40.1674 148.902C37.7627 146.763 35.5332 144.478 33.5152 142.061C29.4489 137.251 26.1923 131.896 23.7272 126.343C22.5309 123.551 21.5763 120.693 20.8754 117.78C20.1806 114.867 19.7395 111.9 19.4978 108.908C19.0145 102.926 19.232 96.8645 19.4193 90.7851C19.6005 84.7057 19.7274 78.5961 19.5703 72.4865C19.4978 69.4347 19.3649 66.3829 19.1655 63.3372C19.0749 61.8143 18.954 60.2915 18.8332 58.7686C18.6942 57.2457 18.5492 55.7289 18.3921 54.206C17.7396 48.1266 16.8696 42.0714 15.776 36.0464C14.6522 30.0275 13.3471 24.0327 11.7701 18.0983C11.7279 17.9291 11.5285 17.8204 11.3351 17.8627C11.1418 17.8989 11.0209 18.0621 11.0572 18.2253Z" fill="white"/>
<path d="M46.1425 145.717C45.1758 147.693 42.5113 148.038 41.0491 146.4C32.9952 137.335 12.531 109.658 19.2678 68.3411C24.9533 33.4541 24.7237 13.9952 24.0047 5.1662C23.8537 3.29887 26.1738 2.32593 27.4003 3.73398C40.9766 19.3071 81.0893 74.1606 46.1425 145.717Z" fill="url(#paint2_linear)"/>
<path d="M43.1878 145.415C43.1394 145.439 43.0911 145.464 43.0367 145.476C42.5836 145.609 42.1063 145.349 41.9733 144.896C41.8223 144.382 26.8805 92.8038 32.5962 43.933C32.6506 43.4616 33.0795 43.1232 33.5508 43.1776C34.0221 43.232 34.3604 43.6611 34.3061 44.1324C28.6327 92.6466 43.4717 143.898 43.6228 144.412C43.7315 144.817 43.5442 145.234 43.1878 145.415Z" fill="white"/>
<path d="M42.9161 8.74351C42.2697 34.8982 40.1671 125.128 41.17 157.102C41.2788 160.493 43.9916 163.206 47.3751 163.321C64.1235 163.871 112.308 165.261 139.709 164.106C145.412 163.865 149.95 159.242 150.071 153.531C150.638 126.077 151.895 48.8518 148.91 13.4813C148.554 9.24509 145.225 5.86698 140.996 5.44396C122.755 3.6129 74.3102 -0.846932 50.6378 0.688023C46.3722 0.966006 43.0249 4.46498 42.9161 8.74351Z" fill="url(#paint3_linear)"/>
<path d="M49.7254 16.8722C48.807 38.289 45.925 109.562 46.8374 135.91C46.9703 139.759 50.0094 142.877 53.8521 143.101C69.6881 144.026 110.314 146.074 133.546 144.213C137.727 143.881 141.014 140.496 141.237 136.303C142.415 114.445 145.793 48.085 144.917 22.027C144.778 17.8693 141.557 14.4731 137.413 14.1044C120.278 12.5635 76.2678 8.90736 56.5287 9.98304C52.831 10.1885 49.8825 13.1617 49.7254 16.8722Z" fill="url(#paint4_linear)"/>
<path opacity="0.3" d="M55.6464 25.4592C54.8549 44.0358 52.3535 105.821 53.145 128.67C53.2598 132.012 55.8941 134.707 59.2293 134.906C72.9627 135.71 108.187 137.481 128.325 135.867C131.951 135.577 134.796 132.64 134.996 129.008C136.017 110.057 138.947 52.5264 138.186 29.9311C138.065 26.3294 135.274 23.3864 131.685 23.0601C116.827 21.7246 78.6724 18.5519 61.5555 19.4886C58.3411 19.6639 55.7854 22.2443 55.6464 25.4592Z" fill="white"/>
<path opacity="0.5" d="M84.3154 5.2631C84.3154 6.06684 84.9438 6.72554 85.7413 6.76784C89.6988 6.97331 100.84 7.55949 105.825 7.84956C106.81 7.90395 107.577 7.02165 107.39 6.05475L107.36 5.89159C107.233 5.23289 106.683 4.73735 106.018 4.67692C102.653 4.36872 92.4902 3.5106 85.7595 3.75232C84.9498 3.78254 84.3154 4.45332 84.3154 5.2631Z" fill="#3F67F9"/>
<path d="M119.426 59.4215C123.42 60.7449 127.474 62.304 131.389 63.6154C133.353 64.262 135.298 64.8784 137.153 65.3619C138.084 65.5976 138.978 65.7547 139.8 65.8937C140.609 66.0266 141.364 66.0447 141.727 66.0327C141.787 66.0206 141.715 66.1656 141.685 66.2079C141.667 66.2321 142.452 65.5311 142.694 65.3196L143.473 64.3466C144.524 62.9023 145.558 61.1317 146.524 59.3127C148.506 55.6566 150.355 51.6742 152.476 47.7764L152.494 47.7462C152.899 46.9968 153.835 46.7249 154.584 47.1298C155.08 47.4017 155.364 47.8972 155.388 48.423C155.485 50.7677 155.303 53.0218 155.043 55.3122C154.892 56.4422 154.723 57.5844 154.524 58.7205C154.282 59.8505 154.047 60.9806 153.75 62.1228C153.122 64.3889 152.397 66.6672 151.213 69.0059C150.874 69.5981 150.548 70.1903 150.186 70.7886C149.714 71.411 149.328 72.0033 148.754 72.6318C148.434 72.952 148.107 73.2723 147.769 73.5805C147.582 73.7437 147.467 73.8766 147.219 74.0519C146.953 74.2332 146.675 74.4084 146.397 74.5716C145.817 74.9221 145.346 75.0671 144.79 75.2847C144.301 75.4418 143.824 75.5566 143.346 75.6594C141.534 75.9917 140.059 75.9192 138.694 75.7983C137.328 75.6714 136.06 75.4237 134.845 75.1396C132.422 74.5776 130.163 73.8404 127.994 72.9762C123.637 71.2479 119.625 69.2113 115.753 66.5826C113.898 65.3196 113.408 62.7996 114.665 60.9443C115.704 59.4094 117.613 58.8172 119.293 59.3731L119.426 59.4215Z" fill="url(#paint5_linear)"/>
<path d="M109.626 22.9092C109.626 22.9092 100.128 25.4836 97.6082 30.0401C95.5842 33.6962 85.8747 32.3727 83.47 39.8541C82.2254 43.7217 78.6968 46.3323 74.6427 46.1873C64.5405 45.8247 48.4386 48.0486 42.7833 64.637C38.4633 77.2973 44.1609 83.4915 50.795 86.5252C55.6709 88.7491 58.1239 94.3692 56.1059 99.3366C54.1725 104.099 54.5652 110.105 62.2808 116.263C79.5729 130.06 105.257 99.536 105.257 99.536L120.525 40.6155L109.626 22.9092Z" fill="url(#paint6_linear)"/>
<path d="M104.133 180H111.039C112.145 165.931 113.855 148.618 113.855 148.618L112.93 143.167L106.441 147.615L103.608 152.945C102.635 154.776 102.206 156.855 102.381 158.921L104.133 180Z" fill="url(#paint7_linear)"/>
<path d="M76.7092 180C82.9203 167.055 94.1463 145.753 94.1463 145.753C89.9955 140.653 84.7933 145.753 84.7933 145.753C77.2107 151.555 75.247 157.852 73.5069 163.653C72.504 167.007 71.0176 173.987 69.6582 180H76.7092Z" fill="url(#paint8_linear)"/>
<path d="M98.4365 58.1578C104.285 52.5437 113.88 49.3167 117.819 48.1685C118.937 47.8421 120.145 48.0899 121.052 48.8272C124.405 51.5768 132.302 58.7742 131.081 64.6723C130.175 69.0415 121.922 90.8572 121.922 90.8572C121.922 90.8572 114.291 94.471 105.633 89.2678C110.321 69.398 98.4365 58.1578 98.4365 58.1578Z" fill="url(#paint9_linear)"/>
<path d="M95.2333 99.0823C97.1425 93.3293 105.632 89.2441 105.632 89.2441C114.29 94.4412 121.921 90.8335 121.921 90.8335C121.921 90.8335 123.631 97.3782 122.452 103.458C121.268 109.537 113.861 148.624 113.861 148.624C102.182 150.993 84.2188 146.243 84.2188 146.243C91.6504 133.027 93.324 104.829 95.2333 99.0823Z" fill="url(#paint10_linear)"/>
<path d="M111.07 34.5239L107.257 51.6502C106.895 53.161 108.266 52.9132 109.795 52.6231C112.29 52.1518 115.51 51.1849 116.586 49.239C116.695 49.0396 116.749 48.816 116.779 48.5924L118.417 36.7176C118.549 35.7749 118.036 34.8624 117.166 34.4756L114.006 33.0736C112.791 32.5358 111.384 33.2247 111.07 34.5239Z" fill="url(#paint11_linear)"/>
<path d="M119.51 24.3595C119.51 24.3595 122.984 27.8162 123.389 35.0196C123.794 42.223 120.543 44.1568 117.716 43.4619C114.888 42.7669 110.918 41.099 108.272 35.4849C105.632 29.8769 114.912 20.0689 119.51 24.3595Z" fill="url(#paint12_linear)"/>
<path d="M112.423 33.3998C112.423 33.3998 112.834 23.2715 120.725 26.3294L122.054 28.3659C122.054 28.3659 126.912 24.6191 123.13 20.3648C119.348 16.1165 113.034 15.8204 108.454 21.38C103.874 26.9397 101.143 31.4539 103.928 35.4605C107.499 40.5911 109.276 33.7503 109.276 33.7503C109.276 33.7503 108.146 33.3696 109.499 32.1489C110.859 30.9221 111.825 33.4542 111.825 33.4542L112.423 33.3998Z" fill="url(#paint13_linear)"/>
<path d="M111.861 34.463C111.861 34.463 112.103 29.2598 109.239 30.2147C106.375 31.1695 109.269 35.1277 110.472 36.5116L111.861 34.463Z" fill="url(#paint14_linear)"/>
<path d="M98.8048 58.1101C98.8048 58.1101 78.5943 99.6143 71.2715 103.246C71.2715 103.246 63.8398 104.026 59.2902 105.398C58.1483 105.742 58.1845 107.368 59.3386 107.682C62.5046 108.546 67.755 109.265 72.5645 106.655C72.5645 106.655 69.9785 110.528 71.489 112.039C71.489 112.039 74.9329 107.948 76.2259 106.655C77.3618 105.518 98.0616 82.9474 106.762 69.3382C107.463 68.2384 106.98 64.9691 106.49 63.7604C105.366 60.9745 102.871 56.5268 98.8048 58.1101Z" fill="url(#paint15_linear)"/>
<path d="M153.388 49.6739C153.388 49.6739 151.098 48.2961 152.808 45.0147C154.512 41.7333 154.735 37.8536 155.545 38.5123C156.354 39.171 156.318 40.6938 156.318 40.6938C156.318 40.6938 162.62 36.1675 162.813 37.2613C163.007 38.3491 164.855 38.5364 164.39 40.7664C163.925 42.9902 155.811 50.5623 153.388 49.6739Z" fill="url(#paint16_linear)"/>
<path d="M59.8464 96.2005C59.8887 96.2005 59.931 96.1884 59.9733 96.1582C60.8373 95.5056 62.3659 93.2817 62.1484 90.8342C62.0215 89.4322 61.2482 87.4501 58.2695 85.9574C57.3451 85.4921 56.3784 85.1477 55.4479 84.8153C53.7803 84.2231 52.2094 83.6611 50.8439 82.4826C48.8259 80.7483 47.7685 78.2524 47.0012 76.0346C45.7868 72.5296 45.9318 66.6376 47.3154 63.1809C51.4783 52.7807 67.695 51.0282 77.3802 49.9827L77.5011 49.9706C84.2077 49.2455 85.5611 45.8311 87.277 41.5042L87.5066 40.9301C89.301 36.4461 95.4518 35.3281 95.5182 35.316C95.633 35.2979 95.7055 35.1891 95.6874 35.0743C95.6693 34.9595 95.5605 34.887 95.4457 34.9051C95.1859 34.9535 88.9989 36.0835 87.1199 40.779L86.8903 41.3592C85.1623 45.7163 83.9116 48.8647 77.4527 49.5597L77.3319 49.5718C67.55 50.6293 51.1762 52.4 46.9227 63.0298C45.5088 66.565 45.3578 72.59 46.6024 76.1736C47.3879 78.4398 48.4694 81.0021 50.566 82.7969C51.9919 84.0236 53.6776 84.6219 55.3029 85.202C56.2273 85.5344 57.1819 85.8728 58.0822 86.3261C60.3358 87.4561 61.5624 88.985 61.7315 90.8705C61.937 93.1488 60.5231 95.2215 59.7196 95.8198C59.6289 95.8863 59.6108 96.0192 59.6773 96.1099C59.7196 96.1703 59.78 96.2005 59.8464 96.2005Z" fill="white"/>
<path d="M122.435 26.1903C122.502 26.1903 122.562 26.1601 122.604 26.1057C124.997 22.8424 121.142 19.8571 121.1 19.8269C121.009 19.7604 120.876 19.7725 120.81 19.8692C120.737 19.9598 120.756 20.0928 120.852 20.1593C120.997 20.268 124.417 22.927 122.272 25.8579C122.206 25.9486 122.224 26.0815 122.314 26.148C122.345 26.1782 122.393 26.1903 122.435 26.1903Z" fill="white"/>
<path d="M149.919 82.5062C149.919 82.5062 140.874 94.0848 151.194 105.863L155.073 105.5C155.073 105.5 147.605 93.5107 150.934 83.9505L156.426 84.3493L159.466 82.3672L149.919 82.5062Z" fill="url(#paint17_linear)"/>
<path d="M125.927 58.0738L166.336 55.9889C167.127 55.9466 167.798 56.424 167.822 57.0525L168.734 81.5272C168.758 82.1557 168.118 82.6875 167.32 82.7056C160.004 82.8567 127.522 83.5456 126.09 83.6605C124.676 83.7692 124.567 64.0807 124.567 59.222C124.567 58.6117 125.166 58.1101 125.927 58.0738Z" fill="url(#paint18_linear)"/>
<path d="M126.743 82.7655L126.712 82.6628C126.102 80.4269 125.703 71.2111 125.691 59.1913C125.691 59.0523 125.818 58.9314 125.975 58.9254L166.384 56.8405C166.481 56.8345 166.547 56.8707 166.589 56.9009C166.656 56.9493 166.692 57.0158 166.698 57.0943L167.611 81.569C167.617 81.714 167.49 81.8349 167.327 81.8409H167.321C161.502 81.9618 132.193 82.5842 126.851 82.7595L126.743 82.7655ZM166.402 57.1064L125.987 59.1913C125.969 59.1913 125.957 59.1973 125.957 59.2034C125.975 71.0117 126.356 80.1005 126.948 82.4876C132.567 82.3063 161.526 81.6899 167.315 81.569H167.321L166.432 57.1004C166.426 57.1125 166.42 57.1064 166.402 57.1064Z" fill="white"/>
<path d="M152.342 60.9018C152.372 61.5182 152.596 62.0137 152.85 62.0016L164.082 61.5001C164.335 61.488 164.517 60.9803 164.492 60.3579C164.462 59.7415 164.239 59.2459 163.985 59.258L152.753 59.7596C152.499 59.7717 152.312 60.2854 152.342 60.9018Z" fill="white"/>
<path d="M152.39 63.9483C152.402 64.2565 152.62 64.4983 152.874 64.4862L164.106 63.9846C164.359 63.9725 164.553 63.7127 164.541 63.4045C164.528 63.0963 164.311 62.8546 164.057 62.8666L152.825 63.3682C152.571 63.3803 152.378 63.6402 152.39 63.9483Z" fill="white"/>
<path d="M152.39 66.2862C152.402 66.5944 152.62 66.8362 152.874 66.8241L164.106 66.3225C164.359 66.3104 164.553 66.0506 164.541 65.7424C164.528 65.4342 164.311 65.1924 164.057 65.2045L152.825 65.7061C152.571 65.7122 152.378 65.972 152.39 66.2862Z" fill="white"/>
<path d="M137.002 79.8657C136.754 79.8657 136.591 79.8657 136.549 79.8657C136.277 79.8657 136.047 79.6603 136.017 79.3883L135.038 70.9521C135.02 70.8071 135.062 70.6681 135.153 70.5533C135.244 70.4385 135.371 70.372 135.516 70.3539C135.522 70.3539 136.325 70.2572 136.99 69.816C137.213 69.671 137.467 68.9881 137.697 68.3898C138.047 67.4652 138.482 66.317 139.28 65.4045C140.573 63.93 140.355 61.7061 140.331 61.4584C140.271 60.9145 140.688 60.1107 141.346 59.8569C141.751 59.6998 142.554 59.6213 143.431 60.8359C144.524 62.3527 144.047 64.3953 143.733 65.749C143.636 66.172 143.539 66.5648 143.527 66.8126C143.527 66.8428 143.527 66.8549 143.527 66.8549C143.745 67.018 145.026 66.8186 145.793 66.7038C146.192 66.6434 146.603 66.5769 146.995 66.5346C148.385 66.3714 150.022 66.4319 150.33 68.3475C150.457 69.1392 150.119 69.7314 149.781 70.1061C150.397 70.6318 150.711 71.2059 150.729 71.8223C150.741 72.3783 150.5 72.8376 150.246 73.1579C150.784 73.6594 151.013 74.3363 150.862 75.0735C150.759 75.5812 150.488 76.0344 150.125 76.3607C150.403 76.675 150.439 77.0134 150.433 77.1886C150.409 78.1253 149.279 79.056 147.751 79.4065C145.902 79.8355 138.881 79.8657 137.002 79.8657ZM136.162 71.3208L137.026 78.784C138.911 78.784 145.793 78.7478 147.503 78.355C148.717 78.077 149.34 77.4364 149.352 77.1524C149.352 77.0436 149.152 76.9107 148.85 76.8261C148.602 76.7535 148.439 76.5179 148.464 76.258C148.488 75.9981 148.693 75.7987 148.953 75.7745C149.321 75.7383 149.714 75.3213 149.805 74.856C149.871 74.5176 149.817 74.0462 149.164 73.7017C149.001 73.6171 148.892 73.4479 148.88 73.2606C148.868 73.0733 148.953 72.898 149.104 72.7892C149.104 72.7892 149.666 72.3602 149.654 71.8465C149.636 71.3449 149.086 70.8856 148.627 70.5956C148.47 70.4928 148.373 70.3176 148.379 70.1303C148.385 69.9429 148.488 69.7677 148.651 69.677C148.675 69.6589 149.382 69.2298 149.273 68.5228C149.189 67.9849 149.092 67.3806 147.122 67.6103C146.742 67.6526 146.349 67.713 145.962 67.7734C144.524 67.997 143.388 68.1723 142.796 67.6344C142.627 67.4834 142.434 67.2114 142.458 66.7703C142.476 66.4258 142.573 66.0028 142.687 65.5133C142.977 64.2805 143.37 62.5945 142.561 61.4765C142.246 61.0414 141.938 60.8057 141.751 60.8661C141.558 60.9266 141.4 61.2469 141.4 61.3556C141.437 61.6397 141.69 64.2986 140.089 66.1237C139.419 66.8911 139.038 67.8943 138.706 68.7826C138.367 69.677 138.102 70.3841 137.588 70.7225C137.087 71.0488 136.549 71.2241 136.162 71.3208Z" fill="white"/>
<path d="M154.874 139.197C154.874 139.197 162.203 155.169 166.046 161.781C166.046 161.781 166.807 165.944 166.046 167.25L165.393 167.54L168.432 167.449C168.432 167.449 168.704 161.853 168.493 161.539C168.281 161.225 167.858 161.249 167.858 161.249C167.858 161.249 166.559 150.933 162.783 148.727L159.128 136.14L154.874 139.197Z" fill="url(#paint19_linear)"/>
<path d="M164.094 168.325C164.088 168.397 166.462 168.367 167.755 168.343C168.233 168.337 168.637 167.998 168.74 167.533L169.713 162.414C169.803 161.925 169.495 161.453 169.012 161.345L168.468 161.218C168.468 161.218 167.695 162.281 167.936 163.285C168.178 164.288 168.396 166.886 167.779 167.188C167.163 167.491 165.387 167.545 165.387 167.545C165.387 167.545 164.136 167.666 164.094 168.325Z" fill="url(#paint20_linear)"/>
<path d="M147.932 168.421C147.69 168.56 147.793 168.922 148.065 168.922C150.222 168.898 155.061 168.832 155.49 168.657C156.046 168.427 155.291 166.433 154.494 165.756L150.095 167.194L147.932 168.421Z" fill="url(#paint21_linear)"/>
<path d="M146.561 138.176C146.561 138.176 151.297 161.085 152.633 165.551L149.467 167.539C149.467 167.539 151.056 167.267 152.234 167.183C153.412 167.098 154.494 165.745 154.494 165.745L154.113 165.14C154.113 165.14 152.929 142.358 153.213 139.771L146.561 138.176Z" fill="url(#paint22_linear)"/>
<path d="M134.808 84.7478C134.808 84.7478 134.156 96.6648 145.001 102.75L142.391 108.709C142.391 108.709 132.573 102.768 132.935 86.5668C132.947 86.1014 132.778 85.6482 132.476 85.2977L130.391 82.8744C129.594 81.9498 129.298 80.6989 129.594 79.5205L129.866 78.4206C129.956 78.052 130.379 77.8768 130.706 78.0641L130.923 78.191C131.618 78.5959 132.168 79.2062 132.494 79.9375L133.521 82.2278C133.902 83.0859 134.784 83.6056 135.72 83.521L136.355 83.4666L134.808 84.7478Z" fill="url(#paint23_linear)"/>
<path d="M144.627 101.857C146.44 102.358 152.59 103.978 156.427 103.911L154.071 117.212L154.258 119.382L146.579 119.351C146.579 119.351 144.416 114.33 142.712 111.822C142.216 111.097 142.585 110.238 142.863 109.404L142.476 109.151C142.083 108.891 141.914 108.401 142.059 107.954L143.932 102.231C144.029 101.941 144.331 101.778 144.627 101.857Z" fill="url(#paint24_linear)"/>
<path d="M145.962 118.215L146.113 119.527C146.113 119.527 143.944 126.029 147.201 141.221C147.201 141.221 154.251 143.222 160.052 138.436C160.052 138.436 158.414 124.101 157.967 123.431C155.744 120.107 154.258 119.382 154.258 119.382L154.191 117.943C154.191 117.949 147.992 119.067 145.962 118.215Z" fill="url(#paint25_linear)"/>
<path d="M148.965 102.932C148.941 102.896 150.566 98.0068 150.566 98.0068L152.905 98.2183L153.817 103.766C153.823 103.766 150.161 104.503 148.965 102.932Z" fill="url(#paint26_linear)"/>
<path d="M152.348 90.296C152.191 90.3927 147.357 92.393 148.396 97.4148C148.457 97.7109 148.656 97.9647 148.934 98.0856C149.641 98.3998 151.17 98.9437 153 98.7564C155.532 98.4965 157.193 94.079 157.121 92.7918C157.048 91.5046 153.888 89.3352 152.348 90.296Z" fill="url(#paint27_linear)"/>
<path d="M153.823 88.3436C153.696 88.3617 151.025 89.2924 152.348 91.2201C153.672 93.1539 154.167 94.29 153.545 95.1421C152.977 95.9156 151.714 95.4745 151.823 97.082C151.847 97.4022 151.708 97.7165 151.436 97.8978C150.246 98.7015 147.346 101.185 150.222 104.72C150.457 105.011 150.506 105.403 150.324 105.73C149.485 107.24 147.714 111.67 154.119 114.124C160.451 116.553 162.735 112.413 163.375 110.758C163.514 110.401 163.865 110.183 164.251 110.202C164.946 110.232 165.931 110.117 165.889 109.186C165.858 108.624 165.508 108.117 165.091 107.712C164.68 107.313 164.759 106.606 165.26 106.322C165.641 106.104 165.973 105.772 166.112 105.246C166.499 103.826 165.731 99.5717 161.653 98.8526C161.315 98.7922 160.958 98.4719 160.91 98.1335C160.91 98.1274 160.91 98.1214 160.91 98.1153C160.856 97.783 160.964 97.4446 161.236 97.2512C161.889 96.7738 162.723 95.8129 162.046 94.2719C161.448 92.9062 160.294 92.4409 159.436 92.2958C158.934 92.2112 158.602 91.7338 158.711 91.2322C158.989 89.8786 158.735 87.697 153.823 88.3436Z" fill="url(#paint28_linear)"/>
<defs>
<linearGradient id="paint0_linear" x1="191.254" y1="217.26" x2="43.4295" y2="33.7065" gradientUnits="userSpaceOnUse">
<stop stop-color="#B37CFF"/>
<stop offset="1" stop-color="#F895E7"/>
</linearGradient>
<linearGradient id="paint1_linear" x1="-20.8824" y1="59.5738" x2="80.2142" y2="101.389" gradientUnits="userSpaceOnUse">
<stop stop-color="#A737D5"/>
<stop offset="1" stop-color="#EF497A"/>
</linearGradient>
<linearGradient id="paint2_linear" x1="11.3613" y1="134.841" x2="58.9727" y2="16.1608" gradientUnits="userSpaceOnUse">
<stop stop-color="#CE1567"/>
<stop offset="1" stop-color="#7A1DBC"/>
</linearGradient>
<linearGradient id="paint3_linear" x1="40.9047" y1="82.4592" x2="150.826" y2="82.4592" gradientUnits="userSpaceOnUse">
<stop stop-color="#2B3582"/>
<stop offset="1" stop-color="#150E42"/>
</linearGradient>
<linearGradient id="paint4_linear" x1="130.957" y1="28.809" x2="-10.069" y2="219.2" gradientUnits="userSpaceOnUse">
<stop stop-color="#53D8FF"/>
<stop offset="1" stop-color="#3840F7"/>
</linearGradient>
<linearGradient id="paint5_linear" x1="169.294" y1="332.205" x2="176.361" y2="390.024" gradientUnits="userSpaceOnUse">
<stop stop-color="#F9B776"/>
<stop offset="1" stop-color="#F47960"/>
</linearGradient>
<linearGradient id="paint6_linear" x1="248.099" y1="-86.2396" x2="191.295" y2="-31.9526" gradientUnits="userSpaceOnUse">
<stop stop-color="#2B3582"/>
<stop offset="1" stop-color="#150E42"/>
</linearGradient>
<linearGradient id="paint7_linear" x1="115.923" y1="245.33" x2="100.686" y2="67.2804" gradientUnits="userSpaceOnUse">
<stop stop-color="#F9B776"/>
<stop offset="1" stop-color="#F47960"/>
</linearGradient>
<linearGradient id="paint8_linear" x1="89.1517" y1="247.649" x2="73.9105" y2="69.5515" gradientUnits="userSpaceOnUse">
<stop stop-color="#F9B776"/>
<stop offset="1" stop-color="#F47960"/>
</linearGradient>
<linearGradient id="paint9_linear" x1="114.263" y1="66.1481" x2="106.713" y2="136.183" gradientUnits="userSpaceOnUse">
<stop stop-color="#FDF53F"/>
<stop offset="0.6645" stop-color="#E57A58"/>
<stop offset="1" stop-color="#D93C65"/>
</linearGradient>
<linearGradient id="paint10_linear" x1="53.0929" y1="192.053" x2="113.202" y2="111.923" gradientUnits="userSpaceOnUse">
<stop stop-color="#CB236D"/>
<stop offset="1" stop-color="#4C246D"/>
</linearGradient>
<linearGradient id="paint11_linear" x1="116.334" y1="69.9337" x2="113.472" y2="48.9982" gradientUnits="userSpaceOnUse">
<stop stop-color="#F9B776"/>
<stop offset="1" stop-color="#F47960"/>
</linearGradient>
<linearGradient id="paint12_linear" x1="117.695" y1="50.2921" x2="111.157" y2="-0.256909" gradientUnits="userSpaceOnUse">
<stop stop-color="#F9B776"/>
<stop offset="1" stop-color="#F47960"/>
</linearGradient>
<linearGradient id="paint13_linear" x1="237.175" y1="-91.7455" x2="180.911" y2="-37.9744" gradientUnits="userSpaceOnUse">
<stop stop-color="#2B3582"/>
<stop offset="1" stop-color="#150E42"/>
</linearGradient>
<linearGradient id="paint14_linear" x1="112.368" y1="51.5042" x2="105.83" y2="0.955897" gradientUnits="userSpaceOnUse">
<stop stop-color="#F9B776"/>
<stop offset="1" stop-color="#F47960"/>
</linearGradient>
<linearGradient id="paint15_linear" x1="58.4572" y1="84.9111" x2="107.116" y2="84.9111" gradientUnits="userSpaceOnUse">
<stop stop-color="#F9B776"/>
<stop offset="1" stop-color="#F47960"/>
</linearGradient>
<linearGradient id="paint16_linear" x1="575.528" y1="8.32392" x2="637.461" y2="3.11759" gradientUnits="userSpaceOnUse">
<stop stop-color="#F9B776"/>
<stop offset="1" stop-color="#F47960"/>
</linearGradient>
<linearGradient id="paint17_linear" x1="152.406" y1="113.101" x2="153.019" y2="79.066" gradientUnits="userSpaceOnUse">
<stop stop-color="#F9B776"/>
<stop offset="1" stop-color="#F47960"/>
</linearGradient>
<linearGradient id="paint18_linear" x1="117.837" y1="94.2998" x2="161.069" y2="58.4327" gradientUnits="userSpaceOnUse">
<stop stop-color="#A737D5"/>
<stop offset="1" stop-color="#EF497A"/>
</linearGradient>
<linearGradient id="paint19_linear" x1="154.873" y1="151.843" x2="168.568" y2="151.843" gradientUnits="userSpaceOnUse">
<stop stop-color="#F9B776"/>
<stop offset="1" stop-color="#F47960"/>
</linearGradient>
<linearGradient id="paint20_linear" x1="173.697" y1="121.209" x2="166.912" y2="165.302" gradientUnits="userSpaceOnUse">
<stop stop-color="#53D8FF"/>
<stop offset="1" stop-color="#3840F7"/>
</linearGradient>
<linearGradient id="paint21_linear" x1="159.347" y1="119.001" x2="152.562" y2="163.094" gradientUnits="userSpaceOnUse">
<stop stop-color="#53D8FF"/>
<stop offset="1" stop-color="#3840F7"/>
</linearGradient>
<linearGradient id="paint22_linear" x1="146.563" y1="152.861" x2="154.494" y2="152.861" gradientUnits="userSpaceOnUse">
<stop stop-color="#F9B776"/>
<stop offset="1" stop-color="#F47960"/>
</linearGradient>
<linearGradient id="paint23_linear" x1="149.695" y1="113.838" x2="128.23" y2="79.8064" gradientUnits="userSpaceOnUse">
<stop stop-color="#F9B776"/>
<stop offset="1" stop-color="#F47960"/>
</linearGradient>
<linearGradient id="paint24_linear" x1="146.492" y1="101.79" x2="175.609" y2="159.446" gradientUnits="userSpaceOnUse">
<stop stop-color="#FDF53F"/>
<stop offset="1" stop-color="#D93C65"/>
</linearGradient>
<linearGradient id="paint25_linear" x1="166.159" y1="107.127" x2="144.08" y2="142.692" gradientUnits="userSpaceOnUse">
<stop stop-color="#CB236D"/>
<stop offset="1" stop-color="#4C246D"/>
</linearGradient>
<linearGradient id="paint26_linear" x1="148.967" y1="100.972" x2="153.82" y2="100.972" gradientUnits="userSpaceOnUse">
<stop stop-color="#F9B776"/>
<stop offset="1" stop-color="#F47960"/>
</linearGradient>
<linearGradient id="paint27_linear" x1="156.679" y1="94.6995" x2="192.004" y2="97.1011" gradientUnits="userSpaceOnUse">
<stop stop-color="#F9B776"/>
<stop offset="1" stop-color="#F47960"/>
</linearGradient>
<linearGradient id="paint28_linear" x1="162.486" y1="92.5694" x2="150.048" y2="117.44" gradientUnits="userSpaceOnUse">
<stop stop-color="#CB236D"/>
<stop offset="1" stop-color="#4C246D"/>
</linearGradient>
</defs>
</svg>
