<svg width="114" height="20" viewBox="0 0 114 20" fill="none" xmlns="http://www.w3.org/2000/svg">
<g clip-path="url(#clip0)">
<path d="M22.9683 19.7032L26.2707 0.333984H31.5397L28.2373 19.7032H22.9683Z" fill="#0058A0"/>
<path d="M47.3842 0.816327C46.3452 0.408163 44.7126 0 42.6718 0C37.4399 0 33.7664 2.63451 33.7664 6.38219C33.7293 9.16512 36.4009 10.7236 38.4046 11.6512C40.4454 12.616 41.1504 13.2096 41.1504 14.0631C41.1504 15.3618 39.5178 15.9555 37.9964 15.9555C35.8814 15.9555 34.7682 15.6586 33.0243 14.9536L32.2822 14.6197L31.54 18.961C32.7645 19.5176 35.0651 19.9629 37.4399 20C43.0057 20 46.605 17.4026 46.6421 13.3952C46.6792 11.2059 45.2692 9.49907 42.2265 8.12616C40.3712 7.23562 39.258 6.64193 39.258 5.71429C39.258 4.89796 40.2228 4.04453 42.2636 4.04453C44.0076 4.00742 45.2321 4.37848 46.1968 4.78664L46.6792 5.00928L47.3842 0.816327Z" fill="#0058A0"/>
<path d="M60.9277 0.371094H56.8461C55.5845 0.371094 54.6198 0.705046 54.0632 1.96664L46.2339 19.7032H51.7626C51.7626 19.7032 52.6532 17.3284 52.8758 16.8089C53.4695 16.8089 58.8498 16.8089 59.629 16.8089C59.7775 17.4768 60.2598 19.7032 60.2598 19.7032H65.1578L60.9277 0.371094ZM54.4342 12.8386C54.8795 11.7255 56.5493 7.42119 56.5493 7.42119C56.5122 7.45829 56.9945 6.30801 57.2543 5.5659L57.6253 7.23566C57.6253 7.23566 58.6272 11.8739 58.8498 12.8386H54.4342Z" fill="#0058A0"/>
<path d="M18.5529 0.333984L13.3581 13.5436L12.8015 10.872C11.8739 7.79224 8.86833 4.41562 5.52881 2.74586L10.2412 19.7032H15.8442L24.1559 0.333984H18.5529Z" fill="#0058A0"/>
<path d="M8.57143 0.333984H0.0742115L0 0.742148C6.64193 2.3377 11.0204 6.2338 12.8386 10.872L10.9833 1.96664C10.6494 0.742148 9.72171 0.37109 8.57143 0.333984Z" fill="#FAA61A"/>
</g>
<g clip-path="url(#clip1)">
<path fill-rule="evenodd" clip-rule="evenodd" d="M103.588 20L104.105 19.9821L104.605 19.9464L105.105 19.875L105.605 19.7857L106.088 19.6786L106.57 19.5536L107.034 19.3929L107.48 19.2143L107.927 19L108.355 18.7857L108.784 18.5536L109.195 18.2857L109.588 18L109.963 17.7143L110.32 17.3929L110.677 17.0536L110.998 16.7143L111.32 16.3571L111.605 15.9643L111.891 15.5893L112.159 15.1786L112.391 14.75L112.623 14.3214L112.82 13.875L112.998 13.4286L113.159 12.9643L113.284 12.4821L113.409 12L113.48 11.5L113.552 11L113.588 10.5L113.605 9.98214L113.588 9.46429L113.552 8.96429L113.48 8.46429L113.409 7.96429L113.284 7.48214L113.159 7.01786L112.998 6.55357L112.82 6.10714L112.623 5.66071L112.391 5.23214L112.159 4.82143L111.891 4.41071L111.605 4.01786L111.32 3.64286L110.998 3.26786L110.677 2.92857L110.32 2.58929L109.963 2.28571L109.588 1.98214L109.195 1.71429L108.784 1.44643L108.355 1.21429L107.927 0.982143L107.48 0.785714L107.034 0.607143L106.57 0.446429L106.088 0.321429L105.605 0.196429L105.105 0.107143L104.605 0.0535714L104.105 0.0178571L103.588 0L103.07 0.0178571L102.57 0.0535714L102.07 0.107143L101.57 0.196429L101.088 0.321429L100.623 0.446429L100.159 0.607143L99.6948 0.785714L99.2483 0.982143L98.8198 1.21429L98.409 1.44643L97.9983 1.71429L97.6055 1.98214L97.2305 2.28571L96.8733 2.58929L96.534 2.92857L96.1948 3.26786L95.8912 3.64286L95.5876 4.01786L95.3019 4.41071L95.0519 4.82143L94.8198 5.23214L94.5876 5.66071L94.3912 6.10714L94.2126 6.55357L94.0519 7.01786L93.9269 7.48214L93.8019 7.96429L93.7305 8.46429L93.659 8.96429L93.6233 9.46429L93.6055 9.98214L93.6233 10.5L93.659 11L93.7305 11.5L93.8019 12L93.9269 12.4821L94.0519 12.9643L94.2126 13.4286L94.3912 13.875L94.5876 14.3214L94.8198 14.75L95.0519 15.1786L95.3019 15.5893L95.5876 15.9643L95.8912 16.3571L96.1948 16.7143L96.534 17.0536L96.8733 17.3929L97.2305 17.7143L97.6055 18L97.9983 18.2857L98.409 18.5536L98.8198 18.7857L99.2483 19L99.6948 19.2143L100.159 19.3929L100.623 19.5536L101.088 19.6786L101.57 19.7857L102.07 19.875L102.57 19.9464L103.07 19.9821L103.588 20Z" fill="#FCB331"/>
<path fill-rule="evenodd" clip-rule="evenodd" d="M90.2127 20L90.7305 19.9821L91.2305 19.9464L91.7305 19.875L92.2305 19.7857L92.7127 19.6786L93.177 19.5536L93.6413 19.3929L94.1055 19.2143L94.5341 19L94.9627 18.7857L95.3913 18.5536L95.7841 18.2857L96.177 18L96.5698 17.7143L96.927 17.3929L97.2663 17.0536L97.6055 16.7143L97.9091 16.3571L98.2127 15.9643L98.4805 15.5893L98.7484 15.1786L98.9805 14.75L99.2127 14.3214L99.4091 13.875L99.5877 13.4286L99.7484 12.9643L99.8734 12.4821L99.9805 12L100.07 11.5L100.141 11L100.177 10.5L100.195 9.98214L100.177 9.46429L100.141 8.96429L100.07 8.46429L99.9805 7.96429L99.8734 7.48214L99.7484 7.01786L99.5877 6.55357L99.4091 6.10714L99.2127 5.66071L98.9805 5.23214L98.7484 4.82143L98.4805 4.41071L98.2127 4.01786L97.9091 3.64286L97.6055 3.26786L97.2663 2.92857L96.927 2.58929L96.5698 2.28571L96.177 1.98214L95.7841 1.71429L95.3913 1.44643L94.9627 1.21429L94.5341 0.982143L94.1055 0.785714L93.6413 0.607143L93.177 0.446429L92.7127 0.321429L92.2305 0.196429L91.7305 0.107143L91.2305 0.0535714L90.7305 0.0178571L90.2127 0L89.6948 0.0178571L89.1948 0.0535714L88.6948 0.107143L88.1948 0.196429L87.7127 0.321429L87.2305 0.446429L86.7663 0.607143L86.3198 0.785714L85.8734 0.982143L85.427 1.21429L85.0163 1.44643L84.6055 1.71429L84.2127 1.98214L83.8377 2.28571L83.4805 2.58929L83.1234 2.92857L82.802 3.26786L82.4805 3.64286L82.177 4.01786L81.9091 4.41071L81.6413 4.82143L81.4091 5.23214L81.177 5.66071L80.9805 6.10714L80.802 6.55357L80.6413 7.01786L80.5163 7.48214L80.3913 7.96429L80.302 8.46429L80.2484 8.96429L80.2127 9.46429L80.1948 9.98214L80.2127 10.5L80.2484 11L80.302 11.5L80.3913 12L80.5163 12.4821L80.6413 12.9643L80.802 13.4286L80.9805 13.875L81.177 14.3214L81.4091 14.75L81.6413 15.1786L81.9091 15.5893L82.177 15.9643L82.4805 16.3571L82.802 16.7143L83.1234 17.0536L83.4805 17.3929L83.8377 17.7143L84.2127 18L84.6055 18.2857L85.0163 18.5536L85.427 18.7857L85.8734 19L86.3198 19.2143L86.7663 19.3929L87.2305 19.5536L87.7127 19.6786L88.1948 19.7857L88.6948 19.875L89.1948 19.9464L89.6948 19.9821L90.2127 20Z" fill="#ED1B2E"/>
<path fill-rule="evenodd" clip-rule="evenodd" d="M95.7305 3.8397H101.034V3.28613H96.1948L95.7305 3.8397Z" fill="#FCB331"/>
<path fill-rule="evenodd" clip-rule="evenodd" d="M94.9268 5.03572H101.034V4.5H95.2482L94.9268 5.03572Z" fill="#FCB331"/>
<path fill-rule="evenodd" clip-rule="evenodd" d="M94.3379 6.24986H101.034V5.69629H94.57L94.3379 6.24986Z" fill="#FCB331"/>
<path fill-rule="evenodd" clip-rule="evenodd" d="M93.9272 7.44587H101.034V6.91016H94.1058L93.9272 7.44587Z" fill="#FCB331"/>
<path fill-rule="evenodd" clip-rule="evenodd" d="M94.1592 13.2857H101.052V12.75H93.9985L94.1592 13.2857Z" fill="#FCB331"/>
<path fill-rule="evenodd" clip-rule="evenodd" d="M94.6768 14.4999H101.052V13.9463H94.4268L94.6768 14.4999Z" fill="#FCB331"/>
<path fill-rule="evenodd" clip-rule="evenodd" d="M95.391 15.6968H101.052V15.1611H95.0518L95.391 15.6968Z" fill="#FCB331"/>
<path fill-rule="evenodd" clip-rule="evenodd" d="M96.3735 16.911H101.052V16.3574H95.9092L96.3735 16.911Z" fill="#FCB331"/>
<path fill-rule="evenodd" clip-rule="evenodd" d="M93.6948 8.66099H101.034V8.10742H93.802L93.6948 8.66099Z" fill="#FCB331"/>
<path fill-rule="evenodd" clip-rule="evenodd" d="M98.1768 12.0897H100.98V11.5361H98.266L98.1768 12.0897Z" fill="#FCB331"/>
<path fill-rule="evenodd" clip-rule="evenodd" d="M98.3916 10.8746H100.981V10.3389H98.4987L98.3916 10.8746Z" fill="#FCB331"/>
<path fill-rule="evenodd" clip-rule="evenodd" d="M93.4985 10.3389H94.2307V10.8746H93.5342L93.4985 10.3389Z" fill="#FCB331"/>
<path fill-rule="evenodd" clip-rule="evenodd" d="M92.1413 9.67843H92.1055L92.052 9.66057H92.0163H91.9627L91.927 9.64272H91.8734L91.8377 9.62486H91.7841H91.7484L91.6948 9.607H91.6234H91.5698H91.4984H91.4091L91.3198 9.62486H91.2305L91.1591 9.64272H91.1055L91.0341 9.66057L90.9984 9.67843L90.9448 9.71415L90.8913 9.732L90.8734 9.76772L90.8377 9.80343L90.8198 9.83915L90.802 9.87486L90.7841 9.91057V9.96415L90.802 9.99986L90.8198 10.0356L90.8377 10.0891L90.8734 10.1249L90.9448 10.1963L91.0163 10.2499L91.1234 10.2856L91.2127 10.3213L91.3198 10.357L91.4448 10.3927L91.552 10.4463L91.6591 10.482L91.7663 10.5356L91.8555 10.607L91.9448 10.6963L92.0163 10.8034L92.0698 10.9284L92.0877 11.0713L92.1055 11.2677L92.0877 11.482L92.0698 11.6249L92.0341 11.7677L91.9805 11.8927L91.9091 12.0177L91.8377 12.107L91.7484 12.1963L91.6591 12.2677L91.552 12.3213L91.4448 12.3749L91.3198 12.4284L91.2127 12.4641L91.0877 12.482L90.9805 12.4999L90.8734 12.5177H90.7663H90.6591H90.5163H90.3734H90.2484H90.1413H90.0341L89.9448 12.4999H89.8734H89.7841L89.7305 12.482L89.6591 12.4641H89.5877L89.5341 12.4463L89.4805 12.4284L89.427 12.4106L89.3734 12.3927L89.3198 12.3749L89.4627 11.6249H89.4984L89.5341 11.6427L89.5877 11.6606H89.6413L89.6948 11.6784L89.7663 11.6963L89.8377 11.7141L89.927 11.732H89.9984L90.0877 11.7499L90.177 11.7677H90.2841L90.3734 11.7856H90.4805H90.5698H90.677L90.7663 11.7499L90.8377 11.732L90.9091 11.6963L90.9448 11.6427L90.9805 11.5891L91.0163 11.5356L91.0341 11.482L91.052 11.4463V11.3391L91.0163 11.2499L90.9627 11.1963L90.8734 11.1249L90.7841 11.0891L90.6591 11.0356L90.5341 10.982L90.3913 10.9284L90.2663 10.8749L90.1413 10.8034L90.0163 10.7141L89.9091 10.607L89.8198 10.482L89.7663 10.3213L89.7305 10.1427V9.92843L89.7484 9.80343L89.7841 9.67843L89.802 9.55343L89.8555 9.44629L89.9091 9.357L89.9627 9.26772L90.0341 9.17843L90.1234 9.107L90.2127 9.03557L90.3198 8.982L90.4448 8.92843L90.5877 8.89272L90.7305 8.87486L90.8913 8.83915L91.0877 8.82129H91.2841H91.4091H91.5163L91.6234 8.83915H91.7127H91.802L91.8734 8.857H91.9448H92.0163L92.0698 8.87486H92.1055L92.1591 8.89272H92.1948H92.2305L92.2663 8.91057H92.2841H92.3198L92.1413 9.67843Z" fill="white"/>
<path d="M92.1413 9.67843H92.1055L92.052 9.66057H92.0163H91.9627L91.927 9.64272H91.8734L91.8377 9.62486H91.7841H91.7484L91.6948 9.607H91.6234H91.5698H91.4984H91.4091L91.3198 9.62486H91.2305L91.1591 9.64272H91.1055L91.0341 9.66057L90.9984 9.67843L90.9448 9.71415L90.8913 9.732L90.8734 9.76772L90.8377 9.80343L90.8198 9.83915L90.802 9.87486L90.7841 9.91057V9.96415L90.802 9.99986L90.8198 10.0356L90.8377 10.0891L90.8734 10.1249L90.9448 10.1963L91.0163 10.2499L91.1234 10.2856L91.2127 10.3213L91.3198 10.357L91.4448 10.3927L91.552 10.4463L91.6591 10.482L91.7663 10.5356L91.8555 10.607L91.9448 10.6963L92.0163 10.8034L92.0698 10.9284L92.0877 11.0713L92.1055 11.2677L92.0877 11.482L92.0698 11.6249L92.0341 11.7677L91.9805 11.8927L91.9091 12.0177L91.8377 12.107L91.7484 12.1963L91.6591 12.2677L91.552 12.3213L91.4448 12.3749L91.3198 12.4284L91.2127 12.4641L91.0877 12.482L90.9805 12.4999L90.8734 12.5177H90.7663H90.6591H90.5163H90.3734H90.2484H90.1413H90.0341L89.9448 12.4999H89.8734H89.7841L89.7305 12.482L89.6591 12.4641H89.5877L89.5341 12.4463L89.4805 12.4284L89.427 12.4106L89.3734 12.3927L89.3198 12.3749L89.4627 11.6249H89.4984L89.5341 11.6427L89.5877 11.6606H89.6413L89.6948 11.6784L89.7663 11.6963L89.8377 11.7141L89.927 11.732H89.9984L90.0877 11.7499L90.177 11.7677H90.2841L90.3734 11.7856H90.4805H90.5698H90.677L90.7663 11.7499L90.8377 11.732L90.9091 11.6963L90.9448 11.6427L90.9805 11.5891L91.0163 11.5356L91.0341 11.482L91.052 11.4463V11.3391L91.0163 11.2499L90.9627 11.1963L90.8734 11.1249L90.7841 11.0891L90.6591 11.0356L90.5341 10.982L90.3913 10.9284L90.2663 10.8749L90.1413 10.8034L90.0163 10.7141L89.9091 10.607L89.8198 10.482L89.7663 10.3213L89.7305 10.1427V9.92843L89.7484 9.80343L89.7841 9.67843L89.802 9.55343L89.8555 9.44629L89.9091 9.357L89.9627 9.26772L90.0341 9.17843L90.1234 9.107L90.2127 9.03557L90.3198 8.982L90.4448 8.92843L90.5877 8.89272L90.7305 8.87486L90.8913 8.83915L91.0877 8.82129H91.2841H91.4091H91.5163L91.6234 8.83915H91.7127H91.802L91.8734 8.857H91.9448H92.0163L92.0698 8.87486H92.1055L92.1591 8.89272H92.1948H92.2305L92.2663 8.91057H92.2841H92.3198L92.1413 9.67843Z" stroke="white" stroke-width="0.216" stroke-miterlimit="2.6131"/>
<path fill-rule="evenodd" clip-rule="evenodd" d="M92.9449 8.08984H93.8735L93.7485 8.89341H94.302L94.177 9.66127L93.5878 9.64341L93.2663 11.5184V11.5898L93.2842 11.6434L93.3199 11.697L93.3556 11.7327L93.427 11.7506L93.4806 11.7684L93.552 11.7863H93.6413H93.7128H93.7842L93.8378 11.7684H93.8913L93.9449 11.7506L93.9628 11.7327H93.9985L93.8735 12.3577L93.8556 12.3756L93.8378 12.3934H93.802L93.7842 12.4113L93.7663 12.4291H93.7306L93.7128 12.447H93.677L93.6413 12.4648H93.6056L93.5699 12.4827H93.5342H93.4806L93.427 12.5006H93.3735H93.3199H93.0699H92.927L92.8199 12.4827L92.6949 12.4648L92.6056 12.447L92.5342 12.4113L92.4628 12.3756L92.4092 12.3398L92.3735 12.2863L92.3378 12.2506L92.3199 12.197L92.302 12.1256L92.2842 12.072V12.0006V11.9291V11.8398L92.302 11.7684L92.9449 8.08984Z" fill="white"/>
<path d="M92.9449 8.08984H93.8735L93.7485 8.89341H94.302L94.177 9.66127L93.5878 9.64341L93.2663 11.5184V11.5898L93.2842 11.6434L93.3199 11.697L93.3556 11.7327L93.427 11.7506L93.4806 11.7684L93.552 11.7863H93.6413H93.7128H93.7842L93.8378 11.7684H93.8913L93.9449 11.7506L93.9628 11.7327H93.9985L93.8735 12.3577L93.8556 12.3756L93.8378 12.3934H93.802L93.7842 12.4113L93.7663 12.4291H93.7306L93.7128 12.447H93.677L93.6413 12.4648H93.6056L93.5699 12.4827H93.5342H93.4806L93.427 12.5006H93.3735H93.3199H93.0699H92.927L92.8199 12.4827L92.6949 12.4648L92.6056 12.447L92.5342 12.4113L92.4628 12.3756L92.4092 12.3398L92.3735 12.2863L92.3378 12.2506L92.3199 12.197L92.302 12.1256L92.2842 12.072V12.0006V11.9291V11.8398L92.302 11.7684L92.9449 8.08984Z" stroke="white" stroke-width="0.216" stroke-miterlimit="2.6131"/>
<path fill-rule="evenodd" clip-rule="evenodd" d="M95.052 10.9284L95.0341 10.982V11.0534L95.052 11.107V11.1784L95.0877 11.232L95.1055 11.3034L95.1413 11.357L95.177 11.4284L95.2305 11.482L95.2841 11.5356L95.3377 11.5891L95.3913 11.6249L95.4627 11.6606L95.5341 11.6963L95.5877 11.7141L95.6591 11.732H95.7484L95.8377 11.7499L95.927 11.7677H96.0163H96.0877H96.1948H96.2663H96.3734L96.4627 11.7499L96.552 11.732L96.6413 11.7141L96.7305 11.6784L96.8198 11.6427L96.927 11.607L97.0163 11.5534L97.1234 11.482L96.9805 12.3213L96.927 12.3391L96.8734 12.3749L96.8198 12.3927L96.7663 12.4106L96.7127 12.4284L96.6591 12.4463L96.6055 12.4641H96.552L96.4984 12.482H96.427L96.3555 12.4999H96.2841H96.1948H96.1055H95.9984H95.8913H95.7127L95.552 12.482L95.3734 12.4641L95.2127 12.4284L95.052 12.3749L94.8913 12.3034L94.7305 12.232L94.5877 12.1249L94.4627 12.0177L94.3555 11.8749L94.2484 11.7141L94.177 11.5356L94.1055 11.3391L94.0698 11.107V10.8749L94.0877 10.5891V10.482L94.1234 10.357L94.1413 10.232L94.177 10.0891L94.2305 9.94629L94.2841 9.78557L94.3734 9.64272L94.4627 9.49986L94.5698 9.37486L94.6948 9.232L94.8555 9.12486L95.0163 9.01772L95.2127 8.94629L95.427 8.87486L95.677 8.83915L95.9448 8.82129H96.0877L96.2127 8.83915L96.3555 8.87486L96.4984 8.89272L96.6413 8.94629L96.7663 9.01772L96.8913 9.08915L96.9984 9.17843L97.1055 9.30343L97.177 9.42843L97.2484 9.58915L97.302 9.76772L97.3198 9.96415V10.1963L97.302 10.4641L97.2484 10.7499L97.2305 10.9463H94.7841L94.927 10.2856H96.4091V10.1963V10.1249V10.0356L96.3913 9.982L96.3734 9.91057L96.3377 9.857L96.3198 9.80343L96.2841 9.74986L96.2305 9.71415L96.1948 9.67843L96.1413 9.66057L96.0877 9.62486L96.0341 9.607L95.9805 9.58915H95.927L95.8734 9.57129H95.802L95.7484 9.58915L95.677 9.607L95.6234 9.62486L95.5698 9.64272L95.5163 9.67843L95.4627 9.71415L95.427 9.74986L95.3734 9.80343L95.3377 9.857L95.302 9.91057L95.2663 9.96415L95.2484 10.0177L95.2127 10.0891L95.1948 10.1606L95.177 10.232L95.052 10.9284Z" fill="white"/>
<path d="M95.052 10.9284L95.0341 10.982V11.0534L95.052 11.107V11.1784L95.0877 11.232L95.1055 11.3034L95.1413 11.357L95.177 11.4284L95.2305 11.482L95.2841 11.5356L95.3377 11.5891L95.3913 11.6249L95.4627 11.6606L95.5341 11.6963L95.5877 11.7141L95.6591 11.732H95.7484L95.8377 11.7499L95.927 11.7677H96.0163H96.0877H96.1948H96.2663H96.3734L96.4627 11.7499L96.552 11.732L96.6413 11.7141L96.7305 11.6784L96.8198 11.6427L96.927 11.607L97.0163 11.5534L97.1234 11.482L96.9805 12.3213L96.927 12.3391L96.8734 12.3749L96.8198 12.3927L96.7663 12.4106L96.7127 12.4284L96.6591 12.4463L96.6055 12.4641H96.552L96.4984 12.482H96.427L96.3555 12.4999H96.2841H96.1948H96.1055H95.9984H95.8913H95.7127L95.552 12.482L95.3734 12.4641L95.2127 12.4284L95.052 12.3749L94.8913 12.3034L94.7305 12.232L94.5877 12.1249L94.4627 12.0177L94.3555 11.8749L94.2484 11.7141L94.177 11.5356L94.1055 11.3391L94.0698 11.107V10.8749L94.0877 10.5891V10.482L94.1234 10.357L94.1413 10.232L94.177 10.0891L94.2305 9.94629L94.2841 9.78557L94.3734 9.64272L94.4627 9.49986L94.5698 9.37486L94.6948 9.232L94.8555 9.12486L95.0163 9.01772L95.2127 8.94629L95.427 8.87486L95.677 8.83915L95.9448 8.82129H96.0877L96.2127 8.83915L96.3555 8.87486L96.4984 8.89272L96.6413 8.94629L96.7663 9.01772L96.8913 9.08915L96.9984 9.17843L97.1055 9.30343L97.177 9.42843L97.2484 9.58915L97.302 9.76772L97.3198 9.96415V10.1963L97.302 10.4641L97.2484 10.7499L97.2305 10.9463H94.7841L94.927 10.2856H96.4091V10.1963V10.1249V10.0356L96.3913 9.982L96.3734 9.91057L96.3377 9.857L96.3198 9.80343L96.2841 9.74986L96.2305 9.71415L96.1948 9.67843L96.1413 9.66057L96.0877 9.62486L96.0341 9.607L95.9805 9.58915H95.927L95.8734 9.57129H95.802L95.7484 9.58915L95.677 9.607L95.6234 9.62486L95.5698 9.64272L95.5163 9.67843L95.4627 9.71415L95.427 9.74986L95.3734 9.80343L95.3377 9.857L95.302 9.91057L95.2663 9.96415L95.2484 10.0177L95.2127 10.0891L95.1948 10.1606L95.177 10.232L95.052 10.9284Z" stroke="white" stroke-width="0.216" stroke-miterlimit="2.6131"/>
<path fill-rule="evenodd" clip-rule="evenodd" d="M103.088 9.10728L103.052 9.07157L102.998 9.05371L102.963 9.03585L102.909 9.00014L102.856 8.98228L102.802 8.96443L102.748 8.94657L102.677 8.92871L102.623 8.91085L102.552 8.893L102.481 8.87514H102.409H102.338L102.266 8.85728H102.177H102.088H102.016L101.927 8.87514H101.838L101.731 8.893L101.641 8.92871L101.552 8.96443L101.445 9.00014L101.356 9.07157L101.266 9.143L101.177 9.23228L101.088 9.33942L101.016 9.46442L100.945 9.60728L100.873 9.78585L100.802 9.96442L100.748 10.1787L100.731 10.3037L100.713 10.4287V10.5359V10.6609L100.731 10.768L100.748 10.8751L100.784 10.9823L100.82 11.0716L100.873 11.1787L100.927 11.2501L100.998 11.3394L101.07 11.4109L101.177 11.4644L101.266 11.518L101.391 11.5537L101.516 11.5894L101.552 11.6073H101.606L101.677 11.6251H101.731H101.82H101.891H101.981H102.052L102.141 11.6073L102.231 11.5894L102.32 11.5716L102.409 11.5537L102.481 11.518L102.57 11.4644L102.641 11.4109L102.695 11.3573L102.552 12.2501L102.534 12.268L102.516 12.2859L102.481 12.3216L102.445 12.3394L102.409 12.3573L102.373 12.393L102.32 12.4109L102.248 12.4287L102.177 12.4466L102.088 12.4644L101.981 12.4823L101.873 12.5001H101.731H101.588H101.409H101.231L101.07 12.4823L100.909 12.4466L100.766 12.393L100.606 12.3216L100.463 12.2501L100.32 12.143L100.177 12.018L100.052 11.893L99.9449 11.7323L99.8556 11.5716L99.7663 11.3751L99.7128 11.1787L99.6592 10.9466V10.7144V10.4466L99.6949 10.1609L99.7306 10.018L99.7485 9.893L99.7842 9.768L99.8199 9.643L99.8556 9.518L99.9092 9.393L99.9449 9.28585L99.9985 9.17871L100.052 9.07157L100.088 8.98228L100.159 8.893L100.213 8.80371L100.266 8.71442L100.338 8.62514L100.409 8.55371L100.481 8.48228L100.552 8.42871L100.641 8.35728L100.713 8.30371L100.802 8.25014L100.891 8.19657L100.981 8.143L101.07 8.10728L101.177 8.07157L101.284 8.03585L101.391 8.018L101.498 7.98228L101.606 7.96442L101.731 7.94657H101.838L101.963 7.92871H102.088H102.195L102.302 7.94657H102.409L102.516 7.96442L102.606 7.98228L102.695 8.00014L102.784 8.018L102.856 8.03585L102.945 8.05371L102.998 8.07157L103.07 8.08942L103.123 8.10728L103.177 8.12514L103.213 8.143L103.248 8.16085H103.266L103.088 9.10728Z" fill="white"/>
<path d="M103.088 9.10728L103.052 9.07157L102.998 9.05371L102.963 9.03585L102.909 9.00014L102.856 8.98228L102.802 8.96443L102.748 8.94657L102.677 8.92871L102.623 8.91085L102.552 8.893L102.481 8.87514H102.409H102.338L102.266 8.85728H102.177H102.088H102.016L101.927 8.87514H101.838L101.731 8.893L101.641 8.92871L101.552 8.96443L101.445 9.00014L101.356 9.07157L101.266 9.143L101.177 9.23228L101.088 9.33942L101.016 9.46442L100.945 9.60728L100.873 9.78585L100.802 9.96442L100.748 10.1787L100.731 10.3037L100.713 10.4287V10.5359V10.6609L100.731 10.768L100.748 10.8751L100.784 10.9823L100.82 11.0716L100.873 11.1787L100.927 11.2501L100.998 11.3394L101.07 11.4109L101.177 11.4644L101.266 11.518L101.391 11.5537L101.516 11.5894L101.552 11.6073H101.606L101.677 11.6251H101.731H101.82H101.891H101.981H102.052L102.141 11.6073L102.231 11.5894L102.32 11.5716L102.409 11.5537L102.481 11.518L102.57 11.4644L102.641 11.4109L102.695 11.3573L102.552 12.2501L102.534 12.268L102.516 12.2859L102.481 12.3216L102.445 12.3394L102.409 12.3573L102.373 12.393L102.32 12.4109L102.248 12.4287L102.177 12.4466L102.088 12.4644L101.981 12.4823L101.873 12.5001H101.731H101.588H101.409H101.231L101.07 12.4823L100.909 12.4466L100.766 12.393L100.606 12.3216L100.463 12.2501L100.32 12.143L100.177 12.018L100.052 11.893L99.9449 11.7323L99.8556 11.5716L99.7663 11.3751L99.7128 11.1787L99.6592 10.9466V10.7144V10.4466L99.6949 10.1609L99.7306 10.018L99.7485 9.893L99.7842 9.768L99.8199 9.643L99.8556 9.518L99.9092 9.393L99.9449 9.28585L99.9985 9.17871L100.052 9.07157L100.088 8.98228L100.159 8.893L100.213 8.80371L100.266 8.71442L100.338 8.62514L100.409 8.55371L100.481 8.48228L100.552 8.42871L100.641 8.35728L100.713 8.30371L100.802 8.25014L100.891 8.19657L100.981 8.143L101.07 8.10728L101.177 8.07157L101.284 8.03585L101.391 8.018L101.498 7.98228L101.606 7.96442L101.731 7.94657H101.838L101.963 7.92871H102.088H102.195L102.302 7.94657H102.409L102.516 7.96442L102.606 7.98228L102.695 8.00014L102.784 8.018L102.856 8.03585L102.945 8.05371L102.998 8.07157L103.07 8.08942L103.123 8.10728L103.177 8.12514L103.213 8.143L103.248 8.16085H103.266L103.088 9.10728Z" stroke="white" stroke-width="0.216" stroke-miterlimit="2.6131"/>
<path fill-rule="evenodd" clip-rule="evenodd" d="M111.392 12.5006H110.463L110.534 12.1434V12.1077L110.481 12.1613L110.427 12.2327L110.356 12.2863L110.302 12.322L110.249 12.3756L110.177 12.4113L110.124 12.447L110.052 12.4648L109.999 12.5006L109.927 12.5184L109.856 12.5363H109.802L109.731 12.5541H109.659H109.588H109.534H109.356L109.195 12.5006L109.052 12.447L108.909 12.3756L108.784 12.2684L108.677 12.1613L108.588 12.0363L108.499 11.8934L108.445 11.7506L108.392 11.5898L108.338 11.4113L108.32 11.2506L108.302 11.072L108.32 10.8934V10.7327L108.356 10.5541L108.409 10.3577L108.463 10.1613L108.534 10.0006L108.624 9.83985L108.713 9.67913L108.82 9.55413L108.927 9.42913L109.034 9.32199L109.142 9.21484L109.267 9.12556L109.409 9.05413L109.534 9.00056L109.659 8.94699L109.802 8.92913L109.927 8.91127L110.07 8.89342H110.177L110.267 8.91127L110.356 8.92913L110.427 8.94699L110.517 8.9827L110.57 9.00056L110.642 9.05413L110.713 9.08985L110.767 9.12556L110.802 9.16127L110.856 9.21484L110.892 9.25056L110.927 9.30413L110.963 9.33984L110.981 9.37556L110.999 9.42913L111.249 8.08984H112.159L111.392 12.5006Z" fill="white"/>
<path d="M111.392 12.5006H110.463L110.534 12.1434V12.1077L110.481 12.1613L110.427 12.2327L110.356 12.2863L110.302 12.322L110.249 12.3756L110.177 12.4113L110.124 12.447L110.052 12.4648L109.999 12.5006L109.927 12.5184L109.856 12.5363H109.802L109.731 12.5541H109.659H109.588H109.534H109.356L109.195 12.5006L109.052 12.447L108.909 12.3756L108.784 12.2684L108.677 12.1613L108.588 12.0363L108.499 11.8934L108.445 11.7506L108.392 11.5898L108.338 11.4113L108.32 11.2506L108.302 11.072L108.32 10.8934V10.7327L108.356 10.5541L108.409 10.3577L108.463 10.1613L108.534 10.0006L108.624 9.83985L108.713 9.67913L108.82 9.55413L108.927 9.42913L109.034 9.32199L109.142 9.21484L109.267 9.12556L109.409 9.05413L109.534 9.00056L109.659 8.94699L109.802 8.92913L109.927 8.91127L110.07 8.89342H110.177L110.267 8.91127L110.356 8.92913L110.427 8.94699L110.517 8.9827L110.57 9.00056L110.642 9.05413L110.713 9.08985L110.767 9.12556L110.802 9.16127L110.856 9.21484L110.892 9.25056L110.927 9.30413L110.963 9.33984L110.981 9.37556L110.999 9.42913L111.249 8.08984H112.159L111.392 12.5006Z" stroke="white" stroke-width="0.216" stroke-miterlimit="2.6131"/>
<path fill-rule="evenodd" clip-rule="evenodd" d="M109.873 11.696L109.963 11.6782L110.052 11.6603L110.141 11.6424L110.213 11.6067L110.284 11.571L110.355 11.5174L110.409 11.4639L110.463 11.3924L110.516 11.321L110.57 11.2496L110.605 11.1782L110.641 11.0889L110.677 11.0174L110.713 10.9282L110.73 10.8389L110.748 10.7496L110.766 10.6424L110.784 10.5532V10.4639L110.766 10.3567V10.2674L110.748 10.196L110.73 10.1067L110.695 10.0353L110.659 9.96387L110.623 9.89244L110.588 9.83887L110.534 9.80315L110.48 9.76744L110.409 9.73172L110.355 9.71387H110.284H110.195L110.105 9.73172L110.016 9.74958L109.945 9.7853L109.873 9.83887L109.82 9.89244L109.748 9.94601L109.695 10.0174L109.641 10.0889L109.605 10.1603L109.552 10.2496L109.516 10.321L109.48 10.4282L109.463 10.5174L109.427 10.6067L109.409 10.7139L109.391 10.8567L109.409 11.0174L109.427 11.1782L109.463 11.3389L109.534 11.4817L109.623 11.5889L109.73 11.6603L109.873 11.696Z" fill="#FCB331"/>
<path fill-rule="evenodd" clip-rule="evenodd" d="M89.1593 11.7681L89.0165 12.5003H88.1772L88.195 12.3753L88.2129 12.2503L88.2307 12.1431L88.2486 12.1074L88.195 12.161L88.1415 12.2146L88.07 12.2681L87.9986 12.3039L87.9272 12.3574L87.8379 12.3931L87.7486 12.4288L87.6593 12.4646L87.57 12.5003L87.4629 12.5181L87.3736 12.536L87.2665 12.5539L87.1772 12.5717H87.07L86.9807 12.5539L86.8915 12.536L86.7665 12.5181L86.6593 12.4824L86.57 12.4288L86.4807 12.3931L86.4093 12.3217L86.3379 12.2681L86.2843 12.1967L86.2307 12.1431L86.195 12.0717L86.1593 12.0003L86.1415 11.911L86.1236 11.8396L86.1057 11.7681L86.0879 11.6967V11.6074V11.536L86.1057 11.411L86.1236 11.286L86.1593 11.161L86.195 11.0539L86.2486 10.9467L86.3022 10.8396L86.3736 10.7503L86.4629 10.661L86.5522 10.5896L86.6415 10.5181L86.7307 10.4467L86.8379 10.3931L86.945 10.3574L87.0522 10.3217L87.1772 10.286L87.2843 10.2681H87.3022H87.32H87.3379L87.3736 10.2503H87.4093H87.4629L87.5165 10.2324H87.57H87.6236L87.6772 10.2146H87.7486H87.8022L87.8557 10.1967H87.9093H87.945H87.9807H88.07H88.1415H88.2129H88.3022L88.3557 10.2146H88.4093H88.445L88.4629 10.1967L88.4807 10.1253L88.4986 10.0539V10.0003L88.4807 9.92885L88.4629 9.85742L88.4093 9.78599L88.3557 9.75028L88.3022 9.69671L88.2307 9.66099L88.1415 9.64314H88.0522H87.9629H87.8557H87.7486H87.6415H87.5343L87.4272 9.66099H87.32L87.2129 9.67885L87.1236 9.69671L87.0165 9.71457L86.9272 9.73242L86.8557 9.75028L86.7665 9.76814L86.7129 9.78599L86.6593 9.80385L86.6236 9.82171L86.8736 9.01814L86.945 8.98242L87.0165 8.96457L87.1057 8.92885L87.1772 8.91099L87.2665 8.89314H87.3557L87.4272 8.87528H87.5343L87.6236 8.85742H87.7129H87.82H87.9272H88.0343H88.1415H88.2665H88.3736L88.4807 8.87528H88.57L88.6772 8.91099L88.7843 8.92885L88.8915 8.98242L88.9986 9.01814L89.0879 9.08957L89.195 9.14314L89.2665 9.21456L89.3557 9.30385L89.4093 9.39314L89.4629 9.50028L89.4986 9.60742L89.5165 9.71457V9.83956L89.4986 9.98242L89.1593 11.7681Z" fill="white"/>
<path d="M89.1593 11.7681L89.0165 12.5003H88.1772L88.195 12.3753L88.2129 12.2503L88.2307 12.1431L88.2486 12.1074L88.195 12.161L88.1415 12.2146L88.07 12.2681L87.9986 12.3039L87.9272 12.3574L87.8379 12.3931L87.7486 12.4288L87.6593 12.4646L87.57 12.5003L87.4629 12.5181L87.3736 12.536L87.2665 12.5539L87.1772 12.5717H87.07L86.9807 12.5539L86.8915 12.536L86.7665 12.5181L86.6593 12.4824L86.57 12.4288L86.4807 12.3931L86.4093 12.3217L86.3379 12.2681L86.2843 12.1967L86.2307 12.1431L86.195 12.0717L86.1593 12.0003L86.1415 11.911L86.1236 11.8396L86.1057 11.7681L86.0879 11.6967V11.6074V11.536L86.1057 11.411L86.1236 11.286L86.1593 11.161L86.195 11.0539L86.2486 10.9467L86.3022 10.8396L86.3736 10.7503L86.4629 10.661L86.5522 10.5896L86.6415 10.5181L86.7307 10.4467L86.8379 10.3931L86.945 10.3574L87.0522 10.3217L87.1772 10.286L87.2843 10.2681H87.3022H87.32H87.3379L87.3736 10.2503H87.4093H87.4629L87.5165 10.2324H87.57H87.6236L87.6772 10.2146H87.7486H87.8022L87.8557 10.1967H87.9093H87.945H87.9807H88.07H88.1415H88.2129H88.3022L88.3557 10.2146H88.4093H88.445L88.4629 10.1967L88.4807 10.1253L88.4986 10.0539V10.0003L88.4807 9.92885L88.4629 9.85742L88.4093 9.78599L88.3557 9.75028L88.3022 9.69671L88.2307 9.66099L88.1415 9.64314H88.0522H87.9629H87.8557H87.7486H87.6415H87.5343L87.4272 9.66099H87.32L87.2129 9.67885L87.1236 9.69671L87.0165 9.71457L86.9272 9.73242L86.8557 9.75028L86.7665 9.76814L86.7129 9.78599L86.6593 9.80385L86.6236 9.82171L86.8736 9.01814L86.945 8.98242L87.0165 8.96457L87.1057 8.92885L87.1772 8.91099L87.2665 8.89314H87.3557L87.4272 8.87528H87.5343L87.6236 8.85742H87.7129H87.82H87.9272H88.0343H88.1415H88.2665H88.3736L88.4807 8.87528H88.57L88.6772 8.91099L88.7843 8.92885L88.8915 8.98242L88.9986 9.01814L89.0879 9.08957L89.195 9.14314L89.2665 9.21456L89.3557 9.30385L89.4093 9.39314L89.4629 9.50028L89.4986 9.60742L89.5165 9.71457V9.83956L89.4986 9.98242L89.1593 11.7681Z" stroke="white" stroke-width="0.216" stroke-miterlimit="2.6131"/>
<path fill-rule="evenodd" clip-rule="evenodd" d="M88.338 10.8749V10.857V10.8391H88.3023L88.2845 10.8213H88.2309H88.1952H88.1416H88.088H88.0345H87.9809L87.9273 10.8391H87.8737L87.8202 10.857H87.7845L87.7309 10.8749H87.6952L87.6773 10.8927H87.6416L87.6059 10.9106L87.5702 10.9284L87.5345 10.9463L87.4809 10.9641L87.4452 10.9999L87.3916 11.0177L87.3559 11.0534L87.3023 11.0891L87.2666 11.1249L87.2309 11.1784L87.1952 11.2141L87.1773 11.2677L87.1416 11.3213V11.3749V11.482L87.1595 11.5713L87.1952 11.6427L87.2309 11.6963L87.2845 11.732L87.338 11.7499H87.3916L87.4452 11.7677L87.5523 11.7499H87.6416L87.7309 11.732L87.8023 11.7141L87.8737 11.6963L87.9273 11.6606L87.9987 11.6249L88.0345 11.5891L88.088 11.5534L88.1237 11.5177L88.1595 11.482L88.1952 11.4463L88.213 11.3927L88.2309 11.357L88.2487 11.3213L88.2666 11.2856L88.2845 11.1784L88.3023 11.0713L88.338 10.9641V10.8749Z" fill="#ED1B2E"/>
<path fill-rule="evenodd" clip-rule="evenodd" d="M82.0697 12.5006H81.1411L81.909 8.08984H83.4983L83.659 10.7148L84.7661 8.08984H86.4268L85.6411 12.5006H84.7304L85.3018 9.19699H85.2661L83.8911 12.5006H82.8554V12.3756L82.8375 12.0006L82.8018 11.4827L82.7661 10.8756L82.7304 10.2684L82.7125 9.75056L82.6768 9.3577V9.19699H82.659H82.6411H82.6233L82.0697 12.5006Z" fill="white"/>
<path d="M82.0697 12.5006H81.1411L81.909 8.08984H83.4983L83.659 10.7148L84.7661 8.08984H86.4268L85.6411 12.5006H84.7304L85.3018 9.19699H85.2661L83.8911 12.5006H82.8554V12.3756L82.8375 12.0006L82.8018 11.4827L82.7661 10.8756L82.7304 10.2684L82.7125 9.75056L82.6768 9.3577V9.19699H82.659H82.6411H82.6233L82.0697 12.5006Z" stroke="white" stroke-width="0.216" stroke-miterlimit="2.6131"/>
<path fill-rule="evenodd" clip-rule="evenodd" d="M105.891 11.7681L105.766 12.5003H104.909L104.927 12.3753V12.2503V12.161V12.1253L104.891 12.161L104.838 12.2146L104.766 12.2681L104.713 12.3217L104.641 12.3574L104.552 12.3931L104.463 12.4467L104.391 12.4646L104.302 12.5003L104.195 12.5181L104.106 12.536L104.016 12.5539L103.909 12.5717H103.82L103.731 12.5539L103.641 12.536L103.516 12.5181L103.409 12.4824L103.32 12.4288L103.231 12.3931L103.159 12.3217L103.088 12.2681L103.034 12.1967L102.981 12.1431L102.945 12.0717L102.909 12.0003L102.891 11.911L102.874 11.8396L102.856 11.7681V11.6967L102.838 11.6074V11.536L102.856 11.411L102.874 11.286L102.891 11.161L102.945 11.0539L102.999 10.9467L103.052 10.8396L103.124 10.7503L103.213 10.661L103.302 10.5896L103.391 10.5181L103.481 10.4467L103.588 10.3931L103.695 10.3574L103.802 10.3217L103.909 10.286L104.034 10.2681H104.052H104.07L104.106 10.2503H104.159H104.195L104.249 10.2324H104.302H104.356L104.427 10.2146H104.481H104.534L104.588 10.1967H104.641H104.695H104.731H104.802H104.891H104.963H105.034L105.106 10.2146H105.159H105.177H105.195L105.213 10.1967V10.1253L105.231 10.0539V10.0003L105.213 9.92885L105.195 9.85742L105.141 9.78599L105.106 9.75028L105.034 9.69671L104.963 9.66099L104.891 9.64314H104.82H104.713H104.624H104.516H104.409H104.284L104.177 9.66099H104.07L103.963 9.67885L103.874 9.69671L103.766 9.71457L103.677 9.73242L103.606 9.75028L103.534 9.76814L103.463 9.78599L103.427 9.80385L103.391 9.82171L103.624 9.01814L103.695 8.98242L103.766 8.96457L103.856 8.92885L103.927 8.91099L104.016 8.89314H104.106L104.195 8.87528H104.284L104.374 8.85742H104.463H104.57H104.677H104.784H104.891H104.999H105.106L105.213 8.87528H105.302L105.409 8.91099L105.516 8.92885L105.624 8.98242L105.731 9.01814L105.838 9.08957L105.927 9.14314L106.016 9.21456L106.088 9.30385L106.159 9.39314L106.213 9.50028L106.249 9.60742L106.266 9.71457V9.83956L106.249 9.98242L105.891 11.7681Z" fill="white"/>
<path fill-rule="evenodd" clip-rule="evenodd" d="M105.766 12.5357L105.784 12.5179L105.909 11.7679L105.873 11.75L105.73 12.5L105.766 12.4821V12.5357H105.784V12.5179L105.766 12.5357Z" fill="white"/>
<path fill-rule="evenodd" clip-rule="evenodd" d="M104.891 12.5003L104.909 12.536H105.766V12.4824H104.909L104.927 12.5003H104.891V12.536H104.909L104.891 12.5003Z" fill="white"/>
<path fill-rule="evenodd" clip-rule="evenodd" d="M104.945 12.1253L104.909 12.1074V12.161L104.891 12.2503V12.3753V12.5003H104.927L104.945 12.3753V12.2503V12.161V12.1253L104.909 12.1074L104.945 12.1253Z" fill="white"/>
<path fill-rule="evenodd" clip-rule="evenodd" d="M103.641 12.5717H103.73L103.82 12.5896H103.909L104.016 12.5717H104.105L104.213 12.5539L104.302 12.5181L104.391 12.5003L104.48 12.4646L104.57 12.411L104.641 12.3753L104.713 12.3217L104.784 12.286L104.855 12.2324L104.909 12.1788L104.945 12.1253L104.909 12.1074L104.873 12.161L104.82 12.1967L104.766 12.2503L104.695 12.3039L104.623 12.3396L104.552 12.3753L104.463 12.411L104.373 12.4467L104.284 12.4824L104.195 12.5003L104.105 12.5181L104.016 12.536H103.909L103.82 12.5539L103.73 12.536L103.641 12.5181V12.5717Z" fill="white"/>
<path fill-rule="evenodd" clip-rule="evenodd" d="M102.82 11.5361V11.6076V11.6968L102.838 11.7683L102.856 11.8397L102.873 11.929L102.891 12.0004L102.927 12.0718L102.963 12.1433L103.016 12.2147L103.07 12.2861L103.141 12.3397L103.213 12.3933L103.302 12.4468L103.409 12.5004L103.516 12.5361L103.641 12.5718V12.5183L103.516 12.5004L103.409 12.4647L103.32 12.4111L103.231 12.3754L103.159 12.3218L103.106 12.2504L103.052 12.1968L102.998 12.1254L102.963 12.054L102.927 11.9826L102.909 11.9111L102.891 11.8397L102.873 11.7683V11.6968L102.856 11.6076L102.873 11.5361H102.82Z" fill="white"/>
<path fill-rule="evenodd" clip-rule="evenodd" d="M104.034 10.25L103.909 10.2679L103.802 10.3036L103.677 10.3393L103.57 10.375L103.481 10.4286L103.373 10.5L103.284 10.5714L103.195 10.6607L103.106 10.7321L103.034 10.8393L102.981 10.9286L102.927 11.0536L102.873 11.1607L102.856 11.2857L102.82 11.4107V11.5357H102.873V11.4107L102.891 11.2857L102.927 11.1786L102.963 11.0536L103.016 10.9464L103.07 10.8571L103.141 10.7679L103.213 10.6786L103.302 10.6071L103.391 10.5357L103.498 10.4821L103.606 10.4286L103.695 10.375L103.802 10.3393L103.909 10.3036L104.034 10.2857V10.25Z" fill="white"/>
<path fill-rule="evenodd" clip-rule="evenodd" d="M104.731 10.1787H104.695H104.641H104.588L104.534 10.1966H104.481H104.427H104.356L104.302 10.2144H104.248L104.195 10.2323H104.159H104.106H104.07L104.052 10.2501H104.034V10.2859H104.052H104.07L104.106 10.268H104.159H104.195H104.248L104.302 10.2501H104.356L104.427 10.2323H104.481H104.534H104.588L104.641 10.2144H104.695H104.731V10.1787Z" fill="white"/>
<path fill-rule="evenodd" clip-rule="evenodd" d="M105.177 10.2144L105.195 10.1966H105.177H105.159H105.105L105.034 10.1787H104.963H104.891H104.802H104.73V10.2144H104.802H104.891L104.963 10.2323H105.034H105.105H105.159H105.177H105.195L105.213 10.2144L105.195 10.2323H105.213V10.2144H105.177Z" fill="white"/>
<path fill-rule="evenodd" clip-rule="evenodd" d="M105.213 10V10.0536L105.195 10.125L105.177 10.1964V10.2143H105.213L105.231 10.1964V10.1429L105.249 10.0536V10H105.213Z" fill="white"/>
<path fill-rule="evenodd" clip-rule="evenodd" d="M104.82 9.66071H104.891L104.963 9.69643L105.034 9.71429L105.088 9.76786L105.123 9.80357L105.177 9.85714L105.195 9.92857L105.213 10H105.248L105.231 9.91071L105.213 9.83929L105.159 9.78571L105.106 9.73214L105.052 9.67857L104.981 9.64286L104.891 9.625H104.82V9.66071Z" fill="white"/>
<path fill-rule="evenodd" clip-rule="evenodd" d="M103.355 9.82171L103.391 9.83956L103.427 9.82171L103.48 9.80385L103.534 9.78599L103.605 9.76814L103.695 9.75028L103.784 9.73242L103.873 9.71456L103.963 9.69671L104.07 9.67885H104.177L104.284 9.66099H104.409H104.516H104.623H104.713H104.82V9.62528H104.713L104.623 9.60742H104.516L104.409 9.62528H104.284L104.177 9.64314H104.07L103.963 9.66099L103.873 9.67885L103.766 9.69671L103.677 9.71456H103.605L103.534 9.75028L103.463 9.76814L103.409 9.78599L103.373 9.80385L103.409 9.83956L103.355 9.82171Z" fill="white"/>
<path fill-rule="evenodd" clip-rule="evenodd" d="M103.605 9V9.01786L103.355 9.82143L103.409 9.83929L103.641 9.01786L103.623 9.03571L103.605 9V9.01786V9Z" fill="white"/>
<path fill-rule="evenodd" clip-rule="evenodd" d="M105.105 8.83915H104.998L104.891 8.82129H104.784H104.677H104.57L104.463 8.83915H104.373H104.284L104.195 8.857L104.088 8.87486H104.016L103.927 8.89272L103.838 8.91058L103.766 8.92843L103.695 8.96415L103.605 8.99986L103.623 9.03557L103.695 8.99986L103.784 8.982L103.855 8.94629L103.927 8.92843H104.016L104.105 8.91058L104.195 8.89272H104.284L104.373 8.87486H104.463H104.57H104.677H104.784H104.891H104.998H105.105V8.83915Z" fill="white"/>
<path fill-rule="evenodd" clip-rule="evenodd" d="M106.266 9.98172L106.284 9.83887V9.71387L106.266 9.60672L106.23 9.48172L106.177 9.37458L106.105 9.2853L106.016 9.19601L105.945 9.12458L105.838 9.07101L105.748 8.99958L105.641 8.96387L105.534 8.9103L105.409 8.89244L105.32 8.85672L105.213 8.83887H105.105V8.87458L105.213 8.89244L105.302 8.9103L105.409 8.92815L105.516 8.96387L105.623 8.99958L105.713 9.05315L105.82 9.10672L105.909 9.1603L105.998 9.23172L106.07 9.32101L106.141 9.4103L106.195 9.49958L106.23 9.60672L106.248 9.71387V9.83887L106.23 9.98172H106.266Z" fill="white"/>
<path fill-rule="evenodd" clip-rule="evenodd" d="M105.909 11.7681L106.266 9.98242H106.231L105.874 11.7503L105.909 11.7681Z" fill="white"/>
<path fill-rule="evenodd" clip-rule="evenodd" d="M105.088 10.8749L105.07 10.857L105.052 10.8391H105.034L104.998 10.8213H104.963H104.927H104.873H104.82H104.766L104.713 10.8391H104.659H104.605L104.552 10.857H104.516L104.463 10.8749H104.445H104.409L104.391 10.8927L104.355 10.9106H104.32L104.266 10.9284L104.23 10.9641L104.177 10.982L104.141 11.0177L104.088 11.0356L104.052 11.0713L104.016 11.107L103.98 11.1606L103.945 11.2141L103.927 11.2499L103.909 11.3034L103.891 11.3749V11.482L103.909 11.5713L103.927 11.6427L103.98 11.6963L104.016 11.732L104.088 11.7499H104.141L104.195 11.7677L104.302 11.7499H104.391L104.48 11.732L104.552 11.7141L104.623 11.6784L104.695 11.6427L104.748 11.607L104.82 11.5713L104.855 11.5356L104.891 11.4999L104.927 11.4463L104.963 11.4106L104.998 11.3749V11.3213L105.016 11.2856L105.034 11.2499L105.052 11.1606V11.0534L105.07 10.9641L105.088 10.8749Z" fill="#FCB331"/>
<path fill-rule="evenodd" clip-rule="evenodd" d="M112.034 12.0532V11.9639L112.07 11.8746L112.106 11.8032L112.159 11.7317L112.231 11.6603L112.32 11.6246L112.409 11.6067L112.498 11.5889L112.588 11.6067L112.677 11.6246L112.766 11.6603L112.838 11.7317L112.891 11.8032L112.945 11.8746L112.963 11.9639L112.981 12.0532H112.873V11.9817L112.856 11.9103L112.82 11.8389L112.766 11.7853L112.713 11.7317L112.659 11.7139L112.57 11.6782H112.498H112.427L112.356 11.7139L112.284 11.7317L112.231 11.7853L112.195 11.8389L112.159 11.9103L112.141 11.9817L112.123 12.0532H112.034Z" fill="white"/>
<path fill-rule="evenodd" clip-rule="evenodd" d="M112.338 12.0541V11.8398H112.516H112.552L112.588 11.8577H112.624L112.641 11.8756L112.659 11.8934L112.677 11.9113V11.947V11.9648V12.0006V12.0184L112.659 12.0363V12.0541H112.516L112.534 12.0363H112.552H112.57L112.588 12.0184H112.606V12.0006L112.624 11.9827V11.9648V11.947L112.606 11.9291H112.588L112.57 11.9113H112.552H112.534H112.516H112.409V12.0541H112.338Z" fill="white"/>
<path fill-rule="evenodd" clip-rule="evenodd" d="M112.034 12.0537L112.016 12.0716L112.034 12.1609L112.07 12.2501L112.105 12.3394L112.159 12.4109L112.23 12.4644L112.32 12.5001L112.409 12.5359H112.498H112.588L112.677 12.5001L112.766 12.4644L112.838 12.4109L112.891 12.3394L112.945 12.2501L112.963 12.1609L112.98 12.0716V12.0537H112.873V12.0716V12.143L112.855 12.2144L112.82 12.2859L112.766 12.3394L112.713 12.393L112.659 12.4287L112.57 12.4466L112.498 12.4644L112.427 12.4466L112.355 12.4287L112.284 12.393L112.23 12.3394L112.195 12.2859L112.159 12.2144L112.141 12.143L112.123 12.0716V12.0537H112.034Z" fill="white"/>
<path fill-rule="evenodd" clip-rule="evenodd" d="M112.338 12.0537V12.2501H112.409V12.0894H112.499L112.606 12.2501H112.677L112.57 12.0894H112.588L112.624 12.0716H112.641L112.659 12.0537H112.516H112.499H112.409H112.338Z" fill="white"/>
<path d="M112.016 12.071L112.034 11.9817L112.07 11.8924L112.123 11.8032L112.177 11.7317L112.248 11.6782L112.338 11.6424L112.427 11.6067L112.516 11.5889L112.605 11.6067L112.695 11.6424L112.784 11.6782L112.855 11.7317L112.909 11.8032L112.963 11.8924L112.998 11.9817L113.016 12.071L112.998 12.1603L112.963 12.2496L112.909 12.3389L112.855 12.4103L112.784 12.4639L112.695 12.4996L112.605 12.5353L112.516 12.5532L112.427 12.5353L112.338 12.4996L112.248 12.4639L112.177 12.4103L112.123 12.3389L112.07 12.2496L112.034 12.1603L112.016 12.071ZM112.409 12.2496H112.338V11.8389H112.516H112.552H112.588L112.623 11.8567L112.641 11.8746L112.659 11.8924L112.677 11.9103V11.9282V11.946V11.9817V11.9996L112.659 12.0174L112.641 12.0353L112.623 12.0532H112.605H112.588H112.57L112.677 12.2139H112.605L112.498 12.0532H112.409V12.2496V12.2496ZM112.498 12.0532H112.534H112.552H112.57H112.588L112.605 12.0353V12.0174V11.9996V11.9639V11.946V11.9282H112.588H112.57H112.552H112.534H112.516H112.409V12.071H112.498V12.0532ZM112.498 12.4639H112.57L112.641 12.446L112.713 12.4103L112.766 12.3567L112.802 12.3032L112.838 12.2317L112.873 12.1424V12.0532V11.9639L112.855 11.8924L112.82 11.821L112.784 11.7674L112.73 11.7139L112.659 11.6782L112.588 11.6603H112.516H112.445L112.373 11.6782L112.302 11.7139L112.248 11.7674L112.213 11.821L112.177 11.8924L112.159 11.9639V12.0532V12.1424L112.177 12.2139L112.213 12.2853L112.248 12.3389L112.302 12.3924L112.373 12.4282L112.445 12.446L112.498 12.4639Z" stroke="white" stroke-width="0.216" stroke-miterlimit="2.6131"/>
<path fill-rule="evenodd" clip-rule="evenodd" d="M106.141 12.5003H107.105L107.445 10.5896L107.463 10.5181L107.48 10.4467L107.498 10.3753L107.516 10.286L107.552 10.2146L107.605 10.1431L107.641 10.0896L107.695 10.0181L107.748 9.96456L107.82 9.91099L107.909 9.85742L107.98 9.82171L108.088 9.78599L108.195 9.75028L108.32 9.73242H108.445H108.498H108.516H108.534L108.677 8.85742L108.588 8.87528H108.498L108.409 8.89314L108.32 8.91099L108.248 8.94671L108.177 8.98242L108.123 9.01814L108.052 9.05385L107.998 9.10742L107.927 9.14314L107.873 9.19671L107.82 9.25028L107.784 9.32171L107.73 9.37528L107.677 9.44671L107.623 9.50028L107.73 8.89314H106.784L106.141 12.5003Z" fill="white"/>
<path d="M106.141 12.5003H107.105L107.445 10.5896L107.463 10.5181L107.48 10.4467L107.498 10.3753L107.516 10.286L107.552 10.2146L107.605 10.1431L107.641 10.0896L107.695 10.0181L107.748 9.96456L107.82 9.91099L107.909 9.85742L107.98 9.82171L108.088 9.78599L108.195 9.75028L108.32 9.73242H108.445H108.498H108.516H108.534L108.677 8.85742L108.588 8.87528H108.498L108.409 8.89314L108.32 8.91099L108.248 8.94671L108.177 8.98242L108.123 9.01814L108.052 9.05385L107.998 9.10742L107.927 9.14314L107.873 9.19671L107.82 9.25028L107.784 9.32171L107.73 9.37528L107.677 9.44671L107.623 9.50028L107.73 8.89314H106.784L106.141 12.5003Z" stroke="white" stroke-width="0.216" stroke-miterlimit="2.6131"/>
<path fill-rule="evenodd" clip-rule="evenodd" d="M97.2129 12.5003H98.1772H98.195L98.5165 10.5896V10.5181L98.5343 10.4467L98.5522 10.3753L98.5879 10.3039L98.6057 10.2324L98.6415 10.1789L98.6772 10.1074L98.7307 10.0539L98.7843 10.0003L98.8379 9.96456L98.9272 9.91099L98.9986 9.87528L99.0879 9.83956L99.195 9.82171L99.32 9.80385L99.445 9.78599H99.4629V9.80385H99.4807H99.4986H99.5165H99.5343H99.5522V9.75028L99.57 9.69671L99.5879 9.62528L99.6057 9.53599L99.6415 9.44671L99.6593 9.33956L99.695 9.25028L99.7307 9.17885L99.7665 9.12528L99.7843 9.05385L99.82 9.00028L99.8557 8.94671L99.8736 8.91099L99.8915 8.89314L99.9093 8.87528H99.8915H99.8736H99.8379H99.82L99.8022 8.85742H99.7665H99.7486L99.6415 8.87528H99.5522L99.4629 8.89314L99.3736 8.91099L99.3022 8.94671L99.2307 8.98242L99.1772 9.00028L99.1057 9.05385L99.0522 9.08957L98.9986 9.14314L98.945 9.19671L98.8915 9.25028L98.8379 9.30385L98.8022 9.37528L98.7486 9.44671L98.695 9.50028L98.82 8.89314H97.8557L97.2129 12.5003Z" fill="white"/>
<path d="M97.2129 12.5003H98.1772H98.195L98.5165 10.5896V10.5181L98.5343 10.4467L98.5522 10.3753L98.5879 10.3039L98.6057 10.2324L98.6415 10.1789L98.6772 10.1074L98.7307 10.0539L98.7843 10.0003L98.8379 9.96456L98.9272 9.91099L98.9986 9.87528L99.0879 9.83956L99.195 9.82171L99.32 9.80385L99.445 9.78599H99.4629V9.80385H99.4807H99.4986H99.5165H99.5343H99.5522V9.75028L99.57 9.69671L99.5879 9.62528L99.6057 9.53599L99.6415 9.44671L99.6593 9.33956L99.695 9.25028L99.7307 9.17885L99.7665 9.12528L99.7843 9.05385L99.82 9.00028L99.8557 8.94671L99.8736 8.91099L99.8915 8.89314L99.9093 8.87528H99.8915H99.8736H99.8379H99.82L99.8022 8.85742H99.7665H99.7486L99.6415 8.87528H99.5522L99.4629 8.89314L99.3736 8.91099L99.3022 8.94671L99.2307 8.98242L99.1772 9.00028L99.1057 9.05385L99.0522 9.08957L98.9986 9.14314L98.945 9.19671L98.8915 9.25028L98.8379 9.30385L98.8022 9.37528L98.7486 9.44671L98.695 9.50028L98.82 8.89314H97.8557L97.2129 12.5003Z" stroke="white" stroke-width="0.216" stroke-miterlimit="2.6131"/>
</g>
<defs>
<clipPath id="clip0">
<rect width="65.1948" height="20" fill="white"/>
</clipPath>
<clipPath id="clip1">
<rect width="33.4107" height="20" fill="white" transform="translate(80.1948)"/>
</clipPath>
</defs>
</svg>
