<svg width="66" height="20" viewBox="0 0 66 20" fill="none" xmlns="http://www.w3.org/2000/svg">
<path d="M22.9683 19.7032L26.2707 0.333984H31.5397L28.2373 19.7032H22.9683Z" fill="#0058A0"/>
<path d="M47.3842 0.816327C46.3452 0.408163 44.7126 0 42.6718 0C37.4399 0 33.7664 2.63451 33.7664 6.38219C33.7293 9.16512 36.4009 10.7236 38.4046 11.6512C40.4454 12.616 41.1504 13.2096 41.1504 14.0631C41.1504 15.3618 39.5178 15.9555 37.9964 15.9555C35.8814 15.9555 34.7682 15.6586 33.0243 14.9536L32.2822 14.6197L31.54 18.961C32.7645 19.5176 35.0651 19.9629 37.4399 20C43.0057 20 46.605 17.4026 46.6421 13.3952C46.6792 11.2059 45.2692 9.49907 42.2265 8.12616C40.3712 7.23562 39.258 6.64193 39.258 5.71429C39.258 4.89796 40.2228 4.04453 42.2636 4.04453C44.0076 4.00742 45.2321 4.37848 46.1968 4.78664L46.6792 5.00928L47.3842 0.816327Z" fill="#0058A0"/>
<path d="M60.9277 0.371094H56.8461C55.5845 0.371094 54.6198 0.705046 54.0632 1.96664L46.2339 19.7032H51.7626C51.7626 19.7032 52.6532 17.3284 52.8758 16.8089C53.4695 16.8089 58.8498 16.8089 59.629 16.8089C59.7775 17.4768 60.2598 19.7032 60.2598 19.7032H65.1578L60.9277 0.371094ZM54.4342 12.8386C54.8795 11.7255 56.5493 7.42119 56.5493 7.42119C56.5122 7.45829 56.9945 6.30801 57.2543 5.5659L57.6253 7.23566C57.6253 7.23566 58.6272 11.8739 58.8498 12.8386H54.4342Z" fill="#0058A0"/>
<path d="M18.5529 0.333984L13.3581 13.5436L12.8015 10.872C11.8739 7.79224 8.86833 4.41562 5.52881 2.74586L10.2412 19.7032H15.8442L24.1559 0.333984H18.5529Z" fill="#0058A0"/>
<path d="M8.57143 0.333984H0.0742115L0 0.742148C6.64193 2.3377 11.0204 6.2338 12.8386 10.872L10.9833 1.96664C10.6494 0.742148 9.72171 0.37109 8.57143 0.333984Z" fill="#FAA61A"/>
</svg>
