<svg width="30" height="30" viewBox="0 0 30 30" fill="none" xmlns="http://www.w3.org/2000/svg">
<g filter="url(#filter0_d)">
<path d="M23.37 7.06L22.2225 8.0275C23.4014 9.42395 24.0298 11.2028 23.9898 13.0299C23.9497 14.8569 23.2439 16.6065 22.005 17.95L23.1075 19C24.5953 17.3879 25.443 15.2878 25.4913 13.0946C25.5396 10.9015 24.7853 8.76613 23.37 7.09V7.06Z" fill="white"/>
<path d="M19.1849 10C19.8921 10.8385 20.2686 11.9064 20.2437 13.003C20.2189 14.0996 19.7943 15.1494 19.0499 15.955L20.1524 16.975C21.1446 15.8998 21.7097 14.4991 21.7415 13.0364C21.7732 11.5737 21.2695 10.1498 20.3249 9.0325L19.1849 10Z" fill="white"/>
<path d="M16.5 23.5C16.4008 23.4996 16.3026 23.4795 16.2112 23.4409C16.1198 23.4022 16.037 23.3459 15.9675 23.275L10.2525 17.5H5.25C5.05109 17.5 4.86032 17.421 4.71967 17.2803C4.57902 17.1397 4.5 16.9489 4.5 16.75V9.25001C4.5 9.05109 4.57902 8.86033 4.71967 8.71968C4.86032 8.57902 5.05109 8.50001 5.25 8.50001H10.2525L15.9675 2.72501C16.108 2.58532 16.2981 2.50691 16.4963 2.50691C16.6944 2.50691 16.8845 2.58532 17.025 2.72501C17.1663 2.86348 17.2472 3.05218 17.25 3.25001V22.75C17.25 22.9489 17.171 23.1397 17.0303 23.2803C16.8897 23.421 16.6989 23.5 16.5 23.5ZM6 16H10.56C10.6592 16.0004 10.7574 16.0205 10.8488 16.0591C10.9402 16.0978 11.023 16.1541 11.0925 16.225L15.75 20.9275V5.07251L11.0925 9.77501C11.023 9.84587 10.9402 9.90225 10.8488 9.94087C10.7574 9.97949 10.6592 9.99959 10.56 10H6V16Z" fill="white"/>
</g>
<defs>
<filter id="filter0_d" x="-1" y="-1" width="32" height="32" filterUnits="userSpaceOnUse" color-interpolation-filters="sRGB">
<feFlood flood-opacity="0" result="BackgroundImageFix"/>
<feColorMatrix in="SourceAlpha" type="matrix" values="0 0 0 0 0 0 0 0 0 0 0 0 0 0 0 0 0 0 127 0"/>
<feOffset dy="2"/>
<feGaussianBlur stdDeviation="2"/>
<feColorMatrix type="matrix" values="0 0 0 0 0 0 0 0 0 0 0 0 0 0 0 0 0 0 0.15 0"/>
<feBlend mode="normal" in2="BackgroundImageFix" result="effect1_dropShadow"/>
<feBlend mode="normal" in="SourceGraphic" in2="effect1_dropShadow" result="shape"/>
</filter>
</defs>
</svg>
