<svg width="31" height="30" viewBox="0 0 31 30" fill="none" xmlns="http://www.w3.org/2000/svg">
<g filter="url(#filter0_d)">
<path d="M26.25 10.3075L25.1925 9.25L22.5 11.9425L19.8075 9.25L18.75 10.3075L21.4425 13L18.75 15.6925L19.8075 16.75L22.5 14.0575L25.1925 16.75L26.25 15.6925L23.5575 13L26.25 10.3075Z" fill="white"/>
<path d="M16.5 23.5C16.4008 23.4996 16.3026 23.4795 16.2112 23.4409C16.1198 23.4022 16.037 23.3459 15.9675 23.275L10.2525 17.5H5.25C5.05109 17.5 4.86032 17.421 4.71967 17.2803C4.57902 17.1397 4.5 16.9489 4.5 16.75V9.25001C4.5 9.05109 4.57902 8.86033 4.71967 8.71968C4.86032 8.57902 5.05109 8.50001 5.25 8.50001H10.2525L15.9675 2.72501C16.108 2.58532 16.2981 2.50691 16.4963 2.50691C16.6944 2.50691 16.8845 2.58532 17.025 2.72501C17.1663 2.86348 17.2472 3.05218 17.25 3.25001V22.75C17.25 22.9489 17.171 23.1397 17.0303 23.2803C16.8897 23.421 16.6989 23.5 16.5 23.5ZM6 16H10.5C10.7186 15.9986 10.9299 16.0788 11.0925 16.225L15.75 20.9275V5.07251L11.0925 9.77501C10.9299 9.9212 10.7186 10.0014 10.5 10H6V16Z" fill="white"/>
</g>
<defs>
<filter id="filter0_d" x="-1" y="-1" width="32" height="32" filterUnits="userSpaceOnUse" color-interpolation-filters="sRGB">
<feFlood flood-opacity="0" result="BackgroundImageFix"/>
<feColorMatrix in="SourceAlpha" type="matrix" values="0 0 0 0 0 0 0 0 0 0 0 0 0 0 0 0 0 0 127 0"/>
<feOffset dy="2"/>
<feGaussianBlur stdDeviation="2"/>
<feColorMatrix type="matrix" values="0 0 0 0 0 0 0 0 0 0 0 0 0 0 0 0 0 0 0.15 0"/>
<feBlend mode="normal" in2="BackgroundImageFix" result="effect1_dropShadow"/>
<feBlend mode="normal" in="SourceGraphic" in2="effect1_dropShadow" result="shape"/>
</filter>
</defs>
</svg>
