<svg width="16" height="16" viewBox="0 0 16 16" fill="none" xmlns="http://www.w3.org/2000/svg">
<mask id="path-1-inside-1" fill="white">
<path d="M14 16H2C0.895431 16 0 15.1046 0 14V5.5C0 4.39543 0.895431 3.5 2 3.5H14C15.1046 3.5 16 4.39543 16 5.5V7.5V12.5V14C16 15.1046 15.1046 16 14 16Z"/>
</mask>
<path d="M16 7H12.5V8H16V7ZM10 9.5V10.5H11V9.5H10ZM12.5 13H12.6316V12H12.5V13ZM12.6316 13H16V12H12.6316V13ZM12.5 7C11.1193 7 10 8.11929 10 9.5H11C11 8.67157 11.6716 8 12.5 8V7ZM10 10.5C10 11.8807 11.1193 13 12.5 13V12C11.6716 12 11 11.3284 11 10.5H10ZM14 15H2V17H14V15ZM1 14V5.5H-1V14H1ZM14 2.5H2V4.5H14V2.5ZM15 12.5V14H17V12.5H15ZM15 5.5V7.5H17V5.5H15ZM15 7.5V12.5H17V7.5H15ZM1 5.5C1 4.94772 1.44772 4.5 2 4.5V2.5C0.343146 2.5 -1 3.84315 -1 5.5H1ZM2 15C1.44772 15 1 14.5523 1 14H-1C-1 15.6569 0.343146 17 2 17V15ZM14 17C15.6569 17 17 15.6569 17 14H15C15 14.5523 14.5523 15 14 15V17ZM14 4.5C14.5523 4.5 15 4.94772 15 5.5H17C17 3.84315 15.6569 2.5 14 2.5V4.5Z" fill="#180F45" mask="url(#path-1-inside-1)"/>
<path d="M0.5 5.5V1.5C0.5 0.947715 0.947715 0.5 1.5 0.5H11C11.5523 0.5 12 0.947715 12 1.5V3.85714" stroke="#180F45"/>
</svg>
